<svg width="583" height="293" viewBox="0 0 583 293" fill="none" xmlns="http://www.w3.org/2000/svg">
<path d="M452.579 257.926C452.459 256.006 455.099 256.006 454.979 257.926V258.066C454.979 258.366 455.079 258.466 455.379 258.466H456.559C456.859 258.466 456.979 258.286 456.959 257.946C456.799 255.706 455.479 254.646 453.779 254.646C451.939 254.646 450.579 255.866 450.579 258.446V265.006C450.579 267.586 451.939 268.806 453.779 268.806C455.479 268.806 456.799 267.746 456.959 265.506C456.979 265.166 456.859 264.986 456.559 264.986H455.379C455.079 264.986 454.979 265.086 454.979 265.386V265.526C455.099 267.446 452.459 267.446 452.579 265.526V257.926ZM460.11 259.026C460.07 258.726 459.95 258.726 459.67 258.726H458.47C458.21 258.726 458.07 258.766 458.13 259.066L460.11 268.906C460.29 269.926 460.01 270.426 459.27 270.446C458.97 270.446 458.87 270.546 458.87 270.846V271.926C458.87 272.226 458.97 272.326 459.27 272.326C460.79 272.326 461.81 271.866 462.35 268.966L464.33 259.066C464.37 258.726 464.21 258.726 463.99 258.726H462.79C462.55 258.726 462.39 258.726 462.35 259.026L461.31 265.506C461.29 265.606 461.17 265.606 461.15 265.506L460.11 259.026ZM467.701 262.006C467.701 260.986 468.061 260.486 468.781 260.486C469.501 260.486 469.861 260.986 469.861 262.006V265.446C469.861 266.466 469.501 266.966 468.781 266.966C468.061 266.966 467.701 266.466 467.701 265.446V262.006ZM467.301 268.726C467.601 268.726 467.701 268.626 467.701 268.326V268.066C468.041 268.526 468.541 268.766 469.181 268.806C470.781 268.866 471.861 267.746 471.861 265.406V262.046C471.861 259.706 470.781 258.586 469.181 258.646C468.561 258.686 468.061 258.946 467.701 259.406V255.126C467.701 254.826 467.601 254.726 467.301 254.726H466.101C465.801 254.726 465.701 254.826 465.701 255.126V268.326C465.701 268.626 465.801 268.726 466.101 268.726H467.301ZM477.47 261.886C477.47 262.286 477.47 262.286 477.07 262.286H475.87C475.47 262.286 475.47 262.286 475.47 261.886C475.51 260.946 475.85 260.486 476.47 260.486C477.13 260.486 477.45 260.946 477.47 261.886ZM475.47 264.466C475.47 264.166 475.57 264.066 475.87 264.066H479.05C479.37 264.066 479.47 263.986 479.47 263.666V262.326C479.47 261.066 479.17 260.126 478.59 259.546C478.01 258.946 477.29 258.646 476.47 258.646C475.65 258.646 474.93 258.946 474.35 259.546C473.77 260.126 473.47 261.066 473.47 262.326V265.126C473.47 266.386 473.77 267.326 474.35 267.926C474.93 268.506 475.65 268.806 476.47 268.806C477.41 268.806 478.15 268.486 478.65 267.826C479.17 267.166 479.41 266.486 479.37 265.786C479.35 265.486 479.27 265.386 478.97 265.386H477.83C477.47 265.386 477.47 265.566 477.43 265.906C477.41 266.686 476.95 266.966 476.47 266.966C475.81 266.966 475.47 266.466 475.47 265.446V264.466ZM484.908 260.626C485.208 260.706 485.308 260.546 485.308 260.226V259.126C485.308 258.826 485.208 258.726 484.908 258.726H484.708C484.148 258.746 483.668 258.966 483.268 259.366V259.126C483.268 258.826 483.168 258.726 482.868 258.726H481.668C481.368 258.726 481.268 258.826 481.268 259.126V268.326C481.268 268.626 481.368 268.726 481.668 268.726H482.868C483.168 268.726 483.268 268.626 483.268 268.326V262.566C483.268 261.906 483.288 261.666 483.388 261.206C483.488 260.726 483.788 260.526 484.268 260.526C484.428 260.526 484.648 260.566 484.908 260.626ZM496.604 258.526C496.604 255.946 495.244 254.726 493.404 254.726H491.004C490.704 254.726 490.604 254.826 490.604 255.126V268.326C490.604 268.626 490.704 268.726 491.004 268.726H493.404C495.244 268.726 496.604 267.506 496.604 264.926V264.206C496.604 263.046 496.344 262.126 495.804 261.466C495.744 261.386 495.744 261.306 495.804 261.226C496.344 260.566 496.604 259.666 496.604 258.526ZM492.604 262.686C492.604 262.366 492.624 262.306 492.804 262.286H493.404C494.104 262.286 494.604 262.746 494.604 263.726V265.406C494.604 266.386 494.104 266.846 493.404 266.846H493.004C492.604 266.846 492.604 266.846 492.604 266.446V262.686ZM492.604 257.006C492.604 256.606 492.604 256.606 493.004 256.606H493.404C494.104 256.606 494.604 257.066 494.604 258.046V258.966C494.604 259.866 494.204 260.346 493.404 260.406H493.004C492.604 260.406 492.604 260.406 492.604 259.986V257.006ZM500.296 259.126C500.296 258.826 500.196 258.726 499.896 258.726H498.696C498.396 258.726 498.296 258.826 498.296 259.126V265.406C498.296 267.746 499.376 268.866 500.976 268.806C501.636 268.766 502.136 268.486 502.516 267.946V268.326C502.516 268.626 502.616 268.726 502.916 268.726H504.056C504.356 268.726 504.456 268.626 504.456 268.326V259.126C504.456 258.826 504.356 258.726 504.056 258.726H502.856C502.556 258.726 502.456 258.826 502.456 259.126V265.446C502.456 266.466 502.096 266.966 501.376 266.966C500.656 266.966 500.296 266.466 500.296 265.446V259.126ZM508.063 268.726C508.363 268.726 508.463 268.626 508.463 268.326V259.126C508.463 258.826 508.363 258.726 508.063 258.726H506.863C506.563 258.726 506.463 258.826 506.463 259.126V268.326C506.463 268.626 506.563 268.726 506.863 268.726H508.063ZM506.343 256.706C506.343 257.346 506.823 257.826 507.463 257.826C508.083 257.826 508.583 257.346 508.583 256.706C508.583 256.086 508.083 255.586 507.463 255.586C506.823 255.586 506.343 256.086 506.343 256.706ZM510.367 264.726C510.367 266.226 510.587 267.286 511.047 267.866C511.507 268.446 512.307 268.726 513.447 268.726C513.747 268.726 513.847 268.626 513.847 268.326V267.246C513.847 266.946 513.747 266.866 513.447 266.846C512.787 266.786 512.547 266.586 512.427 266.006C512.367 265.586 512.367 265.406 512.367 264.766V255.126C512.367 254.826 512.267 254.726 511.967 254.726H510.767C510.467 254.726 510.367 254.826 510.367 255.126V264.726ZM519.212 265.446C519.212 266.466 518.852 266.966 518.132 266.966C517.412 266.966 517.052 266.466 517.052 265.446V262.006C517.052 260.986 517.412 260.486 518.132 260.486C518.852 260.486 519.212 260.986 519.212 262.006V265.446ZM520.812 268.726C521.112 268.726 521.212 268.626 521.212 268.326V255.126C521.212 254.826 521.112 254.726 520.812 254.726H519.612C519.312 254.726 519.212 254.826 519.212 255.126V259.406C518.852 258.946 518.352 258.686 517.732 258.646C516.132 258.586 515.052 259.706 515.052 262.046V265.406C515.052 267.746 516.132 268.866 517.732 268.806C518.372 268.766 518.872 268.526 519.212 268.066V268.326C519.212 268.626 519.312 268.726 519.612 268.726H520.812Z" fill="#E30B17"/>
<rect x="436.5" y="188.149" width="99" height="40" fill="white" stroke="#1F3554"/>
<path d="M467.048 204.961C466.904 204.841 466.904 204.721 467.048 204.625L469.328 202.945C469.496 202.825 469.592 202.657 469.592 202.465V200.905C469.592 200.689 469.4 200.593 469.208 200.713L464.984 203.785C464.888 203.857 464.84 204.001 464.84 204.169V205.417C464.84 205.585 464.888 205.729 464.984 205.801L469.208 208.873C469.4 208.993 469.592 208.897 469.592 208.681V207.121C469.592 206.929 469.496 206.761 469.328 206.641L467.048 204.961ZM475.731 201.145C475.563 201.505 475.707 201.649 475.995 201.649H477.507C477.675 201.649 477.747 201.721 477.747 201.889V213.169C477.747 213.529 477.867 213.649 478.227 213.649H479.667C480.027 213.649 480.147 213.529 480.147 213.169V197.329C480.147 196.969 480.027 196.849 479.667 196.849H478.179C477.987 196.849 477.843 196.921 477.771 197.089L475.731 201.145ZM489.98 201.313C489.98 198.217 488.348 196.753 486.14 196.753C483.932 196.753 482.3 198.217 482.3 201.313V209.185C482.3 212.281 483.932 213.745 486.14 213.745C488.348 213.745 489.98 212.281 489.98 209.185V201.313ZM487.58 209.809C487.724 212.113 484.556 212.113 484.7 209.809V200.689C484.556 198.385 487.724 198.385 487.58 200.689V209.809ZM496.583 213.169C496.583 213.529 496.703 213.649 497.063 213.649H498.503C498.863 213.649 498.983 213.529 498.983 213.169V204.385C498.983 203.905 498.983 203.905 499.463 203.905H501.263C501.623 203.905 501.743 203.785 501.743 203.425V202.129C501.743 201.769 501.623 201.649 501.263 201.649H497.063C496.703 201.649 496.583 201.769 496.583 202.129V213.169ZM505.409 205.585C505.409 204.361 505.841 203.761 506.705 203.761C507.569 203.761 508.001 204.361 508.001 205.585V209.713C508.001 210.937 507.569 211.537 506.705 211.537C505.841 211.537 505.409 210.937 505.409 209.713V205.585ZM503.489 201.649C503.177 201.649 503.009 201.817 503.009 202.129V217.489C503.009 217.849 503.129 217.969 503.489 217.969H504.929C505.289 217.969 505.409 217.849 505.409 217.489V212.833C505.841 213.385 506.441 213.697 507.185 213.745C509.105 213.817 510.401 212.473 510.401 209.665V205.633C510.401 202.825 509.105 201.481 507.185 201.553C506.417 201.601 505.817 201.889 505.409 202.441V202.129C505.409 201.769 505.289 201.649 504.929 201.649H503.489Z" fill="#151524"/>
<path fill-rule="evenodd" clip-rule="evenodd" d="M444.247 152.421L447.706 141.842L458.643 140.339L457.773 142.962L449.575 144.113L447.835 149.403L456.043 148.272L455.173 150.917L444.247 152.421ZM456.322 150.746L457.182 148.102L465.4 146.972L465.83 145.638L457.622 146.779L459.781 140.178L462.532 139.784L461.221 143.761L466.7 142.993L468 139.037L470.729 138.654L467.27 149.221L456.322 150.746ZM476.939 145.361L473.318 142.087L478.786 141.33L479.216 139.997L473.758 140.765L472.007 146.043L476.939 145.361ZM468.409 149.062L471.879 138.494L482.826 136.979L480.645 143.602L479.012 143.826L480.227 144.913L479.356 147.558L468.409 149.062ZM480.506 147.398L483.965 136.819L494.408 135.411L493.538 138.035L485.834 139.091L485.405 140.402L493.098 139.368L492.238 142.012L484.535 143.047L484.095 144.38L491.808 143.324L490.949 145.969L480.506 147.398ZM492.088 145.82L495.548 135.241L506.496 133.716L504.325 140.338L502.692 140.562L503.885 141.65L503.015 144.294L496.987 138.835L502.466 138.067L502.885 136.756L497.417 137.502L494.817 145.436L492.088 145.82Z" fill="black"/>
<path fill-rule="evenodd" clip-rule="evenodd" d="M474.649 157.659L471.028 154.385L476.486 153.628L476.927 152.295L471.458 153.052L469.728 158.341L474.649 157.659ZM506.257 155.814L509.727 145.236L517.666 144.137L519.256 149.021L515.904 154.481L506.257 155.814ZM514.282 152.231L516.248 149.373L515.432 146.974L511.607 147.496L509.877 152.774L514.282 152.231ZM466.129 161.359L469.599 150.78L480.526 149.277L478.366 155.889L476.723 156.123L480.343 159.397L466.129 161.359ZM478.205 159.685L481.675 149.117L484.415 148.744L481.815 156.667L487.295 155.91L489.894 147.976L492.623 147.603L489.153 158.181L478.205 159.685ZM490.303 158.021L493.762 147.443L496.502 147.07L493.032 157.648L490.303 158.021ZM494.192 157.488L497.651 146.91L500.38 146.515L497.78 154.449L505.988 153.318L505.118 155.963L494.192 157.488Z" fill="black"/>
<path fill-rule="evenodd" clip-rule="evenodd" d="M527.603 139.853L530.772 141.676C530.89 141.719 530.944 141.805 530.88 141.964L530.02 144.545C529.977 144.726 529.88 144.769 529.719 144.865L526.55 146.688C526.399 146.752 526.217 146.752 526.12 146.667L522.95 144.854C522.833 144.801 522.8 144.726 522.833 144.609L523.681 141.996C523.713 141.847 523.832 141.772 523.982 141.687L527.183 139.842C527.334 139.778 527.506 139.789 527.603 139.853ZM512.218 157.597L511.907 158.525C511.627 159.42 510.746 159.997 509.565 160.636L483.802 175.395C482.695 175.811 481.491 175.907 480.707 175.523L461.755 164.593L512.218 157.597ZM460.595 137.816L460.907 136.889C461.186 135.993 462.067 135.417 463.249 134.777L489.012 120.018C490.129 119.602 491.322 119.506 492.106 119.89L510.564 130.544L510.445 130.906L460.595 137.816ZM510.251 130.373L510.563 130.533L510.842 129.669C510.939 129.317 511.186 129.125 511.53 128.923L519.212 124.529C519.556 124.369 519.974 124.401 520.2 124.551L527.774 128.89C528.032 129.018 528.151 129.189 528.032 129.595L525.991 135.758C525.873 136.163 525.626 136.292 525.239 136.536L517.675 140.844C517.331 141.004 516.902 141.004 516.654 140.834L510.563 137.347L510.241 138.36C510.144 138.659 510.241 138.84 510.499 138.968L516.515 142.423L505.782 143.916L510.251 130.373ZM462.561 165.041L457.952 162.45L459.058 159.048C459.177 158.707 459.08 158.568 458.854 158.461L456.91 157.352C456.942 157.438 456.942 157.555 456.888 157.694L455.223 162.737C455.126 163.079 454.933 163.196 454.6 163.388L448.412 166.928C448.111 167.056 447.788 167.056 447.574 166.907L441.364 163.356C441.149 163.238 441.074 163.1 441.149 162.854L442.825 157.757C442.89 157.47 443.083 157.31 443.373 157.15L449.669 153.545C449.948 153.418 450.302 153.449 450.485 153.567L454.632 155.945L455.546 153.108L467.03 151.519L462.561 165.041Z" fill="#E30613"/>
<path d="M324.875 268.249C324.875 268.549 324.975 268.649 325.275 268.649H326.155C326.455 268.649 326.555 268.549 326.555 268.249V256.609C326.555 256.209 326.555 256.209 326.955 256.209H329.175C329.475 256.209 329.575 256.109 329.575 255.809V255.049C329.575 254.749 329.475 254.649 329.175 254.649H325.275C324.975 254.649 324.875 254.749 324.875 255.049V268.249ZM336.176 268.649C336.496 268.649 336.636 268.509 336.576 268.249C336.476 267.869 336.436 267.549 336.416 267.269V261.649C336.416 260.729 336.136 259.989 335.556 259.429C334.976 258.849 334.296 258.569 333.516 258.569C332.696 258.569 332.016 258.869 331.456 259.469C330.896 260.049 330.636 260.769 330.656 261.589C330.676 261.889 330.756 261.989 331.056 261.989H331.816C332.136 261.989 332.216 261.889 332.216 261.569C332.216 260.689 332.796 260.129 333.496 260.129C334.236 260.129 334.716 260.709 334.696 261.329C334.656 262.549 333.096 262.689 331.896 263.189C331.076 263.509 330.416 264.349 330.416 265.709V266.069C330.416 267.769 331.456 268.729 332.956 268.729C333.696 268.729 334.336 268.489 334.876 268.009C334.936 268.549 335.016 268.649 335.316 268.649H336.176ZM333.416 267.169C332.236 267.149 332.056 266.249 332.096 265.869C332.096 265.289 332.136 264.969 332.516 264.649C332.716 264.489 332.876 264.369 332.996 264.309C333.116 264.249 333.376 264.129 333.776 263.949C334.196 263.769 334.516 263.629 334.736 263.529V265.529C334.736 266.589 334.296 267.129 333.416 267.169ZM341.073 264.029C341.073 264.329 341.173 264.429 341.473 264.429C342.053 264.429 342.473 265.209 342.373 266.009C342.293 266.669 341.713 267.169 341.093 267.169C340.393 267.169 339.812 266.649 339.793 265.829C339.773 265.449 339.713 265.309 339.393 265.309H338.593C338.293 265.309 338.213 265.409 338.193 265.709C338.153 266.409 338.393 267.089 338.893 267.749C339.393 268.409 340.133 268.729 341.093 268.729C342.013 268.729 342.733 268.409 343.253 267.789C343.773 267.149 344.033 266.449 344.033 265.709C344.033 264.929 343.773 264.249 343.233 263.649C343.773 263.049 344.033 262.369 344.033 261.589C344.033 260.849 343.773 260.149 343.253 259.529C342.733 258.889 342.013 258.569 341.093 258.569C340.133 258.569 339.393 258.909 338.893 259.569C338.393 260.229 338.153 260.889 338.193 261.589C338.213 261.889 338.293 261.989 338.593 261.989H339.393C339.713 261.989 339.773 261.849 339.793 261.469C339.812 260.649 340.393 260.129 341.093 260.129C341.713 260.129 342.293 260.629 342.373 261.289C342.473 262.089 342.053 262.869 341.473 262.869C341.173 262.869 341.073 262.969 341.073 263.269V264.029ZM346.753 268.649C346.933 268.649 347.073 268.569 347.153 268.409L350.033 262.929C350.093 262.829 350.193 262.849 350.193 262.949V268.249C350.193 268.549 350.293 268.649 350.593 268.649H351.473C351.773 268.649 351.873 268.549 351.873 268.249V259.049C351.873 258.749 351.773 258.649 351.473 258.649H350.893C350.653 258.649 350.633 258.669 350.493 258.909L347.613 264.349C347.553 264.449 347.453 264.469 347.453 264.329V259.049C347.453 258.749 347.353 258.649 347.053 258.649H346.173C345.873 258.649 345.773 258.749 345.773 259.049V268.249C345.773 268.549 345.873 268.649 346.173 268.649H346.753ZM355.559 261.649C355.499 259.589 358.099 259.589 358.039 261.649V265.649C358.099 267.709 355.499 267.709 355.559 265.649V261.649ZM354.279 258.649C353.979 258.649 353.879 258.749 353.879 259.049V271.849C353.879 272.149 353.979 272.249 354.279 272.249H355.159C355.459 272.249 355.559 272.149 355.559 271.849V267.969C355.919 268.429 356.419 268.689 357.039 268.729C358.639 268.789 359.719 267.669 359.719 265.329V261.969C359.719 259.629 358.639 258.509 357.039 258.569C356.399 258.609 355.899 258.849 355.559 259.309V259.049C355.559 258.749 355.459 258.649 355.159 258.649H354.279ZM367.316 262.249C367.316 260.989 367.016 260.049 366.436 259.469C365.856 258.869 365.136 258.569 364.316 258.569C363.496 258.569 362.776 258.869 362.196 259.469C361.616 260.049 361.316 260.989 361.316 262.249V265.049C361.316 266.309 361.616 267.249 362.196 267.849C362.776 268.429 363.496 268.729 364.316 268.729C365.136 268.729 365.856 268.429 366.436 267.849C367.016 267.249 367.316 266.309 367.316 265.049V262.249ZM365.636 265.529C365.676 267.749 362.956 267.749 362.996 265.529V261.769C362.956 259.549 365.676 259.549 365.636 261.769V265.529ZM371.853 268.649C373.713 268.649 374.733 267.369 374.733 265.629C374.733 264.829 374.533 264.169 374.133 263.649C374.533 263.129 374.733 262.469 374.733 261.669C374.733 259.929 373.713 258.649 371.853 258.649H369.513C369.213 258.649 369.113 258.749 369.113 259.049V268.249C369.113 268.549 369.213 268.649 369.513 268.649H371.853ZM370.793 264.389C370.793 264.189 370.893 264.189 371.193 264.189H371.573C372.553 264.189 373.053 264.669 373.053 265.629C373.053 266.609 372.553 267.089 371.573 267.089H371.193C370.793 267.089 370.793 267.089 370.793 266.689V264.389ZM371.573 260.209C372.553 260.209 373.053 260.689 373.053 261.669C373.053 262.629 372.553 263.109 371.573 263.109H371.193C370.793 263.109 370.793 263.109 370.793 262.709V260.609C370.793 260.209 370.793 260.209 371.193 260.209H371.573ZM376.535 268.249C376.535 268.549 376.635 268.649 376.935 268.649H377.815C378.115 268.649 378.215 268.549 378.215 268.249V264.609C378.215 264.469 378.335 264.469 378.395 264.569L380.455 268.349C380.615 268.649 380.635 268.649 380.895 268.649H381.935C382.115 268.649 382.255 268.529 382.115 268.229L379.615 263.649L382.115 259.069C382.255 258.769 382.115 258.649 381.935 258.649H380.895C380.635 258.649 380.615 258.649 380.455 258.949L378.395 262.729C378.335 262.829 378.215 262.829 378.215 262.689V259.049C378.215 258.749 378.115 258.649 377.815 258.649H376.935C376.635 258.649 376.535 258.749 376.535 259.049V268.249ZM388.988 268.649C389.308 268.649 389.448 268.509 389.388 268.249C389.288 267.869 389.248 267.549 389.228 267.269V261.649C389.228 260.729 388.948 259.989 388.368 259.429C387.788 258.849 387.108 258.569 386.328 258.569C385.508 258.569 384.828 258.869 384.268 259.469C383.708 260.049 383.448 260.769 383.468 261.589C383.488 261.889 383.568 261.989 383.868 261.989H384.628C384.948 261.989 385.028 261.889 385.028 261.569C385.028 260.689 385.608 260.129 386.308 260.129C387.048 260.129 387.528 260.709 387.508 261.329C387.468 262.549 385.908 262.689 384.708 263.189C383.888 263.509 383.228 264.349 383.228 265.709V266.069C383.228 267.769 384.268 268.729 385.768 268.729C386.508 268.729 387.148 268.489 387.688 268.009C387.748 268.549 387.828 268.649 388.128 268.649H388.988ZM386.228 267.169C385.048 267.149 384.868 266.249 384.908 265.869C384.908 265.289 384.948 264.969 385.328 264.649C385.528 264.489 385.688 264.369 385.808 264.309C385.928 264.249 386.188 264.129 386.588 263.949C387.008 263.769 387.328 263.629 387.548 263.529V265.529C387.548 266.589 387.108 267.129 386.228 267.169Z" fill="#151524"/>
<rect x="307.5" y="162.149" width="99" height="66" fill="#C2F0FF" stroke="#1F3554"/>
<path d="M340.231 175.145C340.063 175.505 340.207 175.649 340.495 175.649H342.007C342.175 175.649 342.247 175.721 342.247 175.889V187.169C342.247 187.529 342.367 187.649 342.727 187.649H344.167C344.527 187.649 344.647 187.529 344.647 187.169V171.329C344.647 170.969 344.527 170.849 344.167 170.849H342.679C342.487 170.849 342.343 170.921 342.271 171.089L340.231 175.145ZM354.481 175.313C354.481 172.217 352.849 170.753 350.641 170.753C348.433 170.753 346.801 172.217 346.801 175.313V183.185C346.801 186.281 348.433 187.745 350.641 187.745C352.849 187.745 354.481 186.281 354.481 183.185V175.313ZM352.081 183.809C352.225 186.113 349.057 186.113 349.201 183.809V174.689C349.057 172.385 352.225 172.385 352.081 174.689V183.809ZM361.084 187.169C361.084 187.529 361.204 187.649 361.564 187.649H363.004C363.364 187.649 363.484 187.529 363.484 187.169V178.385C363.484 177.905 363.484 177.905 363.964 177.905H365.764C366.124 177.905 366.244 177.785 366.244 177.425V176.129C366.244 175.769 366.124 175.649 365.764 175.649H361.564C361.204 175.649 361.084 175.769 361.084 176.129V187.169ZM369.91 179.585C369.91 178.361 370.342 177.761 371.206 177.761C372.07 177.761 372.502 178.361 372.502 179.585V183.713C372.502 184.937 372.07 185.537 371.206 185.537C370.342 185.537 369.91 184.937 369.91 183.713V179.585ZM367.99 175.649C367.678 175.649 367.51 175.817 367.51 176.129V191.489C367.51 191.849 367.63 191.969 367.99 191.969H369.43C369.79 191.969 369.91 191.849 369.91 191.489V186.833C370.342 187.385 370.942 187.697 371.686 187.745C373.606 187.817 374.902 186.473 374.902 183.665V179.633C374.902 176.825 373.606 175.481 371.686 175.553C370.918 175.601 370.318 175.889 369.91 176.441V176.129C369.91 175.769 369.79 175.649 369.43 175.649H367.99Z" fill="#151524"/>
<path d="M362.932 115.488L369.478 137.257L366.152 152.914L369.478 161.648H349.521L352.848 152.914L349.521 137.257L356.067 115.488" stroke="#151524" stroke-linecap="round" stroke-linejoin="round"/>
<path d="M352.856 126.17H366.143" stroke="#151524" stroke-linecap="round" stroke-linejoin="round"/>
<path fill-rule="evenodd" clip-rule="evenodd" d="M365.043 116.192L361.717 115.083L359.5 116.192L357.282 115.083L353.956 116.192V110.648H365.043V116.192Z" stroke="#151524" stroke-linecap="round" stroke-linejoin="round"/>
<path fill-rule="evenodd" clip-rule="evenodd" d="M357.282 133.931C357.125 133.931 356.965 133.991 356.846 134.111L355.245 135.712C355.005 135.951 355.005 136.346 355.245 136.585L356.846 138.186C356.965 138.306 357.125 138.366 357.282 138.366C357.44 138.366 357.599 138.306 357.719 138.186L359.32 136.585C359.56 136.346 359.56 135.951 359.32 135.712L357.719 134.111C357.599 133.991 357.44 133.931 357.282 133.931ZM358.413 135.681H358.424H358.413Z" fill="#151524"/>
<path fill-rule="evenodd" clip-rule="evenodd" d="M363.935 138.366C363.777 138.366 363.618 138.426 363.498 138.546L361.897 140.147C361.657 140.386 361.657 140.781 361.897 141.02L363.498 142.621C363.618 142.741 363.777 142.801 363.935 142.801C364.092 142.801 364.252 142.741 364.372 142.621L365.972 141.02C366.212 140.781 366.212 140.386 365.972 140.147L364.372 138.546C364.252 138.426 364.092 138.366 363.935 138.366ZM365.065 140.115H365.076H365.065Z" fill="#151524"/>
<path fill-rule="evenodd" clip-rule="evenodd" d="M357.282 145.018C357.125 145.018 356.965 145.078 356.846 145.198L355.245 146.799C355.005 147.038 355.005 147.433 355.245 147.673L356.846 149.274C356.965 149.393 357.125 149.453 357.282 149.453C357.44 149.453 357.599 149.393 357.719 149.274L359.32 147.673C359.56 147.433 359.56 147.038 359.32 146.799L357.719 145.198C357.599 145.078 357.44 145.018 357.282 145.018ZM358.413 146.768H358.424H358.413Z" fill="#151524"/>
<path d="M205.395 258.369C205.395 255.789 204.035 254.569 202.195 254.569C200.355 254.569 198.995 255.789 198.995 258.369V264.929C198.995 267.509 200.355 268.729 202.195 268.729C204.035 268.729 205.395 267.509 205.395 264.929V258.369ZM200.675 258.289C200.675 256.849 201.175 256.129 202.195 256.129C203.215 256.129 203.715 256.849 203.715 258.289V265.009C203.715 266.449 203.215 267.169 202.195 267.169C201.175 267.169 200.675 266.449 200.675 265.009V258.289ZM208.683 259.129C208.683 258.029 209.043 257.649 210.243 257.549C211.523 257.449 212.383 256.829 212.523 255.049C212.543 254.789 212.403 254.649 212.123 254.649H211.463C211.163 254.649 211.123 254.729 211.063 255.049C210.983 255.749 210.643 256.049 210.383 256.109C210.263 256.129 210.043 256.169 209.723 256.189C207.903 256.329 207.003 257.429 207.003 259.449V265.049C207.003 266.309 207.303 267.249 207.883 267.849C208.463 268.429 209.183 268.729 210.003 268.729C210.823 268.729 211.543 268.429 212.123 267.849C212.703 267.249 213.003 266.309 213.003 265.049V261.969C213.003 259.709 211.943 258.509 210.423 258.569C209.763 258.589 209.183 258.849 208.683 259.349V259.129ZM211.323 265.529C211.363 267.749 208.643 267.749 208.683 265.529V261.769C208.643 259.549 211.363 259.549 211.323 261.769V265.529ZM222.761 268.649C222.961 268.649 223.161 268.649 223.161 268.249V259.049C223.161 258.749 223.061 258.649 222.761 258.649H221.881C221.581 258.649 221.481 258.749 221.481 259.049V268.249C221.481 268.649 221.681 268.649 221.881 268.649H222.761ZM216.481 259.049C216.481 258.749 216.381 258.649 216.081 258.649H215.201C214.901 258.649 214.801 258.749 214.801 259.049V268.249C214.801 268.549 214.901 268.649 215.201 268.649H217.541C219.401 268.649 220.421 267.229 220.421 265.469C220.421 263.609 219.281 262.309 217.541 262.309H216.861C216.481 262.309 216.481 262.309 216.481 261.969V259.049ZM216.881 267.089C216.481 267.089 216.481 267.089 216.481 266.689V264.269C216.481 263.869 216.481 263.869 216.881 263.869H217.261C218.241 263.869 218.741 264.409 218.741 265.469C218.741 266.549 218.241 267.089 217.261 267.089H216.881ZM230.552 259.049C230.552 258.749 230.452 258.649 230.152 258.649H229.272C228.972 258.649 228.872 258.749 228.872 259.049V263.449C228.872 263.869 228.872 263.869 228.472 263.869H227.952C226.932 263.869 226.432 263.149 226.432 261.709V259.049C226.432 258.749 226.332 258.649 226.032 258.649H225.152C224.852 258.649 224.752 258.749 224.752 259.049V261.629C224.752 264.209 226.112 265.429 227.952 265.429H228.472C228.872 265.429 228.872 265.429 228.872 265.829V268.249C228.872 268.509 229.012 268.649 229.272 268.649H230.152C230.472 268.649 230.552 268.549 230.552 268.249V259.049ZM237.955 268.649C238.255 268.649 238.355 268.549 238.355 268.249V259.049C238.355 258.749 238.255 258.649 237.955 258.649H237.075C236.775 258.649 236.675 258.749 236.675 259.049V262.349C236.675 262.749 236.675 262.749 236.275 262.749H234.635C234.235 262.749 234.235 262.749 234.235 262.349V259.049C234.235 258.749 234.135 258.649 233.835 258.649H232.955C232.655 258.649 232.555 258.749 232.555 259.049V268.249C232.555 268.549 232.655 268.649 232.955 268.649H233.835C234.135 268.649 234.235 268.549 234.235 268.249V264.709C234.235 264.309 234.235 264.309 234.635 264.309H236.275C236.675 264.309 236.675 264.309 236.675 264.709V268.249C236.675 268.549 236.775 268.649 237.075 268.649H237.955ZM248.308 268.649C248.508 268.649 248.708 268.649 248.708 268.249V259.049C248.708 258.749 248.608 258.649 248.308 258.649H247.428C247.128 258.649 247.028 258.749 247.028 259.049V268.249C247.028 268.649 247.228 268.649 247.428 268.649H248.308ZM242.028 259.049C242.028 258.749 241.928 258.649 241.628 258.649H240.748C240.448 258.649 240.348 258.749 240.348 259.049V268.249C240.348 268.549 240.448 268.649 240.748 268.649H243.088C244.948 268.649 245.968 267.229 245.968 265.469C245.968 263.609 244.828 262.309 243.088 262.309H242.408C242.028 262.309 242.028 262.309 242.028 261.969V259.049ZM242.428 267.089C242.028 267.089 242.028 267.089 242.028 266.689V264.269C242.028 263.869 242.028 263.869 242.428 263.869H242.808C243.788 263.869 244.288 264.409 244.288 265.469C244.288 266.549 243.788 267.089 242.808 267.089H242.428ZM251.679 268.649C251.859 268.649 251.999 268.569 252.079 268.409L254.959 262.929C255.019 262.829 255.119 262.849 255.119 262.949V268.249C255.119 268.549 255.219 268.649 255.519 268.649H256.399C256.699 268.649 256.799 268.549 256.799 268.249V259.049C256.799 258.749 256.699 258.649 256.399 258.649H255.819C255.579 258.649 255.559 258.669 255.419 258.909L252.539 264.349C252.479 264.449 252.379 264.469 252.379 264.329V259.049C252.379 258.749 252.279 258.649 251.979 258.649H251.099C250.799 258.649 250.699 258.749 250.699 259.049V268.249C250.699 268.549 250.799 268.649 251.099 268.649H251.679ZM251.599 255.449C251.619 258.469 256.139 258.469 256.159 255.449C256.199 255.049 256.119 255.049 255.779 255.049H255.399C255.079 255.049 255.019 255.069 254.999 255.389C254.919 256.189 254.539 256.589 253.879 256.589C253.219 256.589 252.839 256.189 252.759 255.389C252.739 255.069 252.679 255.049 252.359 255.049H251.979C251.599 255.049 251.579 255.069 251.599 255.449ZM200.776 282.469C200.776 282.869 200.776 282.869 200.376 282.869H199.676C199.376 282.869 199.276 282.969 199.276 283.269V284.029C199.276 284.329 199.376 284.429 199.676 284.429H200.376C200.776 284.429 200.776 284.429 200.776 284.829V285.589C200.776 286.609 200.236 287.169 199.456 287.169C198.736 287.169 198.176 286.649 198.156 285.829C198.136 285.449 198.076 285.309 197.756 285.309H196.956C196.656 285.309 196.576 285.409 196.556 285.709C196.516 286.409 196.756 287.089 197.256 287.749C197.756 288.409 198.496 288.729 199.456 288.729C200.276 288.729 200.996 288.429 201.576 287.849C202.156 287.249 202.456 286.309 202.456 285.049V282.249C202.456 280.989 202.156 280.049 201.576 279.469C200.996 278.869 200.276 278.569 199.456 278.569C198.496 278.569 197.756 278.909 197.256 279.569C196.756 280.229 196.516 280.889 196.556 281.589C196.576 281.889 196.656 281.989 196.956 281.989H197.756C198.076 281.989 198.136 281.849 198.156 281.469C198.176 280.649 198.736 280.129 199.456 280.129C200.236 280.129 200.776 280.689 200.776 281.709V282.469ZM209.595 288.649C209.895 288.649 209.995 288.549 209.995 288.249V279.049C209.995 278.749 209.895 278.649 209.595 278.649H208.715C208.415 278.649 208.315 278.749 208.315 279.049V282.349C208.315 282.749 208.315 282.749 207.915 282.749H206.275C205.875 282.749 205.875 282.749 205.875 282.349V279.049C205.875 278.749 205.775 278.649 205.475 278.649H204.595C204.295 278.649 204.195 278.749 204.195 279.049V288.249C204.195 288.549 204.295 288.649 204.595 288.649H205.475C205.775 288.649 205.875 288.549 205.875 288.249V284.709C205.875 284.309 205.875 284.309 206.275 284.309H207.915C208.315 284.309 208.315 284.309 208.315 284.709V288.249C208.315 288.549 208.415 288.649 208.715 288.649H209.595ZM211.788 285.049C211.788 286.309 212.088 287.249 212.668 287.849C213.248 288.429 213.968 288.729 214.788 288.729C215.748 288.729 216.488 288.409 216.988 287.749C217.488 287.089 217.728 286.409 217.688 285.709C217.668 285.409 217.588 285.309 217.288 285.309H216.488C216.168 285.309 216.108 285.449 216.088 285.829C216.068 286.649 215.508 287.169 214.788 287.169C214.008 287.169 213.468 286.609 213.468 285.589V284.389C213.468 284.089 213.568 283.989 213.868 283.989H217.368C217.688 283.989 217.788 283.909 217.788 283.589V282.249C217.788 280.989 217.488 280.049 216.908 279.469C216.328 278.869 215.608 278.569 214.788 278.569C213.968 278.569 213.248 278.869 212.668 279.469C212.088 280.049 211.788 280.989 211.788 282.249V285.049ZM216.108 282.109C216.108 282.409 216.008 282.509 215.708 282.509H213.868C213.568 282.509 213.468 282.409 213.468 282.109V281.709C213.308 279.609 216.268 279.609 216.108 281.709V282.109ZM221.266 281.649C221.206 279.589 223.806 279.589 223.746 281.649V285.649C223.806 287.709 221.206 287.709 221.266 285.649V281.649ZM219.986 278.649C219.686 278.649 219.586 278.749 219.586 279.049V291.849C219.586 292.149 219.686 292.249 219.986 292.249H220.866C221.166 292.249 221.266 292.149 221.266 291.849V287.969C221.626 288.429 222.126 288.689 222.746 288.729C224.346 288.789 225.426 287.669 225.426 285.329V281.969C225.426 279.629 224.346 278.509 222.746 278.569C222.106 278.609 221.606 278.849 221.266 279.309V279.049C221.266 278.749 221.166 278.649 220.866 278.649H219.986ZM227.223 288.249C227.223 288.549 227.323 288.649 227.623 288.649H228.503C228.803 288.649 228.903 288.549 228.903 288.249V280.609C228.903 280.209 228.903 280.209 229.303 280.209H230.963C231.263 280.209 231.363 280.109 231.363 279.809V279.049C231.363 278.749 231.263 278.649 230.963 278.649H227.623C227.323 278.649 227.223 278.749 227.223 279.049V288.249ZM232.277 285.049C232.277 286.309 232.577 287.249 233.157 287.849C233.737 288.429 234.457 288.729 235.277 288.729C236.237 288.729 236.977 288.409 237.477 287.749C237.977 287.089 238.217 286.409 238.177 285.709C238.157 285.409 238.077 285.309 237.777 285.309H236.977C236.657 285.309 236.597 285.449 236.577 285.829C236.557 286.649 235.997 287.169 235.277 287.169C234.497 287.169 233.957 286.609 233.957 285.589V284.389C233.957 284.089 234.057 283.989 234.357 283.989H237.857C238.177 283.989 238.277 283.909 238.277 283.589V282.249C238.277 280.989 237.977 280.049 237.397 279.469C236.817 278.869 236.097 278.569 235.277 278.569C234.457 278.569 233.737 278.869 233.157 279.469C232.577 280.049 232.277 280.989 232.277 282.249V285.049ZM236.597 282.109C236.597 282.409 236.497 282.509 236.197 282.509H234.357C234.057 282.509 233.957 282.409 233.957 282.109V281.709C233.797 279.609 236.757 279.609 236.597 281.709V282.109ZM239.374 279.809C239.374 280.109 239.474 280.209 239.774 280.209H240.954C241.334 280.209 241.334 280.209 241.334 280.609V288.249C241.334 288.549 241.434 288.649 241.734 288.649H242.614C242.914 288.649 243.014 288.549 243.014 288.249V280.609C243.014 280.209 243.014 280.209 243.414 280.209H244.574C244.874 280.209 244.974 280.109 244.974 279.809V279.049C244.974 278.749 244.874 278.649 244.574 278.649H239.774C239.474 278.649 239.374 278.749 239.374 279.049V279.809ZM247.246 288.649C247.426 288.649 247.566 288.569 247.646 288.409L250.526 282.929C250.586 282.829 250.686 282.849 250.686 282.949V288.249C250.686 288.549 250.786 288.649 251.086 288.649H251.966C252.266 288.649 252.366 288.549 252.366 288.249V279.049C252.366 278.749 252.266 278.649 251.966 278.649H251.386C251.146 278.649 251.126 278.669 250.986 278.909L248.106 284.349C248.046 284.449 247.946 284.469 247.946 284.329V279.049C247.946 278.749 247.846 278.649 247.546 278.649H246.666C246.366 278.649 246.266 278.749 246.266 279.049V288.249C246.266 288.549 246.366 288.649 246.666 288.649H247.246ZM254.371 288.249C254.371 288.549 254.471 288.649 254.771 288.649H255.651C255.951 288.649 256.051 288.549 256.051 288.249V284.609C256.051 284.469 256.171 284.469 256.231 284.569L258.291 288.349C258.451 288.649 258.471 288.649 258.731 288.649H259.771C259.951 288.649 260.091 288.529 259.951 288.229L257.451 283.649L259.951 279.069C260.091 278.769 259.951 278.649 259.771 278.649H258.731C258.471 278.649 258.451 278.649 258.291 278.949L256.231 282.729C256.171 282.829 256.051 282.829 256.051 282.689V279.049C256.051 278.749 255.951 278.649 255.651 278.649H254.771C254.471 278.649 254.371 278.749 254.371 279.049V288.249Z" fill="#151524"/>
<rect x="178.5" y="150.149" width="99" height="78" fill="#C2F0FF" stroke="#1F3554"/>
<path d="M211.104 163.145C210.936 163.505 211.08 163.649 211.368 163.649H212.88C213.048 163.649 213.12 163.721 213.12 163.889V175.169C213.12 175.529 213.24 175.649 213.6 175.649H215.04C215.4 175.649 215.52 175.529 215.52 175.169V159.329C215.52 158.969 215.4 158.849 215.04 158.849H213.552C213.36 158.849 213.216 158.921 213.144 159.089L211.104 163.145ZM220.073 171.857C220.073 171.497 220.193 171.065 220.409 170.585C220.649 170.081 220.865 169.697 221.081 169.409C221.297 169.097 221.657 168.617 222.185 167.921C222.665 167.273 223.001 166.841 223.169 166.601C223.337 166.337 223.601 165.929 223.937 165.377C224.609 164.249 224.801 163.337 224.777 162.353C224.705 161.225 224.393 160.169 223.265 159.377C222.713 158.969 222.041 158.753 221.249 158.753C220.073 158.753 219.185 159.161 218.585 159.953C217.985 160.745 217.673 161.729 217.673 162.857C217.673 163.217 217.793 163.337 218.153 163.337H219.569C219.929 163.337 220.049 163.217 220.049 162.857C220.049 161.585 220.433 160.961 221.225 160.961C222.041 160.961 222.449 161.513 222.449 162.641C222.449 162.953 222.401 163.289 222.209 163.697C222.017 164.105 221.969 164.273 221.609 164.777C221.441 165.041 221.297 165.209 221.225 165.329C221.153 165.425 221.009 165.617 220.769 165.929C220.553 166.241 220.409 166.433 220.337 166.529C220.265 166.649 220.049 166.913 219.737 167.345C219.425 167.753 219.209 168.041 219.089 168.209C218.969 168.377 218.801 168.641 218.561 169.025C218.081 169.769 217.985 170.153 217.793 170.849C217.721 171.209 217.673 171.545 217.673 171.881V175.169C217.673 175.529 217.793 175.649 218.153 175.649H224.393C224.753 175.649 224.873 175.529 224.873 175.169V173.873C224.873 173.513 224.753 173.393 224.393 173.393H220.553C220.073 173.393 220.073 173.393 220.073 172.913V171.857ZM231.488 175.169C231.488 175.529 231.608 175.649 231.968 175.649H233.408C233.768 175.649 233.888 175.529 233.888 175.169V166.385C233.888 165.905 233.888 165.905 234.368 165.905H236.168C236.528 165.905 236.648 165.785 236.648 165.425V164.129C236.648 163.769 236.528 163.649 236.168 163.649H231.968C231.608 163.649 231.488 163.769 231.488 164.129V175.169ZM240.314 167.585C240.314 166.361 240.746 165.761 241.61 165.761C242.474 165.761 242.906 166.361 242.906 167.585V171.713C242.906 172.937 242.474 173.537 241.61 173.537C240.746 173.537 240.314 172.937 240.314 171.713V167.585ZM238.394 163.649C238.082 163.649 237.914 163.817 237.914 164.129V179.489C237.914 179.849 238.034 179.969 238.394 179.969H239.834C240.194 179.969 240.314 179.849 240.314 179.489V174.833C240.746 175.385 241.346 175.697 242.09 175.745C244.01 175.817 245.306 174.473 245.306 171.665V167.633C245.306 164.825 244.01 163.481 242.09 163.553C241.322 163.601 240.722 163.889 240.314 164.441V164.129C240.314 163.769 240.194 163.649 239.834 163.649H238.394Z" fill="#151524"/>
<path fill-rule="evenodd" clip-rule="evenodd" d="M226.34 143.117V135.361H222.032L228.064 125.883V131.915H232.372L226.34 143.117V143.117Z" stroke="#151524" stroke-linejoin="round"/>
<path fill-rule="evenodd" clip-rule="evenodd" d="M235.819 149.149H220.308L217.723 146.564V123.297L222.893 118.127H233.234L238.404 123.297V146.564L235.819 149.149V149.149Z" stroke="#151524" stroke-linecap="round" stroke-linejoin="round"/>
<path d="M220.308 118.127H235.818" stroke="#151524" stroke-linecap="round" stroke-linejoin="round"/>
<path d="M225.479 118.127L222.032 114.68" stroke="#151524" stroke-linecap="round" stroke-linejoin="round"/>
<path fill-rule="evenodd" clip-rule="evenodd" d="M232.372 110.372C231.897 110.372 231.511 110.76 231.511 111.234C231.511 111.709 231.897 112.095 232.372 112.095C232.848 112.095 233.234 111.709 233.234 111.234C233.234 110.76 232.848 110.372 232.372 110.372Z" fill="black"/>
<path fill-rule="evenodd" clip-rule="evenodd" d="M230.648 113.819C230.173 113.819 229.787 114.206 229.787 114.68C229.787 115.156 230.173 115.542 230.648 115.542C231.124 115.542 231.51 115.156 231.51 114.68C231.51 114.206 231.124 113.819 230.648 113.819Z" fill="black"/>
<path fill-rule="evenodd" clip-rule="evenodd" d="M228.925 108.648C228.45 108.648 228.063 109.036 228.063 109.51C228.063 109.986 228.45 110.372 228.925 110.372C229.401 110.372 229.787 109.986 229.787 109.51C229.787 109.036 229.401 108.648 228.925 108.648Z" fill="black"/>
<path d="M62.6695 255.048C62.6695 254.748 62.5695 254.648 62.2695 254.648H57.8895C57.5895 254.648 57.4895 254.748 57.4895 255.048C57.4895 256.808 57.3495 258.748 57.0695 260.868C56.8095 262.988 56.5895 264.448 56.4095 265.228C56.2495 266.008 56.1095 266.628 56.0095 267.088H55.3895C55.0895 267.088 54.9895 267.188 54.9895 267.488V269.968C54.9895 270.268 55.0895 270.368 55.3895 270.368H56.2695C56.5695 270.368 56.6695 270.268 56.6695 269.968V268.948C56.6695 268.748 56.7695 268.648 56.9695 268.648H62.2695C62.6695 268.648 62.6695 268.648 62.6695 269.048V269.948C62.6695 270.248 62.7695 270.348 63.0695 270.348H63.9495C64.2495 270.348 64.3495 270.248 64.3495 269.948V267.488C64.3495 267.188 64.2495 267.088 63.9495 267.088H63.0695C62.6695 267.088 62.6695 267.088 62.6695 266.688V255.048ZM59.0695 256.508C59.0695 256.308 59.1695 256.208 59.3695 256.208H60.6895C60.8895 256.208 60.9895 256.308 60.9895 256.508V266.688C60.9895 267.088 60.9895 267.088 60.5895 267.088H57.7095L58.0095 265.508C58.2095 264.448 58.4295 263.048 58.6495 261.288C58.8695 259.508 59.0095 257.928 59.0695 256.508ZM67.3304 261.648C67.2704 259.588 69.8704 259.588 69.8104 261.648V265.648C69.8704 267.708 67.2704 267.708 67.3304 265.648V261.648ZM66.0504 258.648C65.7504 258.648 65.6504 258.748 65.6504 259.048V271.848C65.6504 272.148 65.7504 272.248 66.0504 272.248H66.9304C67.2304 272.248 67.3304 272.148 67.3304 271.848V267.968C67.6904 268.428 68.1904 268.688 68.8104 268.728C70.4104 268.788 71.4904 267.668 71.4904 265.328V261.968C71.4904 259.628 70.4104 258.508 68.8104 258.568C68.1704 258.608 67.6704 258.848 67.3304 259.308V259.048C67.3304 258.748 67.2304 258.648 66.9304 258.648H66.0504ZM74.4071 258.948C74.3671 258.648 74.2471 258.648 73.9671 258.648H73.0871C72.8271 258.648 72.6871 258.688 72.7471 258.988L74.7871 269.128C74.9671 270.148 74.6671 270.648 73.8871 270.668C73.5871 270.668 73.4871 270.768 73.4871 271.068V271.848C73.4871 272.148 73.5871 272.248 73.8871 272.248C75.4071 272.248 76.4271 271.788 76.9671 268.888L78.9471 258.988C78.9871 258.648 78.8271 258.648 78.6071 258.648H77.7271C77.4871 258.648 77.3271 258.648 77.2871 258.948L75.9271 266.608C75.9071 266.708 75.7871 266.708 75.7671 266.608L74.4071 258.948ZM80.3184 268.248C80.3184 268.548 80.4184 268.648 80.7184 268.648H81.5984C81.8984 268.648 81.9984 268.548 81.9984 268.248V260.608C81.9984 260.208 81.9984 260.208 82.3984 260.208H84.0584C84.3584 260.208 84.4584 260.108 84.4584 259.808V259.048C84.4584 258.748 84.3584 258.648 84.0584 258.648H80.7184C80.4184 258.648 80.3184 258.748 80.3184 259.048V268.248ZM86.7476 268.648C86.9276 268.648 87.0676 268.568 87.1476 268.408L90.0276 262.928C90.0876 262.828 90.1876 262.848 90.1876 262.948V268.248C90.1876 268.548 90.2876 268.648 90.5876 268.648H91.4676C91.7676 268.648 91.8676 268.548 91.8676 268.248V259.048C91.8676 258.748 91.7676 258.648 91.4676 258.648H90.8876C90.6476 258.648 90.6276 258.668 90.4876 258.908L87.6076 264.348C87.5476 264.448 87.4476 264.468 87.4476 264.328V259.048C87.4476 258.748 87.3476 258.648 87.0476 258.648H86.1676C85.8676 258.648 85.7676 258.748 85.7676 259.048V268.248C85.7676 268.548 85.8676 268.648 86.1676 268.648H86.7476ZM93.673 265.048C93.673 266.308 93.973 267.248 94.553 267.848C95.133 268.428 95.853 268.728 96.673 268.728C97.633 268.728 98.373 268.408 98.873 267.748C99.373 267.088 99.613 266.408 99.573 265.708C99.553 265.408 99.473 265.308 99.173 265.308H98.373C98.053 265.308 97.993 265.448 97.973 265.828C97.953 266.648 97.393 267.168 96.673 267.168C95.893 267.168 95.353 266.608 95.353 265.588V264.388C95.353 264.088 95.453 263.988 95.753 263.988H99.253C99.573 263.988 99.673 263.908 99.673 263.588V262.248C99.673 260.988 99.373 260.048 98.793 259.468C98.213 258.868 97.493 258.568 96.673 258.568C95.853 258.568 95.133 258.868 94.553 259.468C93.973 260.048 93.673 260.988 93.673 262.248V265.048ZM97.993 262.108C97.993 262.408 97.893 262.508 97.593 262.508H95.753C95.453 262.508 95.353 262.408 95.353 262.108V261.708C95.193 259.608 98.153 259.608 97.993 261.708V262.108ZM106.955 261.708C106.955 260.688 107.495 260.128 108.275 260.128C108.995 260.128 109.555 260.648 109.575 261.468C109.595 261.848 109.655 261.988 109.975 261.988H110.775C111.075 261.988 111.155 261.888 111.175 261.588C111.215 260.888 110.975 260.228 110.475 259.568C109.975 258.908 109.235 258.568 108.275 258.568C107.455 258.568 106.735 258.868 106.155 259.468C105.575 260.048 105.275 260.988 105.275 262.248V265.048C105.275 266.308 105.575 267.248 106.155 267.848C106.735 268.428 107.455 268.728 108.275 268.728C109.235 268.728 109.975 268.408 110.475 267.748C110.975 267.088 111.215 266.408 111.175 265.708C111.155 265.408 111.075 265.308 110.775 265.308H109.975C109.655 265.308 109.595 265.448 109.575 265.828C109.555 266.648 108.995 267.168 108.275 267.168C107.495 267.168 106.955 266.608 106.955 265.588V261.708ZM114.114 258.948C114.074 258.648 113.954 258.648 113.674 258.648H112.794C112.534 258.648 112.394 258.688 112.454 258.988L114.494 269.128C114.674 270.148 114.374 270.648 113.594 270.668C113.294 270.668 113.194 270.768 113.194 271.068V271.848C113.194 272.148 113.294 272.248 113.594 272.248C115.114 272.248 116.134 271.788 116.674 268.888L118.654 258.988C118.694 258.648 118.534 258.648 118.314 258.648H117.434C117.194 258.648 117.034 258.648 116.994 258.948L115.634 266.608C115.614 266.708 115.494 266.708 115.474 266.608L114.114 258.948ZM125.065 268.648C125.325 268.648 125.405 268.508 125.305 268.248L123.305 263.648L125.305 259.048C125.405 258.788 125.345 258.648 125.085 258.648H124.145C123.905 258.648 123.725 258.788 123.625 259.048L122.465 261.708L121.325 259.048C121.225 258.788 121.045 258.648 120.805 258.648H119.865C119.605 258.648 119.545 258.788 119.645 259.048L121.625 263.648L119.645 268.248C119.545 268.508 119.625 268.648 119.885 268.648H120.825C121.125 268.648 121.185 268.568 121.325 268.248L122.465 265.588L123.625 268.248C123.765 268.568 123.825 268.648 124.125 268.648H125.065ZM127.587 268.648C127.767 268.648 127.907 268.568 127.987 268.408L130.867 262.928C130.927 262.828 131.027 262.848 131.027 262.948V268.248C131.027 268.548 131.127 268.648 131.427 268.648H132.307C132.607 268.648 132.707 268.548 132.707 268.248V259.048C132.707 258.748 132.607 258.648 132.307 258.648H131.727C131.487 258.648 131.467 258.668 131.327 258.908L128.447 264.348C128.387 264.448 128.287 264.468 128.287 264.328V259.048C128.287 258.748 128.187 258.648 127.887 258.648H127.007C126.707 258.648 126.607 258.748 126.607 259.048V268.248C126.607 268.548 126.707 268.648 127.007 268.648H127.587ZM134.513 265.048C134.513 266.308 134.813 267.248 135.393 267.848C135.973 268.428 136.693 268.728 137.513 268.728C138.473 268.728 139.213 268.408 139.713 267.748C140.213 267.088 140.453 266.408 140.413 265.708C140.393 265.408 140.313 265.308 140.013 265.308H139.213C138.893 265.308 138.833 265.448 138.813 265.828C138.793 266.648 138.233 267.168 137.513 267.168C136.733 267.168 136.193 266.608 136.193 265.588V264.388C136.193 264.088 136.293 263.988 136.593 263.988H140.093C140.413 263.988 140.513 263.908 140.513 263.588V262.248C140.513 260.988 140.213 260.048 139.633 259.468C139.053 258.868 138.333 258.568 137.513 258.568C136.693 258.568 135.973 258.868 135.393 259.468C134.813 260.048 134.513 260.988 134.513 262.248V265.048ZM138.833 262.108C138.833 262.408 138.733 262.508 138.433 262.508H136.593C136.293 262.508 136.193 262.408 136.193 262.108V261.708C136.033 259.608 138.993 259.608 138.833 261.708V262.108ZM66.723 282.468C66.723 282.868 66.723 282.868 66.323 282.868H65.623C65.323 282.868 65.223 282.968 65.223 283.268V284.028C65.223 284.328 65.323 284.428 65.623 284.428H66.323C66.723 284.428 66.723 284.428 66.723 284.828V285.588C66.723 286.608 66.183 287.168 65.403 287.168C64.683 287.168 64.123 286.648 64.103 285.828C64.083 285.448 64.023 285.308 63.703 285.308H62.903C62.603 285.308 62.523 285.408 62.503 285.708C62.463 286.408 62.703 287.088 63.203 287.748C63.703 288.408 64.443 288.728 65.403 288.728C66.223 288.728 66.943 288.428 67.523 287.848C68.103 287.248 68.403 286.308 68.403 285.048V282.248C68.403 280.988 68.103 280.048 67.523 279.468C66.943 278.868 66.223 278.568 65.403 278.568C64.443 278.568 63.703 278.908 63.203 279.568C62.703 280.228 62.463 280.888 62.503 281.588C62.523 281.888 62.603 281.988 62.903 281.988H63.703C64.023 281.988 64.083 281.848 64.103 281.468C64.123 280.648 64.683 280.128 65.403 280.128C66.183 280.128 66.723 280.688 66.723 281.708V282.468ZM75.5426 288.648C75.8426 288.648 75.9426 288.548 75.9426 288.248V279.048C75.9426 278.748 75.8426 278.648 75.5426 278.648H74.6626C74.3626 278.648 74.2626 278.748 74.2626 279.048V282.348C74.2626 282.748 74.2626 282.748 73.8626 282.748H72.2226C71.8226 282.748 71.8226 282.748 71.8226 282.348V279.048C71.8226 278.748 71.7226 278.648 71.4226 278.648H70.5426C70.2426 278.648 70.1426 278.748 70.1426 279.048V288.248C70.1426 288.548 70.2426 288.648 70.5426 288.648H71.4226C71.7226 288.648 71.8226 288.548 71.8226 288.248V284.708C71.8226 284.308 71.8226 284.308 72.2226 284.308H73.8626C74.2626 284.308 74.2626 284.308 74.2626 284.708V288.248C74.2626 288.548 74.3626 288.648 74.6626 288.648H75.5426ZM77.7355 285.048C77.7355 286.308 78.0355 287.248 78.6155 287.848C79.1955 288.428 79.9155 288.728 80.7355 288.728C81.6955 288.728 82.4355 288.408 82.9355 287.748C83.4355 287.088 83.6755 286.408 83.6355 285.708C83.6155 285.408 83.5355 285.308 83.2355 285.308H82.4355C82.1155 285.308 82.0555 285.448 82.0355 285.828C82.0155 286.648 81.4555 287.168 80.7355 287.168C79.9555 287.168 79.4155 286.608 79.4155 285.588V284.388C79.4155 284.088 79.5155 283.988 79.8155 283.988H83.3155C83.6355 283.988 83.7355 283.908 83.7355 283.588V282.248C83.7355 280.988 83.4355 280.048 82.8555 279.468C82.2755 278.868 81.5555 278.568 80.7355 278.568C79.9155 278.568 79.1955 278.868 78.6155 279.468C78.0355 280.048 77.7355 280.988 77.7355 282.248V285.048ZM82.0555 282.108C82.0555 282.408 81.9555 282.508 81.6555 282.508H79.8155C79.5155 282.508 79.4155 282.408 79.4155 282.108V281.708C79.2555 279.608 82.2155 279.608 82.0555 281.708V282.108ZM87.2132 281.648C87.1532 279.588 89.7532 279.588 89.6932 281.648V285.648C89.7532 287.708 87.1532 287.708 87.2132 285.648V281.648ZM85.9332 278.648C85.6332 278.648 85.5332 278.748 85.5332 279.048V291.848C85.5332 292.148 85.6332 292.248 85.9332 292.248H86.8132C87.1132 292.248 87.2132 292.148 87.2132 291.848V287.968C87.5732 288.428 88.0732 288.688 88.6932 288.728C90.2932 288.788 91.3732 287.668 91.3732 285.328V281.968C91.3732 279.628 90.2932 278.508 88.6932 278.568C88.0532 278.608 87.5532 278.848 87.2132 279.308V279.048C87.2132 278.748 87.1132 278.648 86.8132 278.648H85.9332ZM93.1699 288.248C93.1699 288.548 93.2699 288.648 93.5699 288.648H94.4499C94.7499 288.648 94.8499 288.548 94.8499 288.248V280.608C94.8499 280.208 94.8499 280.208 95.2499 280.208H96.9099C97.2099 280.208 97.3099 280.108 97.3099 279.808V279.048C97.3099 278.748 97.2099 278.648 96.9099 278.648H93.5699C93.2699 278.648 93.1699 278.748 93.1699 279.048V288.248ZM98.2238 285.048C98.2238 286.308 98.5238 287.248 99.1038 287.848C99.6838 288.428 100.404 288.728 101.224 288.728C102.184 288.728 102.924 288.408 103.424 287.748C103.924 287.088 104.164 286.408 104.124 285.708C104.104 285.408 104.024 285.308 103.724 285.308H102.924C102.604 285.308 102.544 285.448 102.524 285.828C102.504 286.648 101.944 287.168 101.224 287.168C100.444 287.168 99.9038 286.608 99.9038 285.588V284.388C99.9038 284.088 100.004 283.988 100.304 283.988H103.804C104.124 283.988 104.224 283.908 104.224 283.588V282.248C104.224 280.988 103.924 280.048 103.344 279.468C102.764 278.868 102.044 278.568 101.224 278.568C100.404 278.568 99.6838 278.868 99.1038 279.468C98.5238 280.048 98.2238 280.988 98.2238 282.248V285.048ZM102.544 282.108C102.544 282.408 102.444 282.508 102.144 282.508H100.304C100.004 282.508 99.9038 282.408 99.9038 282.108V281.708C99.7438 279.608 102.704 279.608 102.544 281.708V282.108ZM105.321 279.808C105.321 280.108 105.421 280.208 105.721 280.208H106.901C107.281 280.208 107.281 280.208 107.281 280.608V288.248C107.281 288.548 107.381 288.648 107.681 288.648H108.561C108.861 288.648 108.961 288.548 108.961 288.248V280.608C108.961 280.208 108.961 280.208 109.361 280.208H110.521C110.821 280.208 110.921 280.108 110.921 279.808V279.048C110.921 278.748 110.821 278.648 110.521 278.648H105.721C105.421 278.648 105.321 278.748 105.321 279.048V279.808ZM113.193 288.648C113.373 288.648 113.513 288.568 113.593 288.408L116.473 282.928C116.533 282.828 116.633 282.848 116.633 282.948V288.248C116.633 288.548 116.733 288.648 117.033 288.648H117.913C118.213 288.648 118.313 288.548 118.313 288.248V279.048C118.313 278.748 118.213 278.648 117.913 278.648H117.333C117.093 278.648 117.073 278.668 116.933 278.908L114.053 284.348C113.993 284.448 113.893 284.468 113.893 284.328V279.048C113.893 278.748 113.793 278.648 113.493 278.648H112.613C112.313 278.648 112.213 278.748 112.213 279.048V288.248C112.213 288.548 112.313 288.648 112.613 288.648H113.193ZM120.318 288.248C120.318 288.548 120.418 288.648 120.718 288.648H121.598C121.898 288.648 121.998 288.548 121.998 288.248V284.608C121.998 284.468 122.118 284.468 122.178 284.568L124.238 288.348C124.398 288.648 124.418 288.648 124.678 288.648H125.718C125.898 288.648 126.038 288.528 125.898 288.228L123.398 283.648L125.898 279.068C126.038 278.768 125.898 278.648 125.718 278.648H124.678C124.418 278.648 124.398 278.648 124.238 278.948L122.178 282.728C122.118 282.828 121.998 282.828 121.998 282.688V279.048C121.998 278.748 121.898 278.648 121.598 278.648H120.718C120.418 278.648 120.318 278.748 120.318 279.048V288.248ZM128.251 288.648C128.431 288.648 128.571 288.568 128.651 288.408L131.531 282.928C131.591 282.828 131.691 282.848 131.691 282.948V288.248C131.691 288.548 131.791 288.648 132.091 288.648H132.971C133.271 288.648 133.371 288.548 133.371 288.248V279.048C133.371 278.748 133.271 278.648 132.971 278.648H132.391C132.151 278.648 132.131 278.668 131.991 278.908L129.111 284.348C129.051 284.448 128.951 284.468 128.951 284.328V279.048C128.951 278.748 128.851 278.648 128.551 278.648H127.671C127.371 278.648 127.271 278.748 127.271 279.048V288.248C127.271 288.548 127.371 288.648 127.671 288.648H128.251Z" fill="#151524"/>
<rect x="48.5" y="62.1479" width="99" height="166" fill="#C2F0FF" stroke="#1F3554"/>
<path d="M89.208 80.3599C89.208 79.3759 88.944 78.5119 88.44 77.7919C88.944 77.0719 89.208 76.2079 89.208 75.1999V74.3119C89.208 71.1679 87.744 69.7519 85.608 69.7519C83.616 69.7519 82.224 70.9759 82.032 73.6399C82.008 74.0959 82.152 74.3359 82.512 74.3359H83.928C84.288 74.3359 84.408 74.2159 84.408 73.8559V73.6879C84.408 72.5359 84.816 71.9599 85.608 71.9599C86.4 71.9599 86.808 72.5359 86.808 73.6879V74.9119C86.784 76.0879 86.568 76.6399 85.608 76.6639H85.368C85.008 76.6639 84.888 76.7839 84.888 77.1439V78.4399C84.888 78.7519 85.008 78.8959 85.272 78.9199H85.608C86.568 78.9199 86.784 79.4479 86.808 80.6719V82.8079C86.808 83.9599 86.4 84.5359 85.608 84.5359C84.816 84.5359 84.408 83.9599 84.408 82.8079V82.6399C84.408 82.2799 84.288 82.1599 83.928 82.1599H82.512C82.152 82.1599 82.008 82.3999 82.032 82.8559C82.224 85.5199 83.616 86.7439 85.608 86.7439C87.744 86.7439 89.208 85.3279 89.208 82.1839V80.3599ZM98.2596 80.3599C98.2596 79.3759 97.9956 78.5119 97.4916 77.7919C97.9956 77.0719 98.2596 76.2079 98.2596 75.1999V74.3119C98.2596 71.1679 96.7956 69.7519 94.6596 69.7519C92.6676 69.7519 91.2756 70.9759 91.0836 73.6399C91.0596 74.0959 91.2036 74.3359 91.5636 74.3359H92.9796C93.3396 74.3359 93.4596 74.2159 93.4596 73.8559V73.6879C93.4596 72.5359 93.8676 71.9599 94.6596 71.9599C95.4516 71.9599 95.8596 72.5359 95.8596 73.6879V74.9119C95.8356 76.0879 95.6196 76.6399 94.6596 76.6639H94.4196C94.0596 76.6639 93.9396 76.7839 93.9396 77.1439V78.4399C93.9396 78.7519 94.0596 78.8959 94.3236 78.9199H94.6596C95.6196 78.9199 95.8356 79.4479 95.8596 80.6719V82.8079C95.8596 83.9599 95.4516 84.5359 94.6596 84.5359C93.8676 84.5359 93.4596 83.9599 93.4596 82.8079V82.6399C93.4596 82.2799 93.3396 82.1599 92.9796 82.1599H91.5636C91.2036 82.1599 91.0596 82.3999 91.0836 82.8559C91.2756 85.5199 92.6676 86.7439 94.6596 86.7439C96.7956 86.7439 98.2596 85.3279 98.2596 82.1839V80.3599ZM104.808 86.1679C104.808 86.5279 104.928 86.6479 105.288 86.6479H106.728C107.088 86.6479 107.208 86.5279 107.208 86.1679V77.3839C107.208 76.9039 107.208 76.9039 107.688 76.9039H109.488C109.848 76.9039 109.968 76.7839 109.968 76.4239V75.1279C109.968 74.7679 109.848 74.6479 109.488 74.6479H105.288C104.928 74.6479 104.808 74.7679 104.808 75.1279V86.1679ZM113.634 78.5839C113.634 77.3599 114.066 76.7599 114.93 76.7599C115.794 76.7599 116.226 77.3599 116.226 78.5839V82.7119C116.226 83.9359 115.794 84.5359 114.93 84.5359C114.066 84.5359 113.634 83.9359 113.634 82.7119V78.5839ZM111.714 74.6479C111.402 74.6479 111.234 74.8159 111.234 75.1279V90.4879C111.234 90.8479 111.354 90.9679 111.714 90.9679H113.154C113.514 90.9679 113.634 90.8479 113.634 90.4879V85.8319C114.066 86.3839 114.666 86.6959 115.41 86.7439C117.33 86.8159 118.626 85.4719 118.626 82.6639V78.6319C118.626 75.8239 117.33 74.4799 115.41 74.5519C114.642 74.5999 114.042 74.8879 113.634 75.4399V75.1279C113.634 74.7679 113.514 74.6479 113.154 74.6479H111.714Z" fill="#151524"/>
<path d="M68.9105 109.648C70.2385 109.648 71.0065 109.104 71.0065 107.456C71.0065 106.592 70.7825 105.984 70.3505 105.648C70.7825 105.312 71.0065 104.704 71.0065 103.84C71.0065 102.192 70.2385 101.648 68.9105 101.648H67.3425C67.1025 101.648 67.0225 101.728 67.0225 101.968V109.328C67.0225 109.568 67.1025 109.648 67.3425 109.648H68.9105ZM69.0865 106.032C69.8385 106.08 70.1745 106.48 70.1745 107.456C70.1745 108.464 69.8065 108.88 69.0225 108.88H68.1745C67.8545 108.88 67.8545 108.88 67.8545 108.56V106.352C67.8545 106.032 67.8545 106.032 68.1745 106.032H69.0865ZM68.1745 105.264C67.8545 105.264 67.8545 105.264 67.8545 104.944V102.736C67.8545 102.416 67.8545 102.416 68.1745 102.416H69.0225C69.8065 102.416 70.1745 102.832 70.1745 103.84C70.1745 104.848 69.8385 105.248 69.0865 105.264H68.1745ZM78.3033 102.416C78.6233 102.416 78.6233 102.416 78.6233 102.736V109.328C78.6233 109.568 78.7033 109.648 78.9433 109.648H79.1353C79.3753 109.648 79.4553 109.568 79.4553 109.328V101.968C79.4553 101.728 79.3753 101.648 79.1353 101.648H75.3113C75.0713 101.648 74.9913 101.728 74.9913 101.968V109.328C74.9913 109.568 75.0713 109.648 75.3113 109.648H75.5033C75.7433 109.648 75.8233 109.568 75.8233 109.328V102.736C75.8233 102.416 75.8233 102.416 76.1432 102.416H78.3033ZM80.55 106.896C80.55 108.88 81.43 109.712 82.694 109.712C83.398 109.712 83.91 109.488 84.246 109.04C84.582 108.576 84.774 108.048 84.79 107.456C84.79 107.216 84.742 107.168 84.502 107.168H84.246C84.038 107.168 84.006 107.248 83.99 107.552C83.926 108.4 83.462 108.944 82.694 108.944C81.926 108.944 81.382 108.432 81.382 107.232V105.904C81.382 105.584 81.382 105.584 81.702 105.584H84.518C84.758 105.584 84.838 105.504 84.838 105.264V104.4C84.838 102.416 83.958 101.584 82.694 101.584C81.43 101.584 80.55 102.416 80.55 104.4V106.896ZM81.382 104.064C81.382 102.864 81.926 102.352 82.694 102.352C83.462 102.352 84.006 102.864 84.006 104.064V104.496C84.006 104.816 84.006 104.816 83.686 104.816H81.702C81.382 104.816 81.382 104.816 81.382 104.496V104.064ZM86.1006 112.208C86.1006 112.448 86.1806 112.528 86.4206 112.528H86.6126C86.8526 112.528 86.9326 112.448 86.9326 112.208V109.024C87.2366 109.456 87.6686 109.696 88.2126 109.712C89.4446 109.76 90.2606 108.896 90.2606 106.896V104.4C90.2606 102.4 89.4446 101.536 88.2126 101.584C87.6686 101.6 87.2366 101.824 86.9326 102.256V101.968C86.9326 101.728 86.8526 101.648 86.6126 101.648H86.4206C86.1806 101.648 86.1006 101.728 86.1006 101.968V112.208ZM89.4286 107.232C89.4286 108.368 89.0126 108.944 88.1806 108.944C87.3486 108.944 86.9326 108.368 86.9326 107.232V104.064C86.9326 102.928 87.3486 102.352 88.1806 102.352C89.0126 102.352 89.4286 102.928 89.4286 104.064V107.232ZM91.3625 106.896C91.3625 108.88 92.2425 109.712 93.5065 109.712C94.2105 109.712 94.7225 109.488 95.0585 109.04C95.3945 108.576 95.5865 108.048 95.6025 107.456C95.6025 107.216 95.5545 107.168 95.3145 107.168H95.0585C94.8505 107.168 94.8185 107.248 94.8025 107.552C94.7385 108.4 94.2745 108.944 93.5065 108.944C92.7385 108.944 92.1945 108.432 92.1945 107.232V105.904C92.1945 105.584 92.1945 105.584 92.5145 105.584H95.3305C95.5705 105.584 95.6505 105.504 95.6505 105.264V104.4C95.6505 102.416 94.7705 101.584 93.5065 101.584C92.2425 101.584 91.3625 102.416 91.3625 104.4V106.896ZM92.1945 104.064C92.1945 102.864 92.7385 102.352 93.5065 102.352C94.2745 102.352 94.8185 102.864 94.8185 104.064V104.496C94.8185 104.816 94.8185 104.816 94.4985 104.816H92.5145C92.1945 104.816 92.1945 104.816 92.1945 104.496V104.064ZM98.8971 109.712C99.6011 109.712 100.113 109.488 100.449 109.04C100.785 108.576 100.977 108.048 100.993 107.456C100.993 107.216 100.945 107.168 100.705 107.168H100.449C100.241 107.168 100.209 107.248 100.193 107.552C100.129 108.4 99.6651 108.944 98.8971 108.944C98.1291 108.944 97.5851 108.432 97.5851 107.232V104.064C97.5851 102.864 98.1291 102.352 98.8971 102.352C99.6651 102.352 100.129 102.896 100.193 103.744C100.209 104.048 100.241 104.128 100.449 104.128H100.705C100.945 104.128 100.993 104.08 100.993 103.84C100.977 103.248 100.785 102.72 100.449 102.272C100.113 101.808 99.6011 101.584 98.8971 101.584C97.6331 101.584 96.7531 102.416 96.7531 104.4V106.896C96.7531 108.88 97.6331 109.712 98.8971 109.712ZM102.769 101.968C102.769 101.728 102.689 101.648 102.449 101.648H102.257C102.017 101.648 101.937 101.728 101.937 101.968V104.352C101.937 106.032 102.737 106.864 104.337 106.864H104.913C105.233 106.864 105.233 106.864 105.233 107.184V109.328C105.233 109.568 105.313 109.648 105.553 109.648H105.745C105.985 109.648 106.065 109.568 106.065 109.328V101.968C106.065 101.728 105.985 101.648 105.745 101.648H105.553C105.313 101.648 105.233 101.728 105.233 101.968V105.776C105.233 106.096 105.233 106.096 104.913 106.096H104.401C103.393 106.096 102.769 105.664 102.769 104.336V101.968ZM107.331 106.896C107.331 108.88 108.211 109.712 109.475 109.712C110.179 109.712 110.691 109.488 111.027 109.04C111.363 108.576 111.555 108.048 111.571 107.456C111.571 107.216 111.523 107.168 111.283 107.168H111.027C110.819 107.168 110.787 107.248 110.771 107.552C110.707 108.4 110.243 108.944 109.475 108.944C108.707 108.944 108.163 108.432 108.163 107.232V105.904C108.163 105.584 108.163 105.584 108.483 105.584H111.299C111.539 105.584 111.619 105.504 111.619 105.264V104.4C111.619 102.416 110.739 101.584 109.475 101.584C108.211 101.584 107.331 102.416 107.331 104.4V106.896ZM108.163 104.064C108.163 102.864 108.707 102.352 109.475 102.352C110.243 102.352 110.787 102.864 110.787 104.064V104.496C110.787 104.816 110.787 104.816 110.467 104.816H108.483C108.163 104.816 108.163 104.816 108.163 104.496V104.064ZM112.322 102.096C112.322 102.336 112.402 102.416 112.642 102.416H113.73C114.034 102.416 114.034 102.416 114.034 102.736V109.328C114.034 109.568 114.114 109.648 114.354 109.648H114.546C114.786 109.648 114.866 109.568 114.866 109.328V102.736C114.866 102.416 114.866 102.416 115.186 102.416H116.258C116.498 102.416 116.578 102.336 116.578 102.096V101.968C116.578 101.728 116.498 101.648 116.258 101.648H112.642C112.402 101.648 112.322 101.728 112.322 101.968V102.096ZM117.284 106.896C117.284 108.88 118.164 109.712 119.428 109.712C120.132 109.712 120.644 109.488 120.98 109.04C121.316 108.576 121.508 108.048 121.524 107.456C121.524 107.216 121.476 107.168 121.236 107.168H120.98C120.772 107.168 120.74 107.248 120.724 107.552C120.66 108.4 120.196 108.944 119.428 108.944C118.66 108.944 118.116 108.432 118.116 107.232V105.904C118.116 105.584 118.116 105.584 118.436 105.584H121.252C121.492 105.584 121.572 105.504 121.572 105.264V104.4C121.572 102.416 120.692 101.584 119.428 101.584C118.164 101.584 117.284 102.416 117.284 104.4V106.896ZM118.116 104.064C118.116 102.864 118.66 102.352 119.428 102.352C120.196 102.352 120.74 102.864 120.74 104.064V104.496C120.74 104.816 120.74 104.816 120.42 104.816H118.436C118.116 104.816 118.116 104.816 118.116 104.496V104.064ZM127.538 109.712C128.242 109.712 128.754 109.488 129.09 109.04C129.426 108.576 129.618 108.048 129.634 107.456C129.634 107.216 129.586 107.168 129.346 107.168H129.09C128.882 107.168 128.85 107.248 128.834 107.552C128.77 108.4 128.306 108.944 127.538 108.944C126.77 108.944 126.226 108.432 126.226 107.232V104.064C126.226 102.864 126.77 102.352 127.538 102.352C128.306 102.352 128.77 102.896 128.834 103.744C128.85 104.048 128.882 104.128 129.09 104.128H129.346C129.586 104.128 129.634 104.08 129.634 103.84C129.618 103.248 129.426 102.72 129.09 102.272C128.754 101.808 128.242 101.584 127.538 101.584C126.274 101.584 125.394 102.416 125.394 104.4V106.896C125.394 108.88 126.274 109.712 127.538 109.712ZM58.808 119.856C58.76 119.712 58.664 119.648 58.488 119.648H58.28C58.04 119.648 57.96 119.728 57.96 119.968V127.328C57.96 127.568 58.04 127.648 58.28 127.648H58.472C58.712 127.648 58.792 127.568 58.792 127.328V122.64C58.792 122.624 58.792 122.608 58.808 122.592C58.856 122.528 58.888 122.544 58.92 122.624L60.584 127.568C60.632 127.68 60.728 127.68 60.776 127.568L62.44 122.624C62.488 122.544 62.568 122.56 62.568 122.64V127.328C62.568 127.568 62.648 127.648 62.888 127.648H63.08C63.32 127.648 63.4 127.568 63.4 127.328V119.968C63.4 119.728 63.32 119.648 63.08 119.648H62.872C62.696 119.648 62.6 119.712 62.552 119.856L60.76 125.232C60.744 125.344 60.616 125.344 60.6 125.232L58.808 119.856ZM66.8034 120.352C67.6994 120.352 68.0514 121.104 68.0514 121.824C68.0514 123.104 64.6114 122.576 64.6114 125.088V125.584C64.6114 126.976 65.3954 127.712 66.5954 127.712C67.2034 127.712 67.6994 127.52 68.0834 127.136C68.1474 127.568 68.1954 127.648 68.4354 127.648H68.7074C68.9634 127.648 69.0754 127.536 69.0274 127.328C68.9474 126.928 68.8994 126.624 68.8994 126.384V122.4C68.8994 120.416 68.0674 119.584 66.8034 119.584C66.0994 119.584 65.5874 119.808 65.2674 120.256C64.9474 120.704 64.7714 121.232 64.7554 121.84C64.7554 122.08 64.8034 122.128 65.0434 122.128H65.2994C65.5074 122.128 65.5394 122.048 65.5554 121.744C65.6354 120.816 66.0514 120.352 66.8034 120.352ZM66.8994 126.944C65.9234 127.008 65.4434 126.464 65.4434 125.392V125.344C65.3474 124.384 66.0034 123.872 66.5154 123.632C66.6594 123.552 66.9154 123.456 67.2674 123.328C67.6354 123.2 67.8914 123.104 68.0674 123.024V125.392C68.0674 126.48 67.6514 126.88 66.8994 126.944ZM70.8813 124.88C70.8813 125.392 70.8813 125.568 70.8173 125.968C70.8013 126.176 70.7533 126.32 70.6893 126.432C70.5773 126.64 70.3372 126.848 70.0013 126.864C69.7613 126.88 69.6813 126.944 69.6813 127.184V127.328C69.6813 127.568 69.7613 127.648 70.0013 127.648C70.7853 127.648 71.2973 127.312 71.5373 126.624C71.6493 126.256 71.7133 125.536 71.7133 124.464V120.736C71.7133 120.416 71.7133 120.416 72.0333 120.416H73.6813C74.0013 120.416 74.0013 120.416 74.0013 120.736V127.328C74.0013 127.568 74.0813 127.648 74.3213 127.648H74.5133C74.7533 127.648 74.8333 127.568 74.8333 127.328V119.968C74.8333 119.728 74.7533 119.648 74.5133 119.648H71.2013C70.9613 119.648 70.8813 119.728 70.8813 119.968V124.88ZM77.0889 119.968C77.0889 119.728 77.0089 119.648 76.7689 119.648H76.5769C76.3369 119.648 76.2569 119.728 76.2569 119.968V127.328C76.2569 127.568 76.3369 127.648 76.5769 127.648H77.8889C79.1689 127.648 79.9849 126.88 79.9849 125.2C79.9849 123.52 79.1529 122.736 77.8889 122.736H77.4089C77.0889 122.736 77.0889 122.736 77.0889 122.416V119.968ZM77.0889 123.824C77.0889 123.504 77.0889 123.504 77.4089 123.504H78.0009C78.7529 123.504 79.1529 124.128 79.1529 125.2C79.1529 126.24 78.7529 126.88 78.0009 126.88H77.4089C77.0889 126.88 77.0889 126.88 77.0889 126.56V123.824ZM80.3688 120.096C80.3688 120.336 80.4488 120.416 80.6888 120.416H81.7768C82.0807 120.416 82.0807 120.416 82.0807 120.736V127.328C82.0807 127.568 82.1608 127.648 82.4008 127.648H82.5928C82.8328 127.648 82.9128 127.568 82.9128 127.328V120.736C82.9128 120.416 82.9128 120.416 83.2328 120.416H84.3048C84.5448 120.416 84.6248 120.336 84.6248 120.096V119.968C84.6248 119.728 84.5448 119.648 84.3048 119.648H80.6888C80.4488 119.648 80.3688 119.728 80.3688 119.968V120.096ZM85.3313 124.896C85.3313 126.88 86.2113 127.712 87.4753 127.712C88.7393 127.712 89.6193 126.88 89.6193 124.896V122.4C89.6193 120.416 88.7393 119.584 87.4753 119.584C86.2113 119.584 85.3313 120.416 85.3313 122.4V124.896ZM88.7873 125.232C88.7873 126.432 88.2433 126.944 87.4753 126.944C86.7073 126.944 86.1633 126.432 86.1633 125.232V122.064C86.1633 120.864 86.7073 120.352 87.4753 120.352C88.2433 120.352 88.7873 120.864 88.7873 122.064V125.232ZM95.5539 119.968C95.5539 119.728 95.4739 119.648 95.2339 119.648H92.7859C92.5459 119.648 92.4659 119.728 92.4659 119.968C92.4659 121.744 92.2579 123.472 92.0499 124.448C91.9379 124.944 91.8259 125.392 91.6819 125.824C91.4099 126.656 91.3299 126.752 91.2659 126.88H90.6419C90.4019 126.88 90.3219 126.96 90.3219 127.2V128.688C90.3219 128.928 90.4019 129.008 90.6419 129.008H90.8339C91.0739 129.008 91.1539 128.928 91.1539 128.688V127.888C91.1539 127.728 91.2339 127.648 91.3939 127.648H95.4899C95.8099 127.648 95.8099 127.648 95.8099 127.968V128.688C95.8099 128.928 95.8899 129.008 96.1299 129.008H96.3219C96.5619 129.008 96.6419 128.928 96.6419 128.688V127.2C96.6419 126.96 96.5619 126.88 96.3219 126.88H95.8739C95.5539 126.88 95.5539 126.88 95.5539 126.56V119.968ZM93.2819 120.656C93.2819 120.496 93.3619 120.416 93.5219 120.416H94.4659C94.6259 120.416 94.7059 120.496 94.7059 120.656V126.56C94.7059 126.88 94.7059 126.88 94.3859 126.88H92.2579L92.4819 126.176C92.6259 125.712 92.7859 124.96 92.9619 123.92C93.1379 122.88 93.2339 121.792 93.2819 120.656ZM97.3469 124.896C97.3469 126.88 98.2269 127.712 99.4909 127.712C100.195 127.712 100.707 127.488 101.043 127.04C101.379 126.576 101.571 126.048 101.587 125.456C101.587 125.216 101.539 125.168 101.299 125.168H101.043C100.835 125.168 100.803 125.248 100.787 125.552C100.723 126.4 100.259 126.944 99.4909 126.944C98.7229 126.944 98.1789 126.432 98.1789 125.232V123.904C98.1789 123.584 98.1789 123.584 98.4989 123.584H101.315C101.555 123.584 101.635 123.504 101.635 123.264V122.4C101.635 120.416 100.755 119.584 99.4909 119.584C98.2269 119.584 97.3469 120.416 97.3469 122.4V124.896ZM98.1789 122.064C98.1789 120.864 98.7229 120.352 99.4909 120.352C100.259 120.352 100.803 120.864 100.803 122.064V122.496C100.803 122.816 100.803 122.816 100.483 122.816H98.4989C98.1789 122.816 98.1789 122.816 98.1789 122.496V122.064ZM106.258 119.984C106.338 119.744 106.226 119.648 106.082 119.648H105.794C105.586 119.648 105.554 119.68 105.442 119.888L103.906 122.992C103.858 123.104 103.73 123.088 103.73 122.96V119.968C103.73 119.728 103.65 119.648 103.41 119.648H103.218C102.978 119.648 102.898 119.728 102.898 119.968V127.328C102.898 127.648 103.058 127.648 103.218 127.648H103.41C103.65 127.648 103.73 127.568 103.73 127.328V124.336L103.778 124.24C103.826 124.208 103.874 124.224 103.906 124.304L105.442 127.408C105.554 127.616 105.586 127.648 105.794 127.648H106.082C106.226 127.648 106.338 127.552 106.258 127.312L104.45 123.648L106.258 119.984ZM109.225 127.712C109.929 127.712 110.441 127.488 110.777 127.04C111.113 126.576 111.305 126.048 111.321 125.456C111.321 125.216 111.273 125.168 111.033 125.168H110.777C110.569 125.168 110.537 125.248 110.521 125.552C110.457 126.4 109.993 126.944 109.225 126.944C108.457 126.944 107.913 126.432 107.913 125.232V122.064C107.913 120.864 108.457 120.352 109.225 120.352C109.993 120.352 110.457 120.896 110.521 121.744C110.537 122.048 110.569 122.128 110.777 122.128H111.033C111.273 122.128 111.321 122.08 111.321 121.84C111.305 121.248 111.113 120.72 110.777 120.272C110.441 119.808 109.929 119.584 109.225 119.584C107.961 119.584 107.081 120.416 107.081 122.4V124.896C107.081 126.88 107.961 127.712 109.225 127.712ZM112.025 120.096C112.025 120.336 112.105 120.416 112.345 120.416H113.433C113.737 120.416 113.737 120.416 113.737 120.736V127.328C113.737 127.568 113.817 127.648 114.057 127.648H114.249C114.489 127.648 114.569 127.568 114.569 127.328V120.736C114.569 120.416 114.569 120.416 114.889 120.416H115.961C116.201 120.416 116.281 120.336 116.281 120.096V119.968C116.281 119.728 116.201 119.648 115.961 119.648H112.345C112.105 119.648 112.025 119.728 112.025 119.968V120.096ZM117.148 130.208C117.148 130.448 117.228 130.528 117.468 130.528H117.66C117.9 130.528 117.98 130.448 117.98 130.208V127.024C118.284 127.456 118.716 127.696 119.26 127.712C120.492 127.76 121.308 126.896 121.308 124.896V122.4C121.308 120.4 120.492 119.536 119.26 119.584C118.716 119.6 118.284 119.824 117.98 120.256V119.968C117.98 119.728 117.9 119.648 117.66 119.648H117.468C117.228 119.648 117.148 119.728 117.148 119.968V130.208ZM120.476 125.232C120.476 126.368 120.06 126.944 119.228 126.944C118.396 126.944 117.98 126.368 117.98 125.232V122.064C117.98 120.928 118.396 120.352 119.228 120.352C120.06 120.352 120.476 120.928 120.476 122.064V125.232ZM123.113 127.648C123.273 127.648 123.385 127.584 123.433 127.456L125.977 121.92C126.009 121.84 126.105 121.856 126.105 121.936V127.328C126.105 127.568 126.185 127.648 126.425 127.648H126.617C126.857 127.648 126.937 127.568 126.937 127.328V119.968C126.937 119.728 126.857 119.648 126.617 119.648H126.393C126.201 119.648 126.153 119.664 126.073 119.856L123.529 125.392C123.497 125.472 123.401 125.456 123.401 125.376V119.968C123.401 119.728 123.321 119.648 123.081 119.648H122.889C122.649 119.648 122.569 119.728 122.569 119.968V127.328C122.569 127.568 122.649 127.648 122.889 127.648H123.113ZM131.791 127.328C131.791 127.568 131.871 127.648 132.111 127.648H132.303C132.543 127.648 132.623 127.568 132.623 127.328V119.968C132.623 119.728 132.543 119.648 132.303 119.648H132.111C131.871 119.648 131.791 119.728 131.791 119.968V122.848C131.791 123.168 131.791 123.168 131.471 123.168H129.503C129.183 123.168 129.183 123.168 129.183 122.848V119.968C129.183 119.728 129.103 119.648 128.863 119.648H128.671C128.431 119.648 128.351 119.728 128.351 119.968V127.328C128.351 127.568 128.431 127.648 128.671 127.648H128.863C129.103 127.648 129.183 127.568 129.183 127.328V124.256C129.183 123.936 129.183 123.936 129.503 123.936H131.471C131.791 123.936 131.791 123.936 131.791 124.256V127.328ZM136.022 120.352C136.918 120.352 137.27 121.104 137.27 121.824C137.27 123.104 133.83 122.576 133.83 125.088V125.584C133.83 126.976 134.614 127.712 135.814 127.712C136.422 127.712 136.918 127.52 137.302 127.136C137.366 127.568 137.414 127.648 137.654 127.648H137.926C138.182 127.648 138.294 127.536 138.246 127.328C138.166 126.928 138.118 126.624 138.118 126.384V122.4C138.118 120.416 137.286 119.584 136.022 119.584C135.318 119.584 134.806 119.808 134.486 120.256C134.166 120.704 133.99 121.232 133.974 121.84C133.974 122.08 134.022 122.128 134.262 122.128H134.518C134.726 122.128 134.758 122.048 134.774 121.744C134.854 120.816 135.27 120.352 136.022 120.352ZM136.118 126.944C135.142 127.008 134.662 126.464 134.662 125.392V125.344C134.566 124.384 135.222 123.872 135.734 123.632C135.878 123.552 136.134 123.456 136.486 123.328C136.854 123.2 137.11 123.104 137.286 123.024V125.392C137.286 126.48 136.87 126.88 136.118 126.944Z" fill="#151524"/>
<path fill-rule="evenodd" clip-rule="evenodd" d="M106.369 61.6485H90.7419L87.2693 32.1313H109.841L106.369 61.6485Z" stroke="#151524" stroke-linecap="round" stroke-linejoin="round"/>
<path d="M93.3465 58.176L90.308 26.2506C90.0597 23.6791 87.8997 21.7136 85.3161 21.7136H82.0605" stroke="#151524" stroke-linecap="round" stroke-linejoin="round"/>
<path d="M88.1375 39.0769H108.973" stroke="#151524" stroke-linecap="round" stroke-linejoin="round"/>
<path fill-rule="evenodd" clip-rule="evenodd" d="M102.028 23.45C101.549 23.45 101.16 23.8389 101.16 24.3181C101.16 24.7973 101.549 25.1863 102.028 25.1863C102.507 25.1863 102.896 24.7973 102.896 24.3181C102.896 23.8389 102.507 23.45 102.028 23.45Z" fill="black"/>
<path fill-rule="evenodd" clip-rule="evenodd" d="M102.028 27.7908C101.549 27.7908 101.16 28.1797 101.16 28.6589C101.16 29.1381 101.549 29.5271 102.028 29.5271C102.507 29.5271 102.896 29.1381 102.896 28.6589C102.896 28.1797 102.507 27.7908 102.028 27.7908Z" fill="black"/>
<path fill-rule="evenodd" clip-rule="evenodd" d="M102.028 18.241C101.549 18.241 101.16 18.6299 101.16 19.1091C101.16 19.5883 101.549 19.9773 102.028 19.9773C102.507 19.9773 102.896 19.5883 102.896 19.1091C102.896 18.6299 102.507 18.241 102.028 18.241Z" fill="black"/>
<path fill-rule="evenodd" clip-rule="evenodd" d="M105.5 19.9773C105.021 19.9773 104.632 20.3662 104.632 20.8454C104.632 21.3247 105.021 21.7136 105.5 21.7136C105.98 21.7136 106.369 21.3247 106.369 20.8454C106.369 20.3662 105.98 19.9773 105.5 19.9773Z" fill="black"/>
<path fill-rule="evenodd" clip-rule="evenodd" d="M103.764 43.4175C103.285 43.4175 102.896 43.8064 102.896 44.2856C102.896 44.7649 103.285 45.1538 103.764 45.1538C104.244 45.1538 104.633 44.7649 104.633 44.2856C104.633 43.8064 104.244 43.4175 103.764 43.4175Z" fill="black"/>
<path fill-rule="evenodd" clip-rule="evenodd" d="M98.5557 46.8899C98.0764 46.8899 97.6875 47.2788 97.6875 47.758C97.6875 48.2373 98.0764 48.6262 98.5557 48.6262C99.0349 48.6262 99.4238 48.2373 99.4238 47.758C99.4238 47.2788 99.0349 46.8899 98.5557 46.8899Z" fill="black"/>
<path fill-rule="evenodd" clip-rule="evenodd" d="M102.028 52.0991C101.549 52.0991 101.16 52.4881 101.16 52.9673C101.16 53.4465 101.549 53.8354 102.028 53.8354C102.507 53.8354 102.896 53.4465 102.896 52.9673C102.896 52.4881 102.507 52.0991 102.028 52.0991Z" fill="black"/>
<path fill-rule="evenodd" clip-rule="evenodd" d="M96.8191 55.5715C96.3399 55.5715 95.9509 55.9605 95.9509 56.4397C95.9509 56.9189 96.3399 57.3078 96.8191 57.3078C97.2983 57.3078 97.6872 56.9189 97.6872 56.4397C97.6872 55.9605 97.2983 55.5715 96.8191 55.5715Z" fill="black"/>
<path fill-rule="evenodd" clip-rule="evenodd" d="M95.083 41.6812C94.6038 41.6812 94.2148 42.0701 94.2148 42.5493C94.2148 43.0285 94.6038 43.4175 95.083 43.4175C95.5622 43.4175 95.9511 43.0285 95.9511 42.5493C95.9511 42.0701 95.5622 41.6812 95.083 41.6812Z" fill="black"/>
<path fill-rule="evenodd" clip-rule="evenodd" d="M105.5 24.3181C105.021 24.3181 104.632 24.707 104.632 25.1863C104.632 25.6655 105.021 26.0544 105.5 26.0544C105.98 26.0544 106.369 25.6655 106.369 25.1863C106.369 24.707 105.98 24.3181 105.5 24.3181Z" fill="black"/>
<path fill-rule="evenodd" clip-rule="evenodd" d="M123.036 14.0696L115.287 0.648188L101.866 8.39705L103.885 10.4851L103.979 12.0574L105.293 12.9254L105.388 14.4977L106.702 15.3656L106.797 16.938L108.111 17.8059L108.206 19.3782L109.52 20.2461L109.615 21.8185L123.036 14.0696Z" stroke="#151524" stroke-linecap="round" stroke-linejoin="round"/>
<path fill-rule="evenodd" clip-rule="evenodd" d="M116.746 14.447L111.815 5.90609L106.935 8.72386L111.866 17.2648L116.746 14.447Z" stroke="#151524" stroke-linecap="round" stroke-linejoin="round"/>
<rect y="227.648" width="583" height="10" fill="#151524"/>
</svg>
