<svg width="1400" height="1149" viewBox="0 0 1400 1149" fill="none" xmlns="http://www.w3.org/2000/svg">
<path fill-rule="evenodd" clip-rule="evenodd" d="M368.2 425.05L368 430.445C368 432.014 368.837 432.014 370.092 432.014H376.368C377.728 432.014 378.46 431.387 378.46 430.236L378.51 419.14L368.2 425.05ZM390.5 412.267L387.049 429.922C386.735 431.282 387.363 432.014 388.827 432.014H395.104C396.463 432.014 397.196 431.282 397.509 429.922L402.269 405.521L390.5 412.267ZM413.928 398.838C413.979 399.144 413.881 399.635 413.723 400.424L407.97 429.922C407.656 431.282 408.284 432.014 409.748 432.014H416.024C417.384 432.014 418.116 431.282 418.43 429.922L425.84 392.009L413.928 398.838ZM437.667 385.23L428.931 429.922C428.617 431.282 429.245 432.014 430.709 432.014H435.417C436.463 432.014 437.195 431.596 437.718 430.759L459.057 391.742C459.475 391.01 459.998 391.219 459.894 391.742L452.467 429.922C452.153 431.282 452.781 432.014 454.245 432.014H460.521C461.881 432.014 462.613 431.282 462.927 429.922L475.952 363.284L461.341 371.66L446.295 399.169C445.877 399.692 445.354 399.692 445.458 399.169L449.476 378.461L437.667 385.23ZM508.477 344.641H510.088C511.447 344.641 512.18 343.908 512.493 342.548L512.54 342.312L508.477 344.641ZM526.523 334.296C527.618 341.57 532.675 345.059 539.791 345.059C549.414 345.059 557.782 338.678 560.398 325.184L562.622 313.604L550.867 320.342L549.414 327.904C548.264 333.03 545.125 335.435 541.674 335.435C538.143 335.435 535.877 333.101 536.752 328.433L526.523 334.296ZM571.246 308.66L564.623 342.548C564.309 344.117 564.727 344.641 566.401 344.641H572.677C574.037 344.641 574.769 343.908 575.083 342.548L579.058 322.36C579.476 320.268 579.476 320.268 581.568 320.268H584.706C595.585 320.268 601.547 314.619 604.372 299.452L605.836 292.339C606.099 290.975 606.309 289.687 606.464 288.473L594.824 295.145L593.807 300.289C593.284 303.113 593.075 304.055 592.238 306.251C591.924 307.402 591.505 308.239 590.982 308.762C590.146 309.912 588.472 310.958 586.485 310.958H583.346C583.242 310.958 583.142 310.959 583.048 310.959C582.176 310.961 581.733 310.962 581.553 310.745C581.368 310.521 581.464 310.065 581.66 309.137L581.673 309.075L583.072 301.881L571.246 308.66ZM619.062 281.251H621.305C622.277 281.251 622.773 281.251 622.978 281.496C623.193 281.751 623.088 282.274 622.874 283.343L611.368 342.548C611.054 343.908 611.682 344.641 613.146 344.641H619.422C620.782 344.641 621.514 343.908 621.828 342.548L633.334 283.343C633.545 282.29 633.65 281.767 633.969 281.507C634.283 281.251 634.806 281.251 635.845 281.251H642.121C643.481 281.251 644.318 280.519 644.632 279.159L645.782 273.51C646.096 271.941 645.678 271.418 644.108 271.418H636.215L619.062 281.251ZM647.882 343.385C647.359 344.222 646.627 344.641 645.581 344.641H640.874C639.41 344.641 638.782 343.908 639.096 342.548L652.589 273.51C652.903 272.151 653.74 271.418 655.1 271.418H661.376C662.945 271.418 663.364 271.941 663.05 273.51L655.623 311.795C655.518 312.318 656.041 312.318 656.46 311.795L677.799 272.778C678.322 271.837 679.054 271.418 680.205 271.418H684.912C686.481 271.418 686.899 271.941 686.585 273.51L673.092 342.548C672.778 343.908 672.046 344.641 670.686 344.641H664.41C662.945 344.641 662.318 343.908 662.631 342.548L670.058 304.368C670.163 303.845 669.64 303.636 669.221 304.368L647.882 343.385ZM699.536 271.418C698.176 271.418 697.339 272.151 697.025 273.51L683.532 342.548C683.218 343.908 683.845 344.641 685.31 344.641H698.908C708.427 344.641 715.749 338.783 718.364 325.08L719.097 321.209C720.352 314.829 719.933 310.017 717.737 306.565C717.632 306.46 717.632 306.251 717.841 306.147C721.398 302.59 723.699 297.674 724.85 291.398L724.954 290.875C727.569 277.172 722.653 271.418 713.134 271.418H699.536ZM699.745 313.155C699.956 312.05 700.06 311.501 700.392 311.228C700.72 310.958 701.269 310.958 702.36 310.958H705.394C708.845 310.958 710.101 313.469 709.159 318.49L707.381 327.904C706.335 332.925 704.138 335.435 700.686 335.435H697.548C695.456 335.435 695.456 335.435 695.875 333.239L699.745 313.155ZM704.138 301.126C702.046 301.126 702.046 301.126 702.465 298.929L705.707 282.716L705.707 282.715C705.865 281.665 705.943 281.142 706.247 280.882C706.548 280.623 707.071 280.623 708.113 280.623H711.251C714.808 280.623 716.063 283.134 715.017 288.155L713.971 293.699C713.03 298.615 710.728 301.126 707.276 301.126H704.138ZM746.989 344.641C745.524 344.641 744.897 343.908 745.211 342.548L750.964 313.05C751.174 311.998 751.279 311.475 751.064 311.215C750.853 310.958 750.33 310.958 749.29 310.958H743.014C741.975 310.958 741.452 310.958 741.138 311.214C740.819 311.474 740.714 311.997 740.503 313.05L734.75 342.548C734.436 343.908 733.704 344.641 732.344 344.641H726.068C724.604 344.641 723.976 343.908 724.29 342.548L737.784 273.51C738.098 272.151 738.934 271.418 740.294 271.418H746.57C748.139 271.418 748.558 271.941 748.244 273.51L743.223 299.034C742.805 301.126 742.805 301.126 744.897 301.126H751.173C753.265 301.126 753.265 301.126 753.683 299.034L758.704 273.51C759.018 272.151 759.855 271.418 761.215 271.418H767.491C769.06 271.418 769.478 271.941 769.165 273.51L755.671 342.548C755.357 343.908 754.625 344.641 753.265 344.641H746.989ZM810.21 290.875C812.825 277.381 806.967 271 797.344 271C787.72 271 779.352 277.381 776.737 290.875L770.147 325.184C767.532 338.678 773.39 345.059 783.013 345.059C792.637 345.059 801.005 338.678 803.62 325.184L810.21 290.875ZM792.637 327.904C791.486 333.03 788.348 335.435 784.896 335.435C781.235 335.435 778.934 332.925 780.084 327.904L787.72 288.155C788.871 283.029 792.009 280.623 795.461 280.623C799.122 280.623 801.423 283.134 800.273 288.155L792.637 327.904ZM834.309 342.548C833.996 343.908 833.263 344.641 831.904 344.641H809.832C808.368 344.641 807.74 343.908 808.054 342.548L821.548 273.51C821.862 272.151 822.698 271.418 824.058 271.418H846.13C847.699 271.418 848.117 271.941 847.803 273.51L846.653 279.159C846.339 280.519 845.502 281.251 844.142 281.251H832.531C831.492 281.251 830.969 281.251 830.655 281.507C830.336 281.767 830.231 282.29 830.021 283.343L826.987 299.034C826.569 301.126 826.569 301.126 828.661 301.126H840.272C841.841 301.126 842.259 301.649 841.945 303.218L840.899 308.866C840.586 310.226 839.749 310.958 838.389 310.958H826.778C825.739 310.958 825.216 310.958 824.902 311.214C824.583 311.474 824.478 311.997 824.268 313.05L820.502 332.716C820.291 333.768 820.187 334.291 820.401 334.551C820.613 334.808 821.136 334.808 822.175 334.808H833.786C835.355 334.808 835.774 335.331 835.46 336.9L834.309 342.548ZM497.217 432.014C498.576 432.014 499.309 431.282 499.622 429.922L500.773 424.274C501.087 422.705 500.668 422.182 499.099 422.182H487.488C486.449 422.182 485.926 422.182 485.714 421.925C485.5 421.665 485.604 421.142 485.815 420.09L489.581 400.424L489.581 400.424C489.791 399.371 489.896 398.848 490.215 398.588C490.529 398.332 491.052 398.332 492.091 398.332H503.702C505.062 398.332 505.899 397.6 506.212 396.24L507.258 390.592C507.572 389.023 507.154 388.5 505.585 388.5H493.974C491.882 388.5 491.882 388.5 492.3 386.407L495.334 370.717C495.544 369.664 495.649 369.141 495.968 368.881C496.282 368.625 496.805 368.625 497.844 368.625H509.455C510.815 368.625 511.652 367.893 511.966 366.533L513.116 360.884C513.43 359.315 513.012 358.792 511.443 358.792H489.371C488.011 358.792 487.175 359.525 486.861 360.884L473.367 429.922C473.053 431.282 473.681 432.014 475.145 432.014H497.217Z" fill="white"/>
<path fill-rule="evenodd" clip-rule="evenodd" d="M374.912 420.679L364.463 426.668L364.629 422.179C364.629 422.119 364.629 422.062 364.629 422.006L364.63 421.883V421.88V421.88C364.632 420.999 364.633 420.55 364.41 420.323C364.178 420.087 363.707 420.087 362.746 420.087H353.437C352.49 420.087 351.995 420.087 351.645 420.312C351.26 420.561 351.051 421.083 350.612 422.179L348.52 427.827C348.102 429.396 347.474 429.396 346.01 429.396H339.734C338.897 429.396 337.432 429.396 338.269 427.618L364.943 358.057C365.675 356.488 365.989 356.174 367.663 356.174H373.311C374.985 356.174 375.194 356.488 375.194 358.057L374.912 420.679ZM397.778 407.571L386.007 414.318L396.963 358.266C397.277 356.906 398.114 356.174 399.473 356.174H405.75C407.319 356.174 407.737 356.697 407.423 358.266L402.402 383.789C401.984 385.881 401.984 385.881 404.076 385.881H410.352C412.444 385.881 412.444 385.881 412.863 383.789L417.884 358.266C418.197 356.906 419.034 356.174 420.394 356.174H426.67C428.239 356.174 428.658 356.697 428.344 358.266L421.348 394.061L409.555 400.82L410.143 397.806C410.561 395.714 410.561 395.714 408.469 395.714H402.193C401.154 395.714 400.631 395.714 400.317 395.97C399.998 396.23 399.893 396.753 399.683 397.806L397.778 407.571ZM487.442 356.174L483.216 358.596L483.281 358.266C483.595 356.906 484.432 356.174 485.791 356.174H487.442ZM558.147 315.645L563.408 288.256C566.023 274.763 560.165 268.382 550.541 268.382C540.918 268.382 532.55 274.763 529.935 288.256L523.345 322.566C522.312 327.892 522.6 332.11 523.919 335.265L533.331 329.87C532.904 328.694 532.851 327.166 533.282 325.286L540.918 285.537C542.069 280.411 545.207 278.005 548.659 278.005C552.32 278.005 554.621 280.516 553.47 285.537L546.392 322.383L558.147 315.645ZM602.107 290.446L602.256 289.721C605.185 274.553 601.419 268.8 590.645 268.8H577.047C575.687 268.8 574.85 269.533 574.536 270.892L566.754 310.711L578.584 303.93L583.218 280.097L583.218 280.097C583.376 279.047 583.454 278.524 583.758 278.264C584.059 278.005 584.582 278.005 585.624 278.005H588.762C591.273 278.005 592.633 279.051 592.737 281.457C592.842 283.863 592.737 285.223 592.005 288.675L590.319 297.203L602.107 290.446ZM639.869 268.8L619.324 280.577C619.517 279.607 619.602 279.121 619.398 278.877C619.193 278.633 618.697 278.633 617.725 278.633H611.344C609.775 278.633 609.357 278.11 609.671 276.541L610.821 270.892C611.135 269.533 611.972 268.8 613.332 268.8H639.869ZM417.285 197.55L443.697 182.29C449.169 184.767 451.898 190.864 449.957 200.882L443.367 235.192C440.751 248.686 432.383 255.067 422.76 255.067C413.136 255.067 407.279 248.686 409.894 235.192L416.484 200.882C416.709 199.719 416.977 198.608 417.285 197.55ZM370.644 224.498L405.883 204.139C404.609 209.126 402.493 213.132 399.47 216.155C399.261 216.259 399.261 216.468 399.365 216.573C401.562 220.025 401.981 224.837 400.725 231.217L399.993 235.088C397.378 248.791 390.056 254.648 380.537 254.648H366.939C365.474 254.648 364.846 253.916 365.16 252.556L370.644 224.498ZM325.613 250.517L337.419 243.695L335.674 252.556C335.361 253.916 334.628 254.648 333.269 254.648H326.992C325.319 254.648 324.9 254.125 325.214 252.556L325.613 250.517ZM281.375 276.076L292.837 269.454C292.983 269.782 292.977 270.249 292.849 270.892L285.422 309.177C285.317 309.7 285.84 309.7 286.259 309.177L307.598 270.16C308.121 269.219 308.853 268.8 310.004 268.8H314.711C316.28 268.8 316.698 269.323 316.384 270.892L302.891 339.93C302.577 341.29 301.844 342.022 300.485 342.022H294.208C292.744 342.022 292.116 341.29 292.43 339.93L299.857 301.75C299.962 301.227 299.439 301.018 299.02 301.75L277.681 340.767C277.158 341.604 276.426 342.022 275.38 342.022H270.673C269.208 342.022 268.581 341.29 268.895 339.93L281.375 276.076ZM250.333 294.012L266.661 284.577L258.867 296.939C258.554 297.462 258.449 298.089 258.554 298.821L261.796 339.93C261.901 341.29 261.273 342.022 259.913 342.022H253.742C252.173 342.022 251.441 341.29 251.336 339.93L249.035 310.746C248.93 310.118 248.616 310.118 248.198 310.746L244.537 316.604C244.118 317.127 243.805 317.964 243.595 319.114L239.516 339.93C239.202 341.29 238.47 342.022 237.11 342.022H230.834C229.369 342.022 228.742 341.29 229.056 339.93L236.464 302.025L248.199 295.244L247.989 296.311C247.884 296.834 248.407 296.938 248.825 296.415L250.333 294.012ZM471.459 365.336L454.457 375.082L464.054 357.534C464.577 356.593 465.31 356.174 466.46 356.174H471.167C472.736 356.174 473.155 356.697 472.841 358.266L471.459 365.336ZM444.991 380.508L433.174 387.282L438.845 358.266C439.159 356.906 439.996 356.174 441.356 356.174H447.632C449.201 356.174 449.619 356.697 449.305 358.266L444.991 380.508ZM432.383 237.912C431.233 243.037 428.095 245.443 424.643 245.443C420.982 245.443 418.68 242.933 419.831 237.912L427.467 198.163C428.618 193.037 431.756 190.631 435.208 190.631C438.869 190.631 441.17 193.142 440.019 198.163L432.383 237.912ZM382.021 221.236C381.689 221.508 381.584 222.058 381.374 223.163L377.503 243.247C377.29 244.368 377.185 244.917 377.412 245.186C377.63 245.443 378.153 245.443 379.177 245.443H382.315C385.767 245.443 387.964 242.933 389.01 237.912L390.788 228.498C391.729 223.477 390.474 220.966 387.022 220.966H383.989C382.897 220.966 382.348 220.966 382.021 221.236ZM474.056 252.556C473.742 253.916 473.01 254.648 471.65 254.648H449.579C448.115 254.648 447.487 253.916 447.801 252.556L461.295 183.518C461.608 182.159 462.445 181.426 463.805 181.426H485.876C487.445 181.426 487.864 181.949 487.55 183.518L486.399 189.167C486.085 190.527 485.249 191.259 483.889 191.259H472.278C471.239 191.259 470.716 191.259 470.402 191.515C470.083 191.775 469.978 192.298 469.767 193.351L466.734 209.042C466.315 211.134 466.315 211.134 468.408 211.134H480.018C481.587 211.134 482.006 211.657 481.692 213.226L480.646 218.874C480.332 220.234 479.495 220.966 478.136 220.966H466.525C465.486 220.966 464.963 220.966 464.648 221.222C464.329 221.482 464.225 222.005 464.014 223.058L460.248 242.724C459.83 244.816 459.83 244.816 461.922 244.816H473.533C475.102 244.816 475.521 245.339 475.207 246.908L474.056 252.556ZM451.535 285.537C452.686 280.411 455.824 278.005 459.276 278.005C462.937 278.005 465.238 280.516 464.088 285.537L463.983 286.269C463.669 287.838 464.088 288.361 465.657 288.361H471.828C473.397 288.361 474.339 287.42 474.443 285.641C475.803 273.926 470.05 268.382 461.159 268.382C451.535 268.382 443.167 274.763 440.552 288.256L433.962 322.566C431.347 336.06 437.205 342.441 446.828 342.441C455.72 342.441 463.565 336.897 466.807 325.181C467.33 323.403 466.807 322.462 465.238 322.462H459.067C457.707 322.462 456.87 323.194 456.556 324.554L456.452 325.286C455.301 330.411 452.163 332.817 448.711 332.817C445.05 332.817 442.749 330.307 443.899 325.286L451.535 285.537ZM315.109 342.022C313.644 342.022 313.017 341.29 313.33 339.93L326.824 270.892C327.138 269.533 327.975 268.8 329.335 268.8H354.439C356.008 268.8 356.427 269.323 356.113 270.892L354.962 276.541C354.649 277.901 353.812 278.633 352.452 278.633H337.807C336.769 278.633 336.246 278.633 335.931 278.889C335.612 279.149 335.508 279.672 335.297 280.725L334.042 287.629L334.042 287.629C333.831 288.681 333.727 289.204 333.941 289.464C334.153 289.721 334.676 289.721 335.715 289.721H338.854C349.628 289.721 353.393 295.474 350.464 310.641L348.372 321.102C345.443 336.269 339.481 342.022 328.707 342.022H315.109ZM331.966 299.289C331.663 299.55 331.584 300.073 331.427 301.123L325.674 330.621C325.463 331.673 325.358 332.196 325.573 332.456C325.785 332.713 326.308 332.713 327.347 332.713H330.485C332.473 332.713 334.146 331.667 334.983 330.516C335.506 329.993 335.925 329.156 336.238 328.006C337.075 325.809 337.284 324.868 337.807 322.043L340.213 309.7C340.946 307.085 341.155 304.575 340.841 302.378C340.527 300.181 339.272 299.031 336.971 299.031H333.833C332.791 299.031 332.268 299.031 331.966 299.289ZM377.938 342.022C379.298 342.022 380.03 341.29 380.344 339.93L381.495 334.282C381.809 332.713 381.39 332.19 379.821 332.19H368.21C367.171 332.19 366.648 332.19 366.436 331.933C366.221 331.673 366.326 331.15 366.537 330.098L370.302 310.432C370.513 309.379 370.618 308.856 370.936 308.596C371.251 308.34 371.774 308.34 372.813 308.34H384.424C385.783 308.34 386.62 307.608 386.934 306.248L387.98 300.6C388.294 299.031 387.876 298.508 386.307 298.508H374.696C372.604 298.508 372.604 298.508 373.022 296.415L376.055 280.725C376.266 279.672 376.371 279.149 376.69 278.889C377.004 278.633 377.527 278.633 378.566 278.633H390.177C391.537 278.633 392.373 277.901 392.687 276.541L393.838 270.892C394.152 269.323 393.733 268.8 392.164 268.8H370.093C368.733 268.8 367.896 269.533 367.583 270.892L354.089 339.93C353.775 341.29 354.403 342.022 355.867 342.022H377.938ZM419.644 268.8C430.418 268.8 434.184 274.553 431.255 289.721L429.79 296.834C426.966 312.001 421.004 317.65 410.125 317.65H406.987C404.895 317.65 404.895 317.65 404.476 319.742L400.501 339.93C400.188 341.29 399.455 342.022 398.096 342.022H391.819C390.146 342.022 389.727 341.499 390.041 339.93L403.535 270.892C403.849 269.533 404.686 268.8 406.045 268.8H419.644ZM412.757 278.264C412.453 278.524 412.374 279.047 412.217 280.097L407.091 306.457L407.078 306.519C406.883 307.447 406.787 307.903 406.972 308.127C407.151 308.344 407.594 308.343 408.467 308.341C408.561 308.34 408.66 308.34 408.765 308.34H411.903C413.891 308.34 415.564 307.294 416.401 306.144C416.924 305.621 417.343 304.784 417.656 303.633C418.493 301.436 418.702 300.495 419.225 297.671L421.004 288.675C421.736 285.223 421.84 283.863 421.736 281.457C421.631 279.051 420.271 278.005 417.761 278.005H414.623C413.581 278.005 413.058 278.005 412.757 278.264ZM520.734 268.8C522.303 268.8 522.721 269.323 522.407 270.892L508.913 339.93C508.6 341.29 507.867 342.022 506.508 342.022H500.231C498.767 342.022 498.139 341.29 498.453 339.93L510.064 280.202C510.273 279.156 509.855 278.633 508.809 278.633H495.21C494.164 278.633 493.537 279.156 493.328 280.202L481.717 339.93C481.403 341.29 480.671 342.022 479.311 342.022H473.035C471.57 342.022 470.943 341.29 471.256 339.93L484.75 270.892C485.064 269.533 485.901 268.8 487.261 268.8H520.734ZM266.44 356.174C268.009 356.174 268.427 356.697 268.113 358.266L254.62 427.304C254.306 428.664 253.574 429.396 252.214 429.396H245.938C244.473 429.396 243.845 428.664 244.159 427.304L255.77 367.576C255.979 366.53 255.561 366.007 254.515 366.007H240.917C239.871 366.007 239.243 366.53 239.034 367.576L227.423 427.304C227.109 428.664 226.377 429.396 225.017 429.396H218.741C217.276 429.396 216.649 428.664 216.962 427.304L230.456 358.266C230.77 356.906 231.607 356.174 232.967 356.174H266.44ZM273.862 428.141C273.339 428.978 272.607 429.396 271.561 429.396H266.854C265.39 429.396 264.762 428.664 265.076 427.304L278.57 358.266C278.883 356.906 279.72 356.174 281.08 356.174H287.356C288.925 356.174 289.344 356.697 289.03 358.266L281.603 396.551C281.498 397.074 282.021 397.074 282.44 396.551L303.779 357.534C304.302 356.593 305.034 356.174 306.185 356.174H310.892C312.461 356.174 312.879 356.697 312.566 358.266L299.072 427.304C298.758 428.664 298.026 429.396 296.666 429.396H290.39C288.925 429.396 288.298 428.664 288.611 427.304L296.038 389.124C296.143 388.601 295.62 388.392 295.201 389.124L273.862 428.141ZM318.194 363.915C317.88 365.484 318.298 366.007 319.867 366.007H326.248C327.22 366.007 327.716 366.007 327.921 366.251C328.136 366.507 328.031 367.03 327.817 368.099L316.311 427.304C315.997 428.664 316.625 429.396 318.089 429.396H324.365C325.725 429.396 326.457 428.664 326.771 427.304L338.277 368.099C338.488 367.046 338.593 366.523 338.912 366.263C339.226 366.007 339.749 366.007 340.788 366.007H347.064C348.424 366.007 349.261 365.275 349.575 363.915L350.725 358.266C351.039 356.697 350.621 356.174 349.052 356.174H321.855C320.495 356.174 319.658 356.906 319.344 358.266L318.194 363.915ZM365.152 382.325C365.048 382.43 364.943 382.534 364.838 382.743L355.633 408.162C355.261 409.226 355.078 409.749 355.263 410.006C355.442 410.254 355.965 410.254 356.993 410.254H362.851C363.897 410.254 364.42 410.254 364.694 409.993C364.969 409.731 364.995 409.208 365.048 408.162L365.675 382.743C365.675 382.43 365.466 382.22 365.152 382.325Z" fill="white"/>
<path fill-rule="evenodd" clip-rule="evenodd" d="M260.856 287.441L232.073 304.025L238.549 270.892C238.863 269.533 239.7 268.8 241.06 268.8H247.336C248.905 268.8 249.323 269.323 249.01 270.892L243.989 296.311C243.884 296.834 244.407 296.939 244.825 296.415L260.83 270.892C261.666 269.533 262.817 268.8 264.282 268.8H270.453C271.918 268.8 272.231 269.533 271.29 270.892L260.856 287.441ZM288.757 271.365L276.968 278.157L278.388 270.892C278.702 269.533 279.539 268.8 280.899 268.8H287.175C288.744 268.8 289.162 269.323 288.849 270.892L288.757 271.365ZM332.989 245.878L321.191 252.676C321.198 252.637 321.206 252.597 321.214 252.556L334.708 183.518C335.022 182.159 335.859 181.426 337.218 181.426H350.817C361.591 181.426 365.357 187.18 362.428 202.347L360.963 209.46C358.139 224.627 352.177 230.276 341.298 230.276H338.16C336.068 230.276 336.068 230.276 335.649 232.368L332.989 245.878ZM401.159 206.6L366.206 226.739L374.654 183.518C374.968 182.159 375.805 181.426 377.164 181.426H390.763C400.282 181.426 405.198 187.18 402.583 200.883L402.478 201.406C402.139 203.255 401.7 204.986 401.159 206.6ZM441.538 183.334L412.672 199.966C415.483 187.1 423.687 181.008 433.09 181.008C436.423 181.008 439.304 181.773 441.538 183.334ZM286.626 181.426C288.195 181.426 288.613 181.949 288.299 183.518L274.806 252.556C274.492 253.916 273.759 254.648 272.4 254.648H266.123C264.659 254.648 264.031 253.916 264.345 252.556L275.956 192.828C276.165 191.782 275.747 191.259 274.701 191.259H261.103C260.056 191.259 259.429 191.782 259.22 192.828L247.609 252.556C247.295 253.916 246.563 254.648 245.203 254.648H238.927C237.462 254.648 236.835 253.916 237.148 252.556L250.642 183.518C250.956 182.159 251.793 181.426 253.153 181.426H286.626ZM311.517 252.556C311.203 253.916 310.471 254.648 309.111 254.648H287.04C285.576 254.648 284.948 253.916 285.262 252.556L298.756 183.518C299.069 182.159 299.906 181.426 301.266 181.426H323.337C324.906 181.426 325.325 181.949 325.011 183.518L323.86 189.167C323.546 190.527 322.71 191.259 321.35 191.259H309.739C308.7 191.259 308.177 191.259 307.863 191.515C307.544 191.775 307.439 192.298 307.228 193.351L304.195 209.042C303.776 211.134 303.776 211.134 305.869 211.134H317.479C319.048 211.134 319.467 211.657 319.153 213.226L318.107 218.874C317.793 220.234 316.956 220.966 315.597 220.966H303.986C301.894 220.966 301.894 220.966 301.475 223.058L297.709 242.724C297.291 244.816 297.291 244.816 299.383 244.816H310.994C312.563 244.816 312.982 245.339 312.668 246.908L311.517 252.556ZM343.39 192.723C343.547 191.673 343.626 191.15 343.93 190.89C344.231 190.631 344.754 190.631 345.796 190.631H348.934C351.444 190.631 352.804 191.677 352.909 194.083C353.013 196.489 352.909 197.849 352.177 201.301L350.398 210.297C349.875 213.121 349.666 214.062 348.829 216.259C348.515 217.41 348.097 218.247 347.574 218.77C346.737 219.92 345.064 220.966 343.076 220.966H339.938C339.834 220.966 339.735 220.967 339.642 220.967H339.64C338.767 220.969 338.324 220.97 338.145 220.753C337.96 220.529 338.056 220.073 338.251 219.145L338.264 219.083L343.39 192.723V192.723ZM380.002 210.876C380.22 211.134 380.743 211.134 381.767 211.134H384.905C388.357 211.134 390.658 208.623 391.6 203.707L392.646 198.163C393.692 193.142 392.436 190.631 388.88 190.631H385.742C384.7 190.631 384.177 190.631 383.876 190.89C383.572 191.15 383.494 191.673 383.336 192.723L380.093 208.937C379.88 210.058 379.775 210.607 380.002 210.876Z" fill="white"/>
<path d="M41.736 613.634L884.345 127.153" stroke="url(#paint0_linear)"/>
<path d="M-137 517.179L934.574 -101.495" stroke="url(#paint1_linear)"/>
<path d="M1053 361.39L2007.44 -189.655" stroke="url(#paint2_linear)"/>
<path d="M798 916.975L1277.7 640.021" stroke="url(#paint3_linear)"/>
<g filter="url(#filter0_f)">
<path d="M908 756.445L1595.43 358.873" stroke="url(#paint4_linear)" stroke-width="5"/>
</g>
<path d="M1222.06 575.036L1388.88 478.557" stroke="url(#paint5_linear)" stroke-width="2"/>
<path d="M1262.97 551.376L1347.97 502.217" stroke="url(#paint6_linear)" stroke-width="3"/>
<path d="M1281.9 540.426L1329.03 513.167" stroke="url(#paint7_linear)" stroke-width="4"/>
<path d="M1292.06 534.548L1318.87 519.045" stroke="url(#paint8_linear)" stroke-width="4"/>
<path d="M1126.7 630.188L1484.24 423.405" stroke="url(#paint9_linear)"/>
<g filter="url(#filter1_f)">
<path d="M1086 724.853L1904.39 251.54" stroke="url(#paint10_linear)"/>
</g>
<path d="M524 239.498L1566.06 -362.137" stroke="url(#paint11_linear)"/>
<path d="M585 619.853L1403.39 146.54" stroke="url(#paint12_linear)"/>
<defs>
<filter id="filter0_f" x="895.834" y="201.485" width="711.759" height="712.349" filterUnits="userSpaceOnUse" color-interpolation-filters="sRGB">
<feFlood flood-opacity="0" result="BackgroundImageFix"/>
<feBlend mode="normal" in="SourceGraphic" in2="BackgroundImageFix" result="shape"/>
<feGaussianBlur stdDeviation="5" result="effect1_foregroundBlur"/>
</filter>
<filter id="filter1_f" x="1084.57" y="77.2158" width="821.255" height="821.961" filterUnits="userSpaceOnUse" color-interpolation-filters="sRGB">
<feFlood flood-opacity="0" result="BackgroundImageFix"/>
<feBlend mode="normal" in="SourceGraphic" in2="BackgroundImageFix" result="shape"/>
<feGaussianBlur stdDeviation="0.5" result="effect1_foregroundBlur"/>
</filter>
<linearGradient id="paint0_linear" x1="884.877" y1="126.846" x2="41.736" y2="613.634" gradientUnits="userSpaceOnUse">
<stop stop-color="#E30B17" stop-opacity="0"/>
<stop offset="0.196338" stop-color="#E30B17"/>
<stop offset="0.809343" stop-color="#E30B17"/>
<stop offset="1" stop-color="#E30B17" stop-opacity="0"/>
</linearGradient>
<linearGradient id="paint1_linear" x1="935.251" y1="-101.886" x2="-137" y2="517.179" gradientUnits="userSpaceOnUse">
<stop stop-color="#E30B17" stop-opacity="0"/>
<stop offset="0.196338" stop-color="#E30B17"/>
<stop offset="0.809343" stop-color="#E30B17"/>
<stop offset="1" stop-color="#E30B17" stop-opacity="0"/>
</linearGradient>
<linearGradient id="paint2_linear" x1="2008.04" y1="-190.003" x2="1053" y2="361.39" gradientUnits="userSpaceOnUse">
<stop stop-color="white" stop-opacity="0"/>
<stop offset="0.196338" stop-color="white"/>
<stop offset="0.809343" stop-color="white"/>
<stop offset="1" stop-color="white" stop-opacity="0"/>
</linearGradient>
<linearGradient id="paint3_linear" x1="1278" y1="639.846" x2="798" y2="916.975" gradientUnits="userSpaceOnUse">
<stop stop-color="white" stop-opacity="0"/>
<stop offset="0.27534" stop-color="white"/>
<stop offset="0.655244" stop-color="white"/>
<stop offset="1" stop-color="white" stop-opacity="0"/>
</linearGradient>
<linearGradient id="paint4_linear" x1="1595.86" y1="358.622" x2="907.406" y2="755.416" gradientUnits="userSpaceOnUse">
<stop stop-color="#E20C17" stop-opacity="0"/>
<stop offset="0.265938" stop-color="#E20C17"/>
<stop offset="0.69655" stop-color="#E20C17"/>
<stop offset="1" stop-color="#E20C17" stop-opacity="0"/>
</linearGradient>
<linearGradient id="paint5_linear" x1="1388.98" y1="478.496" x2="1221.91" y2="574.786" gradientUnits="userSpaceOnUse">
<stop stop-color="#FFB000" stop-opacity="0"/>
<stop offset="0.520833" stop-color="#FFB000"/>
<stop offset="1" stop-color="#FFB000" stop-opacity="0"/>
</linearGradient>
<linearGradient id="paint6_linear" x1="1348.02" y1="502.186" x2="1262.89" y2="551.249" gradientUnits="userSpaceOnUse">
<stop stop-color="#FFB000" stop-opacity="0"/>
<stop offset="0.520833" stop-color="#FFB000"/>
<stop offset="1" stop-color="#FFB000" stop-opacity="0"/>
</linearGradient>
<linearGradient id="paint7_linear" x1="1329.06" y1="513.15" x2="1281.86" y2="540.355" gradientUnits="userSpaceOnUse">
<stop stop-color="#FFB000" stop-opacity="0"/>
<stop offset="0.520833" stop-color="#FFB000"/>
<stop offset="1" stop-color="#FFB000" stop-opacity="0"/>
</linearGradient>
<linearGradient id="paint8_linear" x1="1318.89" y1="519.035" x2="1292.04" y2="534.507" gradientUnits="userSpaceOnUse">
<stop stop-color="#FFB000" stop-opacity="0"/>
<stop offset="0.520833" stop-color="#FFB000"/>
<stop offset="1" stop-color="#FFB000" stop-opacity="0"/>
</linearGradient>
<linearGradient id="paint9_linear" x1="1484.46" y1="423.274" x2="1126.39" y2="629.652" gradientUnits="userSpaceOnUse">
<stop stop-color="#FFB000" stop-opacity="0"/>
<stop offset="0.520833" stop-color="#FFB000"/>
<stop offset="1" stop-color="#FFB000" stop-opacity="0"/>
</linearGradient>
<linearGradient id="paint10_linear" x1="1904.91" y1="251.241" x2="1085.29" y2="723.627" gradientUnits="userSpaceOnUse">
<stop stop-color="#FFB000" stop-opacity="0"/>
<stop offset="0.322743" stop-color="#FFB000"/>
<stop offset="0.6084" stop-color="#FFB000"/>
<stop offset="1" stop-color="#FFB000" stop-opacity="0"/>
</linearGradient>
<linearGradient id="paint11_linear" x1="1566.72" y1="-362.517" x2="524" y2="239.498" gradientUnits="userSpaceOnUse">
<stop stop-color="white" stop-opacity="0"/>
<stop offset="0.196338" stop-color="white"/>
<stop offset="0.809343" stop-color="white"/>
<stop offset="1" stop-color="white" stop-opacity="0"/>
</linearGradient>
<linearGradient id="paint12_linear" x1="1403.91" y1="146.241" x2="584.293" y2="618.627" gradientUnits="userSpaceOnUse">
<stop stop-color="#FFB000" stop-opacity="0"/>
<stop offset="0.322743" stop-color="#FFB000"/>
<stop offset="0.6084" stop-color="#FFB000"/>
<stop offset="1" stop-color="#FFB000" stop-opacity="0"/>
</linearGradient>
</defs>
</svg>
