<svg width="102" height="109" viewBox="0 0 102 109" fill="none" xmlns="http://www.w3.org/2000/svg">
<path fill-rule="evenodd" clip-rule="evenodd" d="M83.5649 65.7809C80.6375 68.5924 78.8479 73.0237 75.0026 74.8712L70.8163 72.5312V72.2467C72.1292 70.0397 74.0176 68.175 75.3753 65.8744C74.788 65.8454 74.198 65.8125 73.6081 65.7809C72.3044 67.8352 70.412 69.5419 69.2335 71.5909L62.0684 69.0612L63.2799 65.8744C62.7834 65.8454 62.2857 65.8125 61.7892 65.7809L60.3012 68.4989C60.2458 68.5476 52.1102 67.3862 50.4352 67.3756C50.4062 66.8423 50.3733 66.3129 50.343 65.7809H48.7615V67.2821L45.04 67.6561C43.0515 67.9695 41.0683 68.279 39.0838 68.5924C38.5544 67.6245 38.029 66.6566 37.4996 65.6874H35.9194L37.2205 69.0612L30.0567 71.6857C28.8109 70.8508 26.0139 67.2874 25.4951 65.7809H23.7278C24.2994 68.0986 26.7935 70.6441 28.2868 72.2467L28.1947 72.7182C26.7329 73.2423 25.6729 74.7079 24.007 74.8712C21.6024 73.1935 19.2597 70.8179 17.4912 68.4989C16.8722 67.6561 16.2494 66.8133 15.6304 65.9679C15.2327 65.5636 14.4676 65.7269 13.7684 65.7809V65.8744C20.2698 77.9962 40.7101 90.139 60.5816 84.1499C71.1363 80.9683 80.4453 74.8238 85.2426 65.8744C84.6856 65.8454 84.1246 65.8125 83.5662 65.7809H83.5649ZM61.6141 70.2899C64.1754 70.5203 65.9663 71.7779 68.1286 72.3521V72.6339C66.4443 74.8989 63.5591 76.9242 61.1492 78.4439L58.7301 79.849L56.3097 79.0062V78.7257C57.9163 75.8444 60.1221 73.3529 61.6141 70.2899ZM50.879 68.4489C53.9315 68.4515 57.7082 68.4489 59.9061 69.5748L56.9273 74.7317L54.6966 77.8223C53.6549 78.3004 52.1116 77.7117 50.8777 77.634V68.4502L50.879 68.4489ZM48.8589 68.4515V77.5432L46.0672 78.0133C44.7239 77.9474 40.2242 71.0576 40.0175 69.4853C42.6815 68.869 45.5509 68.4041 48.8589 68.4515ZM38.1067 70.2899C39.0061 70.4795 39.1799 71.6673 39.5961 72.3521L43.8759 79.0062L41.549 80.036C39.3116 79.4855 32.8037 74.5842 31.87 72.7274C33.3212 71.263 36.2223 71.3196 38.1067 70.2899ZM38.8178 81.4872C35.7653 80.3942 32.8511 79.5514 30.2555 78.0199C28.9848 77.206 27.714 76.3935 26.4406 75.5823V75.2084C27.6521 74.488 28.861 73.7717 30.0699 73.0513H30.3477C33.3554 75.3822 35.9707 79.0839 39.8423 80.4534C39.6975 81.0934 39.338 81.2488 38.8178 81.4872ZM58.6972 82.4946C52.5501 83.4414 47.0746 83.4414 40.9222 82.4946V82.1193C42.4998 81.2317 44.1182 80.3731 46.1343 79.8701C47.1259 79.7436 48.1188 79.6199 49.1131 79.4947C52.7792 79.4895 56.6785 80.2019 58.5115 82.1193H58.6972V82.4946ZM73.425 75.3018C71.4115 77.9553 64.6192 80.1835 60.9543 81.4872C60.4802 81.237 60.0984 81.0315 59.9298 80.4534C62.7466 79.2775 67.4662 75.3901 69.2361 73.0526C71.0191 73.1685 71.9304 74.5275 73.425 75.02V75.3018ZM101.507 37.8699C101.056 35.7537 100.46 33.3729 99.4595 31.6846C96.1041 26.0287 89.2972 23.2251 80.1964 23.3462C78.3369 23.6557 76.4749 23.9691 74.6128 24.2812C69.3809 25.8746 65.4843 28.7638 63.4458 33.5598C62.4055 36.0092 62.4397 38.6166 61.9565 41.8087C59.9416 55.1077 72.3281 64.6616 85.7799 62.1437C94.9031 60.4371 99.3897 56.7051 101.415 47.807C102.039 45.0587 102.123 40.7644 101.507 37.8699ZM88.5071 42.6699C88.3188 45.8831 88.6506 49.0383 87.2034 50.9188C86.4344 51.917 84.7856 52.3476 83.2949 52.6044C76.5421 53.7711 76.2234 47.9558 76.2234 42.1089C76.2234 39.6424 76.1667 36.9205 76.9674 35.1743C77.8589 33.2267 79.5682 33.3821 81.6186 32.5498C87.9132 32.4405 88.8627 36.5623 88.5071 42.6699ZM0.191502 23.3423V32.7144H5.58934V51.9235H0.190186V61.2022H24.1084V51.9235H18.6171V32.7144H24.1084V23.3423H0.191502Z" fill="white"/>
<path fill-rule="evenodd" clip-rule="evenodd" d="M52.0325 24.4965H60.0351V37.4282H52.2195C50.6221 34.4376 41.404 29.4322 37.3283 33.2116V33.8674C38.474 35.9599 43.0751 36.2904 45.5192 37.0542C52.1523 39.1243 58.5391 40.5307 60.7817 46.9873C64.2846 57.0758 53.8708 64.0749 44.0285 62.3577C41.5818 61.9311 39.2786 61.4399 37.2362 60.5787L34.4444 59.1696V61.7019H26.1613V47.7353H33.7004C35.3544 51.1328 40.2557 54.4605 45.7049 53.5466C47.4985 53.2463 48.71 53.3451 49.7056 52.3285V51.7675C48.4308 49.9371 44.583 49.5947 42.2613 48.8612C35.8271 46.8279 28.8964 45.4321 26.4392 39.3956C22.378 29.4124 32.7562 21.9537 42.5405 23.5589C44.608 23.8947 46.7782 24.1331 48.4967 24.8692L52.0325 26.6509V24.4952V24.4965ZM78.9136 12.2392C71.5287 4.8094 61.6324 0.101603 46.6201 0.336005L43.7362 0.617814L36.6633 2.21122C27.3676 5.14783 18.0731 11.9113 13.767 19.8309V19.9231H15.4433C16.248 18.8617 17.0565 17.8003 17.8637 16.7376C19.602 14.5252 21.8328 12.521 24.0991 10.8327C25.4937 11.6782 26.8909 12.521 28.2867 13.3638C26.8197 15.5761 24.9221 17.396 23.7238 19.9244V20.0166C24.3138 19.9876 24.9037 19.956 25.4937 19.9244C26.455 17.6172 28.6739 16.1713 29.8657 14.117L36.9412 16.6441L35.7297 19.6426V19.9244H37.406L38.7071 17.209C38.7124 17.2037 46.794 18.2362 48.4809 18.2388L48.6665 19.8309H50.1546C50.4101 19.5701 50.3745 18.8696 50.3403 18.3323C52.7449 17.8372 55.4194 17.9504 57.6015 17.4895L60.1114 17.1116L61.4151 19.9244H63.0902L61.8813 16.5506C64.2372 15.7078 66.5957 14.865 68.9529 14.0196C70.4436 15.9751 72.3161 17.666 73.5145 19.9244L75.0947 19.8309H75.2804C74.3217 17.5185 72.3043 15.2587 70.7214 13.4573V13.0833C71.954 12.4275 73.4526 11.0066 74.909 10.8327C78.0195 13.078 81.4302 16.3662 83.2843 19.8309H85.0542C84.8527 17.8819 80.3701 13.7088 78.9123 12.2405L78.9136 12.2392ZM29.5364 11.5254C28.2341 10.8696 26.933 10.2112 25.628 9.55538L25.5358 9.08789C27.8798 7.54453 30.3516 5.95375 33.0749 4.77779C34.6551 4.21286 36.238 3.65187 37.8195 3.08957C38.1909 3.30949 38.5636 3.52809 38.9389 3.74537V3.83887C38.6268 4.87919 36.6133 5.60742 35.7705 6.18289C33.6635 7.63012 31.093 9.50797 29.5364 11.5254ZM38.3858 14.4897C35.943 14.2487 34.1402 12.8765 31.9634 12.4275L31.8712 12.0522C33.9216 8.78633 38.258 7.37729 41.1775 4.93055L43.5966 5.77334C43.4728 6.86239 42.688 7.29564 42.2007 8.02387C40.9089 9.94649 39.1338 12.2049 38.3845 14.4897H38.3858ZM48.8588 16.2372C45.7774 16.7942 42.7104 15.6749 40.0174 15.3944C40.2215 12.2431 44.1616 9.31308 45.3191 6.77153C46.499 6.92955 47.6789 7.08494 48.8588 7.24033V16.2372ZM40.9207 2.46801V2.37583C43.0198 1.30522 46.2014 2.12563 48.5533 1.24859C52.313 1.2723 55.4629 1.97155 58.6036 2.18752C58.6326 2.28102 58.6642 2.37451 58.6958 2.46801C55.3865 6.39885 44.3156 5.79441 40.9207 2.46801ZM50.8763 16.2372V7.14683C51.964 7.02305 53.0504 6.89663 54.1342 6.77153C55.5854 7.91983 59.2081 13.1978 59.6255 15.2074C56.8601 15.5392 54.1921 16.2806 50.8776 16.2372H50.8763ZM67.4082 12.334C65.2354 12.866 63.4102 14.2487 60.8937 14.4897C59.1251 11.7401 57.3552 8.99176 55.5893 6.24215L55.4023 5.86684C56.1463 5.55474 56.8904 5.24133 57.637 4.93187C60.7554 5.90503 65.5935 9.65546 67.4082 12.0522V12.334ZM73.2379 9.27489C72.5203 10.0189 70.5463 11.2686 69.3269 11.3371C67.1751 9.68707 65.3486 7.59193 63.0928 5.99458C62.1868 5.35326 60.4762 4.81466 59.9284 3.83887L60.7685 3.08957C65.72 3.90866 69.6047 6.73861 73.2393 8.9944V9.27489H73.2379ZM18.2904 100.59C18.2904 105.047 16.0715 107.093 11.8746 108.826L10.3168 106.989C12.882 106.173 14.2002 104.579 14.4596 103.868C14.1133 104.04 13.6629 104.145 13.2468 104.145C11.1477 104.145 9.44897 102.88 9.44897 100.123C9.44897 97.6958 11.2531 95.9444 14.0448 95.9444C16.8879 95.9444 18.2917 97.7472 18.2917 100.59H18.2904ZM14.9956 100.208C14.9956 98.9785 14.6137 98.3372 13.8697 98.3372C13.0532 98.3372 12.6384 98.9613 12.6384 100.036C12.6384 101.006 13.2442 101.718 14.1291 101.718C14.4583 101.718 14.7191 101.631 14.8929 101.509C14.9956 101.093 14.9956 100.66 14.9956 100.21V100.208ZM27.8614 101.995C27.8614 105.601 26.0573 108.098 23.5434 108.098C20.9781 108.098 19.2965 105.758 19.2965 102.099C19.2965 98.1291 21.0822 96.0655 23.5961 96.0655C26.1613 96.0655 27.8614 98.1633 27.8614 101.995ZM24.5324 101.926C24.5324 100.573 24.427 99.5329 24.2203 98.8915C24.0636 98.4241 23.891 98.1633 23.6132 98.1633C23.284 98.1633 23.0759 98.4056 22.9192 98.8573C22.6953 99.5329 22.6071 100.694 22.6071 102.168C22.6071 103.314 22.6598 104.249 22.798 104.907C22.9376 105.601 23.1628 105.983 23.5434 105.983C23.9951 105.983 24.2018 105.601 24.3414 104.977C24.4981 104.249 24.5324 103.174 24.5324 101.926ZM37.5693 101.995C37.5693 105.601 35.7679 108.098 33.2526 108.098C30.6874 108.098 29.0057 105.758 29.0057 102.099C29.0057 98.1291 30.7914 96.0655 33.3053 96.0655C35.8719 96.0655 37.5706 98.1633 37.5706 101.995H37.5693ZM34.2416 101.926C34.2416 100.573 34.1376 99.5329 33.9295 98.8915C33.7728 98.4241 33.6003 98.1633 33.3237 98.1633C32.9932 98.1633 32.7852 98.4056 32.6298 98.8573C32.4033 99.5329 32.3177 100.694 32.3177 102.168C32.3177 103.314 32.369 104.249 32.5073 104.907C32.6469 105.601 32.8721 105.983 33.2526 105.983C33.7043 105.983 33.9111 105.601 34.0507 104.977C34.2074 104.249 34.2416 103.174 34.2416 101.926ZM46.3094 107.873H39.8409V105.619H41.9031V99.5144C41.3316 99.8436 40.7245 100.226 39.9963 100.451L39.2167 98.856L42.8223 96.1511H44.7304V105.618H46.308V107.871L46.3094 107.873ZM52.2734 101.492C52.2734 102.48 51.4583 103.278 50.4878 103.278C50.0166 103.275 49.5658 103.086 49.2343 102.751C48.9027 102.416 48.7175 101.964 48.7192 101.492C48.7192 100.539 49.5159 99.7409 50.4878 99.7409C51.4583 99.7409 52.2734 100.539 52.2734 101.492ZM52.2734 106.399C52.2734 107.387 51.4583 108.185 50.4878 108.185C50.0166 108.182 49.5658 107.992 49.2343 107.658C48.9027 107.323 48.7175 106.87 48.7192 106.399C48.7192 105.446 49.5159 104.648 50.4878 104.648C51.4583 104.648 52.2734 105.446 52.2734 106.399ZM62.3646 105.359L61.7062 107.874H54.0591V105.688C55.1864 104.7 56.5032 103.503 57.4395 102.343C58.256 101.336 58.7748 100.66 58.7748 99.5157C58.7748 98.8915 58.4456 98.4056 57.7002 98.4056C56.9891 98.4056 56.4176 98.7704 55.6025 99.4986L53.643 97.7301C55.0652 96.5515 56.3649 95.9444 58.2388 95.9444C60.7685 95.9444 62.0867 97.4008 62.0867 99.4473C62.0867 101.995 59.9021 103.851 57.4395 105.463C57.9154 105.387 58.397 105.352 58.8788 105.359H62.3646ZM71.9869 101.995C71.9869 105.601 70.1828 108.098 67.6702 108.098C65.1024 108.098 63.422 105.758 63.422 102.099C63.422 98.1291 65.2077 96.0655 67.7216 96.0655C70.2882 96.0655 71.9869 98.1633 71.9869 101.995ZM68.6579 101.926C68.6579 100.573 68.5539 99.5329 68.3458 98.8915C68.1904 98.4241 68.0166 98.1633 67.74 98.1633C67.4108 98.1633 67.2014 98.4056 67.046 98.8573C66.8195 99.5329 66.7339 100.694 66.7339 102.168C66.7339 103.314 66.7866 104.249 66.9236 104.907C67.0632 105.601 67.2884 105.983 67.6702 105.983C68.1206 105.983 68.3287 105.601 68.4669 104.977C68.6237 104.249 68.6579 103.174 68.6579 101.926ZM80.7256 107.873H74.2585V105.619H76.3221V99.5144C75.7492 99.8436 75.1421 100.226 74.4139 100.451L73.6343 98.856L77.2399 96.1525H79.148V105.619H80.7256V107.873ZM91.0933 103.817C91.0933 106.433 88.8573 108.497 85.3202 108.497C84.7474 108.497 84.3839 108.444 83.9849 108.376L83.3093 106.036C83.9197 106.159 84.5407 106.223 85.1635 106.225C86.828 106.225 87.8854 105.411 87.8854 104.11C87.8854 103.227 87.2613 102.707 86.0484 102.707C85.1292 102.707 84.5577 102.811 83.7426 103.036L84.2627 96.1696H90.7128L90.2611 98.7875H87.0716L86.8807 100.434C87.1045 100.399 87.2968 100.382 87.7129 100.382C89.654 100.382 91.0933 101.874 91.0933 103.815V103.817Z" fill="white"/>
</svg>
