<svg width="107" height="101" viewBox="0 0 107 101" fill="none" xmlns="http://www.w3.org/2000/svg">
<path d="M7.72536 37.3322H4.63525C4.63525 36.7528 4.82839 36.1734 4.82839 35.7872C5.19248 34.471 5.64413 33.1805 6.18031 31.9245C6.7448 30.5363 7.38967 29.1821 8.11162 27.8688C8.88415 26.5169 9.46355 25.1649 10.2361 23.813C10.7678 22.8368 11.4164 21.9288 12.1674 21.1092C13.3262 19.5641 14.6781 18.0191 16.03 16.474C17.7399 14.3782 19.7587 12.5548 22.0171 11.0663C23.8061 9.66933 25.6764 8.37952 27.6179 7.20368C29.6234 5.94446 31.7606 4.90826 33.9913 4.11358C36.1539 3.14411 38.4225 2.43111 40.7509 1.98913C42.4015 1.55651 44.079 1.23392 45.7723 1.02347C47.4374 0.798823 49.1139 0.669857 50.7937 0.637207H56.2014C57.753 0.669937 59.301 0.798939 60.8366 1.02347C61.3738 1.03654 61.9015 1.16846 62.3816 1.40973C62.961 1.60287 63.5404 1.60287 64.1198 1.796C64.5405 2.01284 65 2.14412 65.4717 2.18226C66.2016 2.28471 66.9154 2.4794 67.5962 2.76166C68.3952 2.93141 69.1727 3.19055 69.9138 3.53418C70.8794 3.92045 71.8451 4.30671 72.6176 4.69297C73.6848 5.12999 74.7178 5.64645 75.7077 6.23803C76.2871 6.62429 77.0596 6.81742 77.639 7.20368C78.6047 7.78308 79.5703 8.36247 80.3429 8.94187C81.6948 9.90753 83.2398 10.8732 84.5918 12.032C86.098 13.2169 87.5179 14.5078 88.8407 15.8946C90.1653 17.22 91.3917 18.6401 92.5102 20.1435C93.2827 21.3023 94.2484 22.268 95.0209 23.4267C95.7934 24.7787 96.7591 26.1306 97.5316 27.6756C98.4842 29.4886 99.3227 31.3591 100.042 33.2765C100.429 34.4352 100.815 35.594 101.201 36.946V37.5254H98.8835C97.9179 37.5254 98.111 37.3322 97.7247 36.5597C97.2945 35.177 96.7785 33.8224 96.1797 32.5039C95.6152 31.1157 94.9703 29.7615 94.2484 28.4482C92.8869 25.9078 91.269 23.5133 89.4201 21.3023C88.0681 19.7572 86.7162 18.2122 85.3643 16.8603C83.6991 15.2199 81.8892 13.7332 79.9566 12.4182C78.7978 11.6457 77.4459 10.8732 76.094 10.1007C75.3214 9.7144 74.5489 9.32813 73.5833 8.74874L71.2657 7.58995C71.0726 7.01055 70.4932 6.81742 70.1069 6.62429C69.5275 6.43116 68.755 6.04489 67.9824 5.85176C66.6305 5.4655 65.0855 5.07924 63.5404 4.69297C61.6091 4.30671 59.6778 3.92045 57.7465 3.72731C55.4289 3.53418 53.1113 3.53418 50.7937 3.53418C48.0491 3.53998 45.3187 3.93003 42.6822 4.69297C40.833 5.02813 39.0216 5.54568 37.2745 6.23803C35.6963 6.79905 34.149 7.44374 32.6393 8.16934C31.3775 8.73686 30.152 9.38186 28.9698 10.1007C26.4338 11.6172 24.0419 13.3627 21.824 15.3152C19.6337 17.2481 17.6292 19.3819 15.8369 21.6886C14.6534 23.1256 13.6181 24.6785 12.7468 26.3237C11.7811 28.0619 10.8155 29.8001 9.84981 31.7314C9.27041 33.0833 8.69102 34.6284 8.11162 36.1734L7.72536 37.3322Z" fill="white"/>
<path d="M4.63529 63.406H7.72539C7.91853 63.9854 8.11166 64.7579 8.30479 65.3373C8.73601 66.6568 9.2521 67.9471 9.84984 69.2C10.8278 71.3824 11.9238 73.51 13.1331 75.5733C14.0525 77.0669 15.0856 78.4874 16.2232 79.8222L19.1202 83.2986C19.7147 83.9898 20.3603 84.6354 21.0515 85.2299C22.5965 86.5818 24.1416 87.7406 25.6866 88.8994C26.8989 89.8467 28.1914 90.6868 29.5493 91.4101C31.2875 92.3758 32.8325 93.1483 34.5707 93.9208C36.0529 94.6081 37.6077 95.1264 39.2059 95.4659C40.1715 95.659 40.944 96.0453 41.9097 96.2384C43.0685 96.4315 44.2273 96.6247 45.5792 96.8178C46.7254 97.0417 47.8881 97.1709 49.0556 97.2041H53.8839C56.4739 97.1286 59.0554 96.8705 61.6091 96.4315C64.1884 95.9938 66.7134 95.2816 69.1413 94.3071C70.7853 93.6803 72.3967 92.9713 73.9696 92.1826C75.5128 91.4616 76.9979 90.6221 78.4116 89.6719C79.5704 88.8994 80.536 88.1269 81.5017 87.3543C82.8536 86.1956 84.2055 85.2299 85.3643 84.0711C86.3166 83.1543 87.2192 82.1873 88.0682 81.1741C89.3977 79.6484 90.6236 78.0353 91.7377 76.3458C92.7033 74.8008 93.669 73.0626 94.4415 71.5176C95.1671 70.0079 95.8118 68.4606 96.3728 66.8824C96.7591 65.7236 97.3385 64.5648 97.7248 63.2129H100.815C100.815 63.5992 100.622 63.7923 100.622 64.1785C100.622 64.5648 100.429 64.7579 100.235 65.1442L99.0767 68.6206C98.7439 69.7599 98.2907 70.8605 97.7248 71.9038C96.9522 73.4489 96.1797 74.9939 95.4072 76.3458C94.6347 77.6978 93.669 79.0497 92.8965 80.2085C91.5445 81.9467 89.9995 83.6848 88.6476 85.423C87.6819 86.5818 86.33 87.5475 85.1712 88.7063C84.3178 89.4734 83.4146 90.1831 82.4674 90.8307C81.5017 91.4101 80.7292 91.9895 79.7635 92.5689C79.1461 92.9975 78.5009 93.3846 77.8322 93.7277C76.8665 94.3071 75.7077 94.8865 74.7421 95.4659C73.0039 96.2384 71.4588 97.0109 69.7207 97.5903C68.5619 97.9766 67.2099 98.3629 65.858 98.7491C63.9267 99.1354 62.1885 99.5216 60.2572 99.9079C59.0984 100.101 57.9396 100.101 56.7808 100.294C55.2413 100.455 53.6932 100.519 52.1457 100.487C51.24 100.526 50.3328 100.462 49.4418 100.294C48.283 100.294 47.1243 100.101 45.9655 100.101H45.7723C44.6135 99.9079 43.6479 99.7148 42.4891 99.5216C40.7865 99.1859 39.1087 98.7342 37.4677 98.1697C36.3089 97.7835 35.3432 97.3972 34.1844 97.0109C33.5215 96.8042 32.8758 96.5459 32.2531 96.2384C31.2875 95.8521 30.3218 95.2728 29.3561 94.8865C28.3905 94.3071 27.4248 93.9208 26.4592 93.3414C24.9141 92.3758 23.3691 91.4101 22.0171 90.4445C19.9497 88.8638 18.0121 87.12 16.2232 85.2299C15.0268 84.0326 13.9289 82.7409 12.9399 81.3673C11.7359 79.8352 10.6389 78.2219 9.65671 76.539C8.57638 74.7336 7.60887 72.8631 6.75974 70.9382C6.09705 69.4914 5.51673 68.0084 5.02155 66.4961C4.67652 65.6887 4.41758 64.8471 4.24902 63.9854C4.44216 63.9854 4.63529 63.7923 4.63529 63.406Z" fill="white"/>
<path d="M0.000488281 60.5086V40.0366H6.37383V47.1825H12.9403V40.0366H19.3137C19.5068 40.4229 19.6999 59.7361 19.3137 60.5086H12.9403V52.3971H6.37383V60.5086H0.000488281Z" fill="white"/>
<path d="M36.1165 39.8411C38.8203 46.6007 41.331 53.3603 43.8418 60.313H37.0821C36.6959 59.3474 36.5027 58.3817 36.1165 57.4161C35.9234 57.0298 35.9234 56.8367 35.344 56.8367H28.7775C28.4501 57.9134 28.192 59.0101 28.005 60.1199H21.4385C23.9492 53.1672 26.4599 46.6007 28.9706 39.6479C31.3362 39.9991 33.7354 40.064 36.1165 39.8411ZM34.5714 52.5878C33.7989 50.2702 33.2195 48.1457 32.447 46.0213H32.2539C31.6745 48.1457 30.9019 50.2702 30.3225 52.5878H34.5714Z" fill="white"/>
<path d="M86.1374 46.0228L80.9228 47.1815C80.5366 47.1815 80.3434 47.1815 80.1503 46.7953C79.9622 46.1944 79.6089 45.6584 79.1308 45.2486C78.6528 44.8388 78.0691 44.5717 77.4465 44.4777C76.9214 44.3747 76.3803 44.386 75.8599 44.5107C75.3395 44.6354 74.8521 44.8706 74.4307 45.2004C74.0093 45.5302 73.6639 45.9468 73.4178 46.4219C73.1716 46.8971 73.0307 47.4196 73.0044 47.9541C73.0044 49.1129 72.8113 50.2717 72.8113 51.6236C72.775 52.3122 72.8952 53.0001 73.1628 53.6356C73.4304 54.2711 73.8385 54.8378 74.3564 55.2931C75.15 55.8371 76.099 56.1083 77.0602 56.0656C77.8456 55.9983 78.5887 55.6804 79.1798 55.1588C79.7709 54.6372 80.1788 53.9396 80.3434 53.1686C80.3434 52.9755 80.5366 52.7824 80.5366 52.5892C80.536 52.5637 80.5406 52.5384 80.5501 52.5147C80.5597 52.491 80.5739 52.4695 80.5919 52.4514C80.61 52.4334 80.6315 52.4192 80.6551 52.4097C80.6788 52.4002 80.7042 52.3956 80.7297 52.3961C82.661 52.9755 84.3992 53.3618 86.3305 53.9412C86.1374 54.5206 86.1374 55.0999 85.9443 55.6793C85.4805 56.7098 84.8971 57.6822 84.2061 58.5763C83.6244 59.3123 82.8934 59.9166 82.0611 60.3493C81.2289 60.7821 80.3143 61.0335 79.3778 61.087C78.6053 61.087 77.6396 61.2802 76.8671 61.2802C75.2238 61.3224 73.5868 61.0605 72.0388 60.5076C70.1894 59.7182 68.6353 58.3669 67.5967 56.645C66.579 54.6123 66.1128 52.348 66.2448 50.0785C66.2487 48.896 66.4444 47.722 66.8242 46.6022C67.2621 45.0439 68.1273 43.6393 69.3219 42.5472C70.5164 41.455 71.9927 40.7188 73.5838 40.4219C75.0378 40.069 76.5467 40.0034 78.0259 40.2288C78.7498 40.246 79.4666 40.3763 80.1503 40.6151C81.7013 40.9521 83.0753 41.8452 84.0129 43.1258C84.7787 44.1109 85.3669 45.2219 85.7511 46.409C86.1374 45.8296 86.1374 45.8296 86.1374 46.0228Z" fill="white"/>
<path d="M64.1203 46.0235C62.189 46.6029 60.2577 46.9892 58.3263 47.3754C58.2761 46.8928 58.1091 46.4296 57.84 46.0259C57.5708 45.6221 57.2075 45.2899 56.7813 45.0579C56.2787 44.833 55.7627 44.6395 55.2362 44.4785C54.1858 44.441 53.1571 44.7839 52.3393 45.4441C51.8938 45.8225 51.5405 46.2975 51.3062 46.833C51.0719 47.3684 50.9629 47.9503 50.9873 48.5342C50.8908 49.3684 50.8908 50.2108 50.9873 51.045C50.9296 51.7476 51.0202 52.4545 51.253 53.1199C51.4859 53.7852 51.856 54.3943 52.3393 54.9076C52.7897 55.2779 53.3178 55.5419 53.8843 55.6801C54.4779 55.8902 55.1186 55.9291 55.7333 55.7925C56.348 55.6559 56.9119 55.3493 57.3607 54.9076C57.7911 54.3589 58.1785 53.7777 58.5195 53.1694C58.6739 52.7265 58.8028 52.2751 58.9057 51.8175C60.6439 52.3969 62.5752 52.9763 64.5065 53.5557C64.5065 53.7488 64.3134 54.1351 64.3134 54.3282C64.0054 55.1374 63.6172 55.9138 63.1546 56.6458C62.6806 57.5269 62.0205 58.2943 61.22 58.8946C60.4196 59.4949 59.4981 59.9138 58.5195 60.1221C56.5436 60.4756 54.5269 60.5406 52.5324 60.3153C51.376 60.1344 50.2629 59.7415 49.2491 59.1565C48.3473 58.6038 47.5604 57.8825 46.9316 57.032C45.9827 55.7753 45.3232 54.3244 45.0002 52.7831C44.7434 51.3171 44.6785 49.8239 44.8071 48.3411C44.9603 46.6628 45.4184 45.0266 46.159 43.5128C46.3665 42.9905 46.6979 42.5265 47.1247 42.1609C47.8996 41.2782 48.8486 40.5652 49.9121 40.0667C50.9756 39.5681 52.1307 39.2948 53.3049 39.2639C54.852 39.1352 56.4091 39.2001 57.9401 39.4571C60.0304 39.854 61.8932 41.0268 63.1546 42.7403C63.3333 43.8718 63.6579 44.9754 64.1203 46.0235Z" fill="white"/>
<path d="M95.794 52.7818V60.3139H89.2275V39.842H98.8841C99.993 39.7677 101.106 39.8987 102.167 40.2282C103 40.3816 103.79 40.7108 104.485 41.1939C104.939 41.5072 105.327 41.9075 105.625 42.3716C105.923 42.8357 106.127 43.3545 106.223 43.8977C106.706 45.4051 106.706 47.0256 106.223 48.5329C105.994 49.3271 105.601 50.0643 105.069 50.6965C104.536 51.3287 103.877 51.8418 103.133 52.2024C101.984 52.7342 100.729 52.9983 99.4635 52.9749H96.1803C96.1803 52.7818 95.9871 52.7818 95.794 52.7818ZM95.794 48.5329H97.5322C98.1116 48.5329 98.691 48.3398 99.2704 48.3398C99.4635 48.1466 99.6566 48.1466 99.6566 47.9535C100.013 47.6989 100.267 47.3259 100.373 46.9013C100.479 46.4767 100.43 46.0281 100.236 45.6359C100.172 45.3196 100.005 45.0337 99.7596 44.8238C99.5146 44.6138 99.2064 44.4918 98.8841 44.4771C97.9185 44.4771 96.9528 44.284 95.794 44.284V48.5329Z" fill="white"/>
<path d="M25.8801 63.4035H29.1634C29.4173 63.3704 29.6746 63.4304 29.8876 63.5724C30.1007 63.7145 30.255 63.9289 30.3222 64.176C31.3065 65.7349 32.4038 67.2196 33.6054 68.618C35.0757 70.1274 36.6932 71.486 38.4337 72.6738C39.8738 73.5217 41.3564 74.2953 42.8757 74.9914C44.2628 75.5293 45.6818 75.9808 47.1246 76.3433C48.8509 76.6317 50.5917 76.8251 52.3392 76.9227C54.0933 76.9209 55.842 76.7266 57.5537 76.3433C59.1302 76.0083 60.6795 75.5564 62.1889 74.9914C63.6783 74.4399 65.103 73.7276 66.4378 72.8669C68.4854 71.7126 70.3155 70.2093 71.8455 68.4249C72.9158 67.2881 73.8851 66.0603 74.7424 64.7554C74.9356 64.5622 75.1287 64.176 75.3218 63.9829C75.4996 63.6935 75.7608 63.4649 76.0711 63.327C76.3814 63.189 76.7262 63.1484 77.06 63.2103H79.1845C79.5707 63.2103 79.7639 63.4035 79.5707 63.7897C78.7982 65.1416 77.8326 66.6867 76.8669 68.0386C75.5047 70.1073 73.8077 71.9348 71.8455 73.4463C69.9181 75.0854 67.7733 76.4503 65.4721 77.5021C63.7339 78.2746 61.9958 78.854 60.2576 79.4334C58.7496 79.8779 57.1931 80.1373 55.6224 80.2059C54.4636 80.2059 53.1117 80.399 51.9529 80.399C51.3735 80.399 50.7941 80.2059 50.2147 80.2059C49.4422 80.2059 48.6697 80.0128 47.704 80.0128C46.7853 79.9125 45.8793 79.7184 45.0002 79.4334C43.814 79.1346 42.652 78.7472 41.5238 78.2746C40.5683 77.9417 39.6595 77.4874 38.82 76.9227C37.468 76.1502 36.1161 75.3776 34.9573 74.6051C33.2344 73.396 31.6763 71.9676 30.3222 70.3562C28.6292 68.572 27.1986 66.5561 26.0733 64.3691C26.0863 64.0365 26.0201 63.7055 25.8801 63.4035Z" fill="white"/>
<path d="M79.3776 37.1382H76.2875C75.5149 37.3313 75.1287 36.7519 74.7424 36.3657C73.9699 35.4 73.1974 34.2412 72.4248 33.2756C71.4592 32.1168 70.3004 31.1511 69.1416 29.9923C68.1906 29.1756 67.1546 28.4633 66.0515 27.8679C64.9285 27.0971 63.6898 26.5103 62.382 26.1297C60.8642 25.5904 59.3166 25.139 57.7468 24.7778C56.472 24.5439 55.1801 24.4148 53.8842 24.3915C52.4652 24.3594 51.0456 24.424 49.6353 24.5846C47.7123 24.759 45.8253 25.2145 44.0345 25.9366C42.8413 26.3703 41.6797 26.8866 40.5581 27.4816C38.6117 28.4781 36.7955 29.7106 35.1504 31.1511C33.9563 32.2813 32.8581 33.5086 31.8672 34.8206C31.2878 35.5931 30.7084 36.5588 30.129 37.3313H26.0732C27.6533 33.9135 29.9602 30.8816 32.8329 28.4473C35.7435 25.7859 39.1557 23.7318 42.8699 22.4053C46.5841 21.0789 50.5255 20.5066 54.4636 20.722C58.6167 20.9714 62.6826 22.0207 66.4378 23.8121C69.7352 25.4969 72.684 27.7905 75.1287 30.5717C76.8883 32.4875 78.3823 34.6312 79.5707 36.9451C79.3776 36.7519 79.3776 36.9451 79.3776 37.1382Z" fill="white"/>
<path d="M20.8591 22.8492C21.1964 22.3587 21.5849 21.9055 22.0179 21.4972C22.7041 22.0277 23.3497 22.6087 23.9492 23.2354C24.1424 23.0423 24.1424 22.8492 24.3355 22.656C23.7561 22.0766 23.1767 21.6904 22.7904 21.3041C22.7171 21.228 22.6618 21.1365 22.6284 21.0362C22.5949 20.936 22.5843 20.8296 22.5973 20.7247C22.9836 20.3384 23.1767 19.9522 23.563 19.5659C25.3012 21.3041 27.0393 22.8492 28.9707 24.5873C28.5376 24.9957 28.1491 25.4488 27.8119 25.9393C27.0393 25.1667 26.2668 24.5873 25.4943 23.8148C25.3012 24.0079 25.3012 24.2011 25.108 24.2011L27.2325 26.3255C26.8462 26.7118 26.4599 27.2912 26.0737 27.6774C24.5286 26.1324 22.7904 24.5873 20.8591 22.8492Z" fill="white"/>
<path d="M56.0086 7.39648C56.3949 9.9072 56.588 12.2248 56.9743 14.7355C56.3882 14.7669 55.801 14.7017 55.2361 14.5424C55.2667 14.1461 55.2004 13.7484 55.043 13.3836H54.2704C54.2704 13.7698 54.0773 14.3492 54.0773 14.7355C53.4278 14.758 52.7782 14.6931 52.146 14.5424C52.5323 12.2248 52.9185 9.9072 53.3048 7.39648H56.0086ZM55.043 12.0316C55.043 11.066 54.8498 10.1003 54.8498 9.3278H54.6567C54.4636 10.2935 54.4636 11.066 54.2704 12.2248C54.4636 12.0316 54.6567 12.0316 55.043 12.0316Z" fill="white"/>
<path d="M20.2796 69.5853C20.0865 69.199 20.0865 69.0059 19.8934 68.6196C19.7002 68.2334 19.8934 68.0403 20.2796 67.8471C20.6659 67.654 20.859 67.4609 21.2453 67.2677C21.4384 67.2677 21.4384 67.0746 21.6315 66.8815C21.2453 66.4952 20.859 66.6883 20.4728 66.8815C19.4684 67.3205 18.4999 67.8371 17.5758 68.4265C17.3557 68.6651 17.0939 68.8614 16.8032 69.0059L17.1895 69.3922C17.7689 69.199 18.1552 69.0059 18.7346 68.8128C19.1061 69.3345 19.3688 69.9256 19.5071 70.551C18.8805 70.7541 18.2323 70.8837 17.5758 70.9372C16.6101 70.9372 15.8376 69.7784 15.6445 68.8128C15.5392 68.3274 15.6197 67.8202 15.8699 67.3912C16.1202 66.9622 16.5221 66.6425 16.9964 66.4952C17.9519 66.1623 18.8606 65.708 19.7002 65.1433C19.9632 65.0074 20.2523 64.9297 20.5479 64.9155C20.8435 64.9012 21.1387 64.9507 21.4135 65.0607C21.6883 65.1706 21.9362 65.3383 22.1405 65.5525C22.3447 65.7667 22.5005 66.0224 22.5972 66.3021C22.5972 66.6883 22.7903 67.2677 22.7903 67.654C22.7903 68.4265 21.6315 69.3922 20.859 69.5853H20.2796Z" fill="white"/>
<path d="M48.2832 15.1212C47.5107 15.3144 46.9313 15.5075 46.3519 15.1212C46.2021 15.3825 45.9658 15.5834 45.6837 15.6892C45.4017 15.7949 45.0916 15.799 44.8069 15.7006C44.0343 15.5075 44.0343 14.9281 43.8412 14.5418C43.6481 13.5762 43.4549 12.6105 43.2618 11.4517C42.8755 10.0998 43.8412 9.32728 45 9.71354H45.3862C45.3409 9.38814 45.2764 9.0657 45.1931 8.74788C45.1931 8.36162 45.1931 8.36162 45.5794 8.16849C46.0223 8.01408 46.4737 7.88512 46.9313 7.78223C47.3176 10.4861 47.897 12.8036 48.2832 15.1212ZM45.1931 10.4861C45.0468 11.9695 45.3856 13.4605 46.1588 14.735C46.1588 14.5418 46.3519 14.1556 46.1588 13.9624L45.5794 11.0655C45.5794 10.8723 45.3862 10.6792 45.1931 10.4861Z" fill="white"/>
<path d="M46.7381 88.3202C46.3518 87.5476 47.1244 86.7751 46.545 86.1957C45.9656 86.3888 45.9656 86.9682 45.9656 87.3545C45.9955 87.6883 45.9284 88.0236 45.7724 88.3202C45.5498 89.1399 45.4202 89.9821 45.3862 90.8309C45.3862 91.2171 45.5793 91.4103 45.9656 91.2171C46.1905 90.7146 46.384 90.1986 46.545 89.6721C47.1244 89.8652 47.5106 89.8652 48.2831 90.0583C48.1445 90.7435 47.8827 91.3979 47.5106 91.9897C47.1244 92.7622 46.3518 92.5691 45.5793 92.5691C45.1689 92.529 44.7729 92.3969 44.4205 92.1828C44.1189 92.0232 43.8903 91.7536 43.7824 91.4298C43.6745 91.1061 43.6955 90.7532 43.8411 90.4446C44.0252 89.2071 44.2832 87.9818 44.6136 86.7751C44.9999 85.0369 46.1587 85.0369 47.5106 85.4232C48.09 85.6163 48.8625 86.0026 48.8625 86.7751C48.8851 87.4246 48.8201 88.0742 48.6694 88.7064C48.6529 88.7643 48.6225 88.8172 48.5809 88.8606C48.5393 88.9041 48.4877 88.9367 48.4306 88.9558C48.3736 88.9748 48.3127 88.9796 48.2534 88.9698C48.194 88.96 48.1379 88.9359 48.09 88.8996C47.625 88.742 47.1729 88.5482 46.7381 88.3202Z" fill="white"/>
<path d="M75.1284 79.2405C75.5147 79.0473 75.7078 78.6611 76.0941 78.468C76.7115 78.0394 77.3567 77.6523 78.0254 77.3092C78.4117 77.116 78.7979 77.3092 79.1842 77.6954C79.5704 78.2748 79.9567 78.6611 80.343 79.2405C80.4205 79.3414 80.4771 79.4567 80.5095 79.5798C80.5418 79.7029 80.5492 79.8312 80.5312 79.9571C80.5132 80.0831 80.4702 80.2042 80.4047 80.3133C80.3392 80.4224 80.2525 80.5173 80.1498 80.5924L79.7636 80.9787L79.3773 81.3649L81.1155 83.6825C80.7292 84.0688 80.343 84.2619 79.9567 84.6482C79.8985 84.7013 79.828 84.7393 79.7516 84.7586C79.6751 84.7779 79.5951 84.778 79.5186 84.7589C79.4421 84.7398 79.3716 84.702 79.3132 84.649C79.2549 84.596 79.2105 84.5293 79.1842 84.455C77.7395 82.791 76.3857 81.0503 75.1284 79.2405ZM78.6048 80.5924C78.9911 79.8199 78.6048 79.4336 77.8323 78.8542C77.6391 78.8542 77.6391 79.0473 77.446 79.2405C77.7648 79.7448 78.1551 80.2002 78.6048 80.5924Z" fill="white"/>
<path d="M91.7379 71.1279C91.4391 71.5537 91.1804 72.0062 90.9654 72.4798L89.8066 71.9004C88.8409 71.321 87.8752 70.7416 87.1027 70.3554H86.7165V70.5485C86.9096 70.7416 86.9096 70.9348 87.1027 70.9348C88.2615 71.7073 89.6134 72.4798 90.9654 73.2524C90.7825 73.7417 90.5216 74.1983 90.1928 74.6043C88.4546 73.8318 86.9096 72.673 84.9783 71.7073C85.3117 71.2339 85.5721 70.713 85.7508 70.1623C85.8972 70.1825 86.033 70.2504 86.1371 70.3554V70.1623C85.9439 69.1966 86.5233 68.4241 87.489 68.6172C87.8752 68.6172 88.2615 69.0035 88.8409 69.1966C89.6134 69.5829 90.5791 70.3554 91.7379 71.1279Z" fill="white"/>
<path d="M60.2573 10.1014C60.2573 10.2945 60.0642 10.2945 60.0642 10.4877C59.871 11.8396 59.6779 13.1915 59.4848 14.7366C59.4848 14.9297 59.4848 14.9297 59.2916 15.1228C58.7122 15.1228 58.326 14.9297 57.7466 14.9297C58.1328 12.9984 58.326 11.0671 58.7122 9.13574C59.2133 9.28379 59.7352 9.34902 60.2573 9.32887V9.71514H60.4504C60.6436 9.71514 60.8367 9.52201 61.0298 9.52201C61.8023 9.32887 62.5749 9.71514 62.3817 10.6808C62.1886 12.0327 61.9955 13.1915 61.8023 14.5434C61.8186 14.9389 61.7528 15.3334 61.6092 15.7022C61.0298 15.7022 60.4504 15.5091 59.871 15.5091C60.0642 14.5434 60.0642 13.7709 60.2573 12.9984C60.4504 12.2258 60.4504 11.6465 60.6436 10.8739C60.6407 10.7245 60.6045 10.5777 60.5377 10.444C60.4709 10.3104 60.3751 10.1933 60.2573 10.1014Z" fill="white"/>
<path d="M56.3952 88.3187C56.3704 89.1601 56.4352 90.0017 56.5883 90.8294C56.5635 91.6708 56.6283 92.5125 56.7814 93.3402H55.0432C54.8501 91.4088 54.8501 89.4775 54.657 87.5462C55.4295 87.5462 56.0089 87.1599 56.5883 87.7393L56.7814 87.5462C56.9944 87.3713 57.2526 87.2603 57.526 87.2261C57.7995 87.1919 58.077 87.2359 58.3265 87.3531C58.5039 87.4435 58.6522 87.5821 58.7547 87.7528C58.8571 87.9235 58.9095 88.1196 58.9059 88.3187C59.099 89.8638 59.099 91.2157 59.2921 92.7608V93.3402H57.7471C57.7471 92.3745 57.554 91.4088 57.554 90.6363C57.5854 90.0502 57.5202 89.463 57.3608 88.8981C56.9746 88.3187 56.7814 88.1256 56.3952 88.3187Z" fill="white"/>
<path d="M31.2876 22.2679C31.0944 22.6541 31.0944 23.0404 30.7082 23.2335C30.4948 23.4217 30.2201 23.5255 29.9356 23.5255C29.6512 23.5255 29.3765 23.4217 29.1631 23.2335C28.7768 22.8473 28.5837 22.461 28.1974 22.0747C28.0043 21.8816 28.1974 21.6885 28.1974 21.4953C28.4042 20.8324 28.6625 20.1867 28.97 19.564C28.7768 19.3709 28.5837 18.9846 28.1974 18.5984L28.0043 18.7915C28.1974 19.1778 28.5837 19.7571 28.3906 20.1434C28.1622 20.5 27.8229 20.7714 27.4249 20.9159C27.1992 20.7825 27.0063 20.6001 26.8606 20.3822C26.7148 20.1642 26.6199 19.9163 26.5828 19.6567C26.5457 19.3972 26.5674 19.1326 26.6463 18.8825C26.7252 18.6325 26.8593 18.4034 27.0387 18.2121C27.4166 17.8442 27.8818 17.5784 28.3906 17.4396C28.6584 17.3526 28.9453 17.3428 29.2185 17.4111C29.4917 17.4794 29.7402 17.6231 29.9356 17.8258C30.9013 18.9846 31.8669 19.9503 32.8326 21.3022C32.6395 21.4953 32.4463 21.6885 32.4463 21.8816C32.2532 22.0747 32.0601 22.0747 31.8669 22.2679C31.6738 22.6541 31.4807 22.6541 31.2876 22.2679ZM30.7082 22.0747C30.503 21.4953 30.1734 20.9679 29.7425 20.5297C29.6667 20.7985 29.6624 21.0825 29.7302 21.3536C29.7979 21.6246 29.9353 21.8732 30.1288 22.0747H30.7082Z" fill="white"/>
<path d="M36.6954 14.9298C36.5023 14.1573 36.3092 13.771 35.7298 13.9642C35.9229 14.3504 35.9229 14.5436 36.1161 14.9298V15.3161L34.9573 15.8955C34.7752 15.7409 34.6289 15.5486 34.5285 15.3318C34.4282 15.115 34.3762 14.879 34.3762 14.6401C34.3762 14.4013 34.4282 14.1653 34.5285 13.9485C34.6289 13.7317 34.7752 13.5394 34.9573 13.3848C35.2333 13.0564 35.606 12.8235 36.0222 12.7195C36.4383 12.6154 36.8767 12.6455 37.2748 12.8054C37.468 12.9985 37.8542 13.1916 38.0474 13.3848C38.6149 14.6466 39.2599 15.8721 39.9787 17.0543V17.6337C39.5924 17.8268 39.013 18.0199 38.6268 18.2131C38.4336 18.2131 38.4336 18.0199 38.2405 18.0199C38.0474 18.4062 37.8542 18.9856 37.2748 18.9856C36.8886 18.9856 36.3092 18.9856 36.1161 18.5993C35.9229 18.4062 35.9229 18.0199 35.7298 17.8268C35.6296 17.7177 35.5544 17.588 35.5093 17.4469C35.4643 17.3058 35.4505 17.1566 35.4688 17.0096C35.4872 16.8626 35.5373 16.7214 35.6157 16.5957C35.6942 16.47 35.799 16.3629 35.9229 16.2817C36.2118 15.8498 36.47 15.398 36.6954 14.9298ZM37.2748 15.8955C36.8886 16.4749 37.2748 17.0543 37.8542 17.4405C38.0474 17.2474 37.8542 16.2817 37.2748 15.8955Z" fill="white"/>
<path d="M66.4375 85.8073C66.6306 85.0348 67.0169 84.8417 67.7894 84.6485C68.2179 84.4761 68.6817 84.4098 69.1413 84.4554C70.107 84.4554 70.3001 85.2279 70.6864 86.0004C71.0586 86.6614 71.3196 87.3792 71.4589 88.1249C71.5503 88.3521 71.5924 88.5962 71.5825 88.8409C71.5725 89.0856 71.5107 89.3255 71.4012 89.5445C71.2917 89.7636 71.1369 89.9569 70.9471 90.1117C70.7572 90.2665 70.5367 90.3793 70.3001 90.4425C69.7352 90.6018 69.148 90.6671 68.5619 90.6356C68.3688 90.6356 67.9825 90.2493 67.7894 90.0562C67.4031 89.0906 67.0169 87.9318 66.6306 86.9661C66.487 86.5973 66.4213 86.2028 66.4375 85.8073ZM69.5276 89.4768C69.6019 89.4505 69.6685 89.4061 69.7215 89.3478C69.7745 89.2894 69.8123 89.2189 69.8314 89.1424C69.8505 89.0659 69.8504 88.9859 69.8311 88.9094C69.8118 88.833 69.7739 88.7625 69.7207 88.7043C69.3344 87.9318 69.1413 86.9661 68.755 86.1936C68.755 86.0004 68.5619 85.8073 68.3688 85.6142C67.9825 85.6142 67.9825 86.0004 68.1756 86.1936C68.3898 86.5459 68.5218 86.942 68.5619 87.3524C68.9201 88.0435 69.2424 88.7525 69.5276 89.4768Z" fill="white"/>
<path d="M83.4334 80.786C83.0471 80.5928 82.6608 80.2066 82.2746 80.0134L80.5364 78.2753C80.2569 77.9924 80.1001 77.6107 80.1001 77.213C80.1001 76.8153 80.2569 76.4337 80.5364 76.1508C80.7013 75.8779 80.9265 75.6462 81.1946 75.4735C81.4627 75.3009 81.7668 75.1917 82.0835 75.1545C82.4002 75.1172 82.7213 75.1528 83.0222 75.2585C83.3231 75.3643 83.5958 75.5373 83.8196 75.7645C84.2205 76.2623 84.6738 76.7156 85.1715 77.1165C85.4194 77.3291 85.6112 77.5994 85.73 77.9036C85.8488 78.2079 85.891 78.5366 85.8529 78.861C85.8147 79.1853 85.6974 79.4953 85.5112 79.7636C85.325 80.032 85.0757 80.2504 84.7853 80.3997C84.3874 80.6695 83.9137 80.8049 83.4334 80.786ZM81.8883 76.3439C81.6952 76.3439 81.6952 76.5371 81.8883 76.3439C81.6952 76.7302 81.8883 76.9233 81.8883 76.9233C82.6608 77.6959 83.4334 78.2753 84.2059 79.0478C84.2396 79.0928 84.2834 79.1293 84.3336 79.1544C84.3839 79.1795 84.4394 79.1926 84.4956 79.1926C84.5518 79.1926 84.6072 79.1795 84.6575 79.1544C84.7078 79.1293 84.7515 79.0928 84.7853 79.0478C83.8685 78.0955 82.9015 77.1929 81.8883 76.3439Z" fill="white"/>
<path d="M66.2449 16.6678C65.7567 16.4491 65.2336 16.3183 64.6999 16.2815V15.8952C64.5403 16.0043 64.3583 16.0763 64.1673 16.1059C63.9763 16.1356 63.7811 16.1221 63.5959 16.0666C63.4108 16.011 63.2404 15.9148 63.0972 15.7849C62.9541 15.655 62.8418 15.4948 62.7686 15.3159C62.5754 14.3502 63.348 12.9983 64.3136 12.9983C64.6474 13.0282 64.9827 12.9611 65.2793 12.8051C65.8587 12.612 66.2449 12.2257 66.0518 11.6464H65.6655L65.0861 12.8051C64.6999 12.612 64.1205 12.4189 63.7342 12.2257C63.7408 11.9122 63.8284 11.6057 63.9887 11.3361C64.1489 11.0665 64.3763 10.843 64.6486 10.6874C64.9208 10.5318 65.2288 10.4494 65.5424 10.4483C65.856 10.4471 66.1646 10.5272 66.4381 10.6807C66.4636 10.6801 66.4889 10.6848 66.5126 10.6943C66.5363 10.7038 66.5578 10.718 66.5759 10.736C66.5939 10.7541 66.6081 10.7756 66.6176 10.7993C66.6271 10.8229 66.6317 10.8483 66.6312 10.8738C67.79 11.2601 67.79 11.6464 67.5969 12.8051C67.4037 13.7708 67.0175 14.7365 66.8243 15.7021C66.4381 15.7021 66.2449 16.2815 66.2449 16.6678ZM64.6999 15.3159C65.2793 14.9296 65.0861 14.1571 65.4724 13.5777C64.893 13.7708 64.5068 13.9639 64.5068 14.5433C64.3136 14.7365 64.1205 14.9296 64.6999 15.3159Z" fill="white"/>
<path d="M33.4124 87.7409C33.0261 87.5478 32.4467 87.5478 32.0605 87.3546C31.969 87.3201 31.8857 87.2668 31.8159 87.1983C31.7461 87.1298 31.6913 87.0476 31.655 86.9568C31.6186 86.866 31.6016 86.7686 31.6049 86.6709C31.6082 86.5731 31.6318 86.4771 31.6742 86.389C31.8124 85.8225 32.0764 85.2944 32.4467 84.8439C32.6398 84.4577 33.2192 84.4577 33.6055 84.4577C33.9918 84.4577 34.378 84.6508 34.7643 84.4577C34.9574 84.4577 35.3437 84.0714 35.5368 83.8783C35.73 83.6851 35.5368 83.492 35.5368 83.2989H35.3437C35.1552 83.7269 34.8938 84.119 34.5712 84.4577C34.1849 84.2645 33.7986 83.8783 33.4124 83.6851C33.7986 82.3332 34.5712 81.947 35.73 82.5264C36.2879 82.6626 36.7721 83.0084 37.0819 83.492C37.1774 83.7046 37.2267 83.935 37.2267 84.168C37.2267 84.401 37.1774 84.6314 37.0819 84.8439C36.5025 86.0027 35.73 87.3546 35.1506 88.5134L34.9574 88.7066C34.3348 88.6021 33.7791 88.2548 33.4124 87.7409ZM33.6055 87.1615C33.9015 87.0065 34.1592 86.7874 34.3597 86.5201C34.5601 86.2527 34.6984 85.944 34.7643 85.6165C34.4834 85.5948 34.2052 85.6836 33.9888 85.8639C33.7724 86.0443 33.6349 86.3019 33.6055 86.5821C33.4124 86.5821 33.6055 86.7753 33.6055 87.1615Z" fill="white"/>
<path d="M49.6356 88.707C49.8287 87.355 50.6012 87.355 51.5669 87.1619C52.049 87.1535 52.5164 87.3282 52.8748 87.6508C53.2332 87.9733 53.456 88.4198 53.4982 88.9001C53.4982 89.8657 53.3051 91.0245 53.3051 91.9902C53.3051 92.5696 52.7257 92.9559 52.1463 93.149C51.743 93.2624 51.317 93.2686 50.9106 93.167C50.5041 93.0654 50.1312 92.8595 49.8287 92.5696C49.6356 92.3765 49.4424 92.1833 49.4424 91.9902C49.217 90.8978 49.2836 89.7654 49.6356 88.707ZM51.1806 92.1833C51.76 92.3765 51.76 91.9902 51.76 91.6039C51.76 90.8314 51.9531 90.0589 51.9531 89.2864V88.1276C51.1806 88.3207 50.7944 90.8314 51.1806 92.1833Z" fill="white"/>
<path d="M74.3561 13.9645C74.791 14.1925 75.243 14.3863 75.708 14.5439C75.5149 14.9301 75.5149 15.1232 75.3218 15.3164C74.5493 16.4752 73.5836 17.634 72.8111 18.7927C72.2317 19.7584 71.8454 19.9515 70.6866 19.5653C70.2818 19.4116 69.8936 19.2175 69.5278 18.9859C69.5278 18.4065 69.721 18.2134 70.1072 18.2134C70.1859 18.2246 70.2662 18.2173 70.3416 18.1922C70.417 18.167 70.4855 18.1247 70.5417 18.0685C70.598 18.0123 70.6403 17.9437 70.6655 17.8683C70.6906 17.7929 70.6978 17.7127 70.6866 17.634C71.0729 16.0889 71.6523 14.5438 72.0385 13.1919C72.0526 13.0436 72.1215 12.9059 72.2317 12.8057C72.6179 12.9988 73.1973 13.1919 73.5836 13.3851C73.2174 14.575 72.7656 15.7368 72.2317 16.8614H72.4248C73.0042 16.0889 73.5836 15.1232 74.3561 13.9645Z" fill="white"/>
<path d="M84.5925 24.5869C84.2063 24.2006 84.0131 23.8143 83.6269 23.6212C83.82 23.2349 84.0131 23.0418 84.0131 22.8487C83.4337 22.4624 83.2406 23.0418 83.0475 23.2349C83.2406 23.8143 83.2406 24.3937 83.4337 24.78C83.5445 25.1643 83.5067 25.5763 83.3278 25.9341C83.1489 26.2919 82.842 26.5693 82.4681 26.7113C82.2116 26.9152 81.8848 27.0093 81.5592 26.9731C81.2335 26.9369 80.9354 26.7734 80.7299 26.5182C80.3526 26.1817 80.0271 25.7912 79.7642 25.3594C79.378 24.78 79.7642 24.0075 80.7299 23.4281C81.1162 23.6212 81.3093 24.0075 81.6955 24.3937C81.4994 24.7602 81.2376 25.0876 80.923 25.3594C81.1335 25.3494 81.3401 25.4182 81.5024 25.5525C81.7059 25.3397 81.8405 25.0705 81.8887 24.78C81.8887 24.2006 81.6955 23.6212 81.6955 23.2349C81.6937 22.8867 81.7816 22.5438 81.9507 22.2394C82.1198 21.9349 82.3645 21.6792 82.6612 21.4967C82.8975 21.3335 83.1856 21.263 83.4706 21.2986C83.7555 21.3342 84.0174 21.4735 84.2063 21.6899C84.3994 21.883 84.7857 22.0761 84.7857 22.4624C84.9905 22.5664 85.1594 22.7295 85.2706 22.9305C85.3817 23.1316 85.4301 23.3613 85.4093 23.5901C85.3885 23.8189 85.2995 24.0362 85.1539 24.2139C85.0083 24.3916 84.8128 24.5215 84.5925 24.5869Z" fill="white"/>
<path d="M77.8331 17.4391L77.64 17.246C77.5342 17.2633 77.4335 17.3035 77.3448 17.3637C77.2561 17.4239 77.1816 17.5027 77.1265 17.5946C77.0714 17.6865 77.0369 17.7893 77.0255 17.8958C77.0141 18.0024 77.0261 18.1102 77.0606 18.2117C77.2537 18.4048 77.2537 18.791 77.4468 18.9842C77.6524 19.4375 77.7071 19.9449 77.6028 20.4316C77.4985 20.9183 77.2407 21.3587 76.8674 21.688C76.288 22.0743 75.9018 21.8812 75.3224 21.688C74.5499 21.3018 73.9705 20.9155 73.9705 19.9498C74.0105 19.5395 74.1426 19.1434 74.3567 18.7911C74.5855 18.7625 74.8176 18.8022 75.0238 18.9053C75.23 19.0084 75.4011 19.1703 75.5155 19.3704C75.7086 19.5636 75.3224 19.9498 75.3224 20.3361L75.5155 20.5292C75.6392 20.5067 75.7559 20.4558 75.8565 20.3803C75.957 20.3049 76.0387 20.2071 76.0949 20.0947C76.1511 19.9822 76.1804 19.8583 76.1804 19.7326C76.1804 19.6069 76.1511 19.4829 76.0949 19.3704C75.9018 18.7911 75.7086 18.4048 75.5155 17.8254C75.3224 17.0529 75.9018 16.4735 76.4812 15.8941C76.582 15.8165 76.6974 15.7599 76.8205 15.7276C76.9436 15.6953 77.0718 15.6879 77.1978 15.7059C77.3238 15.7239 77.4449 15.7669 77.554 15.8324C77.6631 15.8979 77.758 15.9845 77.8331 16.0872C78.1794 16.2363 78.5042 16.4312 78.7988 16.6666C79.5713 17.246 79.5713 18.0185 78.7988 18.7911C78.3707 18.6026 77.9786 18.3412 77.64 18.0185C77.7344 17.8368 77.7996 17.6412 77.8331 17.4391Z" fill="white"/>
<path d="M32.0606 82.9117C31.6743 82.7185 31.4812 82.3323 31.0949 82.1391C31.288 81.7529 31.4812 81.5597 31.6743 81.1735C31.5693 81.0694 31.5014 80.9337 31.4812 80.7872C31.1439 81.2776 30.7554 81.7308 30.3224 82.1391C29.9361 82.5254 29.743 83.1048 29.3567 83.4911C29.2603 83.6336 29.2088 83.8018 29.2088 83.9739C29.2088 84.146 29.2603 84.3141 29.3567 84.4567C29.5498 84.2636 29.743 84.2636 29.743 84.0705C30.1292 83.2979 30.9018 83.4911 31.4812 84.2636C31.3237 84.5805 31.0851 84.8499 30.7897 85.0446C30.4942 85.2392 30.1524 85.3521 29.7992 85.3718C29.4459 85.3914 29.0937 85.3171 28.7785 85.1563C28.4633 84.9956 28.1964 84.7542 28.0048 84.4567C27.8167 84.206 27.7151 83.901 27.7151 83.5876C27.7151 83.2742 27.8167 82.9693 28.0048 82.7185C28.6024 81.7852 29.247 80.8827 29.9361 80.0147C30.0883 79.8681 30.2713 79.7573 30.4718 79.6905C30.6723 79.6237 30.8852 79.6025 31.0949 79.6284C31.5047 79.6725 31.8967 79.8196 32.2344 80.056C32.5721 80.2924 32.8445 80.6104 33.0262 80.9804C33.051 81.359 32.9747 81.7374 32.805 82.0768C32.6353 82.4162 32.3784 82.7043 32.0606 82.9117Z" fill="white"/>
<path d="M70.1074 82.7176C70.1074 82.5245 70.1074 82.5245 70.3006 82.3313C70.7354 82.1033 71.1874 81.9095 71.6525 81.752C72.8113 83.8764 73.9701 86.0008 74.9357 87.9322C74.6451 88.0766 74.3833 88.273 74.1632 88.5116C73.9365 88.665 73.6629 88.7334 73.3907 88.7047C72.2319 86.5802 71.0731 84.6489 70.1074 82.7176Z" fill="white"/>
<path d="M33.6057 20.9139C33.0263 20.9139 32.8331 20.3345 32.64 19.7551L32.0606 16.8581C32.0736 16.7532 32.063 16.6468 32.0296 16.5466C31.9962 16.4463 31.9408 16.3548 31.8675 16.2787C31.4812 16.4718 31.2881 16.665 30.9018 16.8581L30.3224 16.2787C30.1293 16.0856 30.3224 15.8924 30.5156 15.6993L32.2537 14.5405H32.64C32.8331 14.9268 33.2194 15.3131 33.2194 15.6993L33.7988 18.5963C33.7858 18.7012 33.7964 18.8076 33.8298 18.9078C33.8633 19.0081 33.9186 19.0996 33.9919 19.1757C34.3585 18.9796 34.6858 18.7177 34.9576 18.4032C35.1507 18.7894 35.3439 18.9826 35.537 19.3688C35.537 19.562 35.3439 19.7551 35.1507 19.9482C34.7125 20.3791 34.1851 20.7088 33.6057 20.9139Z" fill="white"/>
<path d="M36.3093 89.4776C36.5025 89.0913 36.6956 88.512 36.8887 88.1257C37.4681 86.5806 38.2406 85.0356 38.82 83.4905C38.82 83.2974 39.0132 83.1043 39.2063 82.9111C39.7571 83.0898 40.2779 83.3502 40.7514 83.6837C40.5582 84.4562 40.172 85.0356 39.9788 85.8081C39.3994 86.9669 39.0132 88.1257 38.4338 89.2845C37.8544 90.2501 37.6612 90.2501 36.3093 89.4776Z" fill="white"/>
<path d="M25.8804 74.9942C26.2328 74.78 26.6288 74.648 27.0392 74.6079C27.4255 74.801 27.6186 75.1873 27.8117 75.3804V75.9598C27.8117 76.153 27.6186 76.153 27.4255 76.3461C27.4679 76.4342 27.4915 76.5302 27.4948 76.628C27.4981 76.7257 27.481 76.8231 27.4447 76.9139C27.4084 77.0047 27.3536 77.0869 27.2838 77.1554C27.214 77.2239 27.1307 77.2772 27.0392 77.3117C26.8461 77.3117 26.8461 77.1186 26.653 77.1186L26.0736 77.698L24.3354 79.4362C24.1422 79.4362 23.9491 79.6293 24.1422 80.0156C23.9222 80.2542 23.6604 80.4505 23.3697 80.595C22.9924 80.2585 22.667 79.868 22.4041 79.4362C22.3295 79.1978 22.3263 78.9427 22.395 78.7025C22.4636 78.4622 22.601 78.2473 22.7903 78.0843C23.3899 77.4576 24.0355 76.8766 24.7216 76.3461C25.1079 75.9598 25.4942 75.7667 25.4942 75.1873C25.4942 74.9942 25.6873 74.9942 25.8804 74.9942Z" fill="white"/>
<path d="M62.1888 91.4089C62.382 91.4089 62.5751 91.6021 62.7682 91.6021C62.7553 91.7069 62.7659 91.8134 62.7993 91.9136C62.8327 92.0138 62.8881 92.1053 62.9614 92.1814C62.6398 92.3719 62.2729 92.4724 61.8991 92.4724C61.5254 92.4724 61.1585 92.3719 60.8369 92.1814C60.3327 90.8129 60.0081 89.3846 59.8713 87.9326C59.2919 87.7394 59.2919 87.5463 59.6781 86.9669V86.0012C60.2575 86.0012 60.6438 85.8081 61.2232 85.8081C61.2232 86.1944 61.4163 86.3875 61.4163 86.5806C61.6095 86.5806 61.8026 86.7738 61.9957 86.7738C61.8026 86.9669 61.8026 87.16 61.6095 87.3532C61.6095 87.5463 61.4163 87.5463 61.4163 87.7394C61.7468 88.9461 62.0047 90.1715 62.1888 91.4089Z" fill="white"/>
<path d="M68.7553 17.6329C68.1759 17.4398 67.7896 17.2467 67.2102 17.0536C67.8407 14.7013 68.7484 12.4322 69.9141 10.2939C70.4166 10.5189 70.9326 10.7124 71.4591 10.8733C70.4934 13.1909 69.7209 15.5085 68.7553 17.6329Z" fill="white"/>
<path d="M39.0127 11.452C39.4425 11.2591 39.8978 11.129 40.3646 11.0657C40.7509 11.0657 40.7509 11.0657 40.944 11.6451C40.944 11.452 41.1371 11.2589 41.1371 11.0657C41.1371 10.8726 41.3303 10.8726 41.5234 10.4863C41.7165 11.0657 41.9097 11.452 42.1028 12.0314C42.1028 12.2245 42.1028 12.6108 41.9097 12.6108C41.5234 12.8039 41.5234 13.1902 41.5234 13.5764C41.8684 14.3839 42.1274 15.2254 42.2959 16.0871V16.4734C41.9097 16.6665 41.5234 16.6665 41.1371 16.8597C40.7509 17.0528 40.5577 16.8597 40.5577 16.4734C40.1715 15.3146 39.7852 14.349 39.399 13.1902C39.3232 12.6003 39.1939 12.0185 39.0127 11.452Z" fill="white"/>
<path d="M88.2616 67.6555C88.1152 67.6758 87.9794 67.7436 87.8753 67.8486C87.6822 67.8486 87.6822 67.6555 87.4891 67.6555L86.7166 66.8829C86.9446 66.4481 87.1384 65.9961 87.2959 65.531H88.4547V65.3379C88.5596 65.3249 88.666 65.3355 88.7663 65.3689C88.8665 65.4023 88.958 65.4577 89.0341 65.531V66.1104C90.1929 66.6898 91.3517 67.0761 92.5105 67.6555V67.4623H93.6693C93.5544 68.2343 93.1376 68.929 92.5105 69.3937C90.9654 69.0074 89.6135 68.0417 88.2616 67.6555Z" fill="white"/>
<path d="M22.9831 71.5181C23.3694 71.7113 23.9488 71.5181 23.9488 72.0975C23.4796 72.4875 22.9599 72.8123 22.4037 73.0632V72.8701C22.2106 72.6769 21.8243 72.4838 21.6312 72.2907C20.6221 72.8668 19.6541 73.5121 18.7342 74.222C17.9617 74.0289 17.9617 73.4495 17.5754 72.8701C18.1243 72.5311 18.6414 72.1433 19.1205 71.7113C19.8081 71.3267 20.4551 70.8737 21.0518 70.3593C21.4498 70.2148 21.7891 69.9434 22.0175 69.5868C22.2106 69.3937 22.4037 69.3937 22.5969 69.78C22.7147 69.8719 22.8105 69.9889 22.8773 70.1226C22.9441 70.2562 22.9803 70.4031 22.9831 70.5525C23.3694 71.1319 23.3694 71.325 22.9831 71.5181Z" fill="white"/>
<path d="M64.1203 86.0015C64.3134 86.1946 64.3134 86.3878 64.5066 86.5809C64.6997 86.1946 64.8928 86.0015 65.086 85.6152C65.5061 86.1814 65.7722 86.8468 65.8585 87.5466C65.6654 87.7397 65.6654 87.7397 65.4722 87.7397C65.086 87.9328 65.086 88.3191 65.086 88.7053C65.2791 89.4779 65.4722 90.2504 65.6654 90.8298V91.6023C65.086 91.6023 64.5066 91.7954 64.1203 91.7954C63.7341 90.2504 63.3478 88.8985 62.9615 87.5466C62.9615 87.3534 62.7684 86.9672 62.7684 86.774C62.5753 86.3878 62.7684 86.1946 63.1547 86.1946C63.4725 86.1113 63.7949 86.0468 64.1203 86.0015Z" fill="white"/>
<path d="M80.9227 18.4038C81.3394 18.7708 81.7923 19.0943 82.2746 19.3695C82.2746 19.7557 82.0815 19.9489 82.0815 20.142C81.1158 21.3008 79.957 22.4596 78.9914 23.8115C78.7982 24.0046 78.6051 24.0046 78.412 24.1978C78.0257 23.8115 77.6394 23.6184 77.2532 23.2321C77.4463 23.039 77.4463 22.6527 77.6394 22.4596C78.7982 21.1077 79.7639 19.7557 80.9227 18.4038Z" fill="white"/>
<path d="M24.5281 72.6772L25.6869 73.836L25.1075 74.4154C23.9487 75.3811 22.7899 76.3467 21.438 77.3124C21.0517 77.5055 20.8586 77.5055 20.4723 77.1193C19.8929 76.1536 19.8929 76.1536 20.6655 75.3811C21.6311 74.6086 22.7899 73.836 23.7556 73.0635C24.1418 73.0635 24.1418 72.8704 24.5281 72.6772Z" fill="white"/>
<path d="M88.6485 75.7665C88.2622 76.1528 88.0691 76.5391 87.6828 76.9253H87.1034C86.3309 76.3459 85.3652 75.5734 84.5927 74.994C83.9816 74.4985 83.3362 74.0467 82.6614 73.6421C83.0476 73.2558 83.2408 72.8696 83.627 72.4833C83.8202 72.2902 84.2064 72.4833 84.2064 72.4833C85.5584 73.449 86.9103 74.6078 88.2622 75.5734C88.4086 75.5937 88.5444 75.6616 88.6485 75.7665Z" fill="white"/>
<path d="M29.5502 78.0835C29.5502 78.2766 29.5502 78.4697 29.3571 78.4697C28.1983 79.6285 27.0395 80.9804 25.8807 82.1392L25.4945 82.5255C25.158 82.1482 24.7675 81.8228 24.3357 81.5598C24.5288 81.3667 24.5288 81.1736 24.722 80.9804C25.6876 79.8217 26.6533 78.856 27.8121 77.6972L28.0052 77.5041C28.1983 77.1178 28.3915 77.1178 28.7777 77.3109L29.5502 78.0835Z" fill="white"/>
<path d="M50.4081 9.90884C50.5924 9.94791 50.7663 10.0261 50.9179 10.1381C51.0694 10.2501 51.1952 10.3933 51.2868 10.558C51.3783 10.7227 51.4334 10.9052 51.4484 11.0931C51.4634 11.2809 51.4379 11.4698 51.3737 11.647C51.3259 11.8263 51.2424 11.9942 51.1283 12.1405C51.0142 12.2869 50.8718 12.4087 50.7096 12.4989C50.5474 12.589 50.3687 12.6455 50.1842 12.6651C49.9996 12.6846 49.813 12.6668 49.6355 12.6127C49.4461 12.5831 49.2659 12.5107 49.1087 12.4009C48.9514 12.2912 48.8213 12.147 48.7282 11.9794C48.6351 11.8118 48.5814 11.6252 48.5713 11.4337C48.5612 11.2422 48.5949 11.051 48.6699 10.8745C48.707 10.6891 48.784 10.5139 48.8955 10.3612C49.0071 10.2084 49.1505 10.0818 49.3158 9.98993C49.4811 9.89809 49.6644 9.84327 49.853 9.82927C50.0416 9.81526 50.231 9.84242 50.4081 9.90884Z" fill="white"/>
<path d="M76.4809 83.8788C76.4438 84.0642 76.3668 84.2393 76.2553 84.3921C76.1437 84.5448 76.0003 84.6715 75.835 84.7633C75.6697 84.8552 75.4864 84.91 75.2978 84.924C75.1092 84.938 74.9198 84.9108 74.7427 84.8444C74.5766 84.8088 74.4193 84.7402 74.2801 84.6426C74.141 84.545 74.0229 84.4204 73.9328 84.2763C73.8428 84.1322 73.7826 83.9715 73.7558 83.8036C73.7291 83.6358 73.7363 83.4643 73.7771 83.2994C73.9702 82.3337 74.5496 81.9474 75.3221 82.1406C76.4809 82.3337 76.8672 82.9131 76.4809 83.8788Z" fill="white"/>
<path d="M41.9103 86.3887C42.0997 86.4183 42.2799 86.4908 42.4372 86.6005C42.5944 86.7102 42.7245 86.8544 42.8176 87.022C42.9107 87.1896 42.9644 87.3763 42.9745 87.5677C42.9846 87.7592 42.9509 87.9504 42.876 88.1269C42.8151 88.3189 42.7164 88.4967 42.5856 88.6497C42.4548 88.8028 42.2946 88.9281 42.1145 89.0182C41.9344 89.1082 41.7381 89.1612 41.5371 89.174C41.3362 89.1868 41.1347 89.1591 40.9446 89.0926C40.6059 88.9613 40.3239 88.7156 40.1475 88.3981C39.9711 88.0806 39.9115 87.7113 39.979 87.3544C40.5584 86.3887 41.1378 86.0025 41.9103 86.3887Z" fill="white"/>
<path d="M82.6605 73.4465C82.4404 73.2079 82.1786 73.0115 81.8879 72.8671L82.4673 72.2877C82.5851 72.1957 82.6809 72.0787 82.7478 71.945C82.8146 71.8114 82.8507 71.6645 82.8536 71.5151C83.0467 71.7083 83.2399 71.7083 83.433 71.9014C83.433 72.4808 82.8536 72.6739 82.6605 73.4465Z" fill="white"/>
<path d="M25.8802 73.6422C25.687 73.256 25.4939 73.0628 25.3008 72.6766C25.3008 72.4834 25.3008 72.0972 25.4939 72.0972C25.5988 72.0842 25.7052 72.0948 25.8055 72.1282C25.9057 72.1616 25.9972 72.217 26.0733 72.2903C26.3119 72.5104 26.5082 72.7722 26.6527 73.0628C26.6527 73.256 26.4596 73.6422 25.8802 73.6422Z" fill="white"/>
<path d="M83.2406 18.5968C83.0021 18.8169 82.8057 19.0787 82.6612 19.3693C82.2529 18.9362 81.7997 18.5478 81.3093 18.2105C81.4271 18.1186 81.5229 18.0015 81.5898 17.8679C81.6566 17.7343 81.6927 17.5874 81.6956 17.438C82.275 17.8243 82.6612 18.2105 83.2406 18.5968Z" fill="white"/>
<path d="M28.9705 76.7303C28.9705 76.5372 28.9705 76.5372 29.1636 76.3441C29.163 76.3185 29.1677 76.2932 29.1772 76.2695C29.1867 76.2458 29.2009 76.2243 29.2189 76.2063C29.237 76.1882 29.2585 76.174 29.2822 76.1645C29.3058 76.155 29.3312 76.1504 29.3567 76.1509C29.9361 76.1509 30.3224 76.5372 30.7086 77.1166C30.5155 77.3097 30.5155 77.5028 30.3224 77.696C29.5499 77.696 29.3567 77.1166 28.9705 76.7303Z" fill="white"/>
</svg>
