<svg width="113" height="87" viewBox="0 0 113 87" fill="none" xmlns="http://www.w3.org/2000/svg">
<path fill-rule="evenodd" clip-rule="evenodd" d="M56.1871 86.5191C25.3882 86.5191 0.329589 67.2244 0.286133 43.4919V43.3575C0.330906 19.625 25.3895 0.327637 56.1871 0.327637C87.0083 0.327637 112.085 19.6619 112.085 43.426C112.085 67.1875 87.0083 86.5191 56.1858 86.5191H56.1871ZM55.9105 1.22311C25.7425 1.22311 1.20267 20.0253 1.20267 43.1337C1.20267 66.2394 25.7425 85.0416 55.9066 85.0416C86.0747 85.0416 110.612 66.2394 110.612 43.1337C110.613 20.0253 86.076 1.22311 55.9079 1.22311H55.9105ZM56.5295 74.2064C34.6208 74.2064 16.8009 60.4452 16.8009 43.5419C16.8009 26.6307 34.6208 12.8721 56.5308 12.8721C78.4329 12.8721 96.2593 26.6307 96.2593 43.5419C96.2593 60.4452 78.4329 74.2064 56.5295 74.2064ZM56.2503 13.7676C35.0013 13.7676 17.7188 26.9915 17.7188 43.2496C17.7188 59.5023 35.0013 72.7289 56.2503 72.7289C77.4979 72.7289 94.7818 59.5023 94.7818 43.2496C94.7818 26.9915 77.4979 13.7676 56.2503 13.7676Z" fill="white"/>
<path fill-rule="evenodd" clip-rule="evenodd" d="M41.0193 30.0327L40.6585 34.8893C39.8482 34.4192 38.9745 34.068 38.0643 33.8463C37.076 33.6153 36.0635 33.5039 35.0487 33.5145C32.673 33.5145 30.8307 34.3256 29.5349 35.9428C28.2365 37.5599 27.586 39.8591 27.586 42.83C27.586 45.8588 28.143 48.1685 29.2531 49.7698C30.3659 51.3685 31.9751 52.1665 34.0781 52.1665C34.8138 52.1657 35.5421 52.0189 36.2207 51.7346V45.4308H32.9443V40.9113H41.7923V55.2177C40.7612 55.6813 39.5695 56.0368 38.2144 56.2817C36.8633 56.5267 35.4108 56.6478 33.8635 56.6478C29.9063 56.6478 26.8393 55.4758 24.6573 53.1265C22.4765 50.7825 21.3888 47.4824 21.3888 43.229C21.3888 38.7385 22.5411 35.2409 24.8482 32.7441C27.1554 30.2447 30.3949 29.0016 34.5641 29.0016C35.7058 29.0016 36.8159 29.0858 37.8905 29.2623C38.9663 29.4388 40.008 29.6969 41.0193 30.034V30.0327ZM44.326 29.0002H52.5998L57.1799 46.9175L61.8324 29.0002H70.1774V55.7458H64.9678V33.5L58.9827 55.7471H55.3442L49.2827 33.5395V55.7471H44.326V29.0002ZM72.7676 29.0002H79.1702C80.898 29.0002 82.2583 29.0924 83.2512 29.2715C84.2441 29.4559 85.0724 29.7482 85.7282 30.1486C86.91 30.8522 87.8607 31.8857 88.4634 33.122C89.0823 34.3757 89.3904 35.8532 89.3904 37.5441C89.3904 40.3464 88.6095 42.4454 87.0464 43.8492C85.4833 45.2556 83.1524 45.9588 80.0512 45.9588H78.6435V55.7458H72.7676V29.0002ZM79.19 33.4802V41.4631H80.5635C81.8751 41.4631 82.8035 41.1496 83.3671 40.5281C83.9241 39.9092 84.2033 38.8662 84.2033 37.4124C84.2033 35.9981 83.9215 34.9867 83.3566 34.3836C82.7903 33.7805 81.8106 33.4802 80.4173 33.4802H79.19ZM8.10427 45.6165C7.57752 45.6165 6.82691 45.6191 6.26066 45.0107C5.84979 44.563 5.79053 44.0336 5.79053 43.4673C5.7879 42.3533 6.47135 41.5579 7.61834 41.5552L7.62098 42.8405C7.09423 42.8616 6.85588 43.1276 6.85588 43.57C6.85851 44.2416 7.44057 44.2864 7.78559 44.2864L9.64895 44.2811C10.4272 44.2785 10.9026 44.1363 10.9 43.5042C10.9 42.83 10.3416 42.83 10.1243 42.8326H9.72138V43.52L8.73636 43.5253V41.5552L11.8955 41.5447L11.9008 42.1215L11.4899 42.2927V42.3506C11.6875 42.5192 11.9996 42.7826 11.9996 43.6833C12.0022 44.2759 11.8349 44.8211 11.349 45.2082C10.9408 45.5295 10.443 45.6112 9.71084 45.6138L8.10427 45.6165ZM8.54542 40.1989C7.95019 40.083 7.39711 39.8749 7.03102 39.3877C6.69917 38.9478 6.6544 38.379 6.75843 37.8338C6.87168 37.2465 7.12189 36.7302 7.61439 36.4247C8.02394 36.1693 8.57966 36.085 9.51463 36.2641L10.9237 36.5327C11.7401 36.6881 12.2379 36.9225 12.5645 37.3623C12.9951 37.9391 12.9187 38.6423 12.8437 39.0111C12.7344 39.5773 12.3472 40.4675 11.3069 40.5702C10.871 40.6176 10.3587 40.5439 10.1059 40.4965L8.54542 40.1989ZM10.4285 38.8688C11.0396 38.9874 11.4952 38.9571 11.6045 38.3882C11.7375 37.7034 11.0975 37.5823 10.6919 37.5032L8.67052 37.1187C8.26756 37.0423 7.77373 36.9475 7.64337 37.6165C7.51168 38.3171 8.1767 38.4409 8.40715 38.4883L10.4285 38.8701V38.8688ZM10.0282 33.8805C9.46459 33.6567 8.9655 33.3433 8.70081 32.8007C8.45587 32.3082 8.52171 31.7367 8.72715 31.2257C8.95496 30.6674 9.29471 30.2091 9.83726 30.0037C10.2903 29.8272 10.846 29.8509 11.7296 30.2039L13.0662 30.7332C13.8353 31.0361 14.2791 31.3627 14.5148 31.8526C14.8282 32.5005 14.6135 33.1747 14.4753 33.525C14.258 34.0623 13.7115 34.8603 12.6712 34.7655C12.2287 34.7286 11.7401 34.56 11.5018 34.4679L10.0269 33.8805H10.0282ZM12.0114 33.8871C12.5908 34.1189 13.0478 34.1689 13.2651 33.6343C13.5258 32.989 12.9174 32.7467 12.5368 32.5966L10.6274 31.8381C10.2455 31.6853 9.778 31.4983 9.52648 32.1304C9.25784 32.7915 9.8873 33.0417 10.1059 33.1286L12.0114 33.8871ZM10.3785 28.1548L11.1383 26.9433C11.8995 25.7291 12.4025 25.4447 13.0017 25.4184C13.4613 25.3999 13.859 25.5343 14.9902 26.2322L15.8461 26.7695C16.4124 27.1198 16.9312 27.6281 16.8654 28.3523C16.8259 28.8264 16.6639 29.153 16.4479 29.577C16.3716 29.7272 15.9225 30.4409 15.4076 31.2626L10.3772 28.1548H10.3785ZM14.5385 29.1583L14.7347 28.8449C15.0139 28.3998 15.2127 27.902 14.2461 27.3068C14.0749 27.2014 13.8116 27.017 13.6404 26.9117C13.0346 26.5377 12.6079 26.2954 12.2577 26.3138C11.8139 26.3323 11.6677 26.5693 11.2964 27.154L14.5385 29.1583ZM14.9665 21.2347L16.2109 20.0284L18.4417 21.2926C18.6787 21.4322 18.7603 21.4717 18.9961 21.6166C19.1027 21.6798 19.5518 21.9642 19.6387 22.0222L19.669 21.9932C19.3898 21.5797 19.191 21.2558 18.9329 20.7843L17.72 18.5694L18.9724 17.3526L23.11 21.556L22.3001 22.3461L20.0719 20.0837C19.6829 19.6798 19.3031 19.2671 18.9329 18.8459L18.9092 18.8696L21.4375 23.181L20.7975 23.8026L16.4874 21.2136L16.4611 21.2426C16.6573 21.4322 17.5304 22.2513 17.7082 22.4278L19.9047 24.6612L19.1027 25.4381L14.9665 21.2347ZM22.6701 13.7681L27.5056 17.5633L26.4732 18.2954L25.5462 17.5159L24.0673 18.5615L24.5058 19.6913L23.4721 20.4209L21.3888 14.6741L22.6714 13.7681H22.6701ZM23.2469 15.5603L23.2232 15.5814L24.253 18.115L25.3368 17.3512L23.2469 15.5603ZM25.9755 12.2155L27.0698 11.6255L29.7325 13.3164C29.851 13.3901 29.9985 13.4928 30.1051 13.5692C30.1525 13.6035 30.329 13.7536 30.3685 13.7746L30.4028 13.7562L30.0867 13.2532C29.8734 12.9108 29.8497 12.8713 29.7404 12.6737L28.6869 10.7538L29.7325 10.1849L32.5743 15.347L31.6393 15.85L28.8778 14.0986C28.6526 13.9537 28.6342 13.9379 28.0205 13.4586L27.9837 13.4797C28.0732 13.6219 28.4577 14.2619 28.5354 14.3936L29.8628 16.8113L28.8172 17.3802L25.9755 12.2155ZM31.4799 9.98997L32.7283 9.48956L34.1966 13.0807C34.3296 13.4072 34.6036 14.0841 35.3463 13.7865C35.578 13.6943 36.114 13.4757 35.711 12.4828L34.2401 8.88249L35.4582 8.39261L36.9331 12.0008C37.0648 12.3274 37.3782 13.1149 37.0016 13.7944C36.7461 14.2527 36.3181 14.5503 35.8164 14.7557C35.2436 14.9848 34.5957 15.0823 34.1282 14.9032C33.3947 14.6214 33.1194 14.0077 32.9193 13.5179L31.4826 9.99129L31.4799 9.98997ZM36.9844 7.70126L40.7639 6.60036L41.0694 7.63278L38.5436 8.36496L38.9031 9.57911L40.5834 9.08924L40.8916 10.1375L39.2139 10.6221L39.9066 12.9766L38.6529 13.3401L36.9858 7.70126H36.9844ZM43.5332 5.70357L46.4264 11.1106L45.1846 11.3661L44.6499 10.2836L42.8735 10.6524L42.8155 11.8586L41.5724 12.122L41.9925 6.02752L43.5332 5.70357ZM43.5227 6.59904L43.4898 6.60563L43.4081 9.33944L44.7145 9.0708L43.5227 6.60036V6.59904ZM47.1019 7.16134C46.9439 5.82341 47.5747 4.98325 48.9469 4.82786C49.3011 4.78309 49.8371 4.79625 50.2835 5.06489C50.8589 5.41518 51.0104 6.12365 51.0828 6.59509L49.7897 6.74521C49.7501 6.45814 49.6567 5.82341 49.0167 5.89715C48.8368 5.91928 48.6709 6.00527 48.5492 6.13946C48.3635 6.35279 48.3872 6.63987 48.4056 6.79789L48.669 9.01812C48.7059 9.33681 48.7796 9.95047 49.492 9.86619C50.0227 9.80298 50.132 9.35524 50.0583 8.72841L51.3554 8.57566C51.3949 8.99706 51.3936 9.0471 51.3857 9.29993C51.3607 9.53434 51.333 9.9689 50.8906 10.414C50.5139 10.7959 49.9082 10.9223 49.6514 10.9513C48.9719 11.0303 48.4794 10.9276 48.0685 10.6115C47.7999 10.4087 47.4469 10.1111 47.306 8.91804L47.1019 7.16134ZM56.0039 4.80811L56.0382 5.88003L54.5672 5.93008L54.7253 10.7287L53.3676 10.7709L53.2135 5.97221L51.6991 6.01962L51.6649 4.94769L56.0039 4.80811ZM57.384 4.80811L58.7299 4.87658L58.5192 8.74553C58.5034 9.09845 58.4638 9.82273 59.2632 9.86487C59.5134 9.87804 60.0889 9.90964 60.1481 8.84035L60.3575 4.9635L61.6717 5.03197L61.461 8.91673C61.4439 9.26701 61.3899 10.1151 60.7578 10.5707C60.3338 10.8736 59.8163 10.9684 59.2764 10.9394C58.6574 10.9078 58.0253 10.7208 57.6829 10.3653C57.1391 9.80166 57.1523 9.13006 57.1825 8.60068L57.384 4.80811ZM63.9446 10.8025L62.6752 10.6207L63.5272 4.80811L65.4235 5.08465C66.3716 5.2216 67.5608 5.52185 67.3303 7.08102C67.2184 7.81846 66.8431 8.33731 65.9805 8.46109L66.8813 11.2318L65.4814 11.0263L64.7255 8.49006L64.2897 8.42949L63.9446 10.8025ZM64.5109 7.31015C65.2352 7.4155 65.3471 7.42867 65.538 7.39706C65.9673 7.31015 66.045 7.002 66.0924 6.68332C66.1517 6.27773 66.0529 6.0644 65.8093 5.93008C65.6223 5.82999 65.463 5.80629 64.7466 5.70357L64.5096 7.31015H64.5109ZM67.2631 11.4451L67.3764 10.9342L68.0572 11.0843L69.1107 6.35411L68.4312 6.20662L68.5458 5.70357L71.1848 6.28299L71.0728 6.7834L70.3854 6.63328L69.3359 11.3503L70.0193 11.4978L69.9021 12.0245L67.2631 11.4451ZM72.6623 6.59904L73.8514 6.95855L74.4993 10.0268C74.5257 10.1585 74.5599 10.3376 74.5757 10.4693C74.5836 10.5194 74.5994 10.7485 74.6099 10.7959L74.6468 10.8064L74.793 10.2323C74.8385 10.0133 74.8961 9.797 74.9655 9.58438L75.6081 7.49319L76.7498 7.83821L75.0247 13.4586L74.0015 13.1478L73.3352 9.96627C73.2799 9.7108 73.2799 9.68183 73.1956 8.91278L73.1601 8.90224C73.1179 9.06553 72.9296 9.78717 72.8875 9.9294L72.075 12.5631L70.9333 12.2207L72.661 6.60036L72.6623 6.59904ZM77.3833 9.9294C77.59 9.45006 77.8797 8.76529 78.6685 8.48348C79.244 8.28595 79.7562 8.4387 80.283 8.65994C81.3154 9.08924 81.7882 10.0268 81.3391 11.0724L80.15 10.5747C80.3357 10.0874 80.179 9.76347 79.7734 9.59228C79.1492 9.3289 78.8779 9.84248 78.7396 10.1585L78.0154 11.8626C77.7151 12.571 77.6651 13.0609 78.2524 13.3085C78.8779 13.5692 79.0926 13.0609 79.1781 12.8607L79.3322 12.4947L78.6949 12.226L79.0741 11.3253L80.9046 12.0917L79.6772 14.9809L79.1413 14.757L79.1465 14.3172L79.0939 14.2935C78.8568 14.4146 78.4934 14.5937 77.6532 14.2408C77.1041 14.0117 76.6629 13.643 76.4944 13.0504C76.3574 12.55 76.4772 12.0706 76.7577 11.3964L77.3833 9.9294ZM85.964 11.9758L87.6285 12.9898C88.3699 13.4428 88.6727 13.8431 88.7926 14.2461C88.9322 14.7175 88.8295 15.2074 88.5187 15.7078C88.0354 16.4821 87.373 16.5875 87.0635 16.5822C86.5631 16.5796 86.1549 16.3557 85.7572 16.1318L85.1356 15.7815L83.9729 17.6541L82.8601 16.9773L85.964 11.9758ZM85.6124 14.3369C86.1404 14.6609 86.3432 14.782 86.5052 14.8084C86.6158 14.8268 87.0253 14.8716 87.344 14.3606C87.6469 13.876 87.5192 13.6601 87.4072 13.5073C87.269 13.3282 87.19 13.2808 86.5236 12.8726L85.6124 14.3369ZM87.5337 20.0521L86.5302 19.2607L90.2161 14.6648L91.7134 15.8474C92.464 16.4426 93.3358 17.2959 92.3455 18.5285C91.8806 19.1106 91.288 19.3713 90.4808 19.0526L89.854 21.8892L88.7504 21.0174L89.3825 18.4442L89.0402 18.1756L87.5337 20.0535V20.0521ZM90.2003 17.7279C90.7758 18.1809 90.864 18.252 91.0497 18.3178C91.4606 18.4574 91.6897 18.2256 91.8885 17.9781C92.1466 17.6568 92.173 17.4224 92.0321 17.188C91.9175 17.0062 91.7911 16.9061 91.2196 16.4558L90.2003 17.7279ZM96.7214 20.2721L93.6228 25.5553L92.7484 24.6467L93.3911 23.6274L92.1387 22.3264L91.076 22.9137L90.2003 22.0051L95.635 19.1448L96.7214 20.2721ZM95.3558 20.9595L95.3348 20.9358L92.9512 22.3079L93.873 23.264L95.3558 20.9595ZM97.4154 24.1041C98.5282 23.3325 99.5724 23.4852 100.361 24.6072C100.568 24.8969 100.812 25.3683 100.785 25.8872C100.743 26.5588 100.189 27.0249 99.8029 27.3094L99.0602 26.2533C99.2933 26.0821 99.8134 25.7002 99.4421 25.1761C99.3387 25.0291 99.1858 24.9244 99.0115 24.8811C98.731 24.8205 98.4887 24.9785 98.353 25.0707L96.5094 26.3507C96.246 26.5351 95.7377 26.888 96.1473 27.4727C96.4554 27.9046 96.9032 27.7861 97.4246 27.4253L98.1752 28.4893C97.8197 28.7237 97.7776 28.7474 97.5484 28.8554C97.3246 28.9476 96.9321 29.1267 96.3224 28.9502C95.8049 28.8001 95.4059 28.3339 95.2597 28.1258C94.8673 27.5701 94.7264 27.0908 94.812 26.5798C94.8646 26.2533 94.9621 25.8055 95.9524 25.1155L97.4154 24.1041ZM104.106 31.0875L103.129 31.551L102.489 30.2315L98.1265 32.3122L97.5392 31.1006L101.905 29.02L101.246 27.6715L102.223 27.208L104.106 31.0875ZM98.4571 34.3783L98.9535 34.2203L99.1695 34.8761L103.813 33.3959L103.601 32.7428L104.095 32.5848L104.918 35.1395L104.426 35.2949L104.216 34.6338L99.5803 36.1061L99.7924 36.7671L99.2801 36.9304L98.4571 34.3783ZM103.133 37.1069C104.472 36.8935 105.346 37.4861 105.563 38.8399C105.616 39.1901 105.627 39.7222 105.375 40.1752C105.045 40.7625 104.337 40.9416 103.867 41.0285L103.665 39.7564C103.948 39.7011 104.583 39.5826 104.486 38.9531C104.454 38.7749 104.361 38.6136 104.222 38.4975C103.998 38.3237 103.71 38.3605 103.551 38.3842L101.325 38.7345C101.009 38.7872 100.395 38.8873 100.509 39.5878C100.59 40.112 101.047 40.2015 101.675 40.1014L101.884 41.384C101.458 41.4394 101.409 41.4394 101.155 41.4394C100.731 41.4446 100.321 41.2861 100.011 40.9969C99.6133 40.6387 99.4618 40.0461 99.4184 39.7933C99.313 39.119 99.3947 38.6265 99.6975 38.2078C99.8885 37.9339 100.178 37.573 101.374 37.3834L103.133 37.1069ZM106.383 42.6798L106.221 46.6225L105.141 46.5804L105.249 43.9177L103.988 43.865L103.914 45.6981L102.836 45.6533L102.911 43.8361L101.516 43.7807L101.399 46.612L100.293 46.5672L100.464 42.4402L106.383 42.6798ZM18.0018 62.8871C18.9539 61.9285 20.0087 61.8969 20.9911 62.8608C21.244 63.1084 21.5705 63.535 21.6337 64.0486C21.7154 64.715 21.2519 65.2759 20.9279 65.621L20.0035 64.7123C20.2023 64.499 20.6487 64.0354 20.1865 63.5825C20.0557 63.46 19.8871 63.3857 19.7085 63.3717C19.4214 63.3612 19.212 63.5614 19.1001 63.6746L17.5133 65.2575C17.2841 65.4866 16.8483 65.9238 17.3553 66.4269C17.7358 66.7982 18.1546 66.606 18.6063 66.153L19.536 67.0695C19.2278 67.3645 19.1883 67.3908 18.9829 67.5409C18.7854 67.6726 18.4259 67.9176 17.7977 67.8517C17.2604 67.7964 16.785 67.4066 16.6046 67.2275C16.1134 66.7482 15.8935 66.3031 15.8843 65.7869C15.8738 65.4498 15.8935 64.9941 16.7455 64.1408L18.0018 62.8871ZM22.1302 66.7535C22.495 66.2768 22.9295 65.8738 23.5274 65.7632C24.0739 65.6605 24.6112 65.8659 25.0563 66.2004C25.5396 66.5612 25.8991 67.0089 25.9544 67.5857C26.0071 68.0651 25.8398 68.5892 25.267 69.3424L24.4031 70.4855C23.9027 71.1413 23.4721 71.481 22.9322 71.5811C22.2184 71.7075 21.6179 71.3309 21.3151 71.1044C20.8515 70.7567 20.2168 70.0219 20.5776 69.0527C20.7291 68.6445 21.0214 68.2178 21.1755 68.015L22.1302 66.7535ZM21.7483 68.7222C21.377 69.2147 21.2044 69.6387 21.6706 69.9837C22.229 70.4051 22.624 69.8837 22.8716 69.5597L24.1095 67.9268C24.3557 67.6002 24.656 67.2051 24.1095 66.7969C23.5327 66.365 23.1258 66.9023 22.9888 67.0919L21.7483 68.7222ZM28.0008 68.4246L29.078 69.0382L29.0279 72.1697C29.0253 72.3093 29.0148 72.4858 29.0042 72.6175C28.999 72.6728 28.9621 72.8993 28.9621 72.9467L28.999 72.9678L29.2637 72.4384C29.4454 72.0775 29.4691 72.0354 29.5823 71.8431L30.6753 69.9442L31.713 70.5315L28.7725 75.6331L27.8467 75.109L27.9073 71.8589C27.9099 71.5956 27.9152 71.5692 28.0061 70.8002L27.9705 70.7818C27.8941 70.9292 27.5491 71.5929 27.474 71.7246L26.0966 74.1161L25.0576 73.5287L28.0008 68.4246ZM34.6681 73.2759C34.6417 72.8808 34.4166 72.4489 33.9965 72.2698C33.3723 72.0012 33.1537 72.4542 33.1313 72.5174C32.9641 72.8966 33.2498 73.2048 33.529 73.4655L34.1084 74.0133C34.385 74.2714 34.6747 74.6586 34.7589 75.0431C34.7853 75.159 34.8696 75.6146 34.6444 76.1203C34.539 76.3626 34.2243 77.0816 33.2498 77.2133C32.8495 77.266 32.3636 77.1501 32.091 77.0342C31.1362 76.6207 30.674 76.1493 30.5634 75.0721L31.7578 74.864C31.7578 75.404 31.9975 75.8411 32.4623 76.0387C32.7218 76.1519 33.2393 76.2388 33.4579 75.7463C33.633 75.3434 33.45 75.159 32.7744 74.4927C32.0897 73.8237 31.5366 73.1547 32.0054 72.0907C32.3952 71.2031 33.3275 70.8476 34.4455 71.3269C35.2422 71.6746 35.6636 72.2408 35.823 73.0757L34.6681 73.2759ZM34.2335 78.4512L34.4113 77.9613L35.0645 78.1878L36.6816 73.613L36.0258 73.3865L36.1956 72.9045L38.7504 73.7947L38.5792 74.2741L37.9155 74.0449L36.3036 78.6013L36.9686 78.8304L36.7896 79.3387L34.2335 78.4512ZM41.7107 75.7964C41.6238 75.4066 41.342 75.0142 40.8955 74.8956C40.2424 74.7165 40.0923 75.1985 40.0751 75.2591C39.9658 75.6621 40.2951 75.9254 40.6085 76.144L41.259 76.6049C41.5698 76.8183 41.9095 77.1633 42.0504 77.532C42.0926 77.6453 42.2414 78.0825 42.0926 78.6145C42.0215 78.8673 41.8147 79.6232 40.8679 79.8892C40.4781 80.0024 39.9816 79.9577 39.6932 79.8787C38.6924 79.6048 38.1657 79.2071 37.9023 78.1536L39.0532 77.7796C39.1296 78.3142 39.4299 78.7119 39.9211 78.8462C40.195 78.92 40.7204 78.9252 40.8613 78.4117C40.9798 77.985 40.7704 77.8296 40.0053 77.2634C39.2363 76.6997 38.5937 76.1177 38.9018 74.9984C39.1586 74.066 40.033 73.5814 41.2063 73.8975C42.0491 74.1292 42.5416 74.627 42.8234 75.4329L41.7107 75.7964ZM47.8762 75.4843L47.6787 76.5378L46.2249 76.2718L45.3386 80.994L44.0086 80.7465L44.8949 76.0268L43.4068 75.7503L43.6043 74.6968L47.8762 75.4843ZM48.5768 75.5936L52.534 75.9807L52.4273 77.0448L49.7541 76.7867L49.629 78.0245L51.4713 78.2062L51.362 79.2755L49.5408 79.0938L49.4025 80.4739L52.2469 80.7504L52.1376 81.8408L47.9961 81.4378L48.5768 75.5936ZM53.5585 76.489L54.8016 76.4996L56.3029 79.2624C56.3661 79.3809 56.4425 79.5442 56.4978 79.6653C56.5215 79.7154 56.5992 79.9313 56.6229 79.9708L56.665 79.9735L56.6387 79.3809C56.6227 79.1565 56.6165 78.9316 56.6202 78.7066L56.6413 76.5207L57.837 76.5312L57.7778 82.407L56.7137 82.3991L55.1651 79.531C55.0374 79.2992 55.0334 79.2729 54.7319 78.5565H54.6923C54.6976 78.7251 54.7213 79.4731 54.7187 79.6232L54.695 82.3781L53.5006 82.3649L53.5585 76.489ZM63.3297 75.5936L63.4179 76.6629L61.9443 76.7761L62.3117 81.5642L60.9593 81.667L60.5906 76.8788L59.0854 76.9895L59.0064 75.9228L63.331 75.5936H63.3297ZM70.7568 80.7004C70.5394 80.7601 70.3101 80.7619 70.0918 80.7057C69.698 80.6029 69.5044 80.3896 69.4123 80.2158C69.0264 80.6003 68.5089 80.7399 68.2087 80.7978C67.6411 80.9058 66.664 80.8847 66.1833 79.9629C65.9726 79.581 65.8515 79.0833 65.8027 78.8278L65.4972 77.2765C65.3866 76.6918 65.3787 76.1045 65.6974 75.583C65.9832 75.1142 66.5007 74.8588 67.0485 74.7561C67.6437 74.6402 68.2205 74.6797 68.6893 75.0221C69.0804 75.3039 69.3609 75.7806 69.5453 76.7076L69.8152 78.1062C69.9074 78.5881 69.9377 78.9832 69.8758 79.3019C70.1418 79.5284 70.2775 79.5047 70.5158 79.4599L70.7581 80.7004H70.7568ZM68.2179 77.7927C68.5524 77.7796 68.7117 77.8402 68.8895 77.9824C68.925 78.0166 68.9593 78.0456 69.0212 78.1167L68.6801 76.3705C68.5984 75.9439 68.4839 75.4856 67.8175 75.6147C67.1275 75.7437 67.2592 76.4311 67.3 76.6339L67.6924 78.6408C67.811 79.2597 68.019 79.6522 68.5905 79.5442C68.8342 79.4968 68.9803 79.3809 69.0514 79.2176C68.8131 78.9595 68.7012 78.9015 68.4259 78.8726L68.2179 77.7927ZM70.0154 74.1161L71.3059 73.7342L72.4213 77.4477C72.5188 77.7875 72.7295 78.4828 73.4959 78.2563C73.7355 78.1904 74.2899 78.0245 73.9871 76.9947L72.869 73.2759L74.1306 72.9045L75.246 76.6313C75.35 76.971 75.5857 77.7875 75.142 78.4248C74.8457 78.8541 74.3913 79.1122 73.8738 79.2676C73.2786 79.4415 72.6202 79.4783 72.1764 79.2571C71.4758 78.9042 71.2572 78.2694 71.1071 77.7585L70.0141 74.1161H70.0154ZM77.8929 72.0091L81.7381 76.7972L80.5635 77.2713L79.8392 76.3073L78.1576 76.9974L78.3235 78.1904L77.1515 78.6724L76.4377 72.6043L77.8929 72.0091ZM78.3011 72.9045L78.2721 72.9151L78.6975 75.6199L79.9327 75.1116L78.3011 72.9045ZM80.1079 70.841L81.2759 70.2168L83.5594 74.4282L85.856 73.1982L86.3827 74.1621L82.922 76.0163L80.1079 70.841ZM87.0122 73.9159L86.7225 73.4787L87.3032 73.1047L84.6379 69.0488L84.0558 69.4254L83.778 68.9961L86.0403 67.5291L86.3208 67.961L85.7348 68.3377L88.3896 72.3831L88.9796 72.0038L89.2746 72.4515L87.0122 73.9159ZM89.9422 64.8414L90.6112 65.6842L89.451 66.5928L92.4535 70.3669L91.3868 71.1992L88.3883 67.4277L87.1992 68.3574L86.5302 67.512L89.9409 64.8414H89.9422ZM95.7575 66.6534L94.0772 65.0363L90.2003 63.8906L91.1748 62.8977L92.7563 63.3849C92.8762 63.4218 93.4069 63.6062 93.5162 63.6457L93.5425 63.6141C93.4451 63.3638 93.4293 63.3191 93.2726 62.8845L92.6984 61.3438L93.6597 60.3614L94.9555 64.0723L96.6674 65.7237L95.7575 66.6534ZM11.162 53.1924C10.2205 53.1924 9.46064 53.9509 9.46064 54.8806C9.46064 55.8129 10.2205 56.5715 11.1633 56.5715C12.1036 56.5715 12.8647 55.8129 12.8647 54.8806C12.8647 53.9509 12.1036 53.1924 11.1633 53.1924H11.162ZM101.997 53.1924C101.547 53.191 101.115 53.3679 100.796 53.6843C100.476 54.0008 100.296 54.431 100.293 54.8806C100.293 55.8129 101.057 56.5715 101.997 56.5715C102.934 56.5715 103.696 55.8129 103.696 54.8806C103.696 53.9509 102.934 53.1924 101.997 53.1924Z" fill="white"/>
</svg>
