<svg width="420" height="132" viewBox="0 0 420 132" fill="none" xmlns="http://www.w3.org/2000/svg">
<path fill-rule="evenodd" clip-rule="evenodd" d="M0 131.478H420V0H0V131.478Z" fill="#FFFFFE"/>
<path fill-rule="evenodd" clip-rule="evenodd" d="M310.966 80.4505L311.363 79.9796L313.28 77.8228H314.896L312.422 80.4623L315.038 84.5555H313.394C313.075 84.0276 312.751 83.504 312.434 82.9879C312.118 82.4729 311.795 81.9493 311.477 81.4203L310.901 82.0289V84.5555H309.522V77.8228H310.901V80.4505H310.966Z" fill="#2A78B1"/>
<path fill-rule="evenodd" clip-rule="evenodd" d="M320.731 79.7559C320.731 79.9387 320.709 80.1183 320.665 80.2967C320.619 80.4795 320.553 80.6462 320.46 80.7978C320.369 80.9515 320.256 81.0892 320.118 81.2096C319.978 81.33 319.814 81.4225 319.626 81.4891V81.4999C319.895 81.5891 320.091 81.7439 320.212 81.9579C320.33 82.1762 320.425 82.4149 320.494 82.674L321.015 84.5545H319.626C319.543 84.262 319.462 83.9728 319.377 83.6793C319.298 83.39 319.216 83.0922 319.136 82.7912C319.034 82.4192 318.895 82.1686 318.713 82.0385C318.535 81.9063 318.312 81.8396 318.048 81.8396H317.35V84.5545H315.968V77.8228H318.605C318.976 77.8228 319.297 77.8765 319.563 77.9765C319.832 78.0776 320.054 78.2173 320.225 78.3915C320.396 78.5689 320.525 78.7764 320.608 79.0108C320.688 79.2452 320.731 79.4925 320.731 79.7559ZM318.341 80.8524C318.454 80.8524 318.565 80.8352 318.681 80.804C318.794 80.7707 318.898 80.7169 318.994 80.6363C319.086 80.5621 319.164 80.4556 319.224 80.3245C319.283 80.1954 319.315 80.0331 319.315 79.8374C319.315 79.5009 319.224 79.2514 319.042 79.0923C318.858 78.9332 318.62 78.8525 318.331 78.8525H317.35V80.8524H318.341Z" fill="#2A78B1"/>
<path fill-rule="evenodd" clip-rule="evenodd" d="M326.014 84.5555L325.562 83.0191H323.192L322.728 84.5555H321.34L323.55 77.8228H325.305L327.452 84.5555H326.014ZM324.798 80.2633L324.419 78.8054H324.373L323.976 80.3171L323.493 82.0395H325.279L324.798 80.2633Z" fill="#2A78B1"/>
<path fill-rule="evenodd" clip-rule="evenodd" d="M330.421 77.8228C330.742 77.8228 331.085 77.8582 331.453 77.9281C331.817 77.9969 332.158 78.1217 332.48 78.3034L332.121 79.285C331.8 79.1463 331.487 79.0571 331.181 79.013C330.877 78.9721 330.609 78.9528 330.373 78.9528C330.077 78.9528 329.845 79.0237 329.674 79.1667C329.504 79.3108 329.418 79.5269 329.418 79.8129C329.418 79.943 329.458 80.0527 329.529 80.1408C329.6 80.2312 329.696 80.3086 329.816 80.3709C329.935 80.4376 330.074 80.4935 330.227 80.5387C330.383 80.5838 330.541 80.6236 330.714 80.6655C330.935 80.7236 331.171 80.7946 331.428 80.8698C331.682 80.9483 331.918 81.0644 332.136 81.2117C332.353 81.3655 332.533 81.5622 332.674 81.8117C332.816 82.0611 332.886 82.3826 332.886 82.7826C332.886 83.4223 332.659 83.9169 332.206 84.2674C331.752 84.6158 331.07 84.7899 330.157 84.7899C329.992 84.7899 329.812 84.7824 329.614 84.762C329.414 84.7416 329.21 84.7125 329.006 84.6695C328.795 84.6287 328.588 84.5695 328.382 84.5029C328.172 84.4308 327.974 84.3523 327.787 84.2513L328.145 83.2309C328.603 83.4223 329.018 83.5438 329.381 83.5943C329.747 83.6481 330.04 83.6739 330.261 83.6739C330.643 83.6739 330.935 83.6062 331.129 83.4739C331.326 83.3384 331.426 83.1084 331.426 82.7826C331.426 82.6396 331.396 82.5181 331.346 82.4256C331.296 82.331 331.224 82.2504 331.129 82.1805C331.037 82.1106 330.922 82.0547 330.791 82.0095C330.657 81.9611 330.512 81.916 330.354 81.8719C330.034 81.787 329.727 81.7009 329.44 81.6106C329.148 81.5235 328.893 81.4074 328.671 81.2633C328.456 81.1214 328.277 80.9386 328.15 80.7193C328.021 80.501 327.955 80.2183 327.955 79.871C327.955 79.257 328.162 78.7635 328.575 78.3883C328.988 78.0131 329.602 77.8228 330.421 77.8228Z" fill="#2A78B1"/>
<path fill-rule="evenodd" clip-rule="evenodd" d="M338.522 82.4589V77.8228H339.874V84.5545H338.476L336.282 80.9311C336.177 80.7429 336.068 80.5548 335.957 80.372C335.847 80.1892 335.738 80.0043 335.633 79.8151C335.619 79.8151 335.615 79.8151 335.607 79.8183C335.605 79.8194 335.595 79.8215 335.582 79.8215V84.5545H334.233V77.8228H335.648C335.99 78.3743 336.324 78.9173 336.652 79.4506C336.981 79.9849 337.314 80.5311 337.648 81.0881L338.464 82.4589H338.522Z" fill="#2A78B1"/>
<path fill-rule="evenodd" clip-rule="evenodd" d="M346.733 81.3117C346.733 81.8085 346.673 82.2676 346.545 82.688C346.42 83.1084 346.23 83.475 345.978 83.7846C345.726 84.0975 345.412 84.3394 345.039 84.5136C344.665 84.6921 344.225 84.7792 343.733 84.7792C343.201 84.7792 342.747 84.6953 342.361 84.5297C341.977 84.3631 341.658 84.1265 341.412 83.8244C341.162 83.5201 340.979 83.1589 340.859 82.7363C340.739 82.3159 340.68 81.8461 340.68 81.33C340.68 80.8483 340.736 80.3924 340.855 79.9688C340.971 79.5441 341.154 79.1721 341.396 78.8496C341.645 78.5313 341.958 78.2797 342.342 78.098C342.726 77.9131 343.19 77.8228 343.733 77.8228C344.274 77.8228 344.733 77.9163 345.113 78.1023C345.496 78.2872 345.807 78.5399 346.045 78.8549C346.284 79.1721 346.458 79.542 346.57 79.9624C346.68 80.386 346.733 80.8333 346.733 81.3117ZM345.251 81.3297C345.251 81.0244 345.23 80.7212 345.189 80.4212C345.148 80.1255 345.075 79.8621 344.964 79.6298C344.853 79.3987 344.699 79.2116 344.501 79.0664C344.3 78.9245 344.047 78.8493 343.733 78.8493C343.408 78.8493 343.147 78.9202 342.942 79.0621C342.738 79.203 342.574 79.3847 342.455 79.6159C342.335 79.8427 342.254 80.1083 342.21 80.4083C342.166 80.7104 342.144 81.0201 342.144 81.3405C342.144 82.1028 342.261 82.693 342.498 83.1081C342.734 83.5231 343.144 83.7306 343.733 83.7306C344.003 83.7306 344.235 83.6693 344.429 83.55C344.623 83.4295 344.784 83.2597 344.902 83.0446C345.02 82.8285 345.111 82.5758 345.166 82.2845C345.221 81.9974 345.251 81.6738 345.251 81.3297Z" fill="#2A78B1"/>
<path fill-rule="evenodd" clip-rule="evenodd" d="M349.241 82.1375L347.126 77.8228H348.583C348.715 78.1184 348.848 78.4077 348.988 78.6915C349.129 78.9753 349.26 79.2635 349.384 79.557L349.96 80.901H350.019C350.126 80.6849 350.228 80.4505 350.324 80.2C350.423 79.9473 350.522 79.7162 350.633 79.5011L351.445 77.8228H352.87C352.512 78.5033 352.155 79.1936 351.803 79.8957C351.45 80.5967 351.094 81.2902 350.736 81.9708V84.5555H349.241V82.1375Z" fill="#2A78B1"/>
<path fill-rule="evenodd" clip-rule="evenodd" d="M357.176 84.5555L356.723 83.0191H354.35L353.887 84.5555H352.498L354.713 77.8228H356.467L358.611 84.5555H357.176ZM355.958 80.2633L355.582 78.8054H355.533L355.136 80.3171L354.653 82.0395H356.438L355.958 80.2633Z" fill="#2A78B1"/>
<path fill-rule="evenodd" clip-rule="evenodd" d="M364.782 79.7559C364.782 79.9387 364.758 80.1183 364.714 80.2967C364.67 80.4795 364.604 80.6462 364.512 80.7978C364.419 80.9515 364.306 81.0892 364.167 81.2096C364.029 81.33 363.862 81.4225 363.677 81.4891V81.4999C363.944 81.5891 364.142 81.7439 364.262 81.9579C364.38 82.1762 364.477 82.4149 364.544 82.674L365.063 84.5545H363.677C363.594 84.262 363.512 83.9728 363.43 83.6793C363.349 83.39 363.267 83.0922 363.185 82.7912C363.084 82.4192 362.943 82.1686 362.765 82.0385C362.586 81.9063 362.362 81.8396 362.099 81.8396H361.401V84.5545H360.019V77.8228H362.656C363.025 77.8228 363.346 77.8765 363.613 77.9765C363.883 78.0776 364.103 78.2173 364.277 78.3915C364.447 78.5689 364.577 78.7764 364.659 79.0108C364.739 79.2452 364.782 79.4925 364.782 79.7559ZM362.389 80.8524C362.505 80.8524 362.617 80.8352 362.733 80.804C362.845 80.7707 362.948 80.7169 363.042 80.6363C363.138 80.5621 363.214 80.4556 363.273 80.3245C363.331 80.1954 363.367 80.0331 363.367 79.8374C363.367 79.5009 363.273 79.2514 363.09 79.0923C362.907 78.9332 362.672 78.8525 362.382 78.8525H361.401V80.8524H362.389Z" fill="#2A78B1"/>
<path fill-rule="evenodd" clip-rule="evenodd" d="M368.028 77.8228C368.349 77.8228 368.69 77.8582 369.055 77.9281C369.421 77.9969 369.764 78.1217 370.084 78.3034L369.726 79.285C369.405 79.1463 369.094 79.0571 368.787 79.013C368.482 78.9721 368.213 78.9528 367.979 78.9528C367.684 78.9528 367.451 79.0237 367.282 79.1667C367.11 79.3108 367.024 79.5269 367.024 79.8129C367.024 79.943 367.061 80.0527 367.132 80.1408C367.206 80.2312 367.301 80.3086 367.423 80.3709C367.542 80.4376 367.681 80.4935 367.832 80.5387C367.986 80.5838 368.149 80.6236 368.319 80.6655C368.541 80.7236 368.778 80.7946 369.032 80.8698C369.286 80.9483 369.524 81.0644 369.74 81.2117C369.96 81.3655 370.138 81.5622 370.281 81.8117C370.422 82.0611 370.492 82.3826 370.492 82.7826C370.492 83.4223 370.266 83.9169 369.811 84.2674C369.357 84.6158 368.675 84.7899 367.764 84.7899C367.598 84.7899 367.416 84.7824 367.219 84.762C367.021 84.7416 366.817 84.7125 366.609 84.6695C366.401 84.6287 366.193 84.5695 365.986 84.5029C365.78 84.4308 365.58 84.3523 365.391 84.2513L365.75 83.2309C366.211 83.4223 366.623 83.5438 366.987 83.5943C367.351 83.6481 367.645 83.6739 367.867 83.6739C368.251 83.6739 368.541 83.6062 368.735 83.4739C368.931 83.3384 369.028 83.1084 369.028 82.7826C369.028 82.6396 369 82.5181 368.952 82.4256C368.901 82.331 368.83 82.2504 368.735 82.1805C368.638 82.1106 368.526 82.0547 368.396 82.0095C368.264 81.9611 368.118 81.916 367.962 81.8719C367.639 81.787 367.334 81.7009 367.045 81.6106C366.752 81.5235 366.5 81.4074 366.278 81.2633C366.06 81.1214 365.883 80.9386 365.755 80.7193C365.627 80.501 365.56 80.2183 365.56 79.871C365.56 79.257 365.768 78.7635 366.181 78.3883C366.592 78.0131 367.208 77.8228 368.028 77.8228Z" fill="#2A78B1"/>
<path fill-rule="evenodd" clip-rule="evenodd" d="M373.282 80.4505L373.679 79.9796L375.597 77.8228H377.212L374.737 80.4623L377.357 84.5555H375.709C375.39 84.0276 375.069 83.504 374.751 82.9879C374.432 82.4729 374.112 81.9493 373.794 81.4203L373.216 82.0289V84.5555H371.837V77.8228H373.216V80.4505H373.282Z" fill="#2A78B1"/>
<path fill-rule="evenodd" clip-rule="evenodd" d="M381.334 83.4675H384.026V84.447H379.465V83.5836C379.645 83.4223 379.845 83.2427 380.06 83.046C380.274 82.8514 380.488 82.6492 380.706 82.4385C380.921 82.2321 381.134 82.016 381.337 81.7988C381.544 81.5784 381.721 81.358 381.877 81.1375C382.033 80.9128 382.156 80.6956 382.252 80.4795C382.345 80.2634 382.394 80.0559 382.394 79.8527C382.394 79.5506 382.304 79.3248 382.131 79.171C381.958 79.0194 381.708 78.9399 381.382 78.9399C381.219 78.9399 380.993 78.971 380.71 79.0291C380.429 79.0861 380.113 79.214 379.774 79.4119L379.358 78.5797C379.762 78.2915 380.161 78.0937 380.556 77.9851C380.955 77.8808 381.307 77.8228 381.616 77.8228C382.279 77.8228 382.795 77.9883 383.176 78.3184C383.553 78.6485 383.744 79.1302 383.744 79.7635C383.744 80.1183 383.659 80.4645 383.498 80.8064C383.336 81.1504 383.133 81.4773 382.888 81.787C382.644 82.0966 382.382 82.3923 382.099 82.6654C381.817 82.9374 381.552 83.1868 381.316 83.4105L381.334 83.4675Z" fill="#2A78B1"/>
<path fill-rule="evenodd" clip-rule="evenodd" d="M389.812 81.1956C389.812 81.6267 389.771 82.0428 389.685 82.4439C389.598 82.846 389.459 83.2008 389.26 83.5062C389.06 83.8158 388.799 84.061 388.479 84.247C388.157 84.433 387.76 84.5254 387.284 84.5254C386.78 84.5254 386.366 84.4373 386.035 84.2577C385.708 84.0771 385.448 83.8373 385.252 83.5298C385.054 83.2298 384.921 82.875 384.845 82.474C384.77 82.0708 384.73 81.6536 384.73 81.2139C384.73 80.8021 384.77 80.3935 384.85 79.9882C384.929 79.585 385.062 79.2248 385.258 78.9022C385.449 78.5818 385.711 78.3216 386.04 78.1238C386.373 77.9249 386.791 77.8228 387.295 77.8228C387.808 77.8228 388.223 77.926 388.549 78.1292C388.876 78.3281 389.129 78.5937 389.32 78.9162C389.509 79.2409 389.639 79.6011 389.709 80C389.779 80.3978 389.812 80.7978 389.812 81.1956ZM388.461 81.2203C388.461 80.9709 388.451 80.7096 388.429 80.4344C388.406 80.1591 388.358 79.9086 388.278 79.6764C388.201 79.4484 388.083 79.2581 387.926 79.1087C387.769 78.956 387.559 78.8829 387.295 78.8829C387.034 78.8829 386.822 78.956 386.66 79.1033C386.501 79.2528 386.378 79.4398 386.295 79.6699C386.21 79.8989 386.153 80.1505 386.123 80.429C386.095 80.7086 386.082 80.973 386.082 81.2289C386.082 81.5515 386.096 81.8493 386.128 82.1224C386.162 82.3998 386.221 82.6342 386.31 82.8385C386.403 83.0438 386.526 83.2008 386.685 83.3223C386.84 83.4406 387.044 83.4965 387.295 83.4965C387.527 83.4965 387.721 83.4352 387.873 83.3073C388.028 83.1782 388.146 83.0084 388.231 82.7976C388.317 82.5837 388.374 82.3396 388.409 82.0633C388.446 81.7902 388.461 81.5085 388.461 81.2203Z" fill="#2A78B1"/>
<path fill-rule="evenodd" clip-rule="evenodd" d="M391.424 79.0667L390.103 79.1958V78.2647L391.545 77.8228H392.746V84.3577H391.424V79.0667Z" fill="#2A78B1"/>
<path fill-rule="evenodd" clip-rule="evenodd" d="M397.735 81.6719C397.277 81.9407 396.807 82.0729 396.326 82.0729C396.057 82.0729 395.806 82.0332 395.573 81.9525C395.34 81.8708 395.137 81.7472 394.966 81.5816C394.79 81.4128 394.656 81.2021 394.551 80.9429C394.453 80.687 394.4 80.3795 394.4 80.0258C394.4 79.6742 394.459 79.3613 394.572 79.0872C394.687 78.8119 394.844 78.5818 395.045 78.3937C395.249 78.2098 395.488 78.0668 395.774 77.9701C396.057 77.8701 396.367 77.8228 396.7 77.8228C397.156 77.8228 397.535 77.9002 397.847 78.0582C398.154 78.212 398.404 78.4302 398.595 78.7012C398.782 78.971 398.921 79.2904 399.007 79.6602C399.091 80.0301 399.133 80.4301 399.133 80.8591C399.133 81.3784 399.083 81.8558 398.981 82.2987C398.879 82.7449 398.715 83.1309 398.49 83.4567C398.266 83.7825 397.979 84.0395 397.627 84.2255C397.277 84.4125 396.854 84.505 396.356 84.505C396.015 84.505 395.719 84.4803 395.466 84.4254C395.208 84.3728 395.013 84.319 394.873 84.2609L395.11 83.2901C395.33 83.3664 395.542 83.4191 395.747 83.4417C395.95 83.4653 396.126 83.4761 396.272 83.4761C396.548 83.4761 396.781 83.4148 396.967 83.2901C397.151 83.1664 397.303 83.0148 397.421 82.8353C397.535 82.6546 397.623 82.4622 397.679 82.2557C397.735 82.0493 397.778 81.8687 397.792 81.7117L397.735 81.6719ZM395.668 79.9955C395.668 80.1535 395.684 80.2976 395.714 80.4299C395.746 80.5589 395.798 80.6728 395.876 80.7718C395.949 80.8685 396.05 80.9449 396.172 81.0019C396.295 81.0567 396.453 81.0846 396.639 81.0846C396.803 81.0846 396.949 81.0674 397.079 81.0298C397.207 80.9965 397.32 80.9556 397.421 80.9094C397.517 80.8642 397.595 80.8191 397.655 80.7761C397.714 80.7331 397.757 80.7083 397.784 80.6911V80.5062C397.784 80.3438 397.768 80.1697 397.747 79.9815C397.721 79.7955 397.669 79.6235 397.592 79.4633C397.519 79.3031 397.408 79.1697 397.263 79.0676C397.119 78.9612 396.93 78.9096 396.695 78.9096C396.363 78.9096 396.107 79.0085 395.931 79.202C395.754 79.3988 395.668 79.6654 395.668 79.9955Z" fill="#2A78B1"/>
<path fill-rule="evenodd" clip-rule="evenodd" d="M315.789 92.3567H312.745V91.8503C312.912 91.4987 313.118 91.2052 313.355 90.9751C313.595 90.7407 313.893 90.4923 314.257 90.2268C314.442 90.0891 314.593 89.9762 314.702 89.8838C314.812 89.7945 314.913 89.6945 315.008 89.586C315.1 89.4763 315.174 89.358 315.224 89.2236C315.276 89.0914 315.304 88.9473 315.304 88.786C315.304 88.5075 315.219 88.2936 315.052 88.1388C314.884 87.9882 314.654 87.9087 314.353 87.9087C314.196 87.9087 314.049 87.9398 313.919 88.0001C313.79 88.0592 313.679 88.1409 313.586 88.242C313.493 88.3441 313.419 88.4549 313.365 88.5774C313.311 88.6989 313.273 88.8236 313.253 88.9527L312.79 88.8452C312.834 88.6613 312.891 88.4914 312.964 88.3355C313.034 88.1807 313.132 88.0398 313.254 87.914C313.378 87.7882 313.53 87.6872 313.715 87.6108C313.899 87.5367 314.116 87.499 314.368 87.499C314.769 87.499 315.103 87.6076 315.365 87.8216C315.506 87.9398 315.611 88.0764 315.684 88.2344C315.76 88.3936 315.796 88.5742 315.796 88.7731C315.796 88.9677 315.762 89.1462 315.691 89.3096C315.622 89.4741 315.53 89.6247 315.413 89.7655C315.296 89.9053 315.17 90.0311 315.032 90.1472C314.897 90.2633 314.721 90.4009 314.512 90.5644C314.165 90.8289 313.89 91.0622 313.689 91.2589C313.487 91.4557 313.338 91.6836 313.239 91.9428H315.789V92.3567Z" fill="#151816"/>
<path fill-rule="evenodd" clip-rule="evenodd" d="M317.495 91.7406C317.608 91.8342 317.728 91.9008 317.852 91.9438C317.973 91.989 318.123 92.0116 318.294 92.0116C318.683 92.0116 319.015 91.8385 319.289 91.488C319.561 91.1374 319.711 90.6439 319.736 90.0085C319.568 90.1838 319.387 90.3257 319.19 90.4267C318.996 90.5257 318.749 90.5794 318.451 90.5794C318.269 90.5794 318.095 90.5493 317.928 90.4816C317.762 90.4181 317.611 90.3214 317.479 90.1913C317.341 90.0612 317.237 89.8967 317.16 89.7021C317.082 89.5085 317.042 89.2881 317.042 89.0398C317.042 88.7882 317.082 88.571 317.166 88.3753C317.249 88.1807 317.361 88.0194 317.503 87.8915C317.647 87.7624 317.806 87.6646 317.986 87.5969C318.167 87.5334 318.356 87.499 318.553 87.499C318.806 87.499 319.034 87.5388 319.236 87.6184C319.441 87.6979 319.616 87.827 319.764 88.0001C319.914 88.1775 320.029 88.4065 320.107 88.6893C320.189 88.9785 320.229 89.3172 320.229 89.716C320.229 90.0945 320.189 90.4515 320.106 90.7783C320.021 91.1095 319.898 91.3987 319.736 91.6439C319.574 91.8911 319.37 92.0804 319.128 92.218C318.889 92.3545 318.616 92.4223 318.308 92.4223C318.074 92.4223 317.868 92.3965 317.686 92.3406C317.503 92.2847 317.376 92.2191 317.295 92.1449L317.495 91.7406ZM317.828 89.86C318.021 90.0632 318.251 90.1664 318.517 90.1664C318.792 90.1664 319.038 90.0815 319.249 89.918C319.461 89.7514 319.615 89.5396 319.711 89.2772C319.705 88.8558 319.603 88.5235 319.402 88.2784C319.201 88.0354 318.931 87.9096 318.594 87.9096C318.269 87.9096 318.012 88.0128 317.821 88.2193C317.63 88.4257 317.533 88.6923 317.533 89.0267C317.533 89.3794 317.633 89.6579 317.828 89.86Z" fill="#151816"/>
<path fill-rule="evenodd" clip-rule="evenodd" d="M321.38 87.7571V90.2719H321.078V87.7571H320.266V87.499H322.19V87.7571H321.38Z" fill="#151816"/>
<path fill-rule="evenodd" clip-rule="evenodd" d="M325.392 87.499V90.2719H325.09V88.9516H323.79V90.2719H323.489V87.499H323.79V88.6882H325.09V87.499H325.392Z" fill="#151816"/>
<path fill-rule="evenodd" clip-rule="evenodd" d="M327.787 87.499H328.281L329.149 91.3234H329.162L330.072 87.499H330.533L331.464 91.3234H331.48L332.336 87.499H332.829L331.721 92.29H331.259L330.3 88.414H330.285L329.377 92.29H328.916L327.787 87.499Z" fill="#151816"/>
<path fill-rule="evenodd" clip-rule="evenodd" d="M334.233 92.2911H334.752V87.499H334.233V92.2911Z" fill="#151816"/>
<path fill-rule="evenodd" clip-rule="evenodd" d="M335.308 92.29V87.499H336.053L338.097 91.188H338.124V87.499H338.591V92.29H338.161L335.788 88.0162H335.776V92.29H335.308Z" fill="#151816"/>
<path fill-rule="evenodd" clip-rule="evenodd" d="M341.525 87.9506V92.29H341.005V87.9506H339.605V87.499H342.927V87.9506H341.525Z" fill="#151816"/>
<path fill-rule="evenodd" clip-rule="evenodd" d="M346.712 87.499V87.9517H344.422V89.5558H346.05V90.0063H344.422V91.8385H346.84V92.29H343.903V87.499H346.712Z" fill="#151816"/>
<path fill-rule="evenodd" clip-rule="evenodd" d="M348.201 92.29V87.499H349.704C350.208 87.499 350.593 87.6087 350.863 87.827C351.133 88.0474 351.267 88.3581 351.267 88.7591C351.267 89.0838 351.185 89.3473 351.023 89.5526C350.857 89.7591 350.629 89.9096 350.333 90.0063L351.327 92.29H350.763L349.814 90.1139H348.717V92.29H348.201ZM348.717 89.6634H349.661C350.022 89.6634 350.295 89.5914 350.476 89.4473C350.658 89.3032 350.748 89.0839 350.748 88.785C350.748 88.4807 350.657 88.2657 350.469 88.1388C350.286 88.0119 350.013 87.9506 349.654 87.9506H348.717V89.6634Z" fill="#151816"/>
<path fill-rule="evenodd" clip-rule="evenodd" d="M355.166 87.499V90.8826C355.166 91.174 355.265 91.417 355.46 91.6137C355.658 91.8084 355.933 91.9073 356.288 91.9073C356.644 91.9073 356.919 91.8084 357.116 91.6137C357.316 91.417 357.411 91.174 357.411 90.8826V87.499H357.93V90.8428C357.93 91.3127 357.781 91.6815 357.479 91.9514C357.178 92.2223 356.783 92.3556 356.288 92.3556C355.798 92.3556 355.398 92.2223 355.098 91.9514C354.8 91.6815 354.647 91.3127 354.647 90.8428V87.499H355.166Z" fill="#151816"/>
<path fill-rule="evenodd" clip-rule="evenodd" d="M358.945 92.29V87.499H359.692L361.737 91.188H361.761V87.499H362.229V92.29H361.802L359.427 88.0162H359.413V92.29H358.945Z" fill="#151816"/>
<path fill-rule="evenodd" clip-rule="evenodd" d="M364.316 92.2911H364.835V87.499H364.316V92.2911Z" fill="#151816"/>
<path fill-rule="evenodd" clip-rule="evenodd" d="M365.391 87.499H365.911L367.066 91.4267H367.078L368.239 87.499H368.766L367.312 92.29H366.838L365.391 87.499Z" fill="#151816"/>
<path fill-rule="evenodd" clip-rule="evenodd" d="M372.5 87.499V87.9517H370.208V89.5558H371.838V90.0063H370.208V91.8385H372.629V92.29H369.688V87.499H372.5Z" fill="#151816"/>
<path fill-rule="evenodd" clip-rule="evenodd" d="M372.912 92.29V87.499H374.417C374.919 87.499 375.307 87.6087 375.576 87.827C375.845 88.0474 375.981 88.3581 375.981 88.7591C375.981 89.0838 375.899 89.3473 375.735 89.5526C375.571 89.7591 375.341 89.9096 375.047 90.0063L376.041 92.29H375.475L374.528 90.1139H373.432V92.29H372.912ZM373.432 89.6634H374.371C374.735 89.6634 375.005 89.5914 375.19 89.4473C375.371 89.3032 375.463 89.0839 375.463 88.785C375.463 88.4807 375.37 88.2657 375.182 88.1388C374.996 88.0119 374.725 87.9506 374.367 87.9506H373.432V89.6634Z" fill="#151816"/>
<path fill-rule="evenodd" clip-rule="evenodd" d="M379.792 88.7849C379.732 88.542 379.605 88.342 379.418 88.185C379.233 88.0291 378.994 87.9495 378.701 87.9495C378.429 87.9495 378.218 88.0119 378.063 88.1409C377.91 88.2699 377.832 88.4527 377.827 88.6914C377.827 88.8075 377.855 88.9097 377.915 88.9978C377.973 89.0849 378.054 89.1634 378.158 89.229C378.262 89.2957 378.37 89.3559 378.484 89.4075C378.601 89.4569 378.756 89.5214 378.954 89.5946C379.194 89.6892 379.392 89.7698 379.548 89.8397C379.707 89.9117 379.859 89.9988 379.998 90.1063C380.135 90.2128 380.251 90.3418 380.335 90.4913C380.42 90.6418 380.462 90.817 380.462 91.0149C380.462 91.202 380.435 91.3783 380.38 91.5417C380.325 91.7084 380.237 91.8567 380.115 91.989C379.99 92.1223 379.828 92.2298 379.626 92.3062C379.423 92.3836 379.175 92.4212 378.883 92.4212C378.643 92.4212 378.427 92.3868 378.244 92.3126C378.056 92.2406 377.898 92.1449 377.772 92.0245C377.642 91.9051 377.537 91.775 377.451 91.6352C377.363 91.4955 377.283 91.346 377.209 91.1751L377.683 91.003C377.793 91.289 377.942 91.5234 378.14 91.703C378.338 91.8804 378.594 91.9729 378.91 91.9729C379.241 91.9729 379.499 91.8922 379.675 91.732C379.854 91.5729 379.942 91.3654 379.942 91.1084C379.942 90.9719 379.912 90.8514 379.847 90.7461C379.786 90.6418 379.696 90.5515 379.586 90.4708C379.471 90.3913 379.353 90.3246 379.229 90.2687C379.103 90.2128 378.936 90.1493 378.729 90.0709C378.496 89.9838 378.31 89.9064 378.16 89.8375C378.013 89.7687 377.872 89.6859 377.743 89.5892C377.613 89.4924 377.509 89.372 377.427 89.229C377.346 89.0903 377.307 88.9236 377.307 88.7333C377.307 88.5602 377.341 88.399 377.407 88.2484C377.475 88.0968 377.572 87.9646 377.696 87.8538C377.82 87.7409 377.973 87.6528 378.145 87.5915C378.316 87.5291 378.508 87.499 378.716 87.499C379.088 87.499 379.407 87.5969 379.675 87.7968C379.946 87.9979 380.138 88.2904 380.261 88.6785L379.792 88.7849Z" fill="#151816"/>
<path fill-rule="evenodd" clip-rule="evenodd" d="M381.507 92.2911H382.029V87.499H381.507V92.2911Z" fill="#151816"/>
<path fill-rule="evenodd" clip-rule="evenodd" d="M383.656 92.29L385.097 87.499H385.87L387.31 92.29H386.766L386.322 90.7891H384.64L384.201 92.29H383.656ZM384.773 90.3397H386.194L385.518 87.8711H385.447L384.773 90.3397Z" fill="#151816"/>
<path fill-rule="evenodd" clip-rule="evenodd" d="M387.954 87.499H389.212C389.862 87.499 390.377 87.7055 390.757 88.1194C391.138 88.5344 391.328 89.1247 391.328 89.8956C391.328 90.616 391.141 91.1944 390.769 91.6353C390.397 92.0728 389.869 92.29 389.185 92.29H387.954V87.499ZM388.473 91.8386H389.172C390.263 91.8386 390.809 91.1903 390.809 89.8958C390.809 89.2227 390.668 88.7303 390.385 88.4185C390.099 88.1056 389.706 87.9519 389.199 87.9519H388.473V91.8386Z" fill="#151816"/>
<path fill-rule="evenodd" clip-rule="evenodd" d="M395.064 87.499V87.9517H392.771V89.5558H394.4V90.0063H392.771V91.8385H395.193V92.29H392.251V87.499H395.064Z" fill="#151816"/>
<path fill-rule="evenodd" clip-rule="evenodd" d="M337.069 97.4282L338.496 100.404C338.496 100.404 338.555 100.513 338.525 100.553C338.496 100.594 338.313 100.6 338.313 100.6L336.782 100.763C336.782 100.763 336.633 100.763 336.642 100.849C336.644 100.934 336.802 100.945 337.005 100.963C337.214 100.982 338.693 101.133 338.693 101.133C338.693 101.133 338.852 101.142 338.921 101.283C338.987 101.425 339.089 101.593 339.089 101.593C339.089 101.593 339.182 101.721 339.078 101.761C338.972 101.8 338.569 101.818 338.569 101.818L335.833 102.147C335.833 102.147 335.725 102.147 335.725 102.208C335.725 102.273 335.77 102.302 335.877 102.311C335.982 102.325 337.747 102.516 337.747 102.516C337.747 102.516 337.952 102.533 338.036 102.637C338.12 102.739 338.332 102.944 338.332 102.944C338.332 102.944 338.437 103.036 338.359 103.063C338.28 103.092 337.736 103.145 337.736 103.145L334.93 103.385C334.93 103.385 334.83 103.388 334.83 103.457C334.83 103.527 334.897 103.552 334.986 103.559C335.076 103.562 339.1 103.86 339.1 103.86C339.1 103.86 339.221 103.848 339.272 103.884C339.323 103.918 339.323 103.94 339.323 103.94L339.667 104.301C339.667 104.301 339.756 104.37 339.74 104.401C339.718 104.447 339.656 104.447 339.656 104.447L336.249 104.761C336.249 104.761 336.139 104.761 336.127 104.841C336.116 104.92 336.239 104.932 336.239 104.932L340.494 105.285C340.494 105.285 340.646 105.279 340.73 105.387C340.814 105.496 341.052 105.718 341.052 105.718C341.052 105.718 341.115 105.797 341.08 105.819C341.052 105.871 340.831 105.858 340.831 105.858L337.54 106.128C337.54 106.128 337.453 106.134 337.453 106.194C337.453 106.258 337.499 106.3 337.576 106.3C337.646 106.3 341.08 106.634 341.08 106.634C341.08 106.634 341.226 106.623 341.184 106.766C341.148 106.908 341.097 107.129 341.097 107.129C341.097 107.129 341.097 107.232 340.898 107.258C340.696 107.287 338.94 107.504 338.94 107.504C338.94 107.504 338.838 107.509 338.832 107.567C338.826 107.622 338.838 107.651 338.966 107.669C339.093 107.687 340.824 107.876 340.824 107.876C340.824 107.876 340.969 107.876 340.941 108.05C340.913 108.228 340.544 110.327 340.544 110.327C340.544 110.327 340.537 110.424 340.501 110.43C340.469 110.436 340.269 110.3 340.269 110.3L336.823 108.129L332.829 110.573C332.829 110.573 332.671 110.684 332.553 110.594C332.436 110.506 332.516 110.169 332.516 110.169L333.249 105.78L329.987 102.513C329.987 102.513 329.837 102.289 330.049 102.177C330.305 102.09 334.586 101.495 334.586 101.495L336.616 97.3551C336.616 97.3551 336.678 97.1616 336.846 97.1766C337.01 97.1949 337.069 97.4282 337.069 97.4282Z" fill="#2885B9"/>
<path fill-rule="evenodd" clip-rule="evenodd" d="M345.665 97.4286L347.093 100.404C347.093 100.404 347.151 100.511 347.123 100.552C347.093 100.591 346.91 100.598 346.91 100.598L345.378 100.764C345.378 100.764 345.23 100.764 345.234 100.849C345.24 100.934 345.396 100.946 345.601 100.962C345.809 100.98 347.291 101.133 347.291 101.133C347.291 101.133 347.45 101.138 347.518 101.278C347.584 101.422 347.685 101.595 347.685 101.595C347.685 101.595 347.781 101.719 347.673 101.756C347.568 101.798 347.168 101.816 347.168 101.816L344.428 102.146C344.428 102.146 344.322 102.146 344.322 102.206C344.322 102.27 344.366 102.298 344.476 102.31C344.579 102.324 346.344 102.515 346.344 102.515C346.344 102.515 346.548 102.531 346.632 102.635C346.716 102.737 346.927 102.943 346.927 102.943C346.927 102.943 347.034 103.035 346.952 103.061C346.878 103.092 346.331 103.141 346.331 103.141L343.527 103.38C343.527 103.38 343.429 103.386 343.429 103.455C343.429 103.523 343.494 103.55 343.584 103.559C343.671 103.564 347.696 103.857 347.696 103.857C347.696 103.857 347.818 103.849 347.869 103.881C347.92 103.917 347.92 103.94 347.92 103.94L348.263 104.297C348.263 104.297 348.354 104.367 348.335 104.4C348.315 104.444 348.251 104.444 348.251 104.444L344.845 104.759C344.845 104.759 344.735 104.759 344.724 104.838C344.713 104.917 344.833 104.927 344.833 104.927L349.091 105.283C349.091 105.283 349.244 105.278 349.327 105.384C349.41 105.494 349.65 105.715 349.65 105.715C349.65 105.715 349.71 105.797 349.678 105.817C349.65 105.869 349.425 105.858 349.425 105.858L346.136 106.124C346.136 106.124 346.048 106.131 346.048 106.192C346.048 106.257 346.097 106.297 346.17 106.297C346.243 106.297 349.678 106.632 349.678 106.632C349.678 106.632 349.824 106.619 349.783 106.763C349.745 106.905 349.693 107.128 349.693 107.128C349.693 107.128 349.693 107.229 349.493 107.257C349.293 107.288 347.533 107.504 347.533 107.504C347.533 107.504 347.435 107.508 347.43 107.564C347.423 107.62 347.435 107.651 347.564 107.669C347.69 107.684 349.421 107.873 349.421 107.873C349.421 107.873 349.567 107.873 349.537 108.048C349.511 108.226 349.131 110.332 349.131 110.332C349.131 110.332 349.131 110.421 349.099 110.429C349.066 110.435 348.865 110.299 348.865 110.299L345.42 108.129L341.423 110.572C341.423 110.572 341.265 110.685 341.15 110.595C341.032 110.502 341.112 110.168 341.112 110.168L341.847 105.777L338.581 102.509C338.581 102.509 338.433 102.288 338.644 102.177C338.902 102.088 343.18 101.491 343.18 101.491L345.215 97.3523C345.215 97.3523 345.275 97.1587 345.44 97.177C345.609 97.1953 345.665 97.4286 345.665 97.4286Z" fill="#F0B636"/>
<path fill-rule="evenodd" clip-rule="evenodd" d="M354.259 97.4286L355.689 100.404C355.689 100.404 355.745 100.511 355.717 100.552C355.689 100.591 355.505 100.598 355.505 100.598L353.973 100.764C353.973 100.764 353.824 100.764 353.831 100.849C353.835 100.934 353.993 100.946 354.196 100.962C354.403 100.98 355.885 101.133 355.885 101.133C355.885 101.133 356.044 101.138 356.112 101.278C356.179 101.422 356.279 101.595 356.279 101.595C356.279 101.595 356.372 101.719 356.266 101.756C356.162 101.798 355.759 101.816 355.759 101.816L353.021 102.146C353.021 102.146 352.917 102.146 352.917 102.206C352.917 102.27 352.96 102.298 353.067 102.31C353.173 102.324 354.936 102.515 354.936 102.515C354.936 102.515 355.141 102.531 355.225 102.635C355.31 102.737 355.521 102.943 355.521 102.943C355.521 102.943 355.628 103.035 355.549 103.061C355.471 103.092 354.925 103.141 354.925 103.141L352.12 103.38C352.12 103.38 352.021 103.386 352.021 103.455C352.021 103.523 352.087 103.55 352.178 103.559C352.265 103.564 356.289 103.857 356.289 103.857C356.289 103.857 356.413 103.849 356.463 103.881C356.513 103.917 356.513 103.94 356.513 103.94L356.858 104.297C356.858 104.297 356.947 104.367 356.93 104.4C356.905 104.444 356.847 104.444 356.847 104.444L353.44 104.759C353.44 104.759 353.33 104.759 353.317 104.838C353.306 104.917 353.428 104.927 353.428 104.927L357.687 105.283C357.687 105.283 357.836 105.278 357.921 105.384C358.003 105.494 358.243 105.715 358.243 105.715C358.243 105.715 358.306 105.797 358.272 105.817C358.243 105.869 358.023 105.858 358.023 105.858L354.731 106.124C354.731 106.124 354.643 106.131 354.643 106.192C354.643 106.257 354.689 106.297 354.764 106.297C354.837 106.297 358.272 106.632 358.272 106.632C358.272 106.632 358.414 106.619 358.377 106.763C358.336 106.905 358.288 107.128 358.288 107.128C358.288 107.128 358.288 107.229 358.087 107.257C357.886 107.288 356.126 107.504 356.126 107.504C356.126 107.504 356.029 107.508 356.025 107.564C356.016 107.62 356.029 107.651 356.156 107.669C356.284 107.684 358.014 107.873 358.014 107.873C358.014 107.873 358.159 107.873 358.132 108.048C358.104 108.226 357.726 110.332 357.726 110.332C357.726 110.332 357.726 110.421 357.693 110.429C357.657 110.435 357.46 110.299 357.46 110.299L354.013 108.129L350.017 110.572C350.017 110.572 349.861 110.685 349.743 110.595C349.626 110.502 349.703 110.168 349.703 110.168L350.438 105.777L347.176 102.509C347.176 102.509 347.028 102.288 347.24 102.177C347.494 102.088 351.776 101.491 351.776 101.491L353.808 97.3523C353.808 97.3523 353.866 97.1587 354.034 97.177C354.202 97.1953 354.259 97.4286 354.259 97.4286Z" fill="#011115"/>
<path fill-rule="evenodd" clip-rule="evenodd" d="M362.855 97.4282L364.283 100.404C364.283 100.404 364.341 100.513 364.311 100.553C364.283 100.594 364.101 100.6 364.101 100.6L362.57 100.763C362.57 100.763 362.422 100.763 362.426 100.849C362.432 100.934 362.591 100.945 362.794 100.963C363 100.982 364.479 101.133 364.479 101.133C364.479 101.133 364.639 101.142 364.708 101.283C364.774 101.425 364.875 101.593 364.875 101.593C364.875 101.593 364.969 101.721 364.865 101.761C364.758 101.8 364.357 101.818 364.357 101.818L361.619 102.147C361.619 102.147 361.512 102.147 361.512 102.208C361.512 102.273 361.558 102.302 361.661 102.311C361.768 102.325 363.535 102.516 363.535 102.516C363.535 102.516 363.739 102.533 363.823 102.637C363.905 102.739 364.117 102.944 364.117 102.944C364.117 102.944 364.222 103.036 364.145 103.063C364.068 103.092 363.522 103.145 363.522 103.145L360.716 103.385C360.716 103.385 360.617 103.388 360.617 103.457C360.617 103.527 360.683 103.552 360.774 103.559C360.862 103.562 364.885 103.86 364.885 103.86C364.885 103.86 365.01 103.848 365.058 103.884C365.108 103.918 365.108 103.94 365.108 103.94L365.452 104.301C365.452 104.301 365.543 104.37 365.526 104.401C365.503 104.447 365.442 104.447 365.442 104.447L362.035 104.761C362.035 104.761 361.924 104.761 361.914 104.841C361.904 104.92 362.024 104.932 362.024 104.932L366.283 105.285C366.283 105.285 366.434 105.279 366.515 105.387C366.601 105.496 366.84 105.718 366.84 105.718C366.84 105.718 366.902 105.797 366.868 105.819C366.84 105.871 366.616 105.858 366.616 105.858L363.328 106.128C363.328 106.128 363.236 106.134 363.236 106.194C363.236 106.258 363.289 106.3 363.361 106.3C363.433 106.3 366.868 106.634 366.868 106.634C366.868 106.634 367.013 106.623 366.973 106.766C366.934 106.908 366.885 107.129 366.885 107.129C366.885 107.129 366.885 107.232 366.683 107.258C366.484 107.287 364.725 107.504 364.725 107.504C364.725 107.504 364.623 107.509 364.619 107.567C364.614 107.622 364.623 107.651 364.752 107.669C364.88 107.687 366.613 107.876 366.613 107.876C366.613 107.876 366.757 107.876 366.727 108.05C366.701 108.228 366.324 110.335 366.324 110.335C366.324 110.335 366.324 110.424 366.29 110.43C366.254 110.436 366.056 110.3 366.056 110.3L362.609 108.129L358.612 110.573C358.612 110.573 358.455 110.684 358.342 110.594C358.223 110.506 358.3 110.169 358.3 110.169L359.035 105.78L355.772 102.513C355.772 102.513 355.623 102.289 355.835 102.177C356.091 102.09 360.371 101.495 360.371 101.495L362.404 97.3551C362.404 97.3551 362.464 97.1616 362.631 97.1766C362.8 97.1949 362.855 97.4282 362.855 97.4282Z" fill="#218F54"/>
<path fill-rule="evenodd" clip-rule="evenodd" d="M371.449 97.4283L372.877 100.403C372.877 100.403 372.934 100.512 372.904 100.555C372.877 100.593 372.698 100.599 372.698 100.599L371.164 100.764C371.164 100.764 371.013 100.764 371.019 100.847C371.025 100.935 371.18 100.945 371.387 100.962C371.593 100.982 373.03 101.103 373.03 101.103C373.03 101.103 373.191 101.111 373.282 101.241C373.34 101.327 373.433 101.462 373.433 101.462C373.433 101.462 373.559 101.618 373.452 101.659C373.348 101.699 372.864 101.737 372.864 101.737L370.193 102.029C370.193 102.029 370.087 102.029 370.087 102.096C370.087 102.156 370.132 102.184 370.236 102.197C370.345 102.208 377.093 102.397 377.093 102.397C377.093 102.397 377.828 102.427 378.033 102.424C378.108 102.424 378.14 102.469 378.15 102.477C378.183 102.504 377.913 102.756 377.913 102.756C377.913 102.756 377.715 102.971 377.634 103C377.556 103.028 377.085 103.045 377.085 103.045L369.299 103.365C369.299 103.365 369.201 103.369 369.201 103.439C369.201 103.507 369.268 103.535 369.358 103.542C369.444 103.545 376.516 103.884 376.516 103.884C376.516 103.884 376.637 103.87 376.689 103.904C376.737 103.939 376.676 104 376.676 104L376.497 104.183C376.497 104.183 376.443 104.237 376.404 104.285C376.351 104.332 376.186 104.368 376.186 104.368L370.629 104.759C370.629 104.759 370.519 104.759 370.507 104.841C370.495 104.918 370.62 104.931 370.62 104.931L375.138 105.226C375.138 105.226 375.331 105.226 375.324 105.287C375.317 105.363 375.095 105.604 375.095 105.604C375.095 105.604 374.922 105.778 374.889 105.8C374.861 105.852 374.642 105.862 374.642 105.862L371.921 106.129C371.921 106.129 371.832 106.132 371.832 106.194C371.832 106.258 371.884 106.299 371.956 106.299C372.027 106.299 374.114 106.471 374.114 106.471C374.114 106.471 374.425 106.501 374.644 106.518C374.859 106.533 374.891 106.575 374.901 106.632C374.927 106.783 374.973 107.148 374.973 107.148C374.973 107.148 375.003 107.257 374.763 107.302C374.563 107.338 373.336 107.489 373.336 107.489C373.336 107.489 373.218 107.506 373.213 107.565C373.208 107.623 373.218 107.653 373.348 107.667C373.424 107.68 373.204 107.665 374.986 107.855C374.986 107.855 375.141 107.85 375.157 108.029C375.178 108.221 375.53 110.246 375.53 110.246C375.53 110.246 375.595 110.455 375.462 110.592C375.366 110.689 375.064 110.476 375.064 110.476L371.2 108.093L367.206 110.571C367.206 110.571 367.049 110.684 366.933 110.597C366.816 110.505 366.895 110.17 366.895 110.17L367.63 105.778L364.369 102.513C364.369 102.513 364.217 102.289 364.43 102.176C364.686 102.09 368.965 101.493 368.965 101.493L370.996 97.3531C370.996 97.3531 371.057 97.1606 371.223 97.1767C371.393 97.1929 371.449 97.4283 371.449 97.4283Z" fill="#D72A34"/>
<path fill-rule="evenodd" clip-rule="evenodd" d="M381.183 35.8901L375.107 39.0221L375.061 39.4393L381.401 36.1697L381.183 35.8901Z" fill="#2A78B1"/>
<path fill-rule="evenodd" clip-rule="evenodd" d="M379.054 33.7402L375.107 35.7745L375.061 36.1906L379.273 34.0198L379.054 33.7402Z" fill="#2A78B1"/>
<path fill-rule="evenodd" clip-rule="evenodd" d="M376.181 30.8991L376.135 31.3195L377.153 30.7916L376.932 30.5142L376.181 30.8991Z" fill="#2A78B1"/>
<path fill-rule="evenodd" clip-rule="evenodd" d="M379.061 32.665L376.183 34.1488L376.135 34.5627L379.281 32.9446L379.061 32.665Z" fill="#2A78B1"/>
<path fill-rule="evenodd" clip-rule="evenodd" d="M380.12 34.8149L375.107 37.3932L375.061 37.8115L380.338 35.0923L380.12 34.8149Z" fill="#2A78B1"/>
<path fill-rule="evenodd" clip-rule="evenodd" d="M382.245 36.9658L375.105 40.644L375.061 41.059L382.465 37.2443L382.245 36.9658Z" fill="#2A78B1"/>
<path fill-rule="evenodd" clip-rule="evenodd" d="M377.996 31.5894L376.18 32.5237L376.135 32.9387L378.216 31.8668L377.996 31.5894Z" fill="#2A78B1"/>
<path fill-rule="evenodd" clip-rule="evenodd" d="M374.988 57.394L372.96 58.4359L372.912 58.8541L374.812 57.8757L374.988 57.394Z" fill="#2A78B1"/>
<path fill-rule="evenodd" clip-rule="evenodd" d="M375.498 55.2437L372.96 56.5511L372.912 56.9715L375.322 55.7275L375.498 55.2437Z" fill="#2A78B1"/>
<path fill-rule="evenodd" clip-rule="evenodd" d="M376.015 54.1685L372.96 55.7414L372.912 56.1597L375.839 54.6512L376.015 54.1685Z" fill="#2A78B1"/>
<path fill-rule="evenodd" clip-rule="evenodd" d="M374.472 59.5444L372.96 60.3218L372.912 60.7379L374.294 60.024L374.472 59.5444Z" fill="#2A78B1"/>
<path fill-rule="evenodd" clip-rule="evenodd" d="M373.958 61.6943L372.959 62.2061L372.912 62.6254L373.782 62.1771L373.958 61.6943Z" fill="#2A78B1"/>
<path fill-rule="evenodd" clip-rule="evenodd" d="M376.528 52.0181L372.962 53.8588L372.912 54.2738L376.351 52.5008L376.528 52.0181Z" fill="#2A78B1"/>
<path fill-rule="evenodd" clip-rule="evenodd" d="M378.87 46.6421L373.993 49.1516L373.986 49.5483L378.693 47.1238L378.87 46.6421Z" fill="#2A78B1"/>
<path fill-rule="evenodd" clip-rule="evenodd" d="M380.171 42.3413L374.031 45.5034L373.986 45.9206L379.993 42.8219L380.171 42.3413Z" fill="#2A78B1"/>
<path fill-rule="evenodd" clip-rule="evenodd" d="M381.762 40.1914L375.106 43.6202L375.061 44.0352L381.584 40.6742L381.762 40.1914Z" fill="#2A78B1"/>
<path fill-rule="evenodd" clip-rule="evenodd" d="M378.115 49.8677L374.033 51.9697L373.986 52.389L377.939 50.3537L378.115 49.8677Z" fill="#2A78B1"/>
<path fill-rule="evenodd" clip-rule="evenodd" d="M379.638 44.4917L374.02 47.385L373.986 47.657L374 47.785L379.462 44.9734L379.638 44.4917Z" fill="#2A78B1"/>
<path fill-rule="evenodd" clip-rule="evenodd" d="M378.63 47.7173L374.033 50.0859L373.986 50.5031L378.454 48.2033L378.63 47.7173Z" fill="#2A78B1"/>
<path fill-rule="evenodd" clip-rule="evenodd" d="M382.276 38.0405L375.106 41.737L375.061 42.152L382.102 38.5222L382.276 38.0405Z" fill="#2A78B1"/>
<path fill-rule="evenodd" clip-rule="evenodd" d="M348.202 40.6167L357.75 38.4147L357.812 38.0405L348.201 40.2576L348.202 40.6167Z" fill="#2A78B1"/>
<path fill-rule="evenodd" clip-rule="evenodd" d="M348.201 45.8077L356.932 43.7907L357 43.4165L348.201 45.4475V45.8077Z" fill="#2A78B1"/>
<path fill-rule="evenodd" clip-rule="evenodd" d="M348.201 43.7208L357.203 41.6424L357.269 41.2661L348.201 43.3616V43.7208Z" fill="#2A78B1"/>
<path fill-rule="evenodd" clip-rule="evenodd" d="M348.201 46.8216L356.661 44.8702L356.728 44.4917L348.201 46.4614V46.8216Z" fill="#2A78B1"/>
<path fill-rule="evenodd" clip-rule="evenodd" d="M348.203 42.7052L357.476 40.5666L357.541 40.1914L348.201 42.3461L348.203 42.7052Z" fill="#2A78B1"/>
<path fill-rule="evenodd" clip-rule="evenodd" d="M348.201 34.9434L356.749 32.9725L356.523 32.665L348.201 34.5842V34.9434Z" fill="#2A78B1"/>
<path fill-rule="evenodd" clip-rule="evenodd" d="M348.203 26.1816L351.404 25.4472L351.18 25.1387L348.201 25.8246L348.203 26.1816Z" fill="#2A78B1"/>
<path fill-rule="evenodd" clip-rule="evenodd" d="M348.202 28.539L352.294 27.5961L352.067 27.2886L348.201 28.1821L348.202 28.539Z" fill="#2A78B1"/>
<path fill-rule="evenodd" clip-rule="evenodd" d="M348.201 29.8206L353.183 28.6713L352.958 28.3638L348.201 29.4626V29.8206Z" fill="#2A78B1"/>
<path fill-rule="evenodd" clip-rule="evenodd" d="M348.201 39.6065L358.018 37.3411L358.083 36.9658L348.201 39.2474V39.6065Z" fill="#2A78B1"/>
<path fill-rule="evenodd" clip-rule="evenodd" d="M348.201 23.2625V23.6226L349.621 23.2958L349.395 22.9883L348.201 23.2625Z" fill="#2A78B1"/>
<path fill-rule="evenodd" clip-rule="evenodd" d="M348.201 21.9819L348.203 22.341L348.727 22.2206L348.502 21.9131L348.201 21.9819Z" fill="#2A78B1"/>
<path fill-rule="evenodd" clip-rule="evenodd" d="M348.201 24.5425V24.9006L350.511 24.3683L350.286 24.063L348.201 24.5425Z" fill="#2A78B1"/>
<path fill-rule="evenodd" clip-rule="evenodd" d="M348.201 38.5802L358.288 36.2525L358.342 35.9407L358.307 35.8901L348.201 38.2201V38.5802Z" fill="#2A78B1"/>
<path fill-rule="evenodd" clip-rule="evenodd" d="M348.203 36.2261L357.638 34.0477L357.415 33.7402L348.201 35.8669L348.203 36.2261Z" fill="#2A78B1"/>
<path fill-rule="evenodd" clip-rule="evenodd" d="M348.203 31.1006L354.074 29.7448L353.852 29.4395L348.201 30.7426L348.203 31.1006Z" fill="#2A78B1"/>
<path fill-rule="evenodd" clip-rule="evenodd" d="M348.201 32.3828L354.965 30.8217L354.742 30.5142L348.201 32.0226V32.3828Z" fill="#2A78B1"/>
<path fill-rule="evenodd" clip-rule="evenodd" d="M348.201 33.6655L355.856 31.8969L355.631 31.5894L348.201 33.3075V33.6655Z" fill="#2A78B1"/>
<path fill-rule="evenodd" clip-rule="evenodd" d="M330.925 39.1157L327.875 41.4779L327.787 41.9843L330.946 39.535L330.925 39.1157Z" fill="#2A78B1"/>
<path fill-rule="evenodd" clip-rule="evenodd" d="M331.561 36.9658L328.947 38.9893L328.861 39.4968L331.584 37.3894L331.561 36.9658Z" fill="#2A78B1"/>
<path fill-rule="evenodd" clip-rule="evenodd" d="M330.881 30.5142L330.024 31.1786L329.936 31.685L330.904 30.9346L330.881 30.5142Z" fill="#2A78B1"/>
<path fill-rule="evenodd" clip-rule="evenodd" d="M331.122 35.8901L328.949 37.5717L328.861 38.0803L331.143 36.3095L331.122 35.8901Z" fill="#2A78B1"/>
<path fill-rule="evenodd" clip-rule="evenodd" d="M330.021 28.6874L329.936 29.1917L330.462 28.7831L330.441 28.3638L330.021 28.6874Z" fill="#2A78B1"/>
<path fill-rule="evenodd" clip-rule="evenodd" d="M330.679 33.7402L328.946 35.0831L328.861 35.5895L330.702 34.1606L330.679 33.7402Z" fill="#2A78B1"/>
<path fill-rule="evenodd" clip-rule="evenodd" d="M331.317 31.5894L330.024 32.5936L329.936 33.0968L331.341 32.0087L331.317 31.5894Z" fill="#2A78B1"/>
<path fill-rule="evenodd" clip-rule="evenodd" d="M332.289 52.4073L332.223 52.0181L325.638 57.1241L325.961 57.3112L332.289 52.4073Z" fill="#2A78B1"/>
<path fill-rule="evenodd" clip-rule="evenodd" d="M333.159 62.0266L333.483 62.2147L333.655 62.0825L333.586 61.6943L333.159 62.0266Z" fill="#2A78B1"/>
<path fill-rule="evenodd" clip-rule="evenodd" d="M331.331 60.5766L333.557 58.8552L333.491 58.4692L331.01 60.3906L331.331 60.5766Z" fill="#2A78B1"/>
<path fill-rule="evenodd" clip-rule="evenodd" d="M332.411 60.8594L333.605 59.9336L333.539 59.5444L332.084 60.6712L332.411 60.8594Z" fill="#2A78B1"/>
<path fill-rule="evenodd" clip-rule="evenodd" d="M330.258 59.2229L333.509 56.7059L333.442 56.3188L329.936 59.0348L330.258 59.2229Z" fill="#2A78B1"/>
<path fill-rule="evenodd" clip-rule="evenodd" d="M328.109 58.9434L332.385 55.6307L332.316 55.2437L327.787 58.7563L328.109 58.9434Z" fill="#2A78B1"/>
<path fill-rule="evenodd" clip-rule="evenodd" d="M331.365 40.1914L327.873 42.8955L327.787 43.4041L331.387 40.614L331.365 40.1914Z" fill="#2A78B1"/>
<path fill-rule="evenodd" clip-rule="evenodd" d="M327.037 58.6649L332.339 54.5544L332.271 54.1685L326.712 58.4789L327.037 58.6649Z" fill="#2A78B1"/>
<path fill-rule="evenodd" clip-rule="evenodd" d="M331.167 43.4165L326.801 46.8033L326.712 47.3087L331.192 43.8358L331.167 43.4165Z" fill="#2A78B1"/>
<path fill-rule="evenodd" clip-rule="evenodd" d="M331.801 42.3413L327.871 45.3873L327.787 45.8926L331.824 42.7617L331.801 42.3413Z" fill="#2A78B1"/>
<path fill-rule="evenodd" clip-rule="evenodd" d="M331.606 45.5669L326.799 49.2946L326.712 49.7977L331.629 45.9873L331.606 45.5669Z" fill="#2A78B1"/>
<path fill-rule="evenodd" clip-rule="evenodd" d="M331.891 50.9429L325.726 55.7231L325.638 56.2295L331.957 51.331L331.891 50.9429Z" fill="#2A78B1"/>
<path fill-rule="evenodd" clip-rule="evenodd" d="M331.412 48.7925L325.725 53.1975L325.638 53.7039L331.434 49.2129L331.412 48.7925Z" fill="#2A78B1"/>
<path fill-rule="evenodd" clip-rule="evenodd" d="M332.047 47.7173L326.799 51.7836L326.712 52.2879L332.068 48.1388L332.047 47.7173Z" fill="#2A78B1"/>
<path fill-rule="evenodd" clip-rule="evenodd" d="M361.093 68.3285L374.296 48.7925L372.528 62.2699L361.093 68.3285Z" fill="#2A78B1"/>
<path fill-rule="evenodd" clip-rule="evenodd" d="M361.038 49.9345V21.9131L356.796 44.4629L361.038 49.9345Z" fill="#D6267B"/>
<path fill-rule="evenodd" clip-rule="evenodd" d="M374.221 48.883L370.763 21.9131L376.162 29.1426L374.221 48.883Z" fill="#2A78B1"/>
<path fill-rule="evenodd" clip-rule="evenodd" d="M361.36 51.0299L357.041 45.5669L348.201 47.6216V48.0764L361.36 51.0299Z" fill="#2A78B1"/>
<path fill-rule="evenodd" clip-rule="evenodd" d="M333.159 49.8677L334.952 60.927L343.964 63.2795L333.159 49.8677Z" fill="#2A78B1"/>
<path fill-rule="evenodd" clip-rule="evenodd" d="M360.6 68.9061L352.531 72.9111L335.308 62.77L360.6 68.9061Z" fill="#D6267B"/>
<path fill-rule="evenodd" clip-rule="evenodd" d="M332.91 49.0002L339.25 21.9131L332.084 27.5847L332.91 49.0002Z" fill="#D6267B"/>
<path d="M288.522 12.7827V118.696" stroke="#636463" stroke-width="0.5"/>
<path fill-rule="evenodd" clip-rule="evenodd" d="M166.738 58.3487C169.466 58.5916 171.652 59.4963 171.652 61.9008C171.652 64.0846 170.048 65.7392 165.884 65.7392C164.031 65.7392 162.656 65.4974 160.99 64.879C160.574 64.7253 160.344 64.8567 160.116 65.298L159.783 65.1654L161.094 61.7682C162.448 62.8278 163.78 63.2467 165.822 63.2467C167.758 63.2467 168.799 62.6729 168.799 61.9453C168.799 61.1732 167.529 60.9738 164.572 60.7532C162.51 60.5994 160.386 59.805 160.386 57.5331C160.386 55.2156 162.615 53.8696 165.446 53.8696C166.905 53.8696 168.841 54.2674 170.237 54.7966C170.694 54.9515 170.966 54.8189 171.174 54.4657L171.486 54.6206L170.216 57.4217C169.049 56.8267 167.112 56.3632 165.592 56.3632C164.447 56.3632 163.219 56.5838 163.219 57.2679C163.219 57.9298 163.947 58.1058 166.738 58.3487Z" fill="#202230"/>
<path fill-rule="evenodd" clip-rule="evenodd" d="M173.501 63.5606C173.976 63.5606 174.247 63.312 174.247 62.8556V55.8413C174.247 55.3849 173.976 55.1352 173.478 55.1352V54.7827H178.043V55.1352C177.547 55.1352 177.276 55.3849 177.276 55.8413V62.8556C177.276 63.312 177.547 63.5606 178.021 63.5606V63.9131H173.501V63.5606Z" fill="#202230"/>
<path fill-rule="evenodd" clip-rule="evenodd" d="M187.103 61.0072C187.103 60.3222 186.635 59.9698 185.413 59.9698H182.379V62.1695H185.392C186.472 62.1695 187.103 61.795 187.103 61.0072ZM182.379 58.4762H185.617C186.554 58.4762 186.96 58.1856 186.96 57.5216C186.96 56.7946 186.472 56.5261 185.209 56.5261H182.379V58.4762ZM189.913 61.2561C189.913 63.0404 188.63 63.9131 186.024 63.9131H179.649V55.8411C179.649 55.4048 179.385 55.1352 178.957 55.1352V54.7827H185.535C188.224 54.7827 189.588 55.5915 189.588 57.0443C189.588 57.9779 189.038 58.6839 188.243 59.0154C189.344 59.3689 189.913 60.1147 189.913 61.2561Z" fill="#202230"/>
<path fill-rule="evenodd" clip-rule="evenodd" d="M201.782 61.3809V63.9131H192.442V55.8202C192.442 55.3848 192.194 55.1352 191.739 55.1352V54.7827H201.452V57.3139H201.08C201.08 56.8576 200.832 56.609 200.398 56.609H195.231V58.2895H200.274V60.0319H195.231V62.0858H200.728C201.163 62.0858 201.411 61.8382 201.411 61.3809H201.782Z" fill="#202230"/>
<path fill-rule="evenodd" clip-rule="evenodd" d="M207.129 58.7458H209.399C210.483 58.7458 211.045 58.3524 211.045 57.6254C211.045 56.8576 210.545 56.5261 209.462 56.5261H207.129V58.7458ZM214.565 63.5397V63.9131H211.253L208.9 60.5102H207.129V63.9131H204.317V55.8411C204.317 55.4467 204.005 55.1352 203.609 55.1352V54.7827H210.253C212.461 54.7827 213.961 55.924 213.961 57.5007C213.961 58.7458 213.024 59.7623 211.712 60.2186L213.732 63.1243C213.941 63.4359 214.211 63.5397 214.565 63.5397Z" fill="#202230"/>
<path fill-rule="evenodd" clip-rule="evenodd" d="M214.588 63.5606C215.062 63.5606 215.333 63.312 215.333 62.8556V55.8413C215.333 55.3849 215.062 55.1352 214.565 55.1352V54.7827H219.13V55.1352C218.633 55.1352 218.363 55.3849 218.363 55.8413V62.8556C218.363 63.312 218.633 63.5606 219.108 63.5606V63.9131H214.588V63.5606Z" fill="#202230"/>
<path fill-rule="evenodd" clip-rule="evenodd" d="M227.773 60.572L226.336 57.5215L224.856 60.572H227.773ZM232.826 63.5607V63.9131H229.363L228.471 62.0459H224.137L223.245 63.9131H220.043V63.5607C220.413 63.5607 220.696 63.4149 220.827 63.1663L224.028 56.5681C224.18 56.2775 224.267 55.945 224.267 55.6754C224.267 55.3229 224.137 55.1352 223.897 55.1352V54.7827H227.991L231.954 63.1243C232.085 63.3939 232.412 63.5607 232.826 63.5607Z" fill="#202230"/>
<path fill-rule="evenodd" clip-rule="evenodd" d="M243.783 54.7827V55.1352C243.35 55.1352 243.082 55.3848 243.082 55.8411V63.9131H241.105L235.997 58.3724V63.9131H233.526V55.8411C233.526 55.3848 233.279 55.1352 232.826 55.1352V54.7827H236.265L240.61 59.4927V54.7827H243.783Z" fill="#202230"/>
<path fill-rule="evenodd" clip-rule="evenodd" d="M179.87 70.3047V70.6792C179.237 70.7634 178.793 71.0747 178.667 71.5124L175.924 81.2612H172.653L169.868 74.075L167.252 81.2612H163.981L160.647 71.201C160.541 70.8675 160.225 70.6792 159.783 70.6792V70.3047H163.411L165.753 77.3246L168.455 70.3047H171.43L174.173 77.2615L176.156 70.3047H179.87Z" fill="#202230"/>
<path fill-rule="evenodd" clip-rule="evenodd" d="M190.826 78.7296V81.2608H181.486V73.1689C181.486 72.7325 181.237 72.4839 180.783 72.4839V72.1304H190.495V74.6626H190.123C190.123 74.2063 189.876 73.9577 189.441 73.9577H184.275V75.6372H189.318V77.3806H184.275V79.4345H189.772C190.206 79.4345 190.454 79.1859 190.454 78.7296H190.826Z" fill="#202230"/>
<path fill-rule="evenodd" clip-rule="evenodd" d="M193.357 73.1888C193.357 72.7325 193.108 72.4839 192.652 72.4839V72.1304H196.158V79.1859H200.724C201.181 79.1859 201.43 78.9362 201.43 78.4799H201.783V81.2608H193.357V73.1888Z" fill="#202230"/>
<path fill-rule="evenodd" clip-rule="evenodd" d="M204.314 73.1888C204.314 72.7325 204.065 72.4839 203.609 72.4839V72.1304H207.115V79.1859H211.681C212.138 79.1859 212.387 78.9362 212.387 78.4799H212.739V81.2608H204.314V73.1888Z" fill="#202230"/>
<path fill-rule="evenodd" clip-rule="evenodd" d="M224.609 72.1304V72.4828C224.177 72.4828 223.909 72.7325 223.909 73.1888V81.2608H221.932L216.824 75.72V81.2608H214.352V73.1888C214.352 72.7325 214.105 72.4828 213.652 72.4828V72.1304H217.091L221.437 76.8403V72.1304H224.609Z" fill="#202230"/>
<path fill-rule="evenodd" clip-rule="evenodd" d="M236.478 78.7296V81.2608H227.138V73.1689C227.138 72.7325 226.889 72.4839 226.435 72.4839V72.1304H236.147V74.6626H235.775C235.775 74.2063 235.528 73.9577 235.093 73.9577H229.927V75.6372H234.97V77.3806H229.927V79.4345H235.424C235.858 79.4345 236.106 79.1859 236.106 78.7296H236.478Z" fill="#202230"/>
<path fill-rule="evenodd" clip-rule="evenodd" d="M243.954 76.0412C246.355 76.352 248.348 76.885 248.348 78.997C248.348 81.2413 246.14 82.1738 243.585 82.1738C241.876 82.1738 240.102 81.8406 238.304 81.174L239.084 78.5526L239.451 78.6626C239.386 79.0856 239.603 79.3527 240.079 79.5738C241.074 79.9957 242.048 80.1741 243.261 80.1741C244.299 80.1741 245.533 80.0181 245.533 79.2192C245.533 78.5964 244.819 78.3742 242.006 78.0858C240.252 77.9073 238.456 77.2408 238.456 75.3521C238.456 73.3075 240.706 72.1304 243.477 72.1304C244.928 72.1304 246.248 72.4188 248.023 73.0865L246.896 75.5519L246.551 75.3746C246.659 75.1075 246.593 74.7753 246.204 74.5969C245.489 74.2861 244.148 74.1301 243.347 74.1301C242.437 74.1301 241.27 74.3747 241.27 75.1075C241.27 75.6417 242.092 75.7965 243.11 75.9301L243.954 76.0412Z" fill="#202230"/>
<path fill-rule="evenodd" clip-rule="evenodd" d="M255.823 76.0412C258.226 76.352 260.217 76.885 260.217 78.997C260.217 81.2413 258.009 82.1738 255.456 82.1738C253.746 82.1738 251.971 81.8406 250.174 81.174L250.953 78.5526L251.322 78.6626C251.256 79.0856 251.474 79.3527 251.949 79.5738C252.945 79.9957 253.919 80.1741 255.131 80.1741C256.17 80.1741 257.404 80.0181 257.404 79.2192C257.404 78.5964 256.69 78.3742 253.876 78.0858C252.122 77.9073 250.326 77.2408 250.326 75.3521C250.326 73.3075 252.576 72.1304 255.346 72.1304C256.798 72.1304 258.119 72.4188 259.893 73.0865L258.767 75.5519L258.42 75.3746C258.53 75.1075 258.464 74.7753 258.075 74.5969C257.36 74.2861 256.019 74.1301 255.217 74.1301C254.308 74.1301 253.139 74.3747 253.139 75.1075C253.139 75.6417 253.963 75.7965 254.98 75.9301L255.823 76.0412Z" fill="#202230"/>
<path fill-rule="evenodd" clip-rule="evenodd" d="M264.783 52.0438H274.826L273.432 49.3047H266.178L264.783 52.0438Z" fill="#00A3DA"/>
<path fill-rule="evenodd" clip-rule="evenodd" d="M269.348 52.9565L270.594 55.6957H273.581L274.826 52.9565H269.348Z" fill="#00A3DA"/>
<path fill-rule="evenodd" clip-rule="evenodd" d="M263.87 52.9565H253.826L255.221 55.6957H262.474L263.87 52.9565Z" fill="#00A3DA"/>
<path fill-rule="evenodd" clip-rule="evenodd" d="M258.059 49.3047H255.071L253.826 52.0438H259.304L258.059 49.3047Z" fill="#00A3DA"/>
<path fill-rule="evenodd" clip-rule="evenodd" d="M269.462 49.3044L271.174 46.3164L269.747 43.8262L266.609 49.3044H269.462Z" fill="#00A3DA"/>
<path fill-rule="evenodd" clip-rule="evenodd" d="M264.307 53.8696L259.304 62.087H262.083L265.696 56.1524L264.307 53.8696Z" fill="#00A3DA"/>
<path fill-rule="evenodd" clip-rule="evenodd" d="M259.19 55.6953L257.478 58.6834L258.905 61.1736L262.043 55.6953H259.19Z" fill="#00A3DA"/>
<path fill-rule="evenodd" clip-rule="evenodd" d="M263.87 52.0436L258.868 43.8262L257.478 46.109L261.09 52.0436H263.87Z" fill="#00A3DA"/>
<path fill-rule="evenodd" clip-rule="evenodd" d="M264.783 60.0117L266.495 62.9997H269.348L266.21 57.5215L264.783 60.0117Z" fill="#00A3DA"/>
<path fill-rule="evenodd" clip-rule="evenodd" d="M264.783 52.9565L269.784 61.1739L271.174 58.8912L267.562 52.9565H264.783Z" fill="#00A3DA"/>
<path fill-rule="evenodd" clip-rule="evenodd" d="M269.348 42.9131H266.558L264.327 46.5649L262.095 42.9131H259.304L264.327 51.1305L269.348 42.9131Z" fill="#00A3DA"/>
<path d="M131.478 12.7827V118.696" stroke="#636463" stroke-width="0.5"/>
<path fill-rule="evenodd" clip-rule="evenodd" d="M28.8157 84.3631L28.4322 83.5093C28.0488 82.6814 27.0528 82.8118 26.5159 83.0695C25.749 83.4058 25.2632 84.1044 25.57 84.7771L25.979 85.6827L28.8157 84.3631ZM24.4973 84.8546C23.9604 83.6903 24.8542 82.5001 25.979 81.9837C26.9505 81.5439 27.9465 81.6215 28.5856 82.0613L30.7065 79.4492L31.2433 80.6124L29.2503 82.9141L29.7105 83.9231L32.2148 82.7599L32.675 83.8196L25.5444 87.1303L24.4973 84.8546Z" fill="#636463"/>
<path fill-rule="evenodd" clip-rule="evenodd" d="M25.4683 73.2676C27.6147 72.7501 29.2242 73.2158 29.71 75.207C30.1446 77.0429 29.1742 78.2072 26.7966 78.8023L22.5549 79.8372L22.2737 78.7247L26.4898 77.6908C28.1771 77.2769 28.9175 76.5783 28.6373 75.3881C28.3305 74.0697 27.1801 74.0179 25.6728 74.3801L21.4812 75.414L21.2 74.3014L25.4683 73.2676Z" fill="#636463"/>
<path fill-rule="evenodd" clip-rule="evenodd" d="M25.3657 68.5864C24.8544 69.5954 24.6499 70.888 22.9636 70.9656C21.4564 71.0433 20.6127 70.0342 20.536 68.8451C20.5104 68.0689 20.6127 67.4738 20.8939 67.0351L21.9155 67.1644C21.5831 67.7326 21.4819 68.1465 21.532 68.7157C21.5576 69.4919 22.0433 69.8542 22.708 69.8272C23.3216 69.8013 23.6795 69.4402 23.9351 68.9745C24.4709 67.8878 24.6499 66.647 26.2349 66.5693C27.7166 66.4917 28.6626 67.3455 28.7137 68.664C28.7648 69.3367 28.637 70.1129 28.458 70.6304L27.3843 70.6552C27.6399 70.1636 27.7678 69.5178 27.7166 68.8192C27.6911 67.9654 27.2064 67.6808 26.5662 67.7326H26.4906C25.8514 67.7584 25.5702 68.1207 25.3657 68.5864Z" fill="#636463"/>
<path fill-rule="evenodd" clip-rule="evenodd" d="M25.5447 62.2504C24.88 63.1807 24.4709 64.4227 22.8102 64.2415C21.2774 64.0863 20.6127 62.9231 20.7405 61.7588C20.8172 60.9826 21.0207 60.4134 21.3786 60.0264L22.3501 60.2851C21.941 60.8015 21.7876 61.2155 21.7365 61.7847C21.6609 62.5609 22.0688 62.9996 22.708 63.0783C23.3215 63.129 23.7562 62.8455 24.0619 62.4056C24.7777 61.4483 25.1612 60.2323 26.7207 60.4134C28.2024 60.5686 28.9949 61.5518 28.8415 62.8713C28.7904 63.543 28.5603 64.2933 28.2791 64.7849L27.2064 64.6296C27.5377 64.1898 27.7678 63.5688 27.8445 62.8713C27.9212 62.0434 27.4865 61.6812 26.874 61.6036H26.7707C26.1582 61.5259 25.8259 61.8364 25.5447 62.2504Z" fill="#636463"/>
<path fill-rule="evenodd" clip-rule="evenodd" d="M21.9158 55.9131L29.5566 57.7231L29.301 58.8357L21.6602 57.0256L21.9158 55.9131Z" fill="#636463"/>
<path fill-rule="evenodd" clip-rule="evenodd" d="M28.3046 51.1551L25.0333 50.8188L27.6399 52.8358L28.3046 51.1551ZM28.4579 53.4566L30.3487 54.9055L29.9152 55.9911L23.4749 50.8186L23.9095 49.6802L32.0871 50.3788L31.6525 51.4913L29.3272 51.2584L28.4579 53.4566Z" fill="#636463"/>
<path fill-rule="evenodd" clip-rule="evenodd" d="M28.5603 44.7145L33.4411 47.9724L32.8276 48.9297L26.2605 44.5593L26.8986 43.5761L33.7479 43.9124L33.7735 43.8866L28.8415 40.6028L29.454 39.6455L36.0222 44.0159L35.3063 45.1026L28.5603 44.7145Z" fill="#636463"/>
<path fill-rule="evenodd" clip-rule="evenodd" d="M41.1588 37.6549C42.1303 36.8528 41.9769 35.5085 40.6986 33.9302C39.5226 32.4824 38.2198 31.9908 37.2239 32.8187C36.2524 33.6197 36.4058 34.9651 37.6574 36.4906C38.859 37.9912 40.1617 38.4828 41.1588 37.6549ZM36.6092 32.0163C38.2454 30.6709 40.1617 31.4471 41.5934 33.2064C43.2285 35.2493 43.2796 37.1888 41.7979 38.4307C40.4174 39.568 38.5266 39.3352 36.7637 37.2405C35.2042 35.327 35.0764 33.3089 36.6092 32.0163Z" fill="#636463"/>
<path fill-rule="evenodd" clip-rule="evenodd" d="M42.9476 27.8003L46.27 33.8525L48.5698 32.5588L49.0555 33.4644L45.7842 35.3003L41.9761 28.3436L42.9476 27.8003Z" fill="#636463"/>
<path fill-rule="evenodd" clip-rule="evenodd" d="M50.5886 28.3953L50.8698 24.206L51.9936 23.7661L51.5089 29.3526L52.5049 32.0682L51.4568 32.4563L50.4608 29.7655L46.5759 25.8349L47.7519 25.395L50.5886 28.3953Z" fill="#636463"/>
<path fill-rule="evenodd" clip-rule="evenodd" d="M56.4916 24.9817L57.3096 30.6457L56.1848 30.7999L55.0354 22.9377L56.2359 22.7576L58.8436 26.6882L60.2997 22.1367L61.4235 21.9814L62.5995 29.8437L61.4746 29.9989L60.6321 24.2831H60.6065L59.4816 28.0078L58.5868 28.1371L56.4916 24.9817Z" fill="#636463"/>
<path fill-rule="evenodd" clip-rule="evenodd" d="M66.1004 26.1973L67.0207 26.249C67.8633 26.2749 68.1957 25.447 68.2468 24.6966C68.2979 23.9215 67.9912 23.0936 67.1997 23.0418L66.2793 22.9901L66.1004 26.1973ZM67.5832 22.0595C68.8604 22.1102 69.4739 23.4297 69.3972 24.7752C69.3205 26.3265 68.3491 27.3614 67.2764 27.3097L66.0493 27.231L65.8959 29.9476L64.771 29.87L65.2067 21.9302L67.5832 22.0595Z" fill="#636463"/>
<path fill-rule="evenodd" clip-rule="evenodd" d="M73.4602 22.8608L71.9785 30.6713L70.8792 30.4643L72.3619 22.6538L73.4602 22.8608Z" fill="#636463"/>
<path fill-rule="evenodd" clip-rule="evenodd" d="M78.6225 32.4557C78.1123 32.5592 77.5498 32.4816 76.9618 32.3005C74.9166 31.6019 74.4309 29.6108 75.1723 27.3609C75.9392 25.0333 77.601 23.7397 79.6707 24.4383C80.1309 24.5935 80.6922 24.8522 81.0757 25.2662L80.7178 26.2224C80.3854 25.8343 79.823 25.5508 79.415 25.4214C78.0856 24.9546 76.9363 25.7308 76.2971 27.6713C75.6836 29.5073 76.0671 30.8785 77.4721 31.3691C77.83 31.4984 78.4691 31.6278 78.9804 31.4725L78.6736 32.4557H78.6225Z" fill="#636463"/>
<path fill-rule="evenodd" clip-rule="evenodd" d="M86.9023 37.293C86.3654 37.2671 85.8296 37.0343 85.3183 36.672C83.5288 35.456 83.5799 33.4131 84.8837 31.4478C86.2131 29.4049 88.155 28.6028 89.9691 29.8178C90.3525 30.1035 90.8383 30.4905 91.1184 30.9821L90.5059 31.81C90.3014 31.3702 89.8412 30.9303 89.4578 30.6716C88.3073 29.8965 87.0046 30.3611 85.8808 32.0429C84.8326 33.6459 84.807 35.0938 86.0586 35.9228C86.3921 36.1287 86.9534 36.4392 87.4903 36.4392L86.9534 37.293H86.9023Z" fill="#636463"/>
<path fill-rule="evenodd" clip-rule="evenodd" d="M90.6593 39.8791C91.553 40.7578 92.8568 40.5001 94.2874 39.0512C95.5912 37.7069 95.9236 36.3356 95.0288 35.4311C94.1351 34.5514 92.8313 34.836 91.4518 36.2321C90.0968 37.6034 89.7389 38.9477 90.6593 39.8791ZM95.7446 34.732C97.2274 36.2316 96.665 38.2497 95.0799 39.8786C93.2659 41.7404 91.324 41.9733 89.969 40.6031C88.7174 39.3353 88.7429 37.3959 90.6337 35.4306C92.3455 33.6712 94.314 33.309 95.7446 34.732Z" fill="#636463"/>
<path fill-rule="evenodd" clip-rule="evenodd" d="M98.8876 42.0507L94.109 45.1285L93.521 44.1712L100.14 39.9043L100.804 40.9381L98.2996 44.9474L102.977 44.43L103.615 45.4131L96.9712 49.6801L96.3577 48.7228L101.187 45.6201V45.5943L97.3792 46.033L96.8945 45.2838L98.8876 42.0507Z" fill="#636463"/>
<path fill-rule="evenodd" clip-rule="evenodd" d="M103.615 50.8706L98.2744 52.7335L97.9165 51.6468L105.327 49.0605L105.736 50.2238L102.388 53.5345L107.04 54.1554L107.424 55.2421L99.9862 57.8283L99.6283 56.7417L105.046 54.8799L105.02 54.854L101.213 54.3883L100.932 53.5345L103.615 50.8706Z" fill="#636463"/>
<path fill-rule="evenodd" clip-rule="evenodd" d="M108.266 59.8967L100.523 61.1893L100.319 60.0768L108.087 58.7842L108.266 59.8967Z" fill="#636463"/>
<path fill-rule="evenodd" clip-rule="evenodd" d="M100.907 65.8967L100.855 64.7582L107.704 64.5265L107.653 62.7671L108.65 62.7153L108.829 67.4232L107.807 67.448L107.755 65.6638L100.907 65.8967Z" fill="#636463"/>
<path fill-rule="evenodd" clip-rule="evenodd" d="M100.498 72.0263L100.651 70.9138L107.423 71.8452L107.678 70.0869L108.675 70.2152L108.036 74.8713L107.04 74.7419L107.269 72.9836L100.498 72.0263Z" fill="#636463"/>
<path fill-rule="evenodd" clip-rule="evenodd" d="M107.372 77.7933L106.247 81.518L105.277 81.2334L106.069 78.5954L103.743 77.8968L103.156 79.8115L102.235 79.5258L102.823 77.6122L100.498 76.8889L99.68 79.5775L98.7351 79.2681L99.8333 75.4917L107.372 77.7933Z" fill="#636463"/>
<path fill-rule="evenodd" clip-rule="evenodd" d="M105.098 84.4404L103.436 87.9323L102.517 87.4924L103.692 85.0097L101.52 83.9489L100.651 85.76L99.7825 85.346L100.651 83.536L98.4531 82.4493L97.2526 84.9579L96.3323 84.5181L98.0185 80.9756L105.098 84.4404Z" fill="#636463"/>
<path fill-rule="evenodd" clip-rule="evenodd" d="M57.1375 98.4373C57.3345 98.4115 57.5358 98.4072 57.735 98.4072C60.6047 98.4072 62.9834 100.536 63.3977 103.328C63.778 103.454 64.1732 103.541 64.5855 103.584C64.2744 100.032 61.327 97.2461 57.735 97.2461C57.538 97.2461 57.3356 97.2558 57.1428 97.2698H57.1417C57.1577 97.452 57.163 97.6396 57.163 97.8261C57.163 98.0309 57.1545 98.2357 57.1375 98.4373Z" fill="#F8B122"/>
<path fill-rule="evenodd" clip-rule="evenodd" d="M63.4508 104.556C63.273 107.592 60.7857 109.995 57.7349 109.995C54.5733 109.995 52.0104 107.4 52.0104 104.198C52.0104 101.629 53.6636 99.4493 55.957 98.6925H55.9581C55.9996 98.4101 56.022 98.119 56.022 97.8258C56.022 97.705 56.0188 97.5854 56.0092 97.4668V97.4679C53.0511 98.243 50.8674 100.961 50.8674 104.198C50.8674 108.04 53.9406 111.154 57.7349 111.154C61.347 111.154 64.3115 108.34 64.5885 104.757V104.752C64.2008 104.719 63.8183 104.653 63.4508 104.556Z" fill="#F8B122"/>
<path fill-rule="evenodd" clip-rule="evenodd" d="M50.8673 104.198C50.8673 103.994 50.8769 103.788 50.8929 103.589H50.8897C50.6969 103.609 50.4924 103.615 50.29 103.615C47.1263 103.615 44.5645 101.024 44.5645 97.8256C44.5645 94.6216 47.1263 92.03 50.29 92.03C53.4569 92.03 56.0219 94.6216 56.0219 97.8256C56.0219 100.395 54.3645 102.574 52.0753 103.336C52.0753 103.336 52.0742 103.337 52.0721 103.337C52.0295 103.618 52.0103 103.906 52.0103 104.198C52.0103 104.32 52.0135 104.439 52.021 104.559V104.557C54.9855 103.779 57.1628 101.063 57.1628 97.8256C57.1628 93.9802 54.0854 90.8711 50.29 90.8711C46.4968 90.8711 43.4204 93.9802 43.4204 97.8256C43.4204 101.666 46.4968 104.778 50.29 104.778C50.4924 104.778 50.6905 104.77 50.8865 104.756H50.8886C50.8737 104.572 50.8673 104.388 50.8673 104.198Z" fill="#007BC1"/>
<path fill-rule="evenodd" clip-rule="evenodd" d="M59.467 97.4683C59.646 94.4346 62.1365 92.0295 65.183 92.0295C68.3456 92.0295 70.9085 94.6201 70.9085 97.8251C70.9085 100.394 69.2521 102.574 66.9662 103.335C66.9246 103.615 66.9022 103.905 66.9022 104.197C66.9022 104.318 66.9054 104.438 66.914 104.556C69.8689 103.776 72.0558 101.057 72.0558 97.8251C72.0558 93.9808 68.9741 90.8706 65.183 90.8706C61.5719 90.8706 58.6063 93.6886 58.3283 97.2688L58.3262 97.271C58.7171 97.3055 59.1006 97.3723 59.467 97.4694V97.4683Z" fill="#1D1D1B"/>
<path fill-rule="evenodd" clip-rule="evenodd" d="M65.7544 104.197C65.7544 103.994 65.7639 103.788 65.7821 103.588C65.5829 103.609 65.3858 103.614 65.1823 103.614C62.3116 103.614 59.9287 101.477 59.5218 98.6928C59.1426 98.5656 58.7431 98.4794 58.3362 98.4341V98.4362C58.6408 101.995 61.5915 104.777 65.1823 104.777C65.3794 104.777 65.5775 104.77 65.7778 104.756C65.7629 104.571 65.7544 104.387 65.7544 104.197Z" fill="#1D1D1B"/>
<path fill-rule="evenodd" clip-rule="evenodd" d="M80.0693 90.8706C76.4604 90.8706 73.5023 93.6897 73.22 97.271C73.6088 97.3044 73.9891 97.3713 74.3544 97.4672C74.5376 94.4346 77.0271 92.0295 80.0693 92.0295C83.2309 92.0295 85.797 94.6211 85.797 97.8251C85.797 101.024 83.2309 103.615 80.0693 103.615C77.1964 103.615 74.8199 101.478 74.4077 98.6919V98.6886C74.0295 98.5657 73.6333 98.4784 73.2232 98.4342V98.4374C73.5331 101.994 76.4763 104.777 80.0693 104.777C83.8679 104.777 86.9453 101.667 86.9453 97.8251C86.9453 93.9808 83.8679 90.8706 80.0693 90.8706Z" fill="#E52A44"/>
<path fill-rule="evenodd" clip-rule="evenodd" d="M72.0317 98.4373C72.2255 98.4115 72.4269 98.4072 72.6293 98.4072C75.4947 98.4072 77.8723 100.538 78.2898 103.33C78.6669 103.455 79.0632 103.541 79.4701 103.584C79.1633 100.033 76.2158 97.2461 72.6293 97.2461C72.4269 97.2461 72.2309 97.2558 72.0359 97.2698C72.0498 97.452 72.0562 97.6396 72.0562 97.8261C72.0562 98.0309 72.0476 98.2357 72.0295 98.4373H72.0317Z" fill="#00A14C"/>
<path fill-rule="evenodd" clip-rule="evenodd" d="M78.341 104.556C78.1567 107.592 75.6673 109.995 72.6293 109.995C69.4635 109.995 66.9038 107.4 66.9038 104.198C66.9038 101.629 68.5549 99.4493 70.844 98.6925C70.8866 98.4101 70.909 98.119 70.909 97.8258C70.909 97.705 70.9058 97.5854 70.8973 97.4668V97.4679C67.9392 98.243 65.7544 100.961 65.7544 104.198C65.7544 108.04 68.8297 111.154 72.6293 111.154C76.2351 111.154 79.1953 108.34 79.4787 104.757V104.756C79.0909 104.719 78.7074 104.653 78.341 104.556Z" fill="#00A14C"/>
<path fill-rule="evenodd" clip-rule="evenodd" d="M78.8475 53.3225V53.5025C78.7101 58.1478 76.095 61.1297 73.5353 63.813C67.389 70.2867 62.7212 72.8395 62.7212 78.2902C62.7212 83.4077 71.2973 87.4536 71.2973 87.4536L75.6508 83.4314C75.6508 83.4314 72.6735 81.6138 72.6799 78.4961C72.6799 76.7442 73.613 74.5871 76.5168 72.1075C82.9933 66.5922 85.7139 62.7695 85.7139 58.4529V58.3926C85.7107 57.7544 85.65 57.1118 85.5307 56.4456C84.343 49.8652 76.8896 46.9146 76.8896 46.9146C76.8896 46.9146 78.8475 50.4516 78.8475 53.3225Z" fill="url(#paint0_linear)"/>
<path fill-rule="evenodd" clip-rule="evenodd" d="M61.8499 59.8601C56.1744 65.2094 48.1491 70.6287 49.1728 77.6587C50.0867 83.9276 57.4602 87.4539 57.4602 87.4539L62.2526 83.3444C62.2526 83.3444 55.9721 78.6645 61.0468 72.7514C69.6899 62.6469 77.1379 59.8601 76.2719 51.4265C75.4027 42.9864 65.7699 39.5776 65.7699 39.5776C65.7699 39.5776 68.5043 42.4851 68.8761 46.7456C69.1531 49.9862 67.5297 54.5054 61.8499 59.8601Z" fill="url(#paint1_linear)"/>
<path fill-rule="evenodd" clip-rule="evenodd" d="M58.994 45.7027C58.2505 50.7846 48.736 54.7195 46.0047 60.3793C43.2735 66.0444 47.4321 72.0524 47.4321 72.0524C47.4321 72.0524 46.9219 69.1481 51.9135 64.602C58.8651 58.2426 66.3472 53.1089 65.952 47.6076C65.397 39.8068 57.0702 37.1494 57.0702 37.1494C57.0702 37.1494 59.7365 40.6175 58.994 45.7027ZM46.6066 60.6756C47.822 58.1734 50.501 55.9634 53.0948 53.8202C56.2447 51.2264 59.2187 48.776 59.6629 45.8006C60.1167 42.7034 59.3775 40.184 58.6584 38.5917C61.019 39.8325 64.923 42.6236 65.282 47.6538C65.5738 51.7795 60.8741 55.8642 55.4255 60.5904C54.1281 61.7213 52.7784 62.8845 51.4629 64.0876C48.7466 66.5725 47.5802 68.6219 47.0902 70.0395C46.1166 67.9686 44.9012 64.2094 46.6066 60.6756Z" fill="url(#paint2_linear)"/>
<defs>
<linearGradient id="paint0_linear" x1="83.872" y1="12.3781" x2="36.4552" y2="28.162" gradientUnits="userSpaceOnUse">
<stop stop-color="#E6332A"/>
<stop offset="0.502707" stop-color="#952816"/>
<stop offset="1" stop-color="#E6332A"/>
</linearGradient>
<linearGradient id="paint1_linear" x1="71.5669" y1="10.3125" x2="23.0914" y2="27.1005" gradientUnits="userSpaceOnUse">
<stop stop-color="#6B7CBC"/>
<stop offset="0.369068" stop-color="#1951A0"/>
<stop offset="1" stop-color="#6B7CBC"/>
</linearGradient>
<linearGradient id="paint2_linear" x1="63.3186" y1="7.72962" x2="21.1411" y2="22.5807" gradientUnits="userSpaceOnUse">
<stop stop-color="#6B7CBC"/>
<stop offset="0.437043" stop-color="#1951A0"/>
<stop offset="1" stop-color="#6B7CBC"/>
</linearGradient>
</defs>
</svg>
