<svg width="743" height="372" viewBox="0 0 743 372" fill="none" xmlns="http://www.w3.org/2000/svg">
<mask id="mask0" mask-type="alpha" maskUnits="userSpaceOnUse" x="30" y="4" width="713" height="367">
<path d="M743 4.91602L664 4.91602L30.5 370.916H743V4.91602Z" fill="#C4C4C4"/>
</mask>
<g mask="url(#mask0)">
<path d="M100.859 143.16C100.734 144.55 101.456 145.19 102.907 144.989L109.124 144.128C110.471 143.942 111.096 143.116 111.22 141.726L115.121 71.4902C115.217 69.8929 114.731 69.4322 113.177 69.6473L106.96 70.5078C105.613 70.6942 104.884 71.5342 104.76 72.9243L103.286 98.8947C103.158 101.024 103.158 101.024 101.086 101.311L94.8687 102.172C92.7964 102.459 92.7964 102.459 92.9241 100.329L94.3984 74.3584C94.4942 72.7611 94.008 72.3004 92.4538 72.5155L86.2368 73.376C84.8898 73.5624 84.1613 74.4024 84.0369 75.7925L80.1355 146.029C80.0111 147.419 80.7332 148.058 82.1838 147.857L88.4007 146.997C89.7477 146.81 90.3727 145.984 90.4971 144.594L92.1518 114.586C92.2794 112.456 92.2794 112.456 94.3517 112.17L100.569 111.309C102.641 111.022 102.641 111.022 102.513 113.152L100.859 143.16ZM145.533 139.089C146.88 138.903 147.505 138.077 147.63 136.687L147.995 130.934C148.091 129.337 147.604 128.876 146.05 129.091L134.549 130.683C132.477 130.97 132.477 130.97 132.604 128.84L133.638 108.844C133.766 106.715 133.766 106.715 135.838 106.428L147.34 104.836C148.687 104.649 149.415 103.809 149.54 102.419L149.801 96.6807C149.897 95.0835 149.411 94.6228 147.857 94.8379L136.355 96.4297C134.283 96.7165 134.283 96.7165 134.411 94.5869L135.264 78.6287C135.392 76.499 135.392 76.499 137.464 76.2122L148.966 74.6204C150.313 74.4339 151.041 73.5939 151.166 72.2039L151.531 66.4509C151.627 64.8536 151.14 64.3929 149.586 64.608L127.723 67.634C126.376 67.8204 125.648 68.6604 125.523 70.0505L121.622 140.287C121.498 141.677 122.22 142.316 123.67 142.115L145.533 139.089ZM218.87 57.1307C218.966 55.5335 218.48 55.0728 216.926 55.2879L194.234 58.4285C192.887 58.615 192.158 59.455 192.034 60.845C191.534 70.207 190.321 80.5126 188.275 91.6725C186.229 102.832 184.643 110.444 183.619 114.493C182.595 118.542 181.679 121.837 180.958 124.26L176.917 124.819C175.57 125.005 174.842 125.845 174.717 127.235L173.927 142.129C173.832 143.726 174.318 144.187 175.872 143.972L182.089 143.111C183.436 142.925 184.164 142.085 184.289 140.695L184.594 135.267C184.657 134.202 185.207 133.598 186.244 133.455L212.873 129.769C214.945 129.482 214.945 129.482 214.817 131.612L214.53 136.404C214.434 138.001 214.921 138.462 216.475 138.246L222.692 137.386C224.039 137.2 224.767 136.359 224.892 134.969L225.696 120.18C225.792 118.582 225.305 118.122 223.751 118.337L217.534 119.197C215.462 119.484 215.462 119.484 215.59 117.354L218.87 57.1307ZM201.289 68.9625C201.352 67.8977 201.902 67.2936 202.939 67.1502L206.462 66.6626C207.498 66.5192 207.984 66.9799 207.92 68.0447L205.228 118.789C205.1 120.918 205.1 120.918 203.028 121.205L191.423 122.811L193.41 115.039C194.705 109.896 196.259 102.817 197.866 93.8298C199.474 84.8426 200.649 76.5487 201.289 68.9625ZM264.728 122.592C266.075 122.405 266.714 121.683 266.557 120.544L257.331 51.5964C257.116 50.0422 256.865 49.76 255.207 49.9895L249.612 50.7639C247.954 50.9933 247.687 51.3472 247.176 53.0018L230.291 125.563C229.706 127.439 231.157 127.238 231.986 127.124L238.203 126.263C239.653 126.062 240.275 125.976 240.474 124.365L241.772 118.483C242.314 116.296 242.314 116.296 244.283 116.023L253.505 114.747C255.473 114.474 255.37 114.489 255.656 116.561L256.224 122.185C256.439 123.739 257.268 123.624 258.511 123.452L264.728 122.592ZM250.457 77.4694C250.532 77.2478 250.621 77.1298 250.711 77.0119C251.007 76.8652 251.243 77.0438 251.286 77.3546L254.149 102.619C254.332 104.706 254.332 104.706 252.26 104.993L246.458 105.796C244.385 106.083 244.385 106.083 244.824 103.91L250.457 77.4694ZM281.732 120.238C282.768 120.095 283.436 119.58 283.84 118.679L299.628 77.1054C299.942 76.3228 300.489 76.4583 300.457 76.9907L298.335 115.828C298.21 117.219 298.932 117.858 300.383 117.657L306.6 116.797C307.947 116.61 308.572 115.784 308.696 114.394L312.598 44.1583C312.693 42.5611 312.207 42.1004 310.653 42.3155L305.99 42.9608C304.85 43.1186 304.183 43.6334 303.794 44.6377L288.005 86.2117C287.662 86.7872 287.144 86.8589 287.176 86.3265L289.284 47.3851C289.38 45.7878 288.894 45.3271 287.339 45.5422L281.123 46.4027C279.776 46.5891 279.047 47.4291 278.923 48.8192L275.021 119.055C274.897 120.445 275.619 121.084 277.07 120.884L281.732 120.238ZM292.056 29.2606C292.169 27.0274 291.562 27.217 290.111 27.4178L287.313 27.805C285.241 28.0918 285.241 28.0918 285.217 30.2071C285.269 35.1631 287 38.5139 290.514 40.2453C294.012 41.873 297.653 41.4747 301.554 39.1396C305.841 36.5399 308.226 32.4082 308.841 26.9374C309.073 24.7934 309.073 24.7934 307 25.0802L304.203 25.4674C302.545 25.6969 302.248 25.8435 302.003 27.8839C301.85 29.0667 301.475 30.1746 300.879 31.2075C299.522 33.6129 297.757 34.5963 295.599 34.2614C293.323 33.8373 292.146 32.2049 292.056 29.2606Z" fill="white"/>
<path d="M321.432 88.3032C321.869 83.0683 324.648 80.2549 328.067 79.7817C331.694 79.2798 334.318 81.451 333.866 86.5823L333.863 87.322C333.767 88.9192 334.253 89.3799 335.808 89.1648L341.921 88.3187C343.475 88.1036 344.279 87.042 344.139 85.2662C343.879 73.4748 337.42 68.772 328.613 69.9909C319.081 71.3103 311.666 78.7781 310.926 92.503L309.102 127.392C308.361 141.117 315.039 146.635 324.571 145.315C333.379 144.096 340.39 137.529 341.995 125.48C342.27 123.646 341.623 122.786 340.068 123.001L333.955 123.847C332.608 124.033 331.88 124.873 331.755 126.263L331.752 127.003C331.315 132.238 328.536 135.051 325.117 135.525C321.49 136.026 318.867 133.855 319.318 128.724L321.432 88.3032ZM372.336 138.282C373.683 138.096 374.307 137.27 374.432 135.88L374.797 130.127C374.893 128.53 374.407 128.069 372.853 128.284L361.351 129.876C359.279 130.163 359.279 130.163 359.407 128.033L360.441 108.037C360.568 105.907 360.568 105.907 362.641 105.621L374.142 104.029C375.489 103.842 376.217 103.002 376.342 101.612L376.604 95.8736C376.699 94.2764 376.213 93.8157 374.659 94.0308L363.158 95.6226C361.085 95.9095 361.085 95.9095 361.213 93.7798L362.067 77.8216C362.194 75.6919 362.194 75.6919 364.267 75.4051L375.768 73.8133C377.115 73.6268 377.843 72.7868 377.968 71.3968L378.333 65.6438C378.429 64.0466 377.943 63.5858 376.389 63.801L354.526 66.8269C353.179 67.0133 352.45 67.8534 352.326 69.2434L348.424 139.479C348.3 140.869 349.022 141.509 350.473 141.308L372.336 138.282ZM384.245 134.522C384.12 135.912 384.842 136.551 386.293 136.35L399.763 134.486C410.435 133.009 415.553 126.493 416.374 111.067L417.013 100.418C417.834 84.9927 413.315 79.8101 402.643 81.2872L399.535 81.7174C397.462 82.0043 397.462 82.0043 397.59 79.8746L397.887 72.8639C398.014 70.7342 398.014 70.7342 400.087 70.4474L414.593 68.4397C415.94 68.2532 416.668 67.4132 416.793 66.0232L417.158 60.2702C417.254 58.673 416.768 58.2122 415.214 58.4274L390.346 61.8692C388.999 62.0556 388.27 62.8957 388.146 64.2857L384.245 134.522ZM396.849 93.5995C396.874 91.4842 396.874 91.4842 398.946 91.1973L402.054 90.7671C404.334 90.4516 405.735 91.4193 406.347 93.5522C406.959 95.6851 407.096 98.2005 406.729 100.891L406.038 113.448C405.907 116.317 405.829 117.278 405.301 119.569C405.148 120.752 404.849 121.638 404.402 122.228C403.731 123.482 402.217 124.748 400.248 125.02L397.139 125.451C395.067 125.737 395.067 125.737 395.195 123.608L396.849 93.5995ZM443.879 54.46C434.45 55.765 427.91 62.6893 427.17 76.4142L427.007 79.8159C426.586 88.2166 428.396 93.6684 432.453 96.275L424.5 128.845C423.976 130.396 424.387 131.078 425.63 130.906L432.158 130.002C433.609 129.801 434.23 129.715 434.43 128.104L441.348 98.7399C441.469 98.0895 441.841 97.7213 442.566 97.6209L444.535 97.3484C446.607 97.0616 446.607 97.0616 446.583 99.1769L445.03 126.109C444.906 127.499 445.628 128.138 447.079 127.937L453.295 127.077C454.642 126.89 455.267 126.065 455.392 124.675L459.293 54.4385C459.389 52.8412 458.903 52.3805 457.348 52.5956L443.879 54.46ZM446.384 63.406C448.456 63.1192 448.456 63.1192 448.432 65.2345L447.234 85.57C447.21 87.6853 447.21 87.6853 445.138 87.9721L442.029 88.4024C438.506 88.89 436.919 86.5753 437.177 81.5763L437.677 72.2144C438.024 67.0974 439.856 64.3095 443.275 63.8362L446.384 63.406ZM491.978 119.822C491.632 121.137 492.236 121.687 493.583 121.501L499.178 120.726C500.836 120.497 501.104 120.143 501.614 118.488L520.779 45.6117C520.95 43.7929 520.535 43.8502 519.188 44.0367L512.971 44.8971C511.521 45.0979 511.003 45.1696 510.596 46.8099L502.498 82.1452C502.423 82.3667 502.334 82.4847 502.244 82.6026C501.948 82.7493 501.712 82.5707 501.669 82.2599L497.333 48.6455C497.118 47.0913 496.496 47.1773 495.149 47.3638L488.933 48.2242C487.482 48.425 486.843 49.1471 487 50.2868L496.069 104.366L491.978 119.822ZM523.983 115.181C523.859 116.571 524.581 117.21 526.032 117.01L539.502 115.145C550.174 113.668 555.291 107.152 556.113 91.7261L556.751 81.0778C557.573 65.652 553.054 60.4694 542.382 61.9466L539.274 62.3768C537.201 62.6636 537.201 62.6636 537.329 60.5339L537.626 53.5232C537.753 51.3936 537.753 51.3936 539.826 51.1067L554.332 49.099C555.679 48.9126 556.407 48.0725 556.532 46.6825L556.897 40.9295C556.993 39.3323 556.507 38.8716 554.952 39.0867L530.085 42.5285C528.738 42.715 528.009 43.555 527.885 44.945L523.983 115.181ZM536.588 74.2588C536.612 72.1435 536.612 72.1435 538.685 71.8567L541.793 71.4264C544.073 71.1109 545.474 72.0786 546.086 74.2115C546.698 76.3444 546.835 78.8599 546.468 81.5506L545.777 94.1071C545.646 96.9764 545.568 97.9376 545.04 100.228C544.887 101.411 544.588 102.297 544.141 102.887C543.47 104.142 541.956 105.407 539.987 105.68L536.878 106.11C534.806 106.397 534.806 106.397 534.934 104.267L536.588 74.2588ZM571.068 110.776C572.104 110.633 572.772 110.118 573.175 109.217L588.964 67.6434C589.278 66.8607 589.825 66.9962 589.793 67.5287L587.67 106.366C587.546 107.756 588.268 108.396 589.719 108.195L595.936 107.334C597.283 107.148 597.908 106.322 598.032 104.932L601.933 34.6963C602.029 33.099 601.543 32.6383 599.989 32.8534L595.326 33.4988C594.186 33.6565 593.518 34.1714 593.129 35.1756L577.341 76.7497C576.998 77.3251 576.48 77.3968 576.512 76.8644L578.62 37.923C578.716 36.3257 578.229 35.865 576.675 36.0801L570.458 36.9406C569.111 37.127 568.383 37.9671 568.258 39.3571L564.357 109.593C564.233 110.983 564.955 111.622 566.405 111.422L571.068 110.776ZM608.283 39.5199C608.187 41.1171 608.673 41.5779 610.227 41.3627L616.548 40.4879C618.517 40.2155 618.517 40.2155 618.389 42.3451L615.108 102.569C614.984 103.959 615.706 104.598 617.157 104.397L623.373 103.537C624.72 103.35 625.345 102.525 625.47 101.135L628.75 40.911C628.878 38.7814 628.878 38.7814 630.95 38.4946L637.167 37.6341C638.514 37.4477 639.243 36.6076 639.367 35.2176L639.733 29.4646C639.828 27.8674 639.342 27.4067 637.788 27.6218L610.848 31.3504C609.501 31.5369 608.772 32.3769 608.648 33.7669L608.283 39.5199ZM642.574 98.7674C642.45 100.157 643.172 100.797 644.623 100.596L658.093 98.7316C668.765 97.2545 673.882 90.7382 674.704 75.3124L675.342 64.6641C676.164 49.2383 671.645 44.0558 660.973 45.5329L657.864 45.9631C655.792 46.2499 655.792 46.2499 655.92 44.1203L656.837 27.0973C656.933 25.5 656.447 25.0393 654.893 25.2544L648.676 26.1149C647.329 26.3013 646.6 27.1413 646.476 28.5314L642.574 98.7674ZM655.179 57.8452C655.203 55.7298 655.203 55.7298 657.276 55.443L660.384 55.0128C662.664 54.6973 664.065 55.665 664.677 57.7979C665.289 59.9308 665.426 62.4462 665.059 65.137L664.368 77.6934C664.237 80.5627 664.159 81.524 663.631 83.8146C663.478 84.9974 663.178 85.8837 662.732 86.4735C662.061 87.728 660.546 88.9936 658.578 89.266L655.469 89.6963C653.397 89.9831 653.397 89.9831 653.525 87.8534L655.179 57.8452Z" fill="#E30B17"/>
</g>
<mask id="mask1" mask-type="alpha" maskUnits="userSpaceOnUse" x="0" y="5" width="659" height="367">
<path d="M0 187.916L315 5.91602L659 5.91602L24 371.916H0V187.916Z" fill="#C4C4C4"/>
</mask>
<g mask="url(#mask1)">
<path d="M95.8586 147.16C95.7342 148.55 96.4563 149.19 97.9069 148.989L104.124 148.128C105.471 147.942 106.096 147.116 106.22 145.726L110.121 75.4902C110.217 73.8929 109.731 73.4322 108.177 73.6473L101.96 74.5078C100.613 74.6942 99.8844 75.5342 99.7599 76.9243L98.2856 102.895C98.158 105.024 98.158 105.024 96.0857 105.311L89.8687 106.172C87.7964 106.459 87.7964 106.459 87.9241 104.329L89.3984 78.3584C89.4942 76.7611 89.008 76.3004 87.4538 76.5155L81.2368 77.376C79.8898 77.5624 79.1613 78.4024 79.0369 79.7925L75.1355 150.029C75.0111 151.419 75.7332 152.058 77.1838 151.857L83.4007 150.997C84.7477 150.81 85.3727 149.984 85.4971 148.594L87.1518 118.586C87.2794 116.456 87.2794 116.456 89.3517 116.17L95.5686 115.309C97.6409 115.022 97.6409 115.022 97.5133 117.152L95.8586 147.16ZM140.533 143.089C141.88 142.903 142.505 142.077 142.63 140.687L142.995 134.934C143.091 133.337 142.604 132.876 141.05 133.091L129.549 134.683C127.477 134.97 127.477 134.97 127.604 132.84L128.638 112.844C128.766 110.715 128.766 110.715 130.838 110.428L142.34 108.836C143.687 108.649 144.415 107.809 144.54 106.419L144.801 100.681C144.897 99.0835 144.411 98.6228 142.857 98.8379L131.355 100.43C129.283 100.717 129.283 100.717 129.411 98.5869L130.264 82.6287C130.392 80.499 130.392 80.499 132.464 80.2122L143.966 78.6204C145.313 78.4339 146.041 77.5939 146.166 76.2039L146.531 70.4509C146.627 68.8536 146.14 68.3929 144.586 68.608L122.723 71.634C121.376 71.8204 120.648 72.6604 120.523 74.0505L116.622 144.287C116.498 145.677 117.22 146.316 118.67 146.115L140.533 143.089ZM213.87 61.1307C213.966 59.5335 213.48 59.0728 211.926 59.2879L189.234 62.4285C187.887 62.615 187.158 63.455 187.034 64.845C186.534 74.207 185.321 84.5126 183.275 95.6725C181.229 106.832 179.643 114.444 178.619 118.493C177.595 122.542 176.679 125.837 175.958 128.26L171.917 128.819C170.57 129.005 169.842 129.845 169.717 131.235L168.927 146.129C168.832 147.726 169.318 148.187 170.872 147.972L177.089 147.111C178.436 146.925 179.164 146.085 179.289 144.695L179.594 139.267C179.657 138.202 180.207 137.598 181.244 137.455L207.873 133.769C209.945 133.482 209.945 133.482 209.817 135.612L209.53 140.404C209.434 142.001 209.921 142.462 211.475 142.246L217.692 141.386C219.039 141.2 219.767 140.359 219.892 138.969L220.696 124.18C220.792 122.582 220.305 122.122 218.751 122.337L212.534 123.197C210.462 123.484 210.462 123.484 210.59 121.354L213.87 61.1307ZM196.289 72.9625C196.352 71.8977 196.902 71.2936 197.939 71.1502L201.462 70.6626C202.498 70.5192 202.984 70.9799 202.92 72.0447L200.228 122.789C200.1 124.918 200.1 124.918 198.028 125.205L186.423 126.811L188.41 119.039C189.705 113.896 191.259 106.817 192.866 97.8298C194.474 88.8426 195.649 80.5487 196.289 72.9625ZM259.728 126.592C261.075 126.405 261.714 125.683 261.557 124.544L252.331 55.5964C252.116 54.0422 251.865 53.76 250.207 53.9895L244.612 54.7639C242.954 54.9933 242.687 55.3472 242.176 57.0018L225.291 129.563C224.706 131.439 226.157 131.238 226.986 131.124L233.203 130.263C234.653 130.062 235.275 129.976 235.474 128.365L236.772 122.483C237.314 120.296 237.314 120.296 239.283 120.023L248.505 118.747C250.473 118.474 250.37 118.489 250.656 120.561L251.224 126.185C251.439 127.739 252.268 127.624 253.511 127.452L259.728 126.592ZM245.457 81.4694C245.532 81.2478 245.621 81.1298 245.711 81.0119C246.007 80.8652 246.243 81.0438 246.286 81.3546L249.149 106.619C249.332 108.706 249.332 108.706 247.26 108.993L241.458 109.796C239.385 110.083 239.385 110.083 239.824 107.91L245.457 81.4694ZM276.732 124.238C277.768 124.095 278.436 123.58 278.84 122.679L294.628 81.1054C294.942 80.3228 295.489 80.4583 295.457 80.9907L293.335 119.828C293.21 121.219 293.932 121.858 295.383 121.657L301.6 120.797C302.947 120.61 303.572 119.784 303.696 118.394L307.598 48.1583C307.693 46.5611 307.207 46.1004 305.653 46.3155L300.99 46.9608C299.85 47.1186 299.183 47.6334 298.794 48.6377L283.005 90.2117C282.662 90.7872 282.144 90.8589 282.176 90.3265L284.284 51.3851C284.38 49.7878 283.894 49.3271 282.339 49.5422L276.123 50.4027C274.776 50.5891 274.047 51.4291 273.923 52.8192L270.021 123.055C269.897 124.445 270.619 125.084 272.07 124.884L276.732 124.238ZM287.056 33.2606C287.169 31.0274 286.562 31.217 285.111 31.4178L282.313 31.805C280.241 32.0918 280.241 32.0918 280.217 34.2071C280.269 39.1631 282 42.5139 285.514 44.2453C289.012 45.873 292.653 45.4747 296.554 43.1396C300.841 40.5399 303.226 36.4082 303.841 30.9374C304.073 28.7934 304.073 28.7934 302 29.0802L299.203 29.4674C297.545 29.6969 297.248 29.8435 297.003 31.8839C296.85 33.0667 296.475 34.1746 295.879 35.2075C294.522 37.6129 292.757 38.5963 290.599 38.2614C288.323 37.8373 287.146 36.2049 287.056 33.2606Z" fill="white"/>
<path d="M316.432 92.3032C316.869 87.0683 319.648 84.2549 323.067 83.7817C326.694 83.2798 329.318 85.451 328.866 90.5823L328.863 91.322C328.767 92.9192 329.253 93.3799 330.808 93.1648L336.921 92.3187C338.475 92.1036 339.279 91.042 339.139 89.2662C338.879 77.4748 332.42 72.772 323.613 73.9909C314.081 75.3103 306.666 82.7781 305.926 96.503L304.102 131.392C303.361 145.117 310.039 150.635 319.571 149.315C328.379 148.096 335.39 141.529 336.995 129.48C337.27 127.646 336.623 126.786 335.068 127.001L328.955 127.847C327.608 128.033 326.88 128.873 326.755 130.263L326.752 131.003C326.315 136.238 323.536 139.051 320.117 139.525C316.49 140.026 313.867 137.855 314.318 132.724L316.432 92.3032ZM367.336 142.282C368.683 142.096 369.307 141.27 369.432 139.88L369.797 134.127C369.893 132.53 369.407 132.069 367.853 132.284L356.351 133.876C354.279 134.163 354.279 134.163 354.407 132.033L355.441 112.037C355.568 109.907 355.568 109.907 357.641 109.621L369.142 108.029C370.489 107.842 371.217 107.002 371.342 105.612L371.604 99.8736C371.699 98.2764 371.213 97.8157 369.659 98.0308L358.158 99.6226C356.085 99.9095 356.085 99.9095 356.213 97.7798L357.067 81.8216C357.194 79.6919 357.194 79.6919 359.267 79.4051L370.768 77.8133C372.115 77.6268 372.843 76.7868 372.968 75.3968L373.333 69.6438C373.429 68.0466 372.943 67.5858 371.389 67.801L349.526 70.8269C348.179 71.0133 347.45 71.8534 347.326 73.2434L343.424 143.479C343.3 144.869 344.022 145.509 345.473 145.308L367.336 142.282ZM379.245 138.522C379.12 139.912 379.842 140.551 381.293 140.35L394.763 138.486C405.435 137.009 410.553 130.493 411.374 115.067L412.013 104.418C412.834 88.9927 408.315 83.8101 397.643 85.2872L394.535 85.7174C392.462 86.0043 392.462 86.0043 392.59 83.8746L392.887 76.8639C393.014 74.7342 393.014 74.7342 395.087 74.4474L409.593 72.4397C410.94 72.2532 411.668 71.4132 411.793 70.0232L412.158 64.2702C412.254 62.673 411.768 62.2122 410.214 62.4274L385.346 65.8692C383.999 66.0556 383.27 66.8957 383.146 68.2857L379.245 138.522ZM391.849 97.5995C391.874 95.4842 391.874 95.4842 393.946 95.1973L397.054 94.7671C399.334 94.4516 400.735 95.4193 401.347 97.5522C401.959 99.6851 402.096 102.201 401.729 104.891L401.038 117.448C400.907 120.317 400.829 121.278 400.301 123.569C400.148 124.752 399.849 125.638 399.402 126.228C398.731 127.482 397.217 128.748 395.248 129.02L392.139 129.451C390.067 129.737 390.067 129.737 390.195 127.608L391.849 97.5995ZM438.879 58.46C429.45 59.765 422.91 66.6893 422.17 80.4142L422.007 83.8159C421.586 92.2166 423.396 97.6684 427.453 100.275L419.5 132.845C418.976 134.396 419.387 135.078 420.63 134.906L427.158 134.002C428.609 133.801 429.23 133.715 429.43 132.104L436.348 102.74C436.469 102.089 436.841 101.721 437.566 101.621L439.535 101.348C441.607 101.062 441.607 101.062 441.583 103.177L440.03 130.109C439.906 131.499 440.628 132.138 442.079 131.937L448.295 131.077C449.642 130.89 450.267 130.065 450.392 128.675L454.293 58.4385C454.389 56.8412 453.903 56.3805 452.348 56.5956L438.879 58.46ZM441.384 67.406C443.456 67.1192 443.456 67.1192 443.432 69.2345L442.234 89.57C442.21 91.6853 442.21 91.6853 440.138 91.9721L437.029 92.4024C433.506 92.89 431.919 90.5753 432.177 85.5763L432.677 76.2144C433.024 71.0974 434.856 68.3095 438.275 67.8362L441.384 67.406ZM486.978 123.822C486.632 125.137 487.236 125.687 488.583 125.501L494.178 124.726C495.836 124.497 496.104 124.143 496.614 122.488L515.779 49.6117C515.95 47.7929 515.535 47.8502 514.188 48.0367L507.971 48.8971C506.521 49.0979 506.003 49.1696 505.596 50.8099L497.498 86.1452C497.423 86.3667 497.334 86.4847 497.244 86.6026C496.948 86.7493 496.712 86.5707 496.669 86.2599L492.333 52.6455C492.118 51.0913 491.496 51.1773 490.149 51.3638L483.933 52.2242C482.482 52.425 481.843 53.1471 482 54.2868L491.069 108.366L486.978 123.822ZM518.983 119.181C518.859 120.571 519.581 121.21 521.032 121.01L534.502 119.145C545.174 117.668 550.291 111.152 551.113 95.7261L551.751 85.0778C552.573 69.652 548.054 64.4694 537.382 65.9466L534.274 66.3768C532.201 66.6636 532.201 66.6636 532.329 64.5339L532.626 57.5232C532.753 55.3936 532.753 55.3936 534.826 55.1067L549.332 53.099C550.679 52.9126 551.407 52.0725 551.532 50.6825L551.897 44.9295C551.993 43.3323 551.507 42.8716 549.952 43.0867L525.085 46.5285C523.738 46.715 523.009 47.555 522.885 48.945L518.983 119.181ZM531.588 78.2588C531.612 76.1435 531.612 76.1435 533.685 75.8567L536.793 75.4264C539.073 75.1109 540.474 76.0786 541.086 78.2115C541.698 80.3444 541.835 82.8599 541.468 85.5506L540.777 98.1071C540.646 100.976 540.568 101.938 540.04 104.228C539.887 105.411 539.588 106.297 539.141 106.887C538.47 108.142 536.956 109.407 534.987 109.68L531.878 110.11C529.806 110.397 529.806 110.397 529.934 108.267L531.588 78.2588ZM566.068 114.776C567.104 114.633 567.772 114.118 568.175 113.217L583.964 71.6434C584.278 70.8607 584.825 70.9962 584.793 71.5287L582.67 110.366C582.546 111.756 583.268 112.396 584.719 112.195L590.936 111.334C592.283 111.148 592.908 110.322 593.032 108.932L596.933 38.6963C597.029 37.099 596.543 36.6383 594.989 36.8534L590.326 37.4988C589.186 37.6565 588.518 38.1714 588.129 39.1756L572.341 80.7497C571.998 81.3251 571.48 81.3968 571.512 80.8644L573.62 41.923C573.716 40.3257 573.229 39.865 571.675 40.0801L565.458 40.9406C564.111 41.127 563.383 41.9671 563.258 43.3571L559.357 113.593C559.233 114.983 559.955 115.622 561.405 115.422L566.068 114.776ZM603.283 43.5199C603.187 45.1171 603.673 45.5779 605.227 45.3627L611.548 44.4879C613.517 44.2155 613.517 44.2155 613.389 46.3451L610.108 106.569C609.984 107.959 610.706 108.598 612.157 108.397L618.373 107.537C619.72 107.35 620.345 106.525 620.47 105.135L623.75 44.911C623.878 42.7814 623.878 42.7814 625.95 42.4946L632.167 41.6341C633.514 41.4477 634.243 40.6076 634.367 39.2176L634.733 33.4646C634.828 31.8674 634.342 31.4067 632.788 31.6218L605.848 35.3504C604.501 35.5369 603.772 36.3769 603.648 37.7669L603.283 43.5199ZM637.574 102.767C637.45 104.157 638.172 104.797 639.623 104.596L653.093 102.732C663.765 101.254 668.882 94.7382 669.704 79.3124L670.342 68.6641C671.164 53.2383 666.645 48.0558 655.973 49.5329L652.864 49.9631C650.792 50.2499 650.792 50.2499 650.92 48.1203L651.837 31.0973C651.933 29.5 651.447 29.0393 649.893 29.2544L643.676 30.1149C642.329 30.3013 641.6 31.1413 641.476 32.5314L637.574 102.767ZM650.179 61.8452C650.203 59.7298 650.203 59.7298 652.276 59.443L655.384 59.0128C657.664 58.6973 659.065 59.665 659.677 61.7979C660.289 63.9308 660.426 66.4462 660.059 69.137L659.368 81.6934C659.237 84.5627 659.159 85.524 658.631 87.8146C658.478 88.9974 658.178 89.8837 657.732 90.4735C657.061 91.728 655.546 92.9936 653.578 93.266L650.469 93.6963C648.397 93.9831 648.397 93.9831 648.525 91.8534L650.179 61.8452Z" fill="#E30B17"/>
</g>
<mask id="mask2" mask-type="alpha" maskUnits="userSpaceOnUse" x="5" y="0" width="315" height="183">
<path d="M5 0.916016L320 0.916016L5 182.416V0.916016Z" fill="#C4C4C4"/>
</mask>
<g mask="url(#mask2)">
<path d="M100.859 142.16C100.734 143.55 101.456 144.19 102.907 143.989L109.124 143.128C110.471 142.942 111.096 142.116 111.22 140.726L115.121 70.4902C115.217 68.8929 114.731 68.4322 113.177 68.6473L106.96 69.5078C105.613 69.6942 104.884 70.5342 104.76 71.9243L103.286 97.8947C103.158 100.024 103.158 100.024 101.086 100.311L94.8687 101.172C92.7964 101.459 92.7964 101.459 92.9241 99.3288L94.3984 73.3584C94.4942 71.7611 94.008 71.3004 92.4538 71.5155L86.2368 72.376C84.8898 72.5624 84.1613 73.4024 84.0369 74.7925L80.1355 145.029C80.0111 146.419 80.7332 147.058 82.1838 146.857L88.4007 145.997C89.7477 145.81 90.3727 144.984 90.4971 143.594L92.1518 113.586C92.2794 111.456 92.2794 111.456 94.3517 111.17L100.569 110.309C102.641 110.022 102.641 110.022 102.513 112.152L100.859 142.16ZM145.533 138.089C146.88 137.903 147.505 137.077 147.63 135.687L147.995 129.934C148.091 128.337 147.604 127.876 146.05 128.091L134.549 129.683C132.477 129.97 132.477 129.97 132.604 127.84L133.638 107.844C133.766 105.715 133.766 105.715 135.838 105.428L147.34 103.836C148.687 103.649 149.415 102.809 149.54 101.419L149.801 95.6807C149.897 94.0835 149.411 93.6228 147.857 93.8379L136.355 95.4297C134.283 95.7165 134.283 95.7165 134.411 93.5869L135.264 77.6287C135.392 75.499 135.392 75.499 137.464 75.2122L148.966 73.6204C150.313 73.4339 151.041 72.5939 151.166 71.2039L151.531 65.4509C151.627 63.8536 151.14 63.3929 149.586 63.608L127.723 66.634C126.376 66.8204 125.648 67.6604 125.523 69.0505L121.622 139.287C121.498 140.677 122.22 141.316 123.67 141.115L145.533 138.089ZM218.87 56.1307C218.966 54.5335 218.48 54.0728 216.926 54.2879L194.234 57.4285C192.887 57.615 192.158 58.455 192.034 59.845C191.534 69.207 190.321 79.5126 188.275 90.6725C186.229 101.832 184.643 109.444 183.619 113.493C182.595 117.542 181.679 120.837 180.958 123.26L176.917 123.819C175.57 124.005 174.842 124.845 174.717 126.235L173.927 141.129C173.832 142.726 174.318 143.187 175.872 142.972L182.089 142.111C183.436 141.925 184.164 141.085 184.289 139.695L184.594 134.267C184.657 133.202 185.207 132.598 186.244 132.455L212.873 128.769C214.945 128.482 214.945 128.482 214.817 130.612L214.53 135.404C214.434 137.001 214.921 137.462 216.475 137.246L222.692 136.386C224.039 136.2 224.767 135.359 224.892 133.969L225.696 119.18C225.792 117.582 225.305 117.122 223.751 117.337L217.534 118.197C215.462 118.484 215.462 118.484 215.59 116.354L218.87 56.1307ZM201.289 67.9625C201.352 66.8977 201.902 66.2936 202.939 66.1502L206.462 65.6626C207.498 65.5192 207.984 65.9799 207.92 67.0447L205.228 117.789C205.1 119.918 205.1 119.918 203.028 120.205L191.423 121.811L193.41 114.039C194.705 108.896 196.259 101.817 197.866 92.8298C199.474 83.8426 200.649 75.5487 201.289 67.9625ZM264.728 121.592C266.075 121.405 266.714 120.683 266.557 119.544L257.331 50.5964C257.116 49.0422 256.865 48.76 255.207 48.9895L249.612 49.7639C247.954 49.9933 247.687 50.3472 247.176 52.0018L230.291 124.563C229.706 126.439 231.157 126.238 231.986 126.124L238.203 125.263C239.653 125.062 240.275 124.976 240.474 123.365L241.772 117.483C242.314 115.296 242.314 115.296 244.283 115.023L253.505 113.747C255.473 113.474 255.37 113.489 255.656 115.561L256.224 121.185C256.439 122.739 257.268 122.624 258.511 122.452L264.728 121.592ZM250.457 76.4694C250.532 76.2478 250.621 76.1298 250.711 76.0119C251.007 75.8652 251.243 76.0438 251.286 76.3546L254.149 101.619C254.332 103.706 254.332 103.706 252.26 103.993L246.458 104.796C244.385 105.083 244.385 105.083 244.824 102.91L250.457 76.4694ZM281.732 119.238C282.768 119.095 283.436 118.58 283.84 117.679L299.628 76.1054C299.942 75.3228 300.489 75.4583 300.457 75.9907L298.335 114.828C298.21 116.219 298.932 116.858 300.383 116.657L306.6 115.797C307.947 115.61 308.572 114.784 308.696 113.394L312.598 43.1583C312.693 41.5611 312.207 41.1004 310.653 41.3155L305.99 41.9608C304.85 42.1186 304.183 42.6334 303.794 43.6377L288.005 85.2117C287.662 85.7872 287.144 85.8589 287.176 85.3265L289.284 46.3851C289.38 44.7878 288.894 44.3271 287.339 44.5422L281.123 45.4027C279.776 45.5891 279.047 46.4291 278.923 47.8192L275.021 118.055C274.897 119.445 275.619 120.084 277.07 119.884L281.732 119.238ZM292.056 28.2606C292.169 26.0274 291.562 26.217 290.111 26.4178L287.313 26.805C285.241 27.0918 285.241 27.0918 285.217 29.2071C285.269 34.1631 287 37.5139 290.514 39.2453C294.012 40.873 297.653 40.4747 301.554 38.1396C305.841 35.5399 308.226 31.4082 308.841 25.9374C309.073 23.7934 309.073 23.7934 307 24.0802L304.203 24.4674C302.545 24.6969 302.248 24.8435 302.003 26.8839C301.85 28.0667 301.475 29.1746 300.879 30.2075C299.522 32.6129 297.757 33.5963 295.599 33.2614C293.323 32.8373 292.146 31.2049 292.056 28.2606Z" fill="white"/>
<path d="M321.432 87.3032C321.869 82.0683 324.648 79.2549 328.067 78.7817C331.694 78.2798 334.318 80.451 333.866 85.5823L333.863 86.322C333.767 87.9192 334.253 88.3799 335.808 88.1648L341.921 87.3187C343.475 87.1036 344.279 86.042 344.139 84.2662C343.879 72.4748 337.42 67.772 328.613 68.9909C319.081 70.3103 311.666 77.7781 310.926 91.503L309.102 126.392C308.361 140.117 315.039 145.635 324.571 144.315C333.379 143.096 340.39 136.529 341.995 124.48C342.27 122.646 341.623 121.786 340.068 122.001L333.955 122.847C332.608 123.033 331.88 123.873 331.755 125.263L331.752 126.003C331.315 131.238 328.536 134.051 325.117 134.525C321.49 135.026 318.867 132.855 319.318 127.724L321.432 87.3032ZM372.336 137.282C373.683 137.096 374.307 136.27 374.432 134.88L374.797 129.127C374.893 127.53 374.407 127.069 372.853 127.284L361.351 128.876C359.279 129.163 359.279 129.163 359.407 127.033L360.441 107.037C360.568 104.907 360.568 104.907 362.641 104.621L374.142 103.029C375.489 102.842 376.217 102.002 376.342 100.612L376.604 94.8736C376.699 93.2764 376.213 92.8157 374.659 93.0308L363.158 94.6226C361.085 94.9095 361.085 94.9095 361.213 92.7798L362.067 76.8216C362.194 74.6919 362.194 74.6919 364.267 74.4051L375.768 72.8133C377.115 72.6268 377.843 71.7868 377.968 70.3968L378.333 64.6438C378.429 63.0466 377.943 62.5858 376.389 62.801L354.526 65.8269C353.179 66.0133 352.45 66.8534 352.326 68.2434L348.424 138.479C348.3 139.869 349.022 140.509 350.473 140.308L372.336 137.282ZM384.245 133.522C384.12 134.912 384.842 135.551 386.293 135.35L399.763 133.486C410.435 132.009 415.553 125.493 416.374 110.067L417.013 99.4184C417.834 83.9927 413.315 78.8101 402.643 80.2872L399.535 80.7174C397.462 81.0043 397.462 81.0043 397.59 78.8746L397.887 71.8639C398.014 69.7342 398.014 69.7342 400.087 69.4474L414.593 67.4397C415.94 67.2532 416.668 66.4132 416.793 65.0232L417.158 59.2702C417.254 57.673 416.768 57.2122 415.214 57.4274L390.346 60.8692C388.999 61.0556 388.27 61.8957 388.146 63.2857L384.245 133.522ZM396.849 92.5995C396.874 90.4842 396.874 90.4842 398.946 90.1973L402.054 89.7671C404.334 89.4516 405.735 90.4193 406.347 92.5522C406.959 94.6851 407.096 97.2005 406.729 99.8913L406.038 112.448C405.907 115.317 405.829 116.278 405.301 118.569C405.148 119.752 404.849 120.638 404.402 121.228C403.731 122.482 402.217 123.748 400.248 124.02L397.139 124.451C395.067 124.737 395.067 124.737 395.195 122.608L396.849 92.5995ZM443.879 53.46C434.45 54.765 427.91 61.6893 427.17 75.4142L427.007 78.8159C426.586 87.2166 428.396 92.6684 432.453 95.275L424.5 127.845C423.976 129.396 424.387 130.078 425.63 129.906L432.158 129.002C433.609 128.801 434.23 128.715 434.43 127.104L441.348 97.7399C441.469 97.0895 441.841 96.7213 442.566 96.6209L444.535 96.3484C446.607 96.0616 446.607 96.0616 446.583 98.1769L445.03 125.109C444.906 126.499 445.628 127.138 447.079 126.937L453.295 126.077C454.642 125.89 455.267 125.065 455.392 123.675L459.293 53.4385C459.389 51.8412 458.903 51.3805 457.348 51.5956L443.879 53.46ZM446.384 62.406C448.456 62.1192 448.456 62.1192 448.432 64.2345L447.234 84.57C447.21 86.6853 447.21 86.6853 445.138 86.9721L442.029 87.4024C438.506 87.89 436.919 85.5753 437.177 80.5763L437.677 71.2144C438.024 66.0974 439.856 63.3095 443.275 62.8362L446.384 62.406ZM491.978 118.822C491.632 120.137 492.236 120.687 493.583 120.501L499.178 119.726C500.836 119.497 501.104 119.143 501.614 117.488L520.779 44.6117C520.95 42.7929 520.535 42.8502 519.188 43.0367L512.971 43.8971C511.521 44.0979 511.003 44.1696 510.596 45.8099L502.498 81.1452C502.423 81.3667 502.334 81.4847 502.244 81.6026C501.948 81.7493 501.712 81.5707 501.669 81.2599L497.333 47.6455C497.118 46.0913 496.496 46.1773 495.149 46.3638L488.933 47.2242C487.482 47.425 486.843 48.1471 487 49.2868L496.069 103.366L491.978 118.822ZM523.983 114.181C523.859 115.571 524.581 116.21 526.032 116.01L539.502 114.145C550.174 112.668 555.291 106.152 556.113 90.7261L556.751 80.0778C557.573 64.652 553.054 59.4694 542.382 60.9466L539.274 61.3768C537.201 61.6636 537.201 61.6636 537.329 59.5339L537.626 52.5232C537.753 50.3936 537.753 50.3936 539.826 50.1067L554.332 48.099C555.679 47.9126 556.407 47.0725 556.532 45.6825L556.897 39.9295C556.993 38.3323 556.507 37.8716 554.952 38.0867L530.085 41.5285C528.738 41.715 528.009 42.555 527.885 43.945L523.983 114.181ZM536.588 73.2588C536.612 71.1435 536.612 71.1435 538.685 70.8567L541.793 70.4264C544.073 70.1109 545.474 71.0786 546.086 73.2115C546.698 75.3444 546.835 77.8599 546.468 80.5506L545.777 93.1071C545.646 95.9764 545.568 96.9376 545.04 99.2283C544.887 100.411 544.588 101.297 544.141 101.887C543.47 103.142 541.956 104.407 539.987 104.68L536.878 105.11C534.806 105.397 534.806 105.397 534.934 103.267L536.588 73.2588ZM571.068 109.776C572.104 109.633 572.772 109.118 573.175 108.217L588.964 66.6434C589.278 65.8607 589.825 65.9962 589.793 66.5287L587.67 105.366C587.546 106.756 588.268 107.396 589.719 107.195L595.936 106.334C597.283 106.148 597.908 105.322 598.032 103.932L601.933 33.6963C602.029 32.099 601.543 31.6383 599.989 31.8534L595.326 32.4988C594.186 32.6565 593.518 33.1714 593.129 34.1756L577.341 75.7497C576.998 76.3251 576.48 76.3968 576.512 75.8644L578.62 36.923C578.716 35.3257 578.229 34.865 576.675 35.0801L570.458 35.9406C569.111 36.127 568.383 36.9671 568.258 38.3571L564.357 108.593C564.233 109.983 564.955 110.622 566.405 110.422L571.068 109.776ZM608.283 38.5199C608.187 40.1171 608.673 40.5779 610.227 40.3627L616.548 39.4879C618.517 39.2155 618.517 39.2155 618.389 41.3451L615.108 101.569C614.984 102.959 615.706 103.598 617.157 103.397L623.373 102.537C624.72 102.35 625.345 101.525 625.47 100.135L628.75 39.911C628.878 37.7814 628.878 37.7814 630.95 37.4946L637.167 36.6341C638.514 36.4477 639.243 35.6076 639.367 34.2176L639.733 28.4646C639.828 26.8674 639.342 26.4067 637.788 26.6218L610.848 30.3504C609.501 30.5369 608.772 31.3769 608.648 32.7669L608.283 38.5199ZM642.574 97.7674C642.45 99.1574 643.172 99.7967 644.623 99.5959L658.093 97.7316C668.765 96.2545 673.882 89.7382 674.704 74.3124L675.342 63.6641C676.164 48.2383 671.645 43.0558 660.973 44.5329L657.864 44.9631C655.792 45.2499 655.792 45.2499 655.92 43.1203L656.837 26.0973C656.933 24.5 656.447 24.0393 654.893 24.2544L648.676 25.1149C647.329 25.3013 646.6 26.1413 646.476 27.5314L642.574 97.7674ZM655.179 56.8452C655.203 54.7298 655.203 54.7298 657.276 54.443L660.384 54.0128C662.664 53.6973 664.065 54.665 664.677 56.7979C665.289 58.9308 665.426 61.4462 665.059 64.137L664.368 76.6934C664.237 79.5627 664.159 80.524 663.631 82.8146C663.478 83.9974 663.178 84.8837 662.732 85.4735C662.061 86.728 660.546 87.9936 658.578 88.266L655.469 88.6963C653.397 88.9831 653.397 88.9831 653.525 86.8534L655.179 56.8452Z" fill="#E30B17"/>
</g>
</svg>
