<svg width="40" height="40" viewBox="0 0 40 40" fill="none" xmlns="http://www.w3.org/2000/svg">
<g opacity="0.5">
<path fill-rule="evenodd" clip-rule="evenodd" d="M19.9998 1L38.1738 6.78261L34.2878 32.3913L19.9998 39L6.20088 32.3913L1.82593 6.78261L19.9998 1Z" stroke="#E30B17" stroke-width="1.8" stroke-linecap="round" stroke-linejoin="round"/>
<path d="M24.782 12.1304V16.913L19.9994 19.7825L15.2168 16.913V12.1304" stroke="#E30B17" stroke-width="1.8" stroke-linecap="round" stroke-linejoin="round"/>
<path fill-rule="evenodd" clip-rule="evenodd" d="M24.782 12.1304L19.9994 15L15.2168 12.1304L19.9994 9.26086L24.782 12.1304Z" stroke="#E30B17" stroke-width="1.8" stroke-linecap="round" stroke-linejoin="round"/>
<path d="M19.9995 15V19.7826" stroke="#E30B17" stroke-width="1.8" stroke-linecap="round" stroke-linejoin="round"/>
<path d="M29.5647 19.7826V24.5652L24.7821 27.4348L19.9995 24.5652V19.7826" stroke="#E30B17" stroke-width="1.8" stroke-linecap="round" stroke-linejoin="round"/>
<path fill-rule="evenodd" clip-rule="evenodd" d="M29.5647 19.7825L24.7821 22.6521L19.9995 19.7825L24.7821 16.913L29.5647 19.7825Z" stroke="#E30B17" stroke-width="1.8" stroke-linecap="round" stroke-linejoin="round"/>
<path d="M24.7822 22.6522V27.4348" stroke="#E30B17" stroke-width="1.8" stroke-linecap="round" stroke-linejoin="round"/>
<path d="M19.9995 19.7826V24.5652L15.2169 27.4348L10.4343 24.5652V19.7826" stroke="#E30B17" stroke-width="1.8" stroke-linecap="round" stroke-linejoin="round"/>
<path fill-rule="evenodd" clip-rule="evenodd" d="M19.9995 19.7825L15.2169 22.6521L10.4343 19.7825L15.2169 16.913L19.9995 19.7825Z" stroke="#E30B17" stroke-width="1.8" stroke-linecap="round" stroke-linejoin="round"/>
<path d="M15.2168 22.6522V27.4348" stroke="#E30B17" stroke-width="1.8" stroke-linecap="round" stroke-linejoin="round"/>
</g>
</svg>
