<svg width="42" height="41" viewBox="0 0 42 41" fill="none" xmlns="http://www.w3.org/2000/svg">
<g opacity="0.5">
<path fill-rule="evenodd" clip-rule="evenodd" d="M1 34.395L3.47826 39.3515H31.3356L34.0435 34.1538L20.8261 17.8733V4.65588H14.2174V17.8733L1 34.395Z" stroke="#E30B17" stroke-width="1.8" stroke-linecap="round" stroke-linejoin="round"/>
<path fill-rule="evenodd" clip-rule="evenodd" d="M24.1305 3.00374L22.4783 4.65591H12.5653L10.9131 3.00374L12.5653 1.35156H22.4783L24.1305 3.00374Z" stroke="#E30B17" stroke-width="1.8" stroke-linecap="round" stroke-linejoin="round"/>
<path d="M20.8261 7.96021H17.5217" stroke="#E30B17" stroke-width="1.8" stroke-linecap="round" stroke-linejoin="round"/>
<path d="M20.8261 14.569H17.5217" stroke="#E30B17" stroke-width="1.8" stroke-linecap="round" stroke-linejoin="round"/>
<path d="M20.8261 11.2646H17.5217" stroke="#E30B17" stroke-width="1.8" stroke-linecap="round" stroke-linejoin="round"/>
<path fill-rule="evenodd" clip-rule="evenodd" d="M37.6683 26.8763L40.1923 24.3258L38.6345 21.8697L35.0211 22.7861L32.6777 21.5299L31.6106 18H28.5817L27.5146 21.5299L25.1712 22.7861L21.5578 21.8697L20 24.3258L22.524 26.8763V30.1227L20 32.6742L21.5578 35.1293L25.1712 34.2139L27.5146 35.4691L28.5817 39H31.6106L32.6777 35.4691L35.0211 34.2139L38.6345 35.1293L40.1923 32.6742L37.6683 30.1227V26.8763Z" fill="white" stroke="#E30B17" stroke-width="1.8" stroke-linecap="round" stroke-linejoin="round"/>
<path fill-rule="evenodd" clip-rule="evenodd" d="M32.9231 29.7923L30.0962 31.7308L27.2693 29.7923V27.2077L30.0962 25.2692L32.9231 27.2077V29.7923Z" stroke="#E30B17" stroke-width="1.8" stroke-linecap="round" stroke-linejoin="round"/>
</g>
</svg>
