<svg width="39" height="39" viewBox="0 0 39 39" fill="none" xmlns="http://www.w3.org/2000/svg">
<g opacity="0.5">
<path d="M14.4546 19.5V38" stroke="#E30B17" stroke-width="1.8" stroke-linecap="round" stroke-linejoin="round"/>
<path d="M12.7727 11.6165L1 15.2963" stroke="#E30B17" stroke-width="1.8" stroke-linecap="round" stroke-linejoin="round"/>
<path d="M16.4105 18.889L14.4545 19.4995L1 15.2949V33.7949L14.4545 37.9995L27.9091 33.7949" stroke="#E30B17" stroke-width="1.8" stroke-linecap="round" stroke-linejoin="round"/>
<path fill-rule="evenodd" clip-rule="evenodd" d="M32.9544 15.2954L24.5453 17.8182L16.1362 15.2954V3.52271L24.5453 6.04543L32.9544 3.52271V15.2954Z" stroke="#E30B17" stroke-width="1.8" stroke-linecap="round" stroke-linejoin="round"/>
<path d="M32.9544 3.52273L24.5453 1L16.1362 3.52273" stroke="#E30B17" stroke-width="1.8" stroke-linecap="round" stroke-linejoin="round"/>
<path d="M24.5454 6.04553V17.8183" stroke="#E30B17" stroke-width="1.8" stroke-linecap="round" stroke-linejoin="round"/>
<path fill-rule="evenodd" clip-rule="evenodd" d="M38 28.7499L31.2727 31.2727L24.5454 28.7499V21.1818L31.2727 23.7045L38 21.1818V28.7499Z" stroke="#E30B17" stroke-width="1.8" stroke-linecap="round" stroke-linejoin="round"/>
<path d="M38 21.1818L31.2727 18.6591L24.5454 21.1818" stroke="#E30B17" stroke-width="1.8" stroke-linecap="round" stroke-linejoin="round"/>
<path d="M31.2729 23.7045V31.2726" stroke="#E30B17" stroke-width="1.8" stroke-linecap="round" stroke-linejoin="round"/>
</g>
</svg>
