<svg width="309" height="294" viewBox="0 0 309 294" fill="none" xmlns="http://www.w3.org/2000/svg">
<path d="M165.3 229.68C165.3 229.92 165.38 230 165.62 230H166.324C166.564 230 166.644 229.92 166.644 229.68V220.368C166.644 220.048 166.644 220.048 166.964 220.048H168.74C168.98 220.048 169.06 219.968 169.06 219.728V219.12C169.06 218.88 168.98 218.8 168.74 218.8H165.62C165.38 218.8 165.3 218.88 165.3 219.12V229.68ZM174.341 230C174.597 230 174.709 229.888 174.661 229.68C174.581 229.376 174.549 229.12 174.533 228.896V224.4C174.533 223.664 174.309 223.072 173.845 222.624C173.381 222.16 172.837 221.936 172.213 221.936C171.557 221.936 171.013 222.176 170.565 222.656C170.117 223.12 169.909 223.696 169.925 224.352C169.941 224.592 170.005 224.672 170.245 224.672H170.853C171.109 224.672 171.173 224.592 171.173 224.336C171.173 223.632 171.637 223.184 172.197 223.184C172.789 223.184 173.173 223.648 173.157 224.144C173.125 225.12 171.877 225.232 170.917 225.632C170.261 225.888 169.733 226.56 169.733 227.648V227.936C169.733 229.296 170.565 230.064 171.765 230.064C172.357 230.064 172.869 229.872 173.301 229.488C173.349 229.92 173.413 230 173.653 230H174.341ZM172.133 228.816C171.189 228.8 171.045 228.08 171.077 227.776C171.077 227.312 171.109 227.056 171.413 226.8C171.573 226.672 171.701 226.576 171.797 226.528C171.893 226.48 172.101 226.384 172.421 226.24C172.757 226.096 173.013 225.984 173.189 225.904V227.504C173.189 228.352 172.837 228.784 172.133 228.816ZM178.258 226.304C178.258 226.544 178.338 226.624 178.578 226.624C179.042 226.624 179.378 227.248 179.298 227.888C179.234 228.416 178.77 228.816 178.274 228.816C177.714 228.816 177.25 228.4 177.234 227.744C177.218 227.44 177.17 227.328 176.914 227.328H176.274C176.034 227.328 175.97 227.408 175.954 227.648C175.922 228.208 176.114 228.752 176.514 229.28C176.914 229.808 177.506 230.064 178.274 230.064C179.01 230.064 179.586 229.808 180.002 229.312C180.418 228.8 180.626 228.24 180.626 227.648C180.626 227.024 180.418 226.48 179.986 226C180.418 225.52 180.626 224.976 180.626 224.352C180.626 223.76 180.418 223.2 180.002 222.704C179.586 222.192 179.01 221.936 178.274 221.936C177.506 221.936 176.914 222.208 176.514 222.736C176.114 223.264 175.922 223.792 175.954 224.352C175.97 224.592 176.034 224.672 176.274 224.672H176.914C177.17 224.672 177.218 224.56 177.234 224.256C177.25 223.6 177.714 223.184 178.274 223.184C178.77 223.184 179.234 223.584 179.298 224.112C179.378 224.752 179.042 225.376 178.578 225.376C178.338 225.376 178.258 225.456 178.258 225.696V226.304ZM182.803 230C182.947 230 183.059 229.936 183.123 229.808L185.427 225.424C185.475 225.344 185.555 225.36 185.555 225.44V229.68C185.555 229.92 185.635 230 185.875 230H186.579C186.819 230 186.899 229.92 186.899 229.68V222.32C186.899 222.08 186.819 222 186.579 222H186.115C185.923 222 185.907 222.016 185.795 222.208L183.491 226.56C183.443 226.64 183.363 226.656 183.363 226.544V222.32C183.363 222.08 183.283 222 183.043 222H182.339C182.099 222 182.019 222.08 182.019 222.32V229.68C182.019 229.92 182.099 230 182.339 230H182.803ZM189.847 224.4C189.799 222.752 191.879 222.752 191.831 224.4V227.6C191.879 229.248 189.799 229.248 189.847 227.6V224.4ZM188.823 222C188.583 222 188.503 222.08 188.503 222.32V232.56C188.503 232.8 188.583 232.88 188.823 232.88H189.527C189.767 232.88 189.847 232.8 189.847 232.56V229.456C190.135 229.824 190.535 230.032 191.031 230.064C192.311 230.112 193.175 229.216 193.175 227.344V224.656C193.175 222.784 192.311 221.888 191.031 221.936C190.519 221.968 190.119 222.16 189.847 222.528V222.32C189.847 222.08 189.767 222 189.527 222H188.823ZM199.253 224.88C199.253 223.872 199.013 223.12 198.549 222.656C198.085 222.176 197.509 221.936 196.853 221.936C196.197 221.936 195.621 222.176 195.157 222.656C194.693 223.12 194.453 223.872 194.453 224.88V227.12C194.453 228.128 194.693 228.88 195.157 229.36C195.621 229.824 196.197 230.064 196.853 230.064C197.509 230.064 198.085 229.824 198.549 229.36C199.013 228.88 199.253 228.128 199.253 227.12V224.88ZM197.909 227.504C197.941 229.28 195.765 229.28 195.797 227.504V224.496C195.765 222.72 197.941 222.72 197.909 224.496V227.504ZM202.883 230C204.371 230 205.187 228.976 205.187 227.584C205.187 226.944 205.027 226.416 204.707 226C205.027 225.584 205.187 225.056 205.187 224.416C205.187 223.024 204.371 222 202.883 222H201.011C200.771 222 200.691 222.08 200.691 222.32V229.68C200.691 229.92 200.771 230 201.011 230H202.883ZM202.035 226.592C202.035 226.432 202.115 226.432 202.355 226.432H202.659C203.443 226.432 203.843 226.816 203.843 227.584C203.843 228.368 203.443 228.752 202.659 228.752H202.355C202.035 228.752 202.035 228.752 202.035 228.432V226.592ZM202.659 223.248C203.443 223.248 203.843 223.632 203.843 224.416C203.843 225.184 203.443 225.568 202.659 225.568H202.355C202.035 225.568 202.035 225.568 202.035 225.248V223.568C202.035 223.248 202.035 223.248 202.355 223.248H202.659ZM206.628 229.68C206.628 229.92 206.708 230 206.948 230H207.652C207.892 230 207.972 229.92 207.972 229.68V226.768C207.972 226.656 208.068 226.656 208.116 226.736L209.764 229.76C209.892 230 209.908 230 210.116 230H210.948C211.092 230 211.204 229.904 211.092 229.664L209.092 226L211.092 222.336C211.204 222.096 211.092 222 210.948 222H210.116C209.908 222 209.892 222 209.764 222.24L208.116 225.264C208.068 225.344 207.972 225.344 207.972 225.232V222.32C207.972 222.08 207.892 222 207.652 222H206.948C206.708 222 206.628 222.08 206.628 222.32V229.68ZM216.591 230C216.847 230 216.959 229.888 216.911 229.68C216.831 229.376 216.799 229.12 216.783 228.896V224.4C216.783 223.664 216.559 223.072 216.095 222.624C215.631 222.16 215.087 221.936 214.463 221.936C213.807 221.936 213.263 222.176 212.815 222.656C212.367 223.12 212.159 223.696 212.175 224.352C212.191 224.592 212.255 224.672 212.495 224.672H213.103C213.359 224.672 213.423 224.592 213.423 224.336C213.423 223.632 213.887 223.184 214.447 223.184C215.039 223.184 215.423 223.648 215.407 224.144C215.375 225.12 214.127 225.232 213.167 225.632C212.511 225.888 211.983 226.56 211.983 227.648V227.936C211.983 229.296 212.815 230.064 214.015 230.064C214.607 230.064 215.119 229.872 215.551 229.488C215.599 229.92 215.663 230 215.903 230H216.591ZM214.383 228.816C213.439 228.8 213.295 228.08 213.327 227.776C213.327 227.312 213.359 227.056 213.663 226.8C213.823 226.672 213.951 226.576 214.047 226.528C214.143 226.48 214.351 226.384 214.671 226.24C215.007 226.096 215.263 225.984 215.439 225.904V227.504C215.439 228.352 215.087 228.784 214.383 228.816Z" fill="#151524"/>
<rect x="166.5" y="132.5" width="49" height="66" fill="#C2F0FF" stroke="#1F3554"/>
<path d="M177.209 145.58C177.069 145.88 177.189 146 177.429 146H178.689C178.829 146 178.889 146.06 178.889 146.2V155.6C178.889 155.9 178.989 156 179.289 156H180.489C180.789 156 180.889 155.9 180.889 155.6V142.4C180.889 142.1 180.789 142 180.489 142H179.249C179.089 142 178.969 142.06 178.909 142.2L177.209 145.58ZM189.034 145.72C189.034 143.14 187.674 141.92 185.834 141.92C183.994 141.92 182.634 143.14 182.634 145.72V152.28C182.634 154.86 183.994 156.08 185.834 156.08C187.674 156.08 189.034 154.86 189.034 152.28V145.72ZM187.034 152.8C187.154 154.72 184.514 154.72 184.634 152.8V145.2C184.514 143.28 187.154 143.28 187.034 145.2V152.8ZM194.436 155.6C194.436 155.9 194.536 156 194.836 156H196.036C196.336 156 196.436 155.9 196.436 155.6V148.28C196.436 147.88 196.436 147.88 196.836 147.88H198.336C198.636 147.88 198.736 147.78 198.736 147.48V146.4C198.736 146.1 198.636 146 198.336 146H194.836C194.536 146 194.436 146.1 194.436 146.4V155.6ZM201.742 149.28C201.742 148.26 202.102 147.76 202.822 147.76C203.542 147.76 203.902 148.26 203.902 149.28V152.72C203.902 153.74 203.542 154.24 202.822 154.24C202.102 154.24 201.742 153.74 201.742 152.72V149.28ZM200.142 146C199.882 146 199.742 146.14 199.742 146.4V159.2C199.742 159.5 199.842 159.6 200.142 159.6H201.342C201.642 159.6 201.742 159.5 201.742 159.2V155.32C202.102 155.78 202.602 156.04 203.222 156.08C204.822 156.14 205.902 155.02 205.902 152.68V149.32C205.902 146.98 204.822 145.86 203.222 145.92C202.582 145.96 202.082 146.2 201.742 146.66V146.4C201.742 146.1 201.642 146 201.342 146H200.142Z" fill="#151524"/>
<path d="M194.932 85.8401L201.478 107.608L198.152 123.266L201.478 132H181.521L184.848 123.266L181.521 107.608L188.067 85.8401" stroke="#151524" stroke-linecap="round" stroke-linejoin="round"/>
<path d="M184.856 96.5222H198.143" stroke="#151524" stroke-linecap="round" stroke-linejoin="round"/>
<path fill-rule="evenodd" clip-rule="evenodd" d="M197.043 86.5438L193.717 85.4351L191.5 86.5438L189.282 85.4351L185.956 86.5438V81.0002H197.043V86.5438Z" stroke="#151524" stroke-linecap="round" stroke-linejoin="round"/>
<path fill-rule="evenodd" clip-rule="evenodd" d="M189.282 104.283C189.125 104.283 188.965 104.343 188.846 104.463L187.245 106.064C187.005 106.303 187.005 106.698 187.245 106.937L188.846 108.538C188.965 108.658 189.125 108.718 189.282 108.718C189.44 108.718 189.599 108.658 189.719 108.538L191.32 106.937C191.56 106.698 191.56 106.303 191.32 106.064L189.719 104.463C189.599 104.343 189.44 104.283 189.282 104.283ZM190.413 106.032H190.424H190.413Z" fill="#151524"/>
<path fill-rule="evenodd" clip-rule="evenodd" d="M195.935 108.718C195.777 108.718 195.618 108.778 195.498 108.898L193.897 110.499C193.657 110.738 193.657 111.133 193.897 111.372L195.498 112.973C195.618 113.093 195.777 113.153 195.935 113.153C196.092 113.153 196.252 113.093 196.372 112.973L197.972 111.372C198.212 111.133 198.212 110.738 197.972 110.499L196.372 108.898C196.252 108.778 196.092 108.718 195.935 108.718ZM197.065 110.467H197.076H197.065Z" fill="#151524"/>
<path fill-rule="evenodd" clip-rule="evenodd" d="M189.282 115.37C189.125 115.37 188.965 115.43 188.846 115.55L187.245 117.151C187.005 117.39 187.005 117.785 187.245 118.024L188.846 119.625C188.965 119.745 189.125 119.805 189.282 119.805C189.44 119.805 189.599 119.745 189.719 119.625L191.32 118.024C191.56 117.785 191.56 117.39 191.32 117.151L189.719 115.55C189.599 115.43 189.44 115.37 189.282 115.37ZM190.413 117.12H190.424H190.413Z" fill="#151524"/>
<path d="M102.916 221.776C102.916 219.712 101.828 218.736 100.356 218.736C98.8843 218.736 97.7963 219.712 97.7963 221.776V227.024C97.7963 229.088 98.8843 230.064 100.356 230.064C101.828 230.064 102.916 229.088 102.916 227.024V221.776ZM99.1403 221.712C99.1403 220.56 99.5403 219.984 100.356 219.984C101.172 219.984 101.572 220.56 101.572 221.712V227.088C101.572 228.24 101.172 228.816 100.356 228.816C99.5403 228.816 99.1403 228.24 99.1403 227.088V221.712ZM105.547 222.384C105.547 221.504 105.835 221.2 106.795 221.12C107.819 221.04 108.507 220.544 108.619 219.12C108.635 218.912 108.523 218.8 108.299 218.8H107.771C107.531 218.8 107.499 218.864 107.451 219.12C107.387 219.68 107.115 219.92 106.907 219.968C106.811 219.984 106.635 220.016 106.379 220.032C104.923 220.144 104.203 221.024 104.203 222.64V227.12C104.203 228.128 104.443 228.88 104.907 229.36C105.371 229.824 105.947 230.064 106.603 230.064C107.259 230.064 107.835 229.824 108.299 229.36C108.763 228.88 109.003 228.128 109.003 227.12V224.656C109.003 222.848 108.155 221.888 106.939 221.936C106.411 221.952 105.947 222.16 105.547 222.56V222.384ZM107.659 227.504C107.691 229.28 105.515 229.28 105.547 227.504V224.496C105.515 222.72 107.691 222.72 107.659 224.496V227.504ZM116.809 230C116.969 230 117.129 230 117.129 229.68V222.32C117.129 222.08 117.049 222 116.809 222H116.105C115.865 222 115.785 222.08 115.785 222.32V229.68C115.785 230 115.945 230 116.105 230H116.809ZM111.785 222.32C111.785 222.08 111.705 222 111.465 222H110.761C110.521 222 110.441 222.08 110.441 222.32V229.68C110.441 229.92 110.521 230 110.761 230H112.633C114.121 230 114.937 228.864 114.937 227.456C114.937 225.968 114.025 224.928 112.633 224.928H112.089C111.785 224.928 111.785 224.928 111.785 224.656V222.32ZM112.105 228.752C111.785 228.752 111.785 228.752 111.785 228.432V226.496C111.785 226.176 111.785 226.176 112.105 226.176H112.409C113.193 226.176 113.593 226.608 113.593 227.456C113.593 228.32 113.193 228.752 112.409 228.752H112.105ZM123.042 222.32C123.042 222.08 122.962 222 122.722 222H122.018C121.778 222 121.698 222.08 121.698 222.32V225.84C121.698 226.176 121.698 226.176 121.378 226.176H120.962C120.146 226.176 119.746 225.6 119.746 224.448V222.32C119.746 222.08 119.666 222 119.426 222H118.722C118.482 222 118.402 222.08 118.402 222.32V224.384C118.402 226.448 119.49 227.424 120.962 227.424H121.378C121.698 227.424 121.698 227.424 121.698 227.744V229.68C121.698 229.888 121.81 230 122.018 230H122.722C122.978 230 123.042 229.92 123.042 229.68V222.32ZM128.964 230C129.204 230 129.284 229.92 129.284 229.68V222.32C129.284 222.08 129.204 222 128.964 222H128.26C128.02 222 127.94 222.08 127.94 222.32V224.96C127.94 225.28 127.94 225.28 127.62 225.28H126.308C125.988 225.28 125.988 225.28 125.988 224.96V222.32C125.988 222.08 125.908 222 125.668 222H124.964C124.724 222 124.644 222.08 124.644 222.32V229.68C124.644 229.92 124.724 230 124.964 230H125.668C125.908 230 125.988 229.92 125.988 229.68V226.848C125.988 226.528 125.988 226.528 126.308 226.528H127.62C127.94 226.528 127.94 226.528 127.94 226.848V229.68C127.94 229.92 128.02 230 128.26 230H128.964ZM137.246 230C137.406 230 137.566 230 137.566 229.68V222.32C137.566 222.08 137.486 222 137.246 222H136.542C136.302 222 136.222 222.08 136.222 222.32V229.68C136.222 230 136.382 230 136.542 230H137.246ZM132.222 222.32C132.222 222.08 132.142 222 131.902 222H131.198C130.958 222 130.878 222.08 130.878 222.32V229.68C130.878 229.92 130.958 230 131.198 230H133.07C134.558 230 135.374 228.864 135.374 227.456C135.374 225.968 134.462 224.928 133.07 224.928H132.526C132.222 224.928 132.222 224.928 132.222 224.656V222.32ZM132.542 228.752C132.222 228.752 132.222 228.752 132.222 228.432V226.496C132.222 226.176 132.222 226.176 132.542 226.176H132.846C133.63 226.176 134.03 226.608 134.03 227.456C134.03 228.32 133.63 228.752 132.846 228.752H132.542ZM139.943 230C140.087 230 140.199 229.936 140.263 229.808L142.567 225.424C142.615 225.344 142.695 225.36 142.695 225.44V229.68C142.695 229.92 142.775 230 143.015 230H143.719C143.959 230 144.039 229.92 144.039 229.68V222.32C144.039 222.08 143.959 222 143.719 222H143.255C143.063 222 143.047 222.016 142.935 222.208L140.631 226.56C140.583 226.64 140.503 226.656 140.503 226.544V222.32C140.503 222.08 140.423 222 140.183 222H139.479C139.239 222 139.159 222.08 139.159 222.32V229.68C139.159 229.92 139.239 230 139.479 230H139.943ZM139.879 219.44C139.895 221.856 143.511 221.856 143.527 219.44C143.559 219.12 143.495 219.12 143.223 219.12H142.919C142.663 219.12 142.615 219.136 142.599 219.392C142.535 220.032 142.231 220.352 141.703 220.352C141.175 220.352 140.871 220.032 140.807 219.392C140.791 219.136 140.743 219.12 140.487 219.12H140.183C139.879 219.12 139.863 219.136 139.879 219.44ZM99.2206 241.056C99.2206 241.376 99.2206 241.376 98.9006 241.376H98.3406C98.1006 241.376 98.0206 241.456 98.0206 241.696V242.304C98.0206 242.544 98.1006 242.624 98.3406 242.624H98.9006C99.2206 242.624 99.2206 242.624 99.2206 242.944V243.552C99.2206 244.368 98.7886 244.816 98.1646 244.816C97.5886 244.816 97.1406 244.4 97.1246 243.744C97.1086 243.44 97.0606 243.328 96.8046 243.328H96.1646C95.9246 243.328 95.8606 243.408 95.8446 243.648C95.8126 244.208 96.0046 244.752 96.4046 245.28C96.8046 245.808 97.3966 246.064 98.1646 246.064C98.8206 246.064 99.3966 245.824 99.8606 245.36C100.325 244.88 100.565 244.128 100.565 243.12V240.88C100.565 239.872 100.325 239.12 99.8606 238.656C99.3966 238.176 98.8206 237.936 98.1646 237.936C97.3966 237.936 96.8046 238.208 96.4046 238.736C96.0046 239.264 95.8126 239.792 95.8446 240.352C95.8606 240.592 95.9246 240.672 96.1646 240.672H96.8046C97.0606 240.672 97.1086 240.56 97.1246 240.256C97.1406 239.6 97.5886 239.184 98.1646 239.184C98.7886 239.184 99.2206 239.632 99.2206 240.448V241.056ZM106.276 246C106.516 246 106.596 245.92 106.596 245.68V238.32C106.596 238.08 106.516 238 106.276 238H105.572C105.332 238 105.252 238.08 105.252 238.32V240.96C105.252 241.28 105.252 241.28 104.932 241.28H103.62C103.3 241.28 103.3 241.28 103.3 240.96V238.32C103.3 238.08 103.22 238 102.98 238H102.276C102.036 238 101.956 238.08 101.956 238.32V245.68C101.956 245.92 102.036 246 102.276 246H102.98C103.22 246 103.3 245.92 103.3 245.68V242.848C103.3 242.528 103.3 242.528 103.62 242.528H104.932C105.252 242.528 105.252 242.528 105.252 242.848V245.68C105.252 245.92 105.332 246 105.572 246H106.276ZM108.031 243.12C108.031 244.128 108.271 244.88 108.735 245.36C109.199 245.824 109.775 246.064 110.431 246.064C111.199 246.064 111.791 245.808 112.191 245.28C112.591 244.752 112.783 244.208 112.751 243.648C112.735 243.408 112.671 243.328 112.431 243.328H111.791C111.535 243.328 111.487 243.44 111.471 243.744C111.455 244.4 111.007 244.816 110.431 244.816C109.807 244.816 109.375 244.368 109.375 243.552V242.592C109.375 242.352 109.455 242.272 109.695 242.272H112.495C112.751 242.272 112.831 242.208 112.831 241.952V240.88C112.831 239.872 112.591 239.12 112.127 238.656C111.663 238.176 111.087 237.936 110.431 237.936C109.775 237.936 109.199 238.176 108.735 238.656C108.271 239.12 108.031 239.872 108.031 240.88V243.12ZM111.487 240.768C111.487 241.008 111.407 241.088 111.167 241.088H109.695C109.455 241.088 109.375 241.008 109.375 240.768V240.448C109.247 238.768 111.615 238.768 111.487 240.448V240.768ZM115.613 240.4C115.565 238.752 117.645 238.752 117.597 240.4V243.6C117.645 245.248 115.565 245.248 115.613 243.6V240.4ZM114.589 238C114.349 238 114.269 238.08 114.269 238.32V248.56C114.269 248.8 114.349 248.88 114.589 248.88H115.293C115.533 248.88 115.613 248.8 115.613 248.56V245.456C115.901 245.824 116.301 246.032 116.797 246.064C118.077 246.112 118.941 245.216 118.941 243.344V240.656C118.941 238.784 118.077 237.888 116.797 237.936C116.285 237.968 115.885 238.16 115.613 238.528V238.32C115.613 238.08 115.533 238 115.293 238H114.589ZM120.378 245.68C120.378 245.92 120.458 246 120.698 246H121.402C121.642 246 121.722 245.92 121.722 245.68V239.568C121.722 239.248 121.722 239.248 122.042 239.248H123.37C123.61 239.248 123.69 239.168 123.69 238.928V238.32C123.69 238.08 123.61 238 123.37 238H120.698C120.458 238 120.378 238.08 120.378 238.32V245.68ZM124.421 243.12C124.421 244.128 124.661 244.88 125.125 245.36C125.589 245.824 126.165 246.064 126.821 246.064C127.589 246.064 128.181 245.808 128.581 245.28C128.981 244.752 129.173 244.208 129.141 243.648C129.125 243.408 129.061 243.328 128.821 243.328H128.181C127.925 243.328 127.877 243.44 127.861 243.744C127.845 244.4 127.397 244.816 126.821 244.816C126.197 244.816 125.765 244.368 125.765 243.552V242.592C125.765 242.352 125.845 242.272 126.085 242.272H128.885C129.141 242.272 129.221 242.208 129.221 241.952V240.88C129.221 239.872 128.981 239.12 128.517 238.656C128.053 238.176 127.477 237.936 126.821 237.936C126.165 237.936 125.589 238.176 125.125 238.656C124.661 239.12 124.421 239.872 124.421 240.88V243.12ZM127.877 240.768C127.877 241.008 127.797 241.088 127.557 241.088H126.085C125.845 241.088 125.765 241.008 125.765 240.768V240.448C125.637 238.768 128.005 238.768 127.877 240.448V240.768ZM130.099 238.928C130.099 239.168 130.179 239.248 130.419 239.248H131.363C131.667 239.248 131.667 239.248 131.667 239.568V245.68C131.667 245.92 131.747 246 131.987 246H132.691C132.931 246 133.011 245.92 133.011 245.68V239.568C133.011 239.248 133.011 239.248 133.331 239.248H134.259C134.499 239.248 134.579 239.168 134.579 238.928V238.32C134.579 238.08 134.499 238 134.259 238H130.419C130.179 238 130.099 238.08 130.099 238.32V238.928ZM136.397 246C136.541 246 136.653 245.936 136.717 245.808L139.021 241.424C139.069 241.344 139.149 241.36 139.149 241.44V245.68C139.149 245.92 139.229 246 139.469 246H140.173C140.413 246 140.493 245.92 140.493 245.68V238.32C140.493 238.08 140.413 238 140.173 238H139.709C139.516 238 139.501 238.016 139.389 238.208L137.085 242.56C137.037 242.64 136.957 242.656 136.957 242.544V238.32C136.957 238.08 136.877 238 136.637 238H135.933C135.693 238 135.613 238.08 135.613 238.32V245.68C135.613 245.92 135.693 246 135.933 246H136.397ZM142.097 245.68C142.097 245.92 142.177 246 142.417 246H143.121C143.361 246 143.441 245.92 143.441 245.68V242.768C143.441 242.656 143.537 242.656 143.585 242.736L145.233 245.76C145.361 246 145.377 246 145.585 246H146.417C146.561 246 146.673 245.904 146.561 245.664L144.561 242L146.561 238.336C146.673 238.096 146.561 238 146.417 238H145.585C145.377 238 145.361 238 145.233 238.24L143.585 241.264C143.537 241.344 143.441 241.344 143.441 241.232V238.32C143.441 238.08 143.361 238 143.121 238H142.417C142.177 238 142.097 238.08 142.097 238.32V245.68Z" fill="#151524"/>
<rect x="96.5" y="120.5" width="49" height="78" fill="#C2F0FF" stroke="#1F3554"/>
<path d="M106.92 133.58C106.78 133.88 106.9 134 107.14 134H108.4C108.54 134 108.6 134.06 108.6 134.2V143.6C108.6 143.9 108.7 144 109 144H110.2C110.5 144 110.6 143.9 110.6 143.6V130.4C110.6 130.1 110.5 130 110.2 130H108.96C108.8 130 108.68 130.06 108.62 130.2L106.92 133.58ZM114.345 140.84C114.345 140.54 114.445 140.18 114.625 139.78C114.825 139.36 115.005 139.04 115.185 138.8C115.365 138.54 115.665 138.14 116.105 137.56C116.505 137.02 116.785 136.66 116.925 136.46C117.065 136.24 117.285 135.9 117.565 135.44C118.125 134.5 118.285 133.74 118.265 132.92C118.205 131.98 117.945 131.1 117.005 130.44C116.545 130.1 115.985 129.92 115.325 129.92C114.345 129.92 113.605 130.26 113.105 130.92C112.605 131.58 112.345 132.4 112.345 133.34C112.345 133.64 112.445 133.74 112.745 133.74H113.925C114.225 133.74 114.325 133.64 114.325 133.34C114.325 132.28 114.645 131.76 115.305 131.76C115.985 131.76 116.325 132.22 116.325 133.16C116.325 133.42 116.285 133.7 116.125 134.04C115.965 134.38 115.925 134.52 115.625 134.94C115.485 135.16 115.365 135.3 115.305 135.4C115.245 135.48 115.125 135.64 114.925 135.9C114.745 136.16 114.625 136.32 114.565 136.4C114.505 136.5 114.325 136.72 114.065 137.08C113.805 137.42 113.625 137.66 113.525 137.8C113.425 137.94 113.285 138.16 113.085 138.48C112.685 139.1 112.605 139.42 112.445 140C112.385 140.3 112.345 140.58 112.345 140.86V143.6C112.345 143.9 112.445 144 112.745 144H117.945C118.245 144 118.345 143.9 118.345 143.6V142.52C118.345 142.22 118.245 142.12 117.945 142.12H114.745C114.345 142.12 114.345 142.12 114.345 141.72V140.84ZM123.756 143.6C123.756 143.9 123.856 144 124.156 144H125.356C125.656 144 125.756 143.9 125.756 143.6V136.28C125.756 135.88 125.756 135.88 126.156 135.88H127.656C127.956 135.88 128.056 135.78 128.056 135.48V134.4C128.056 134.1 127.956 134 127.656 134H124.156C123.856 134 123.756 134.1 123.756 134.4V143.6ZM131.062 137.28C131.062 136.26 131.422 135.76 132.142 135.76C132.862 135.76 133.222 136.26 133.222 137.28V140.72C133.222 141.74 132.862 142.24 132.142 142.24C131.422 142.24 131.062 141.74 131.062 140.72V137.28ZM129.462 134C129.202 134 129.062 134.14 129.062 134.4V147.2C129.062 147.5 129.162 147.6 129.462 147.6H130.662C130.962 147.6 131.062 147.5 131.062 147.2V143.32C131.422 143.78 131.922 144.04 132.542 144.08C134.142 144.14 135.222 143.02 135.222 140.68V137.32C135.222 134.98 134.142 133.86 132.542 133.92C131.902 133.96 131.402 134.2 131.062 134.66V134.4C131.062 134.1 130.962 134 130.662 134H129.462Z" fill="#151524"/>
<path fill-rule="evenodd" clip-rule="evenodd" d="M119.34 113.469V105.713H115.032L121.064 96.2344V102.266H125.372L119.34 113.469V113.469Z" stroke="#151524" stroke-linejoin="round"/>
<path fill-rule="evenodd" clip-rule="evenodd" d="M128.819 119.5H113.308L110.723 116.915V93.6492L115.893 88.479H126.234L131.404 93.6492V116.915L128.819 119.5V119.5Z" stroke="#151524" stroke-linecap="round" stroke-linejoin="round"/>
<path d="M113.308 88.479H128.818" stroke="#151524" stroke-linecap="round" stroke-linejoin="round"/>
<path d="M118.479 88.4791L115.032 85.0322" stroke="#151524" stroke-linecap="round" stroke-linejoin="round"/>
<path fill-rule="evenodd" clip-rule="evenodd" d="M125.372 80.7236C124.897 80.7236 124.511 81.1114 124.511 81.5853C124.511 82.061 124.897 82.447 125.372 82.447C125.848 82.447 126.234 82.061 126.234 81.5853C126.234 81.1114 125.848 80.7236 125.372 80.7236Z" fill="black"/>
<path fill-rule="evenodd" clip-rule="evenodd" d="M123.648 84.1704C123.173 84.1704 122.787 84.5582 122.787 85.0321C122.787 85.5078 123.173 85.8938 123.648 85.8938C124.124 85.8938 124.51 85.5078 124.51 85.0321C124.51 84.5582 124.124 84.1704 123.648 84.1704Z" fill="black"/>
<path fill-rule="evenodd" clip-rule="evenodd" d="M121.925 79.0002C121.45 79.0002 121.063 79.388 121.063 79.862C121.063 80.3376 121.45 80.7237 121.925 80.7237C122.401 80.7237 122.787 80.3376 122.787 79.862C122.787 79.388 122.401 79.0002 121.925 79.0002Z" fill="black"/>
<path d="M38.5715 219.12C38.5715 218.88 38.4915 218.8 38.2515 218.8H34.7475C34.5075 218.8 34.4275 218.88 34.4275 219.12C34.4275 220.528 34.3155 222.08 34.0915 223.776C33.8835 225.472 33.7075 226.64 33.5635 227.264C33.4355 227.888 33.3235 228.384 33.2435 228.752H32.7475C32.5075 228.752 32.4275 228.832 32.4275 229.072V231.056C32.4275 231.296 32.5075 231.376 32.7475 231.376H33.4515C33.6915 231.376 33.7715 231.296 33.7715 231.056V230.24C33.7715 230.08 33.8515 230 34.0115 230H38.2515C38.5715 230 38.5715 230 38.5715 230.32V231.04C38.5715 231.28 38.6515 231.36 38.8915 231.36H39.5955C39.8355 231.36 39.9155 231.28 39.9155 231.04V229.072C39.9155 228.832 39.8355 228.752 39.5955 228.752H38.8915C38.5715 228.752 38.5715 228.752 38.5715 228.432V219.12ZM35.6915 220.288C35.6915 220.128 35.7715 220.048 35.9315 220.048H36.9875C37.1475 220.048 37.2275 220.128 37.2275 220.288V228.432C37.2275 228.752 37.2275 228.752 36.9075 228.752H34.6035L34.8435 227.488C35.0035 226.64 35.1795 225.52 35.3555 224.112C35.5315 222.688 35.6435 221.424 35.6915 220.288ZM42.3003 224.4C42.2523 222.752 44.3323 222.752 44.2843 224.4V227.6C44.3323 229.248 42.2523 229.248 42.3003 227.6V224.4ZM41.2763 222C41.0363 222 40.9563 222.08 40.9563 222.32V232.56C40.9563 232.8 41.0363 232.88 41.2763 232.88H41.9803C42.2203 232.88 42.3003 232.8 42.3003 232.56V229.456C42.5883 229.824 42.9883 230.032 43.4843 230.064C44.7643 230.112 45.6283 229.216 45.6283 227.344V224.656C45.6283 222.784 44.7643 221.888 43.4843 221.936C42.9723 221.968 42.5723 222.16 42.3003 222.528V222.32C42.3003 222.08 42.2203 222 41.9803 222H41.2763ZM47.9616 222.24C47.9296 222 47.8336 222 47.6096 222H46.9056C46.6976 222 46.5856 222.032 46.6336 222.272L48.2656 230.384C48.4096 231.2 48.1696 231.6 47.5456 231.616C47.3056 231.616 47.2256 231.696 47.2256 231.936V232.56C47.2256 232.8 47.3056 232.88 47.5456 232.88C48.7616 232.88 49.5776 232.512 50.0096 230.192L51.5936 222.272C51.6256 222 51.4976 222 51.3216 222H50.6176C50.4256 222 50.2976 222 50.2656 222.24L49.1776 228.368C49.1616 228.448 49.0656 228.448 49.0496 228.368L47.9616 222.24ZM52.6906 229.68C52.6906 229.92 52.7706 230 53.0106 230H53.7146C53.9546 230 54.0346 229.92 54.0346 229.68V223.568C54.0346 223.248 54.0346 223.248 54.3546 223.248H55.6826C55.9226 223.248 56.0026 223.168 56.0026 222.928V222.32C56.0026 222.08 55.9226 222 55.6826 222H53.0106C52.7706 222 52.6906 222.08 52.6906 222.32V229.68ZM57.834 230C57.978 230 58.09 229.936 58.154 229.808L60.458 225.424C60.506 225.344 60.586 225.36 60.586 225.44V229.68C60.586 229.92 60.666 230 60.906 230H61.61C61.85 230 61.93 229.92 61.93 229.68V222.32C61.93 222.08 61.85 222 61.61 222H61.146C60.954 222 60.938 222.016 60.826 222.208L58.522 226.56C58.474 226.64 58.394 226.656 58.394 226.544V222.32C58.394 222.08 58.314 222 58.074 222H57.37C57.13 222 57.05 222.08 57.05 222.32V229.68C57.05 229.92 57.13 230 57.37 230H57.834ZM63.3744 227.12C63.3744 228.128 63.6144 228.88 64.0784 229.36C64.5424 229.824 65.1184 230.064 65.7744 230.064C66.5424 230.064 67.1344 229.808 67.5344 229.28C67.9344 228.752 68.1264 228.208 68.0944 227.648C68.0784 227.408 68.0144 227.328 67.7744 227.328H67.1344C66.8784 227.328 66.8304 227.44 66.8144 227.744C66.7984 228.4 66.3504 228.816 65.7744 228.816C65.1504 228.816 64.7184 228.368 64.7184 227.552V226.592C64.7184 226.352 64.7984 226.272 65.0384 226.272H67.8384C68.0944 226.272 68.1744 226.208 68.1744 225.952V224.88C68.1744 223.872 67.9344 223.12 67.4704 222.656C67.0064 222.176 66.4304 221.936 65.7744 221.936C65.1184 221.936 64.5424 222.176 64.0784 222.656C63.6144 223.12 63.3744 223.872 63.3744 224.88V227.12ZM66.8304 224.768C66.8304 225.008 66.7504 225.088 66.5104 225.088H65.0384C64.7984 225.088 64.7184 225.008 64.7184 224.768V224.448C64.5904 222.768 66.9584 222.768 66.8304 224.448V224.768ZM37.7496 240.448C37.7496 239.632 38.1816 239.184 38.8056 239.184C39.3816 239.184 39.8296 239.6 39.8456 240.256C39.8616 240.56 39.9096 240.672 40.1656 240.672H40.8056C41.0456 240.672 41.1096 240.592 41.1256 240.352C41.1576 239.792 40.9656 239.264 40.5656 238.736C40.1656 238.208 39.5736 237.936 38.8056 237.936C38.1496 237.936 37.5736 238.176 37.1096 238.656C36.6456 239.12 36.4056 239.872 36.4056 240.88V243.12C36.4056 244.128 36.6456 244.88 37.1096 245.36C37.5736 245.824 38.1496 246.064 38.8056 246.064C39.5736 246.064 40.1656 245.808 40.5656 245.28C40.9656 244.752 41.1576 244.208 41.1256 243.648C41.1096 243.408 41.0456 243.328 40.8056 243.328H40.1656C39.9096 243.328 39.8616 243.44 39.8456 243.744C39.8296 244.4 39.3816 244.816 38.8056 244.816C38.1816 244.816 37.7496 244.368 37.7496 243.552V240.448ZM43.4773 238.24C43.4453 238 43.3493 238 43.1253 238H42.4213C42.2133 238 42.1013 238.032 42.1493 238.272L43.7812 246.384C43.9253 247.2 43.6853 247.6 43.0613 247.616C42.8213 247.616 42.7413 247.696 42.7413 247.936V248.56C42.7413 248.8 42.8213 248.88 43.0613 248.88C44.2773 248.88 45.0933 248.512 45.5253 246.192L47.1093 238.272C47.1413 238 47.0133 238 46.8373 238H46.1333C45.9413 238 45.8133 238 45.7812 238.24L44.6933 244.368C44.6773 244.448 44.5813 244.448 44.5653 244.368L43.4773 238.24ZM52.2383 246C52.4463 246 52.5103 245.888 52.4303 245.68L50.8303 242L52.4303 238.32C52.5103 238.112 52.4623 238 52.2543 238H51.5023C51.3103 238 51.1663 238.112 51.0863 238.32L50.1583 240.448L49.2463 238.32C49.1663 238.112 49.0223 238 48.8303 238H48.0783C47.8703 238 47.8223 238.112 47.9023 238.32L49.4863 242L47.9023 245.68C47.8223 245.888 47.8863 246 48.0943 246H48.8463C49.0863 246 49.1343 245.936 49.2463 245.68L50.1583 243.552L51.0863 245.68C51.1983 245.936 51.2463 246 51.4863 246H52.2383ZM54.2559 246C54.3999 246 54.5119 245.936 54.5759 245.808L56.8799 241.424C56.9279 241.344 57.0079 241.36 57.0079 241.44V245.68C57.0079 245.92 57.0879 246 57.3279 246H58.0319C58.2719 246 58.3519 245.92 58.3519 245.68V238.32C58.3519 238.08 58.2719 238 58.0319 238H57.5679C57.3759 238 57.3599 238.016 57.2479 238.208L54.9439 242.56C54.8959 242.64 54.8159 242.656 54.8159 242.544V238.32C54.8159 238.08 54.7359 238 54.4959 238H53.7919C53.5519 238 53.4719 238.08 53.4719 238.32V245.68C53.4719 245.92 53.5519 246 53.7919 246H54.2559ZM59.7963 243.12C59.7963 244.128 60.0363 244.88 60.5003 245.36C60.9643 245.824 61.5403 246.064 62.1963 246.064C62.9643 246.064 63.5563 245.808 63.9563 245.28C64.3563 244.752 64.5483 244.208 64.5163 243.648C64.5003 243.408 64.4363 243.328 64.1963 243.328H63.5563C63.3003 243.328 63.2523 243.44 63.2363 243.744C63.2203 244.4 62.7723 244.816 62.1963 244.816C61.5723 244.816 61.1403 244.368 61.1403 243.552V242.592C61.1403 242.352 61.2203 242.272 61.4603 242.272H64.2603C64.5163 242.272 64.5963 242.208 64.5963 241.952V240.88C64.5963 239.872 64.3563 239.12 63.8923 238.656C63.4283 238.176 62.8523 237.936 62.1963 237.936C61.5403 237.936 60.9643 238.176 60.5003 238.656C60.0363 239.12 59.7963 239.872 59.7963 240.88V243.12ZM63.2523 240.768C63.2523 241.008 63.1723 241.088 62.9323 241.088H61.4603C61.2203 241.088 61.1403 241.008 61.1403 240.768V240.448C61.0123 238.768 63.3802 238.768 63.2523 240.448V240.768ZM25.4784 257.056C25.4784 257.376 25.4784 257.376 25.1584 257.376H24.5984C24.3584 257.376 24.2784 257.456 24.2784 257.696V258.304C24.2784 258.544 24.3584 258.624 24.5984 258.624H25.1584C25.4784 258.624 25.4784 258.624 25.4784 258.944V259.552C25.4784 260.368 25.0464 260.816 24.4224 260.816C23.8464 260.816 23.3984 260.4 23.3824 259.744C23.3664 259.44 23.3184 259.328 23.0624 259.328H22.4224C22.1824 259.328 22.1184 259.408 22.1024 259.648C22.0704 260.208 22.2624 260.752 22.6624 261.28C23.0624 261.808 23.6544 262.064 24.4224 262.064C25.0784 262.064 25.6544 261.824 26.1184 261.36C26.5824 260.88 26.8224 260.128 26.8224 259.12V256.88C26.8224 255.872 26.5824 255.12 26.1184 254.656C25.6544 254.176 25.0784 253.936 24.4224 253.936C23.6544 253.936 23.0624 254.208 22.6624 254.736C22.2624 255.264 22.0704 255.792 22.1024 256.352C22.1184 256.592 22.1824 256.672 22.4224 256.672H23.0624C23.3184 256.672 23.3664 256.56 23.3824 256.256C23.3984 255.6 23.8464 255.184 24.4224 255.184C25.0464 255.184 25.4784 255.632 25.4784 256.448V257.056ZM32.5341 262C32.7741 262 32.8541 261.92 32.8541 261.68V254.32C32.8541 254.08 32.7741 254 32.5341 254H31.8301C31.5901 254 31.5101 254.08 31.5101 254.32V256.96C31.5101 257.28 31.5101 257.28 31.1901 257.28H29.8781C29.5581 257.28 29.5581 257.28 29.5581 256.96V254.32C29.5581 254.08 29.4781 254 29.2381 254H28.5341C28.2941 254 28.2141 254.08 28.2141 254.32V261.68C28.2141 261.92 28.2941 262 28.5341 262H29.2381C29.4781 262 29.5581 261.92 29.5581 261.68V258.848C29.5581 258.528 29.5581 258.528 29.8781 258.528H31.1901C31.5101 258.528 31.5101 258.528 31.5101 258.848V261.68C31.5101 261.92 31.5901 262 31.8301 262H32.5341ZM34.2884 259.12C34.2884 260.128 34.5284 260.88 34.9924 261.36C35.4564 261.824 36.0324 262.064 36.6884 262.064C37.4564 262.064 38.0484 261.808 38.4484 261.28C38.8484 260.752 39.0404 260.208 39.0084 259.648C38.9924 259.408 38.9284 259.328 38.6884 259.328H38.0484C37.7924 259.328 37.7444 259.44 37.7284 259.744C37.7124 260.4 37.2644 260.816 36.6884 260.816C36.0644 260.816 35.6324 260.368 35.6324 259.552V258.592C35.6324 258.352 35.7124 258.272 35.9524 258.272H38.7524C39.0084 258.272 39.0884 258.208 39.0884 257.952V256.88C39.0884 255.872 38.8484 255.12 38.3844 254.656C37.9204 254.176 37.3444 253.936 36.6884 253.936C36.0324 253.936 35.4564 254.176 34.9924 254.656C34.5284 255.12 34.2884 255.872 34.2884 256.88V259.12ZM37.7444 256.768C37.7444 257.008 37.6644 257.088 37.4244 257.088H35.9524C35.7124 257.088 35.6324 257.008 35.6324 256.768V256.448C35.5044 254.768 37.8724 254.768 37.7444 256.448V256.768ZM41.8706 256.4C41.8226 254.752 43.9026 254.752 43.8546 256.4V259.6C43.9026 261.248 41.8226 261.248 41.8706 259.6V256.4ZM40.8466 254C40.6066 254 40.5266 254.08 40.5266 254.32V264.56C40.5266 264.8 40.6066 264.88 40.8466 264.88H41.5506C41.7906 264.88 41.8706 264.8 41.8706 264.56V261.456C42.1586 261.824 42.5586 262.032 43.0546 262.064C44.3346 262.112 45.1986 261.216 45.1986 259.344V256.656C45.1986 254.784 44.3346 253.888 43.0546 253.936C42.5426 253.968 42.1426 254.16 41.8706 254.528V254.32C41.8706 254.08 41.7906 254 41.5506 254H40.8466ZM46.6359 261.68C46.6359 261.92 46.7159 262 46.9559 262H47.6599C47.8999 262 47.9799 261.92 47.9799 261.68V255.568C47.9799 255.248 47.9799 255.248 48.2999 255.248H49.6279C49.8679 255.248 49.9479 255.168 49.9479 254.928V254.32C49.9479 254.08 49.8679 254 49.6279 254H46.9559C46.7159 254 46.6359 254.08 46.6359 254.32V261.68ZM50.6791 259.12C50.6791 260.128 50.9191 260.88 51.3831 261.36C51.8471 261.824 52.4231 262.064 53.0791 262.064C53.8471 262.064 54.4391 261.808 54.8391 261.28C55.2391 260.752 55.4311 260.208 55.3991 259.648C55.3831 259.408 55.3191 259.328 55.0791 259.328H54.4391C54.1831 259.328 54.1351 259.44 54.1191 259.744C54.1031 260.4 53.6551 260.816 53.0791 260.816C52.4551 260.816 52.0231 260.368 52.0231 259.552V258.592C52.0231 258.352 52.1031 258.272 52.3431 258.272H55.1431C55.3991 258.272 55.4791 258.208 55.4791 257.952V256.88C55.4791 255.872 55.2391 255.12 54.7751 254.656C54.3111 254.176 53.7351 253.936 53.0791 253.936C52.4231 253.936 51.8471 254.176 51.3831 254.656C50.9191 255.12 50.6791 255.872 50.6791 256.88V259.12ZM54.1351 256.768C54.1351 257.008 54.0551 257.088 53.8151 257.088H52.3431C52.1031 257.088 52.0231 257.008 52.0231 256.768V256.448C51.8951 254.768 54.2631 254.768 54.1351 256.448V256.768ZM56.3572 254.928C56.3572 255.168 56.4372 255.248 56.6772 255.248H57.6212C57.9252 255.248 57.9252 255.248 57.9252 255.568V261.68C57.9252 261.92 58.0052 262 58.2452 262H58.9492C59.1892 262 59.2692 261.92 59.2692 261.68V255.568C59.2692 255.248 59.2692 255.248 59.5892 255.248H60.5172C60.7572 255.248 60.8372 255.168 60.8372 254.928V254.32C60.8372 254.08 60.7572 254 60.5172 254H56.6772C56.4372 254 56.3572 254.08 56.3572 254.32V254.928ZM62.6543 262C62.7983 262 62.9103 261.936 62.9743 261.808L65.2783 257.424C65.3263 257.344 65.4063 257.36 65.4063 257.44V261.68C65.4063 261.92 65.4863 262 65.7263 262H66.4303C66.6703 262 66.7503 261.92 66.7503 261.68V254.32C66.7503 254.08 66.6703 254 66.4303 254H65.9663C65.7743 254 65.7583 254.016 65.6463 254.208L63.3423 258.56C63.2943 258.64 63.2143 258.656 63.2143 258.544V254.32C63.2143 254.08 63.1343 254 62.8943 254H62.1903C61.9503 254 61.8703 254.08 61.8703 254.32V261.68C61.8703 261.92 61.9503 262 62.1903 262H62.6543ZM68.3547 261.68C68.3547 261.92 68.4347 262 68.6747 262H69.3787C69.6187 262 69.6987 261.92 69.6987 261.68V258.768C69.6987 258.656 69.7947 258.656 69.8427 258.736L71.4907 261.76C71.6187 262 71.6347 262 71.8427 262H72.6747C72.8187 262 72.9307 261.904 72.8187 261.664L70.8187 258L72.8187 254.336C72.9307 254.096 72.8187 254 72.6747 254H71.8427C71.6347 254 71.6187 254 71.4907 254.24L69.8427 257.264C69.7947 257.344 69.6987 257.344 69.6987 257.232V254.32C69.6987 254.08 69.6187 254 69.3787 254H68.6747C68.4347 254 68.3547 254.08 68.3547 254.32V261.68ZM74.7012 262C74.8452 262 74.9572 261.936 75.0212 261.808L77.3252 257.424C77.3732 257.344 77.4532 257.36 77.4532 257.44V261.68C77.4532 261.92 77.5332 262 77.7732 262H78.4772C78.7172 262 78.7972 261.92 78.7972 261.68V254.32C78.7972 254.08 78.7172 254 78.4772 254H78.0132C77.8212 254 77.8052 254.016 77.6932 254.208L75.3892 258.56C75.3412 258.64 75.2612 258.656 75.2612 258.544V254.32C75.2612 254.08 75.1812 254 74.9412 254H74.2372C73.9972 254 73.9172 254.08 73.9172 254.32V261.68C73.9172 261.92 73.9972 262 74.2372 262H74.7012Z" fill="#151524"/>
<rect x="26.5" y="62.5" width="49" height="136" fill="#C2F0FF" stroke="#1F3554"/>
<path d="M41.84 79.76C41.84 78.94 41.62 78.22 41.2 77.62C41.62 77.02 41.84 76.3 41.84 75.46V74.72C41.84 72.1 40.62 70.92 38.84 70.92C37.18 70.92 36.02 71.94 35.86 74.16C35.84 74.54 35.96 74.74 36.26 74.74H37.44C37.74 74.74 37.84 74.64 37.84 74.34V74.2C37.84 73.24 38.18 72.76 38.84 72.76C39.5 72.76 39.84 73.24 39.84 74.2V75.22C39.82 76.2 39.64 76.66 38.84 76.68H38.64C38.34 76.68 38.24 76.78 38.24 77.08V78.16C38.24 78.42 38.34 78.54 38.56 78.56H38.84C39.64 78.56 39.82 79 39.84 80.02V81.8C39.84 82.76 39.5 83.24 38.84 83.24C38.18 83.24 37.84 82.76 37.84 81.8V81.66C37.84 81.36 37.74 81.26 37.44 81.26H36.26C35.96 81.26 35.84 81.46 35.86 81.84C36.02 84.06 37.18 85.08 38.84 85.08C40.62 85.08 41.84 83.9 41.84 81.28V79.76ZM49.333 79.76C49.333 78.94 49.113 78.22 48.693 77.62C49.113 77.02 49.333 76.3 49.333 75.46V74.72C49.333 72.1 48.113 70.92 46.333 70.92C44.673 70.92 43.513 71.94 43.353 74.16C43.333 74.54 43.453 74.74 43.753 74.74H44.933C45.233 74.74 45.333 74.64 45.333 74.34V74.2C45.333 73.24 45.673 72.76 46.333 72.76C46.993 72.76 47.333 73.24 47.333 74.2V75.22C47.313 76.2 47.133 76.66 46.333 76.68H46.133C45.833 76.68 45.733 76.78 45.733 77.08V78.16C45.733 78.42 45.833 78.54 46.053 78.56H46.333C47.133 78.56 47.313 79 47.333 80.02V81.8C47.333 82.76 46.993 83.24 46.333 83.24C45.673 83.24 45.333 82.76 45.333 81.8V81.66C45.333 81.36 45.233 81.26 44.933 81.26H43.753C43.453 81.26 43.333 81.46 43.353 81.84C43.513 84.06 44.673 85.08 46.333 85.08C48.113 85.08 49.333 83.9 49.333 81.28V79.76ZM54.6898 84.6C54.6898 84.9 54.7898 85 55.0898 85H56.2898C56.5898 85 56.6898 84.9 56.6898 84.6V77.28C56.6898 76.88 56.6898 76.88 57.0898 76.88H58.5898C58.8898 76.88 58.9898 76.78 58.9898 76.48V75.4C58.9898 75.1 58.8898 75 58.5898 75H55.0898C54.7898 75 54.6898 75.1 54.6898 75.4V84.6ZM61.9953 78.28C61.9953 77.26 62.3553 76.76 63.0753 76.76C63.7953 76.76 64.1553 77.26 64.1553 78.28V81.72C64.1553 82.74 63.7953 83.24 63.0753 83.24C62.3553 83.24 61.9953 82.74 61.9953 81.72V78.28ZM60.3953 75C60.1353 75 59.9953 75.14 59.9953 75.4V88.2C59.9953 88.5 60.0953 88.6 60.3953 88.6H61.5953C61.8953 88.6 61.9953 88.5 61.9953 88.2V84.32C62.3553 84.78 62.8553 85.04 63.4753 85.08C65.0753 85.14 66.1553 84.02 66.1553 81.68V78.32C66.1553 75.98 65.0753 74.86 63.4753 74.92C62.8353 74.96 62.3353 75.2 61.9953 75.66V75.4C61.9953 75.1 61.8953 75 61.5953 75H60.3953Z" fill="#151524"/>
<path d="M25.9529 279C27.1149 279 27.7869 278.524 27.7869 277.082C27.7869 276.326 27.5909 275.794 27.2129 275.5C27.5909 275.206 27.7869 274.674 27.7869 273.918C27.7869 272.476 27.1149 272 25.9529 272H24.5809C24.3709 272 24.3009 272.07 24.3009 272.28V278.72C24.3009 278.93 24.3709 279 24.5809 279H25.9529ZM26.1069 275.836C26.7649 275.878 27.0589 276.228 27.0589 277.082C27.0589 277.964 26.7369 278.328 26.0509 278.328H25.3089C25.0289 278.328 25.0289 278.328 25.0289 278.048V276.116C25.0289 275.836 25.0289 275.836 25.3089 275.836H26.1069ZM25.3089 275.164C25.0289 275.164 25.0289 275.164 25.0289 274.884V272.952C25.0289 272.672 25.0289 272.672 25.3089 272.672H26.0509C26.7369 272.672 27.0589 273.036 27.0589 273.918C27.0589 274.8 26.7649 275.15 26.1069 275.164H25.3089ZM34.0466 272.672C34.3266 272.672 34.3266 272.672 34.3266 272.952V278.72C34.3266 278.93 34.3966 279 34.6066 279H34.7746C34.9846 279 35.0546 278.93 35.0546 278.72V272.28C35.0546 272.07 34.9846 272 34.7746 272H31.4286C31.2186 272 31.1486 272.07 31.1486 272.28V278.72C31.1486 278.93 31.2186 279 31.4286 279H31.5966C31.8066 279 31.8766 278.93 31.8766 278.72V272.952C31.8766 272.672 31.8766 272.672 32.1566 272.672H34.0466ZM35.95 276.592C35.95 278.328 36.72 279.056 37.826 279.056C38.442 279.056 38.89 278.86 39.184 278.468C39.478 278.062 39.646 277.6 39.66 277.082C39.66 276.872 39.618 276.83 39.408 276.83H39.184C39.002 276.83 38.974 276.9 38.96 277.166C38.904 277.908 38.498 278.384 37.826 278.384C37.154 278.384 36.678 277.936 36.678 276.886V275.724C36.678 275.444 36.678 275.444 36.958 275.444H39.422C39.632 275.444 39.702 275.374 39.702 275.164V274.408C39.702 272.672 38.932 271.944 37.826 271.944C36.72 271.944 35.95 272.672 35.95 274.408V276.592ZM36.678 274.114C36.678 273.064 37.154 272.616 37.826 272.616C38.498 272.616 38.974 273.064 38.974 274.114V274.492C38.974 274.772 38.974 274.772 38.694 274.772H36.958C36.678 274.772 36.678 274.772 36.678 274.492V274.114ZM40.7443 281.24C40.7443 281.45 40.8143 281.52 41.0243 281.52H41.1923C41.4023 281.52 41.4723 281.45 41.4723 281.24V278.454C41.7383 278.832 42.1163 279.042 42.5923 279.056C43.6703 279.098 44.3843 278.342 44.3843 276.592V274.408C44.3843 272.658 43.6703 271.902 42.5923 271.944C42.1163 271.958 41.7383 272.154 41.4723 272.532V272.28C41.4723 272.07 41.4023 272 41.1923 272H41.0243C40.8143 272 40.7443 272.07 40.7443 272.28V281.24ZM43.6563 276.886C43.6563 277.88 43.2923 278.384 42.5643 278.384C41.8363 278.384 41.4723 277.88 41.4723 276.886V274.114C41.4723 273.12 41.8363 272.616 42.5643 272.616C43.2923 272.616 43.6563 273.12 43.6563 274.114V276.886ZM45.2859 276.592C45.2859 278.328 46.0559 279.056 47.1619 279.056C47.7779 279.056 48.2259 278.86 48.5199 278.468C48.8139 278.062 48.9819 277.6 48.9959 277.082C48.9959 276.872 48.9539 276.83 48.7439 276.83H48.5199C48.3379 276.83 48.3099 276.9 48.2959 277.166C48.2399 277.908 47.8339 278.384 47.1619 278.384C46.4899 278.384 46.0139 277.936 46.0139 276.886V275.724C46.0139 275.444 46.0139 275.444 46.2939 275.444H48.7579C48.9679 275.444 49.0379 275.374 49.0379 275.164V274.408C49.0379 272.672 48.2679 271.944 47.1619 271.944C46.0559 271.944 45.2859 272.672 45.2859 274.408V276.592ZM46.0139 274.114C46.0139 273.064 46.4899 272.616 47.1619 272.616C47.8339 272.616 48.3099 273.064 48.3099 274.114V274.492C48.3099 274.772 48.3099 274.772 48.0299 274.772H46.2939C46.0139 274.772 46.0139 274.772 46.0139 274.492V274.114ZM51.8162 279.056C52.4322 279.056 52.8802 278.86 53.1742 278.468C53.4682 278.062 53.6362 277.6 53.6502 277.082C53.6502 276.872 53.6082 276.83 53.3982 276.83H53.1742C52.9922 276.83 52.9642 276.9 52.9502 277.166C52.8942 277.908 52.4882 278.384 51.8162 278.384C51.1442 278.384 50.6682 277.936 50.6682 276.886V274.114C50.6682 273.064 51.1442 272.616 51.8162 272.616C52.4882 272.616 52.8942 273.092 52.9502 273.834C52.9642 274.1 52.9922 274.17 53.1742 274.17H53.3982C53.6082 274.17 53.6502 274.128 53.6502 273.918C53.6362 273.4 53.4682 272.938 53.1742 272.546C52.8802 272.14 52.4322 271.944 51.8162 271.944C50.7102 271.944 49.9402 272.672 49.9402 274.408V276.592C49.9402 278.328 50.7102 279.056 51.8162 279.056ZM55.1415 272.28C55.1415 272.07 55.0715 272 54.8615 272H54.6935C54.4835 272 54.4135 272.07 54.4135 272.28V274.366C54.4135 275.836 55.1135 276.564 56.5135 276.564H57.0175C57.2975 276.564 57.2975 276.564 57.2975 276.844V278.72C57.2975 278.93 57.3675 279 57.5775 279H57.7455C57.9555 279 58.0255 278.93 58.0255 278.72V272.28C58.0255 272.07 57.9555 272 57.7455 272H57.5775C57.3675 272 57.2975 272.07 57.2975 272.28V275.612C57.2975 275.892 57.2975 275.892 57.0175 275.892H56.5695C55.6875 275.892 55.1415 275.514 55.1415 274.352V272.28ZM59.0711 276.592C59.0711 278.328 59.8411 279.056 60.9471 279.056C61.5631 279.056 62.0111 278.86 62.3051 278.468C62.5991 278.062 62.7671 277.6 62.7811 277.082C62.7811 276.872 62.7391 276.83 62.5291 276.83H62.3051C62.1231 276.83 62.0951 276.9 62.0811 277.166C62.0251 277.908 61.6191 278.384 60.9471 278.384C60.2751 278.384 59.7991 277.936 59.7991 276.886V275.724C59.7991 275.444 59.7991 275.444 60.0791 275.444H62.5431C62.7531 275.444 62.8231 275.374 62.8231 275.164V274.408C62.8231 272.672 62.0531 271.944 60.9471 271.944C59.8411 271.944 59.0711 272.672 59.0711 274.408V276.592ZM59.7991 274.114C59.7991 273.064 60.2751 272.616 60.9471 272.616C61.6191 272.616 62.0951 273.064 62.0951 274.114V274.492C62.0951 274.772 62.0951 274.772 61.8151 274.772H60.0791C59.7991 274.772 59.7991 274.772 59.7991 274.492V274.114ZM63.3754 272.392C63.3754 272.602 63.4454 272.672 63.6554 272.672H64.6074C64.8734 272.672 64.8734 272.672 64.8734 272.952V278.72C64.8734 278.93 64.9434 279 65.1534 279H65.3214C65.5314 279 65.6014 278.93 65.6014 278.72V272.952C65.6014 272.672 65.6014 272.672 65.8814 272.672H66.8194C67.0294 272.672 67.0994 272.602 67.0994 272.392V272.28C67.0994 272.07 67.0294 272 66.8194 272H63.6554C63.4454 272 63.3754 272.07 63.3754 272.28V272.392ZM67.6551 276.592C67.6551 278.328 68.4251 279.056 69.5311 279.056C70.1471 279.056 70.5951 278.86 70.8891 278.468C71.1831 278.062 71.3511 277.6 71.3651 277.082C71.3651 276.872 71.3231 276.83 71.1131 276.83H70.8891C70.7071 276.83 70.6791 276.9 70.6651 277.166C70.6091 277.908 70.2031 278.384 69.5311 278.384C68.8591 278.384 68.3831 277.936 68.3831 276.886V275.724C68.3831 275.444 68.3831 275.444 68.6631 275.444H71.1271C71.3371 275.444 71.4071 275.374 71.4071 275.164V274.408C71.4071 272.672 70.6371 271.944 69.5311 271.944C68.4251 271.944 67.6551 272.672 67.6551 274.408V276.592ZM68.3831 274.114C68.3831 273.064 68.8591 272.616 69.5311 272.616C70.2031 272.616 70.6791 273.064 70.6791 274.114V274.492C70.6791 274.772 70.6791 274.772 70.3991 274.772H68.6631C68.3831 274.772 68.3831 274.772 68.3831 274.492V274.114ZM76.5018 279.056C77.1178 279.056 77.5658 278.86 77.8598 278.468C78.1538 278.062 78.3218 277.6 78.3358 277.082C78.3358 276.872 78.2938 276.83 78.0838 276.83H77.8598C77.6778 276.83 77.6498 276.9 77.6358 277.166C77.5798 277.908 77.1738 278.384 76.5018 278.384C75.8298 278.384 75.3538 277.936 75.3538 276.886V274.114C75.3538 273.064 75.8298 272.616 76.5018 272.616C77.1738 272.616 77.5798 273.092 77.6358 273.834C77.6498 274.1 77.6778 274.17 77.8598 274.17H78.0838C78.2938 274.17 78.3358 274.128 78.3358 273.918C78.3218 273.4 78.1538 272.938 77.8598 272.546C77.5658 272.14 77.1178 271.944 76.5018 271.944C75.3958 271.944 74.6258 272.672 74.6258 274.408V276.592C74.6258 278.328 75.3958 279.056 76.5018 279.056ZM17.1445 284.182C17.1025 284.056 17.0185 284 16.8645 284H16.6825C16.4725 284 16.4025 284.07 16.4025 284.28V290.72C16.4025 290.93 16.4725 291 16.6825 291H16.8505C17.0605 291 17.1305 290.93 17.1305 290.72V286.618C17.1305 286.604 17.1305 286.59 17.1445 286.576C17.1865 286.52 17.2145 286.534 17.2425 286.604L18.6985 290.93C18.7405 291.028 18.8245 291.028 18.8665 290.93L20.3225 286.604C20.3645 286.534 20.4345 286.548 20.4345 286.618V290.72C20.4345 290.93 20.5045 291 20.7145 291H20.8825C21.0925 291 21.1625 290.93 21.1625 290.72V284.28C21.1625 284.07 21.0925 284 20.8825 284H20.7005C20.5465 284 20.4625 284.056 20.4205 284.182L18.8525 288.886C18.8385 288.984 18.7265 288.984 18.7125 288.886L17.1445 284.182ZM24.078 284.616C24.862 284.616 25.17 285.274 25.17 285.904C25.17 287.024 22.16 286.562 22.16 288.76V289.194C22.16 290.412 22.846 291.056 23.896 291.056C24.428 291.056 24.862 290.888 25.198 290.552C25.254 290.93 25.296 291 25.506 291H25.744C25.968 291 26.066 290.902 26.024 290.72C25.954 290.37 25.912 290.104 25.912 289.894V286.408C25.912 284.672 25.184 283.944 24.078 283.944C23.462 283.944 23.014 284.14 22.734 284.532C22.454 284.924 22.3 285.386 22.286 285.918C22.286 286.128 22.328 286.17 22.538 286.17H22.762C22.944 286.17 22.972 286.1 22.986 285.834C23.056 285.022 23.42 284.616 24.078 284.616ZM24.162 290.384C23.308 290.44 22.888 289.964 22.888 289.026V288.984C22.804 288.144 23.378 287.696 23.826 287.486C23.952 287.416 24.176 287.332 24.484 287.22C24.806 287.108 25.03 287.024 25.184 286.954V289.026C25.184 289.978 24.82 290.328 24.162 290.384ZM27.5836 288.578C27.5836 289.026 27.5836 289.18 27.5276 289.53C27.5136 289.712 27.4716 289.838 27.4156 289.936C27.3176 290.118 27.1076 290.3 26.8136 290.314C26.6036 290.328 26.5336 290.384 26.5336 290.594V290.72C26.5336 290.93 26.6036 291 26.8136 291C27.4996 291 27.9476 290.706 28.1576 290.104C28.2556 289.782 28.3116 289.152 28.3116 288.214V284.952C28.3116 284.672 28.3116 284.672 28.5916 284.672H30.0336C30.3136 284.672 30.3136 284.672 30.3136 284.952V290.72C30.3136 290.93 30.3836 291 30.5936 291H30.7616C30.9716 291 31.0416 290.93 31.0416 290.72V284.28C31.0416 284.07 30.9716 284 30.7616 284H27.8636C27.6536 284 27.5836 284.07 27.5836 284.28V288.578ZM32.9528 284.28C32.9528 284.07 32.8828 284 32.6728 284H32.5048C32.2948 284 32.2248 284.07 32.2248 284.28V290.72C32.2248 290.93 32.2948 291 32.5048 291H33.6528C34.7728 291 35.4868 290.328 35.4868 288.858C35.4868 287.388 34.7588 286.702 33.6528 286.702H33.2328C32.9528 286.702 32.9528 286.702 32.9528 286.422V284.28ZM32.9528 287.654C32.9528 287.374 32.9528 287.374 33.2328 287.374H33.7508C34.4088 287.374 34.7588 287.92 34.7588 288.858C34.7588 289.768 34.4088 290.328 33.7508 290.328H33.2328C32.9528 290.328 32.9528 290.328 32.9528 290.048V287.654ZM35.7602 284.392C35.7602 284.602 35.8302 284.672 36.0402 284.672H36.9922C37.2582 284.672 37.2582 284.672 37.2582 284.952V290.72C37.2582 290.93 37.3282 291 37.5382 291H37.7062C37.9162 291 37.9862 290.93 37.9862 290.72V284.952C37.9862 284.672 37.9862 284.672 38.2662 284.672H39.2042C39.4142 284.672 39.4842 284.602 39.4842 284.392V284.28C39.4842 284.07 39.4142 284 39.2042 284H36.0402C35.8302 284 35.7602 284.07 35.7602 284.28V284.392ZM40.0398 288.592C40.0398 290.328 40.8098 291.056 41.9158 291.056C43.0218 291.056 43.7918 290.328 43.7918 288.592V286.408C43.7918 284.672 43.0218 283.944 41.9158 283.944C40.8098 283.944 40.0398 284.672 40.0398 286.408V288.592ZM43.0638 288.886C43.0638 289.936 42.5878 290.384 41.9158 290.384C41.2438 290.384 40.7678 289.936 40.7678 288.886V286.114C40.7678 285.064 41.2438 284.616 41.9158 284.616C42.5878 284.616 43.0638 285.064 43.0638 286.114V288.886ZM48.9221 284.28C48.9221 284.07 48.8521 284 48.6421 284H46.5001C46.2901 284 46.2201 284.07 46.2201 284.28C46.2201 285.834 46.0381 287.346 45.8561 288.2C45.7581 288.634 45.6601 289.026 45.5341 289.404C45.2961 290.132 45.2261 290.216 45.1701 290.328H44.6241C44.4141 290.328 44.3441 290.398 44.3441 290.608V291.91C44.3441 292.12 44.4141 292.19 44.6241 292.19H44.7921C45.0021 292.19 45.0721 292.12 45.0721 291.91V291.21C45.0721 291.07 45.1421 291 45.2821 291H48.8661C49.1461 291 49.1461 291 49.1461 291.28V291.91C49.1461 292.12 49.2161 292.19 49.4261 292.19H49.5941C49.8041 292.19 49.8741 292.12 49.8741 291.91V290.608C49.8741 290.398 49.8041 290.328 49.5941 290.328H49.2021C48.9221 290.328 48.9221 290.328 48.9221 290.048V284.28ZM46.9341 284.882C46.9341 284.742 47.0041 284.672 47.1441 284.672H47.9701C48.1101 284.672 48.1801 284.742 48.1801 284.882V290.048C48.1801 290.328 48.1801 290.328 47.9001 290.328H46.0381L46.2341 289.712C46.3601 289.306 46.5001 288.648 46.6541 287.738C46.8081 286.828 46.8921 285.876 46.9341 284.882ZM50.4285 288.592C50.4285 290.328 51.1985 291.056 52.3045 291.056C52.9205 291.056 53.3685 290.86 53.6625 290.468C53.9565 290.062 54.1245 289.6 54.1385 289.082C54.1385 288.872 54.0965 288.83 53.8865 288.83H53.6625C53.4805 288.83 53.4525 288.9 53.4385 289.166C53.3825 289.908 52.9765 290.384 52.3045 290.384C51.6325 290.384 51.1565 289.936 51.1565 288.886V287.724C51.1565 287.444 51.1565 287.444 51.4365 287.444H53.9005C54.1105 287.444 54.1805 287.374 54.1805 287.164V286.408C54.1805 284.672 53.4105 283.944 52.3045 283.944C51.1985 283.944 50.4285 284.672 50.4285 286.408V288.592ZM51.1565 286.114C51.1565 285.064 51.6325 284.616 52.3045 284.616C52.9765 284.616 53.4525 285.064 53.4525 286.114V286.492C53.4525 286.772 53.4525 286.772 53.1725 286.772H51.4365C51.1565 286.772 51.1565 286.772 51.1565 286.492V286.114ZM58.1628 284.294C58.2328 284.084 58.1348 284 58.0088 284H57.7568C57.5748 284 57.5468 284.028 57.4488 284.21L56.1048 286.926C56.0628 287.024 55.9508 287.01 55.9508 286.898V284.28C55.9508 284.07 55.8808 284 55.6708 284H55.5028C55.2928 284 55.2228 284.07 55.2228 284.28V290.72C55.2228 291 55.3628 291 55.5028 291H55.6708C55.8808 291 55.9508 290.93 55.9508 290.72V288.102L55.9928 288.018C56.0348 287.99 56.0768 288.004 56.1048 288.074L57.4488 290.79C57.5468 290.972 57.5748 291 57.7568 291H58.0088C58.1348 291 58.2328 290.916 58.1628 290.706L56.5808 287.5L58.1628 284.294ZM60.6971 291.056C61.3131 291.056 61.7611 290.86 62.0551 290.468C62.3491 290.062 62.5171 289.6 62.5311 289.082C62.5311 288.872 62.4891 288.83 62.2791 288.83H62.0551C61.8731 288.83 61.8451 288.9 61.8311 289.166C61.7751 289.908 61.3691 290.384 60.6971 290.384C60.0251 290.384 59.5491 289.936 59.5491 288.886V286.114C59.5491 285.064 60.0251 284.616 60.6971 284.616C61.3691 284.616 61.7751 285.092 61.8311 285.834C61.8451 286.1 61.8731 286.17 62.0551 286.17H62.2791C62.4891 286.17 62.5311 286.128 62.5311 285.918C62.5171 285.4 62.3491 284.938 62.0551 284.546C61.7611 284.14 61.3131 283.944 60.6971 283.944C59.5911 283.944 58.8211 284.672 58.8211 286.408V288.592C58.8211 290.328 59.5911 291.056 60.6971 291.056ZM63.0844 284.392C63.0844 284.602 63.1544 284.672 63.3644 284.672H64.3164C64.5824 284.672 64.5824 284.672 64.5824 284.952V290.72C64.5824 290.93 64.6524 291 64.8624 291H65.0304C65.2404 291 65.3104 290.93 65.3104 290.72V284.952C65.3104 284.672 65.3104 284.672 65.5904 284.672H66.5284C66.7384 284.672 66.8084 284.602 66.8084 284.392V284.28C66.8084 284.07 66.7384 284 66.5284 284H63.3644C63.1544 284 63.0844 284.07 63.0844 284.28V284.392ZM67.5041 293.24C67.5041 293.45 67.5741 293.52 67.7841 293.52H67.9521C68.1621 293.52 68.2321 293.45 68.2321 293.24V290.454C68.4981 290.832 68.8761 291.042 69.3521 291.056C70.4301 291.098 71.1441 290.342 71.1441 288.592V286.408C71.1441 284.658 70.4301 283.902 69.3521 283.944C68.8761 283.958 68.4981 284.154 68.2321 284.532V284.28C68.2321 284.07 68.1621 284 67.9521 284H67.7841C67.5741 284 67.5041 284.07 67.5041 284.28V293.24ZM70.4161 288.886C70.4161 289.88 70.0521 290.384 69.3241 290.384C68.5961 290.384 68.2321 289.88 68.2321 288.886V286.114C68.2321 285.12 68.5961 284.616 69.3241 284.616C70.0521 284.616 70.4161 285.12 70.4161 286.114V288.886ZM72.6617 291C72.8017 291 72.8997 290.944 72.9417 290.832L75.1677 285.988C75.1957 285.918 75.2797 285.932 75.2797 286.002V290.72C75.2797 290.93 75.3497 291 75.5597 291H75.7277C75.9377 291 76.0077 290.93 76.0077 290.72V284.28C76.0077 284.07 75.9377 284 75.7277 284H75.5317C75.3637 284 75.3217 284.014 75.2517 284.182L73.0257 289.026C72.9977 289.096 72.9137 289.082 72.9137 289.012V284.28C72.9137 284.07 72.8437 284 72.6337 284H72.4657C72.2557 284 72.1857 284.07 72.1857 284.28V290.72C72.1857 290.93 72.2557 291 72.4657 291H72.6617ZM80.1918 290.72C80.1918 290.93 80.2618 291 80.4718 291H80.6398C80.8498 291 80.9198 290.93 80.9198 290.72V284.28C80.9198 284.07 80.8498 284 80.6398 284H80.4718C80.2618 284 80.1918 284.07 80.1918 284.28V286.8C80.1918 287.08 80.1918 287.08 79.9118 287.08H78.1898C77.9098 287.08 77.9098 287.08 77.9098 286.8V284.28C77.9098 284.07 77.8398 284 77.6298 284H77.4618C77.2518 284 77.1818 284.07 77.1818 284.28V290.72C77.1818 290.93 77.2518 291 77.4618 291H77.6298C77.8398 291 77.9098 290.93 77.9098 290.72V288.032C77.9098 287.752 77.9098 287.752 78.1898 287.752H79.9118C80.1918 287.752 80.1918 287.752 80.1918 288.032V290.72ZM83.8319 284.616C84.6159 284.616 84.9239 285.274 84.9239 285.904C84.9239 287.024 81.9139 286.562 81.9139 288.76V289.194C81.9139 290.412 82.5999 291.056 83.6499 291.056C84.1819 291.056 84.6159 290.888 84.9519 290.552C85.0079 290.93 85.0499 291 85.2599 291H85.4979C85.7219 291 85.8199 290.902 85.7779 290.72C85.7079 290.37 85.6659 290.104 85.6659 289.894V286.408C85.6659 284.672 84.9379 283.944 83.8319 283.944C83.2159 283.944 82.7679 284.14 82.4879 284.532C82.2079 284.924 82.0539 285.386 82.0399 285.918C82.0399 286.128 82.0819 286.17 82.2919 286.17H82.5159C82.6979 286.17 82.7259 286.1 82.7399 285.834C82.8099 285.022 83.1739 284.616 83.8319 284.616ZM83.9159 290.384C83.0619 290.44 82.6419 289.964 82.6419 289.026V288.984C82.5579 288.144 83.1319 287.696 83.5799 287.486C83.7059 287.416 83.9299 287.332 84.2379 287.22C84.5599 287.108 84.7839 287.024 84.9379 286.954V289.026C84.9379 289.978 84.5739 290.328 83.9159 290.384Z" fill="#151524"/>
<path fill-rule="evenodd" clip-rule="evenodd" d="M59.3689 62.0003H43.7421L40.2695 32.4832H62.8415L59.3689 62.0003Z" stroke="#151524" stroke-linecap="round" stroke-linejoin="round"/>
<path d="M46.3465 58.5278L43.308 26.6024C43.0597 24.0309 40.8997 22.0654 38.3161 22.0654H35.0605" stroke="#151524" stroke-linecap="round" stroke-linejoin="round"/>
<path d="M41.1377 39.4287H61.9734" stroke="#151524" stroke-linecap="round" stroke-linejoin="round"/>
<path fill-rule="evenodd" clip-rule="evenodd" d="M55.0278 23.8018C54.5486 23.8018 54.1597 24.1907 54.1597 24.6699C54.1597 25.1491 54.5486 25.5381 55.0278 25.5381C55.507 25.5381 55.896 25.1491 55.896 24.6699C55.896 24.1907 55.507 23.8018 55.0278 23.8018Z" fill="black"/>
<path fill-rule="evenodd" clip-rule="evenodd" d="M55.0278 28.1426C54.5486 28.1426 54.1597 28.5315 54.1597 29.0107C54.1597 29.49 54.5486 29.8789 55.0278 29.8789C55.507 29.8789 55.896 29.49 55.896 29.0107C55.896 28.5315 55.507 28.1426 55.0278 28.1426Z" fill="black"/>
<path fill-rule="evenodd" clip-rule="evenodd" d="M55.0278 18.5928C54.5486 18.5928 54.1597 18.9817 54.1597 19.4609C54.1597 19.9401 54.5486 20.3291 55.0278 20.3291C55.507 20.3291 55.896 19.9401 55.896 19.4609C55.896 18.9817 55.507 18.5928 55.0278 18.5928Z" fill="black"/>
<path fill-rule="evenodd" clip-rule="evenodd" d="M58.5005 20.3291C58.0213 20.3291 57.6323 20.718 57.6323 21.1973C57.6323 21.6765 58.0213 22.0654 58.5005 22.0654C58.9797 22.0654 59.3686 21.6765 59.3686 21.1973C59.3686 20.718 58.9797 20.3291 58.5005 20.3291Z" fill="black"/>
<path fill-rule="evenodd" clip-rule="evenodd" d="M56.7646 43.7693C56.2854 43.7693 55.8965 44.1582 55.8965 44.6374C55.8965 45.1167 56.2854 45.5056 56.7646 45.5056C57.2439 45.5056 57.6328 45.1167 57.6328 44.6374C57.6328 44.1582 57.2439 43.7693 56.7646 43.7693Z" fill="black"/>
<path fill-rule="evenodd" clip-rule="evenodd" d="M51.5557 47.2417C51.0764 47.2417 50.6875 47.6306 50.6875 48.1099C50.6875 48.5891 51.0764 48.978 51.5557 48.978C52.0349 48.978 52.4238 48.5891 52.4238 48.1099C52.4238 47.6306 52.0349 47.2417 51.5557 47.2417Z" fill="black"/>
<path fill-rule="evenodd" clip-rule="evenodd" d="M55.0278 52.4509C54.5486 52.4509 54.1597 52.8399 54.1597 53.3191C54.1597 53.7983 54.5486 54.1872 55.0278 54.1872C55.507 54.1872 55.896 53.7983 55.896 53.3191C55.896 52.8399 55.507 52.4509 55.0278 52.4509Z" fill="black"/>
<path fill-rule="evenodd" clip-rule="evenodd" d="M49.8193 55.9233C49.3401 55.9233 48.9512 56.3123 48.9512 56.7915C48.9512 57.2707 49.3401 57.6596 49.8193 57.6596C50.2985 57.6596 50.6875 57.2707 50.6875 56.7915C50.6875 56.3123 50.2985 55.9233 49.8193 55.9233Z" fill="black"/>
<path fill-rule="evenodd" clip-rule="evenodd" d="M48.083 42.033C47.6038 42.033 47.2148 42.4219 47.2148 42.9011C47.2148 43.3803 47.6038 43.7693 48.083 43.7693C48.5622 43.7693 48.9511 43.3803 48.9511 42.9011C48.9511 42.4219 48.5622 42.033 48.083 42.033Z" fill="black"/>
<path fill-rule="evenodd" clip-rule="evenodd" d="M58.5005 24.6699C58.0213 24.6699 57.6323 25.0589 57.6323 25.5381C57.6323 26.0173 58.0213 26.4062 58.5005 26.4062C58.9797 26.4062 59.3686 26.0173 59.3686 25.5381C59.3686 25.0589 58.9797 24.6699 58.5005 24.6699Z" fill="black"/>
<path fill-rule="evenodd" clip-rule="evenodd" d="M76.0357 14.4215L68.2868 1.00012L54.8654 8.74898L56.8843 10.837L56.9787 12.4094L58.2932 13.2773L58.3876 14.8496L59.7021 15.7175L59.7965 17.2899L61.111 18.1578L61.2054 19.7302L62.5199 20.5981L62.6143 22.1704L76.0357 14.4215Z" stroke="#151524" stroke-linecap="round" stroke-linejoin="round"/>
<path fill-rule="evenodd" clip-rule="evenodd" d="M69.7462 14.7989L64.8151 6.25802L59.9346 9.07579L64.8657 17.6167L69.7462 14.7989Z" stroke="#151524" stroke-linecap="round" stroke-linejoin="round"/>
<rect x="5" y="198" width="304" height="10" fill="#151524"/>
<path d="M248.912 221.438C248.816 219.902 250.928 219.902 250.832 221.438V221.55C250.832 221.79 250.912 221.87 251.152 221.87H252.096C252.336 221.87 252.432 221.726 252.416 221.454C252.288 219.662 251.232 218.814 249.872 218.814C248.4 218.814 247.312 219.79 247.312 221.854V227.102C247.312 229.166 248.4 230.142 249.872 230.142C251.232 230.142 252.288 229.294 252.416 227.502C252.432 227.23 252.336 227.086 252.096 227.086H251.152C250.912 227.086 250.832 227.166 250.832 227.406V227.518C250.928 229.054 248.816 229.054 248.912 227.518V221.438ZM254.936 222.318C254.904 222.078 254.808 222.078 254.584 222.078H253.624C253.416 222.078 253.304 222.11 253.352 222.35L254.936 230.222C255.08 231.038 254.856 231.438 254.264 231.454C254.024 231.454 253.944 231.534 253.944 231.774V232.638C253.944 232.878 254.024 232.958 254.264 232.958C255.48 232.958 256.296 232.59 256.728 230.27L258.312 222.35C258.344 222.078 258.216 222.078 258.04 222.078H257.08C256.888 222.078 256.76 222.078 256.728 222.318L255.896 227.502C255.88 227.582 255.784 227.582 255.768 227.502L254.936 222.318ZM261.009 224.702C261.009 223.886 261.297 223.486 261.873 223.486C262.449 223.486 262.737 223.886 262.737 224.702V227.454C262.737 228.27 262.449 228.67 261.873 228.67C261.297 228.67 261.009 228.27 261.009 227.454V224.702ZM260.689 230.078C260.929 230.078 261.009 229.998 261.009 229.758V229.55C261.281 229.918 261.681 230.11 262.193 230.142C263.473 230.19 264.337 229.294 264.337 227.422V224.734C264.337 222.862 263.473 221.966 262.193 222.014C261.697 222.046 261.297 222.254 261.009 222.622V219.198C261.009 218.958 260.929 218.878 260.689 218.878H259.729C259.489 218.878 259.409 218.958 259.409 219.198V229.758C259.409 229.998 259.489 230.078 259.729 230.078H260.689ZM268.824 224.606C268.824 224.926 268.824 224.926 268.504 224.926H267.544C267.224 224.926 267.224 224.926 267.224 224.606C267.256 223.854 267.528 223.486 268.024 223.486C268.552 223.486 268.808 223.854 268.824 224.606ZM267.224 226.67C267.224 226.43 267.304 226.35 267.544 226.35H270.088C270.344 226.35 270.424 226.286 270.424 226.03V224.958C270.424 223.95 270.184 223.198 269.72 222.734C269.256 222.254 268.68 222.014 268.024 222.014C267.368 222.014 266.792 222.254 266.328 222.734C265.864 223.198 265.624 223.95 265.624 224.958V227.198C265.624 228.206 265.864 228.958 266.328 229.438C266.792 229.902 267.368 230.142 268.024 230.142C268.776 230.142 269.368 229.886 269.768 229.358C270.184 228.83 270.376 228.286 270.344 227.726C270.328 227.486 270.264 227.406 270.024 227.406H269.112C268.824 227.406 268.824 227.55 268.792 227.822C268.776 228.446 268.408 228.67 268.024 228.67C267.496 228.67 267.224 228.27 267.224 227.454V226.67ZM274.775 223.598C275.015 223.662 275.095 223.534 275.095 223.278V222.398C275.095 222.158 275.015 222.078 274.775 222.078H274.615C274.167 222.094 273.783 222.27 273.463 222.59V222.398C273.463 222.158 273.383 222.078 273.143 222.078H272.183C271.943 222.078 271.863 222.158 271.863 222.398V229.758C271.863 229.998 271.943 230.078 272.183 230.078H273.143C273.383 230.078 273.463 229.998 273.463 229.758V225.15C273.463 224.622 273.479 224.43 273.559 224.062C273.639 223.678 273.879 223.518 274.263 223.518C274.391 223.518 274.567 223.55 274.775 223.598ZM253.553 237.918C253.553 235.854 252.465 234.878 250.993 234.878H249.073C248.833 234.878 248.753 234.958 248.753 235.198V245.758C248.753 245.998 248.833 246.078 249.073 246.078H250.993C252.465 246.078 253.553 245.102 253.553 243.038V242.462C253.553 241.534 253.345 240.798 252.913 240.27C252.865 240.206 252.865 240.142 252.913 240.078C253.345 239.55 253.553 238.83 253.553 237.918ZM250.353 241.246C250.353 240.99 250.369 240.942 250.513 240.926H250.993C251.553 240.926 251.953 241.294 251.953 242.078V243.422C251.953 244.206 251.553 244.574 250.993 244.574H250.673C250.353 244.574 250.353 244.574 250.353 244.254V241.246ZM250.353 236.702C250.353 236.382 250.353 236.382 250.673 236.382H250.993C251.553 236.382 251.953 236.75 251.953 237.534V238.27C251.953 238.99 251.633 239.374 250.993 239.422H250.673C250.353 239.422 250.353 239.422 250.353 239.086V236.702ZM256.508 238.398C256.508 238.158 256.428 238.078 256.188 238.078H255.228C254.988 238.078 254.908 238.158 254.908 238.398V243.422C254.908 245.294 255.772 246.19 257.052 246.142C257.58 246.11 257.98 245.886 258.284 245.454V245.758C258.284 245.998 258.364 246.078 258.604 246.078H259.516C259.756 246.078 259.836 245.998 259.836 245.758V238.398C259.836 238.158 259.756 238.078 259.516 238.078H258.556C258.316 238.078 258.236 238.158 258.236 238.398V243.454C258.236 244.27 257.948 244.67 257.372 244.67C256.796 244.67 256.508 244.27 256.508 243.454V238.398ZM262.721 246.078C262.961 246.078 263.041 245.998 263.041 245.758V238.398C263.041 238.158 262.961 238.078 262.721 238.078H261.761C261.521 238.078 261.441 238.158 261.441 238.398V245.758C261.441 245.998 261.521 246.078 261.761 246.078H262.721ZM261.345 236.462C261.345 236.974 261.729 237.358 262.241 237.358C262.737 237.358 263.137 236.974 263.137 236.462C263.137 235.966 262.737 235.566 262.241 235.566C261.729 235.566 261.345 235.966 261.345 236.462ZM264.564 242.878C264.564 244.078 264.74 244.926 265.108 245.39C265.476 245.854 266.116 246.078 267.028 246.078C267.268 246.078 267.348 245.998 267.348 245.758V244.894C267.348 244.654 267.268 244.59 267.028 244.574C266.5 244.526 266.308 244.366 266.212 243.902C266.164 243.566 266.164 243.422 266.164 242.91V235.198C266.164 234.958 266.084 234.878 265.844 234.878H264.884C264.644 234.878 264.564 234.958 264.564 235.198V242.878ZM271.64 243.454C271.64 244.27 271.352 244.67 270.776 244.67C270.2 244.67 269.912 244.27 269.912 243.454V240.702C269.912 239.886 270.2 239.486 270.776 239.486C271.352 239.486 271.64 239.886 271.64 240.702V243.454ZM272.92 246.078C273.16 246.078 273.24 245.998 273.24 245.758V235.198C273.24 234.958 273.16 234.878 272.92 234.878H271.96C271.72 234.878 271.64 234.958 271.64 235.198V238.622C271.352 238.254 270.952 238.046 270.456 238.014C269.176 237.966 268.312 238.862 268.312 240.734V243.422C268.312 245.294 269.176 246.19 270.456 246.142C270.968 246.11 271.368 245.918 271.64 245.55V245.758C271.64 245.998 271.72 246.078 271.96 246.078H272.92Z" fill="#E30B17"/>
<rect x="236.5" y="162.5" width="49" height="36" fill="white" stroke="#1F3554"/>
<path d="M243.54 179.76C243.42 179.66 243.42 179.56 243.54 179.48L245.44 178.08C245.58 177.98 245.66 177.84 245.66 177.68V176.38C245.66 176.2 245.5 176.12 245.34 176.22L241.82 178.78C241.74 178.84 241.7 178.96 241.7 179.1V180.14C241.7 180.28 241.74 180.4 241.82 180.46L245.34 183.02C245.5 183.12 245.66 183.04 245.66 182.86V181.56C245.66 181.4 245.58 181.26 245.44 181.16L243.54 179.76ZM250.675 176.58C250.535 176.88 250.655 177 250.895 177H252.155C252.295 177 252.355 177.06 252.355 177.2V186.6C252.355 186.9 252.455 187 252.755 187H253.955C254.255 187 254.355 186.9 254.355 186.6V173.4C254.355 173.1 254.255 173 253.955 173H252.715C252.555 173 252.435 173.06 252.375 173.2L250.675 176.58ZM262.5 176.72C262.5 174.14 261.14 172.92 259.3 172.92C257.46 172.92 256.1 174.14 256.1 176.72V183.28C256.1 185.86 257.46 187.08 259.3 187.08C261.14 187.08 262.5 185.86 262.5 183.28V176.72ZM260.5 183.8C260.62 185.72 257.98 185.72 258.1 183.8V176.2C257.98 174.28 260.62 174.28 260.5 176.2V183.8ZM267.902 186.6C267.902 186.9 268.002 187 268.302 187H269.502C269.802 187 269.902 186.9 269.902 186.6V179.28C269.902 178.88 269.902 178.88 270.302 178.88H271.802C272.102 178.88 272.202 178.78 272.202 178.48V177.4C272.202 177.1 272.102 177 271.802 177H268.302C268.002 177 267.902 177.1 267.902 177.4V186.6ZM275.208 180.28C275.208 179.26 275.568 178.76 276.288 178.76C277.008 178.76 277.368 179.26 277.368 180.28V183.72C277.368 184.74 277.008 185.24 276.288 185.24C275.568 185.24 275.208 184.74 275.208 183.72V180.28ZM273.608 177C273.348 177 273.208 177.14 273.208 177.4V190.2C273.208 190.5 273.308 190.6 273.608 190.6H274.808C275.108 190.6 275.208 190.5 275.208 190.2V186.32C275.568 186.78 276.068 187.04 276.688 187.08C278.288 187.14 279.368 186.02 279.368 183.68V180.32C279.368 177.98 278.288 176.86 276.688 176.92C276.048 176.96 275.548 177.2 275.208 177.66V177.4C275.208 177.1 275.108 177 274.808 177H273.608Z" fill="#151524"/>
<path fill-rule="evenodd" clip-rule="evenodd" d="M233.124 140.26L235.473 133.075L242.902 132.053L242.311 133.835L236.743 134.618L235.561 138.21L241.136 137.442L240.545 139.239L233.124 140.26ZM241.326 139.123L241.91 137.326L247.492 136.559L247.784 135.653L242.209 136.428L243.676 131.945L245.544 131.677L244.653 134.378L248.375 133.857L249.258 131.17L251.112 130.909L248.762 138.087L241.326 139.123ZM255.329 135.465L252.87 133.241L256.584 132.727L256.876 131.821L253.169 132.343L251.98 135.929L255.329 135.465ZM249.536 137.978L251.893 130.8L259.329 129.772L257.847 134.27L256.738 134.422L257.563 135.161L256.972 136.957L249.536 137.978ZM257.752 136.848L260.102 129.663L267.196 128.707L266.605 130.489L261.372 131.206L261.08 132.097L266.305 131.394L265.721 133.19L260.489 133.893L260.19 134.798L265.429 134.081L264.846 135.878L257.752 136.848ZM265.62 135.776L267.969 128.591L275.406 127.555L273.932 132.053L272.822 132.205L273.632 132.944L273.041 134.741L268.947 131.032L272.669 130.511L272.954 129.62L269.239 130.127L267.473 135.516L265.62 135.776Z" fill="black"/>
<path fill-rule="evenodd" clip-rule="evenodd" d="M253.774 143.818L251.315 141.595L255.022 141.08L255.321 140.175L251.607 140.689L250.432 144.282L253.774 143.818ZM275.243 142.565L277.6 135.38L282.993 134.634L284.073 137.951L281.796 141.66L275.243 142.565ZM280.695 140.131L282.03 138.19L281.476 136.56L278.878 136.915L277.703 140.501L280.695 140.131ZM247.987 146.332L250.344 139.146L257.766 138.125L256.299 142.616L255.183 142.775L257.642 144.999L247.987 146.332ZM256.19 145.195L258.547 138.016L260.408 137.763L258.642 143.145L262.364 142.631L264.129 137.242L265.983 136.988L263.626 144.173L256.19 145.195ZM264.407 144.064L266.757 136.879L268.618 136.626L266.261 143.811L264.407 144.064ZM267.048 143.702L269.398 136.517L271.252 136.249L269.486 141.638L275.061 140.87L274.47 142.666L267.048 143.702Z" fill="black"/>
<path fill-rule="evenodd" clip-rule="evenodd" d="M289.743 131.724L291.895 132.962C291.976 132.991 292.012 133.049 291.968 133.158L291.385 134.91C291.355 135.034 291.289 135.063 291.18 135.128L289.027 136.366C288.925 136.41 288.801 136.41 288.735 136.352L286.582 135.121C286.502 135.085 286.481 135.034 286.502 134.954L287.079 133.179C287.101 133.078 287.181 133.027 287.283 132.97L289.458 131.716C289.56 131.673 289.677 131.68 289.743 131.724ZM279.293 143.776L279.081 144.406C278.891 145.015 278.292 145.406 277.49 145.84L259.991 155.865C259.239 156.148 258.421 156.213 257.889 155.952L245.016 148.528L279.293 143.776ZM244.228 130.34L244.44 129.71C244.629 129.102 245.228 128.71 246.03 128.276L263.53 118.251C264.289 117.969 265.099 117.903 265.631 118.164L278.169 125.4L278.088 125.647L244.228 130.34ZM277.957 125.284L278.169 125.393L278.358 124.806C278.424 124.567 278.592 124.437 278.825 124.299L284.043 121.315C284.277 121.207 284.561 121.228 284.714 121.33L289.859 124.277C290.034 124.364 290.115 124.481 290.034 124.756L288.648 128.942C288.568 129.218 288.4 129.305 288.137 129.471L282.999 132.397C282.766 132.506 282.474 132.506 282.306 132.39L278.169 130.021L277.95 130.71C277.884 130.912 277.95 131.036 278.125 131.122L282.212 133.469L274.921 134.483L277.957 125.284ZM245.563 148.832L242.432 147.072L243.184 144.762C243.265 144.53 243.199 144.436 243.045 144.363L241.725 143.61C241.747 143.668 241.747 143.748 241.71 143.842L240.579 147.268C240.513 147.5 240.382 147.579 240.156 147.709L235.952 150.114C235.748 150.201 235.529 150.201 235.383 150.1L231.165 147.688C231.019 147.608 230.968 147.514 231.019 147.347L232.158 143.885C232.202 143.69 232.333 143.581 232.53 143.472L236.806 141.024C236.996 140.937 237.237 140.959 237.361 141.039L240.178 142.654L240.798 140.727L248.599 139.648L245.563 148.832Z" fill="#E30613"/>
</svg>
