<svg width="390" height="275" viewBox="0 0 390 275" fill="none" xmlns="http://www.w3.org/2000/svg">
<g style="mix-blend-mode:screen">
<path fill-rule="evenodd" clip-rule="evenodd" d="M417.931 -203.621L638.6 -76.8712C646.835 -73.9016 650.571 -67.9625 646.073 -56.8809L586.253 122.488C583.242 135.127 576.495 138.06 565.286 144.76L344.617 271.473C334.133 275.928 321.436 275.928 314.689 269.989L94.0205 143.999C85.822 140.305 83.5729 135.127 85.822 126.942L144.916 -54.6357C147.129 -65.0291 155.4 -70.2078 165.847 -76.1107L388.729 -204.381C399.213 -208.8 411.184 -208.075 417.931 -203.621Z" fill="#E30613" fill-opacity="0.3"/>
</g>
<g style="mix-blend-mode:screen">
<path fill-rule="evenodd" clip-rule="evenodd" d="M144.881 -149.726L240.909 -94.5033C244.493 -93.2095 246.119 -90.6219 244.161 -85.7938L218.13 -7.64551C216.82 -2.13899 213.883 -0.860962 209.005 2.05795L112.977 57.2651C108.415 59.2058 102.89 59.2058 99.9535 56.6182L3.92542 1.72662C0.357718 0.117264 -0.621033 -2.13899 0.357718 -5.70482L26.0736 -84.8156C27.0366 -89.3439 30.6358 -91.6001 35.1823 -94.1719L132.173 -150.058C136.736 -151.982 141.945 -151.667 144.881 -149.726Z" fill="#E30613" fill-opacity="0.3"/>
</g>
</svg>
