<svg width="38" height="42" viewBox="0 0 38 42" fill="none" xmlns="http://www.w3.org/2000/svg">
<g id="Group 86 Copy" opacity="0.5">
<path id="Stroke 8146" fill-rule="evenodd" clip-rule="evenodd" d="M27.1261 24.433L19.018 29.8407L10.9099 24.433V17.2227L19.018 11.8149L27.1261 17.2227V24.433Z" stroke="#151524" stroke-width="1.8" stroke-linecap="round" stroke-linejoin="round"/>
<path id="Stroke 8147" fill-rule="evenodd" clip-rule="evenodd" d="M32.5315 17.7621L37.036 12.9457L34.2559 8.30764L27.8072 10.0381L23.6252 7.66592L21.7207 1H16.3153L14.4108 7.66592L10.2288 10.0381L3.78018 8.30764L1 12.9457L5.5045 17.7621V23.8927L1 28.711L3.78018 33.3472L10.2288 31.6185L14.4108 33.9889L16.3153 40.6567H21.7207L23.6252 33.9889L27.8072 31.6185L34.2559 33.3472L37.036 28.711L32.5315 23.8927V17.7621Z" stroke="#151524" stroke-width="1.8" stroke-linecap="round" stroke-linejoin="round"/>
<path id="Stroke 8148" fill-rule="evenodd" clip-rule="evenodd" d="M19.0181 18.124L16.3154 20.8279L19.0181 23.5317L21.7208 20.8279L19.0181 18.124Z" stroke="#151524" stroke-width="1.8" stroke-linecap="round" stroke-linejoin="round"/>
</g>
</svg>
