<svg width="42" height="42" viewBox="0 0 42 42" fill="none" xmlns="http://www.w3.org/2000/svg">
<g id="Group 872 Copy" opacity="0.5">
<path id="Stroke 5003" fill-rule="evenodd" clip-rule="evenodd" d="M19.018 37.9527L10.009 40.6566L1 37.9527V25.3347L10.009 28.0386L19.018 25.3347V37.9527Z" stroke="#151524" stroke-width="1.8" stroke-linecap="round" stroke-linejoin="round"/>
<path id="Stroke 5004" d="M19.018 25.3347L10.009 22.6309L1 25.3347" stroke="#151524" stroke-width="1.8" stroke-linecap="round" stroke-linejoin="round"/>
<path id="Stroke 5005" d="M10.0088 28.0386V40.6566" stroke="#151524" stroke-width="1.8" stroke-linecap="round" stroke-linejoin="round"/>
<path id="Stroke 5006" fill-rule="evenodd" clip-rule="evenodd" d="M40.6396 37.9527L31.6306 40.6566L22.6216 37.9527V25.3347L31.6306 28.0386L40.6396 25.3347V37.9527Z" stroke="#151524" stroke-width="1.8" stroke-linecap="round" stroke-linejoin="round"/>
<path id="Stroke 5007" d="M40.6396 25.3347L31.6306 22.6309L22.6216 25.3347" stroke="#151524" stroke-width="1.8" stroke-linecap="round" stroke-linejoin="round"/>
<path id="Stroke 5008" d="M31.6309 28.0386V40.6566" stroke="#151524" stroke-width="1.8" stroke-linecap="round" stroke-linejoin="round"/>
<path id="Stroke 5009" fill-rule="evenodd" clip-rule="evenodd" d="M29.8291 16.3219L20.82 19.0257L11.811 16.3219V3.70386L20.82 6.40772L29.8291 3.70386V16.3219Z" stroke="#151524" stroke-width="1.8" stroke-linecap="round" stroke-linejoin="round"/>
<path id="Stroke 5010" d="M29.8291 3.70386L20.82 1L11.811 3.70386" stroke="#151524" stroke-width="1.8" stroke-linecap="round" stroke-linejoin="round"/>
<path id="Stroke 5011" d="M20.8198 6.40771V19.0257" stroke="#151524" stroke-width="1.8" stroke-linecap="round" stroke-linejoin="round"/>
</g>
</svg>
