<svg width="360" height="695" viewBox="0 0 360 695" fill="none" xmlns="http://www.w3.org/2000/svg">
<mask id="mask0" mask-type="alpha" maskUnits="userSpaceOnUse" x="16" y="86" width="355" height="183">
<path d="M371 86.4966L333.505 86.4966L16.4089 268.262H371V86.4966Z" fill="#C4C4C4"/>
</mask>
<g mask="url(#mask0)">
<path d="M62.2546 103.601C62.4104 102.822 62.2026 102.562 61.4234 102.562H44.7998C44.1245 102.562 43.7089 102.925 43.5531 103.601L36.8517 137.887C36.6958 138.562 37.0075 138.926 37.7348 138.926H40.8517C41.5271 138.926 41.8907 138.562 42.0466 137.887L47.8128 108.224C47.9167 107.705 48.2284 107.445 48.7479 107.445H55.5012C56.0207 107.445 56.2285 107.705 56.1246 108.224L50.3583 137.887C50.2025 138.562 50.5142 138.926 51.2415 138.926H54.3584C55.0337 138.926 55.3973 138.562 55.5532 137.887L62.2546 103.601ZM72.5903 138.926C73.2656 138.926 73.6293 138.562 73.7851 137.887L74.3565 135.082C74.5124 134.302 74.3046 134.043 73.5254 134.043H67.7591C66.7201 134.043 66.7201 134.043 66.9279 133.004L68.798 123.237C69.0058 122.198 69.0058 122.198 70.0448 122.198H75.8111C76.4864 122.198 76.902 121.835 77.0579 121.159L77.5774 118.354C77.7332 117.575 77.5254 117.315 76.7462 117.315H70.9799C69.9409 117.315 69.9409 117.315 70.1487 116.276L71.6552 108.484C71.863 107.445 71.863 107.445 72.902 107.445H78.6683C79.3436 107.445 79.7592 107.081 79.915 106.406L80.4865 103.601C80.6423 102.822 80.4345 102.562 79.6553 102.562H68.6941C68.0188 102.562 67.6032 102.925 67.4474 103.601L60.746 137.887C60.5902 138.562 60.9019 138.926 61.6291 138.926H72.5903ZM99.0686 112.951C100.523 105.419 98.6531 102.562 93.3024 102.562H86.549C85.8737 102.562 85.4581 102.925 85.3023 103.601L78.6009 137.887C78.4451 138.666 78.6529 138.926 79.484 138.926H82.6009C83.2763 138.926 83.6399 138.562 83.7958 137.887L85.7698 127.861C85.9776 126.822 85.9776 126.822 87.0166 126.822H88.575C93.9777 126.822 96.9388 124.017 98.3414 116.484L99.0686 112.951ZM89.614 108.172C89.7699 107.133 89.7699 107.133 90.8088 107.133H92.3673C93.614 107.133 94.2894 107.653 94.3413 108.848C94.3933 110.042 94.3413 110.718 93.9777 112.432L93.0946 116.9C92.8348 118.302 92.7309 118.77 92.3153 119.861C92.1595 120.432 91.9517 120.848 91.6919 121.107C91.2764 121.679 90.4452 122.198 89.4582 122.198H87.8997C86.8607 122.198 86.8607 122.25 87.0685 121.263L89.614 108.172ZM106.387 102.562C105.712 102.562 105.296 102.925 105.141 103.601L98.4392 137.887C98.2833 138.562 98.595 138.926 99.3223 138.926H106.076C110.803 138.926 114.439 136.017 115.738 129.211L116.102 127.289C116.725 124.12 116.517 121.731 115.426 120.016C115.374 119.965 115.374 119.861 115.478 119.809C117.245 118.042 118.387 115.601 118.959 112.484L119.011 112.224C120.31 105.419 117.868 102.562 113.141 102.562H106.387ZM106.491 123.289C106.699 122.198 106.699 122.198 107.79 122.198H109.296C111.011 122.198 111.634 123.445 111.167 125.939L110.283 130.614C109.764 133.108 108.673 134.354 106.959 134.354H105.4C104.361 134.354 104.361 134.354 104.569 133.263L106.491 123.289ZM108.673 117.315C107.634 117.315 107.634 117.315 107.842 116.224L109.452 108.172C109.608 107.133 109.608 107.133 110.647 107.133H112.206C113.972 107.133 114.595 108.38 114.076 110.874L113.556 113.627C113.089 116.068 111.946 117.315 110.232 117.315H108.673ZM140.551 112.224C141.85 105.523 138.941 102.354 134.162 102.354C129.382 102.354 125.226 105.523 123.928 112.224L120.655 129.263C119.356 135.965 122.265 139.134 127.045 139.134C131.824 139.134 135.98 135.965 137.278 129.263L140.551 112.224ZM131.824 130.614C131.252 133.159 129.694 134.354 127.98 134.354C126.161 134.354 125.019 133.108 125.59 130.614L129.382 110.874C129.954 108.328 131.512 107.133 133.226 107.133C135.045 107.133 136.188 108.38 135.616 110.874L131.824 130.614ZM151.325 138.926C152 138.926 152.364 138.562 152.52 137.887L153.091 135.082C153.247 134.302 153.039 134.043 152.26 134.043H146.494C145.455 134.043 145.455 134.043 145.662 133.004L147.533 123.237C147.74 122.198 147.74 122.198 148.779 122.198H154.546C155.221 122.198 155.637 121.835 155.792 121.159L156.312 118.354C156.468 117.575 156.26 117.315 155.481 117.315H149.714C148.675 117.315 148.675 117.315 148.883 116.276L150.39 108.484C150.598 107.445 150.598 107.445 151.637 107.445H157.403C158.078 107.445 158.494 107.081 158.65 106.406L159.221 103.601C159.377 102.822 159.169 102.562 158.39 102.562H147.429C146.753 102.562 146.338 102.925 146.182 103.601L139.481 137.887C139.325 138.562 139.636 138.926 140.364 138.926H151.325Z" fill="white"/>
<path d="M38.0669 170.941C38.1708 170.37 38.3267 169.954 38.5345 169.694L40.3527 166.785C40.5605 166.474 40.7163 166.474 40.7683 166.785L41.9111 181.279C41.9631 181.954 42.3267 182.318 43.1059 182.318H46.1709C46.8462 182.318 47.1579 181.954 47.106 181.279L45.4956 160.863C45.4436 160.499 45.4956 160.188 45.6514 159.928L53.8074 146.993C54.2749 146.318 54.119 145.954 53.3918 145.954H50.3268C49.5995 145.954 49.0281 146.318 48.6125 146.993L40.6644 159.668C40.4566 159.928 40.1968 159.876 40.2488 159.616L42.7423 146.993C42.8982 146.214 42.6904 145.954 41.9111 145.954H38.7942C38.1189 145.954 37.7033 146.318 37.5474 146.993L30.8461 181.279C30.6902 181.954 31.0019 182.318 31.7292 182.318H34.8461C35.5215 182.318 35.8851 181.954 36.0409 181.279L38.0669 170.941ZM53.852 182.318C54.3715 182.318 54.7351 182.11 54.9949 181.694L65.5924 162.318C65.8002 161.954 66.0599 162.058 66.008 162.318L62.3196 181.279C62.1638 181.954 62.4755 182.318 63.2027 182.318H66.3197C66.995 182.318 67.3586 181.954 67.5145 181.279L74.2158 146.993C74.3717 146.214 74.1639 145.954 73.3847 145.954H71.047C70.4755 145.954 70.1119 146.162 69.8522 146.629L59.2547 166.006C59.0469 166.266 58.7871 166.266 58.8391 166.006L62.5274 146.993C62.6833 146.214 62.4755 145.954 61.6962 145.954H58.5793C57.904 145.954 57.4884 146.318 57.3326 146.993L50.6312 181.279C50.4753 181.954 50.787 182.318 51.5143 182.318H53.852ZM72.6992 181.279C72.5433 181.954 72.855 182.318 73.5823 182.318H80.3356C85.6863 182.318 88.6474 179.461 90.102 171.928L91.1409 166.733C92.5955 159.201 90.7254 156.344 85.3746 156.344H83.8162C82.7772 156.344 82.7772 156.344 82.985 155.305L83.6084 151.876C83.8162 150.837 83.8162 150.837 84.8552 150.837H92.128C92.8033 150.837 93.2189 150.473 93.3747 149.798L93.9462 146.993C94.102 146.214 93.8942 145.954 93.115 145.954H80.6473C79.972 145.954 79.5564 146.318 79.4006 146.993L72.6992 181.279ZM81.6863 162.006C81.8421 160.967 81.8421 160.967 82.8811 160.967H84.4396C85.5824 160.967 86.2058 161.538 86.3617 162.629C86.5175 163.72 86.4136 164.967 86.05 166.266L84.8552 172.396C84.5954 173.798 84.4915 174.266 84.0759 175.357C83.9201 175.928 83.7123 176.344 83.4525 176.604C83.037 177.175 82.2058 177.694 81.2188 177.694H79.6603C78.6213 177.694 78.6213 177.694 78.8291 176.655L81.6863 162.006ZM104.785 182.318C105.46 182.318 105.824 181.954 105.98 181.279L106.551 178.474C106.707 177.694 106.499 177.435 105.72 177.435H99.9539C98.915 177.435 98.915 177.435 99.1228 176.396L100.993 166.629C101.201 165.59 101.201 165.59 102.24 165.59H108.006C108.681 165.59 109.097 165.227 109.253 164.551L109.772 161.746C109.928 160.967 109.72 160.707 108.941 160.707H103.175C102.136 160.707 102.136 160.707 102.344 159.668L103.85 151.876C104.058 150.837 104.058 150.837 105.097 150.837H110.863C111.538 150.837 111.954 150.473 112.11 149.798L112.681 146.993C112.837 146.214 112.629 145.954 111.85 145.954H100.889C100.214 145.954 99.7981 146.318 99.6422 146.993L92.9409 181.279C92.785 181.954 93.0967 182.318 93.824 182.318H104.785ZM131.264 156.344C132.718 148.811 130.848 145.954 125.497 145.954H118.744C118.069 145.954 117.653 146.318 117.497 146.993L110.796 181.279C110.64 182.058 110.848 182.318 111.679 182.318H114.796C115.471 182.318 115.835 181.954 115.991 181.279L117.965 171.253C118.172 170.214 118.172 170.214 119.211 170.214H120.77C126.173 170.214 129.134 167.409 130.536 159.876L131.264 156.344ZM121.809 151.564C121.965 150.525 121.965 150.525 123.004 150.525H124.562C125.809 150.525 126.484 151.045 126.536 152.24C126.588 153.434 126.536 154.11 126.173 155.824L125.289 160.292C125.03 161.694 124.926 162.162 124.51 163.253C124.354 163.824 124.147 164.24 123.887 164.5C123.471 165.071 122.64 165.59 121.653 165.59H120.095C119.056 165.59 119.056 165.642 119.263 164.655L121.809 151.564ZM141.335 154.266C141.907 151.72 143.465 150.525 145.18 150.525C146.998 150.525 148.141 151.772 147.569 154.266L147.517 154.629C147.361 155.409 147.569 155.668 148.349 155.668H151.413C152.193 155.668 152.66 155.201 152.712 154.318C153.388 148.499 150.53 145.746 146.115 145.746C141.335 145.746 137.18 148.915 135.881 155.616L132.608 172.655C131.309 179.357 134.218 182.526 138.998 182.526C143.413 182.526 147.31 179.772 148.92 173.954C149.18 173.071 148.92 172.603 148.141 172.603H145.076C144.4 172.603 143.985 172.967 143.829 173.642L143.777 174.006C143.206 176.552 141.647 177.746 139.933 177.746C138.115 177.746 136.972 176.5 137.543 174.006L141.335 154.266ZM176.532 146.993C176.688 146.214 176.48 145.954 175.701 145.954H159.078C158.402 145.954 157.987 146.318 157.831 146.993L151.129 181.279C150.974 181.954 151.285 182.318 152.012 182.318H155.129C155.805 182.318 156.168 181.954 156.324 181.279L162.091 151.616C162.194 151.097 162.506 150.837 163.026 150.837H169.779C170.298 150.837 170.506 151.097 170.402 151.616L164.636 181.279C164.48 181.954 164.792 182.318 165.519 182.318H168.636C169.311 182.318 169.675 181.954 169.831 181.279L176.532 146.993ZM196.894 155.616C198.193 148.915 195.284 145.746 190.504 145.746C185.725 145.746 181.569 148.915 180.27 155.616L176.998 172.655C175.699 179.357 178.608 182.526 183.387 182.526C188.167 182.526 192.323 179.357 193.621 172.655L196.894 155.616ZM188.167 174.006C187.595 176.552 186.037 177.746 184.322 177.746C182.504 177.746 181.361 176.5 181.933 174.006L185.725 154.266C186.297 151.72 187.855 150.525 189.569 150.525C191.387 150.525 192.53 151.772 191.959 154.266L188.167 174.006ZM216.187 156.344C217.642 148.811 215.772 145.954 210.421 145.954H203.668C202.992 145.954 202.577 146.318 202.421 146.993L195.72 181.279C195.564 182.058 195.771 182.318 196.603 182.318H199.72C200.395 182.318 200.759 181.954 200.914 181.279L202.888 171.253C203.096 170.214 203.096 170.214 204.135 170.214H205.694C211.096 170.214 214.057 167.409 215.46 159.876L216.187 156.344ZM206.733 151.564C206.888 150.525 206.888 150.525 207.927 150.525H209.486C210.733 150.525 211.408 151.045 211.46 152.24C211.512 153.434 211.46 154.11 211.096 155.824L210.213 160.292C209.953 161.694 209.85 162.162 209.434 163.253C209.278 163.824 209.07 164.24 208.811 164.5C208.395 165.071 207.564 165.59 206.577 165.59H205.018C203.979 165.59 203.979 165.642 204.187 164.655L206.733 151.564ZM219.87 149.798C219.714 150.577 219.921 150.837 220.701 150.837H223.87C224.857 150.837 224.857 150.837 224.649 151.876L218.934 181.279C218.779 181.954 219.09 182.318 219.818 182.318H222.934C223.61 182.318 223.973 181.954 224.129 181.279L229.844 151.876C230.051 150.837 230.051 150.837 231.09 150.837H234.207C234.883 150.837 235.298 150.473 235.454 149.798L236.026 146.993C236.181 146.214 235.974 145.954 235.194 145.954H221.688C221.012 145.954 220.597 146.318 220.441 146.993L219.87 149.798ZM235.926 182.318C236.445 182.318 236.809 182.11 237.069 181.694L247.666 162.318C247.874 161.954 248.134 162.058 248.082 162.318L244.393 181.279C244.237 181.954 244.549 182.318 245.276 182.318H248.393C249.069 182.318 249.432 181.954 249.588 181.279L256.29 146.993C256.445 146.214 256.238 145.954 255.458 145.954H253.121C252.549 145.954 252.186 146.162 251.926 146.629L241.328 166.006C241.121 166.266 240.861 166.266 240.913 166.006L244.601 146.993C244.757 146.214 244.549 145.954 243.77 145.954H240.653C239.978 145.954 239.562 146.318 239.406 146.993L232.705 181.279C232.549 181.954 232.861 182.318 233.588 182.318H235.926ZM262.721 145.954C262.046 145.954 261.63 146.318 261.474 146.993L254.773 181.279C254.617 181.954 254.929 182.318 255.656 182.318H262.409C267.137 182.318 270.773 179.409 272.072 172.603L272.435 170.681C273.059 167.513 272.851 165.123 271.76 163.409C271.708 163.357 271.708 163.253 271.812 163.201C273.578 161.435 274.721 158.993 275.293 155.876L275.345 155.616C276.643 148.811 274.202 145.954 269.474 145.954H262.721ZM262.825 166.681C263.033 165.59 263.033 165.59 264.124 165.59H265.63C267.344 165.59 267.968 166.837 267.5 169.331L266.617 174.006C266.098 176.5 265.007 177.746 263.292 177.746H261.734C260.695 177.746 260.695 177.746 260.903 176.655L262.825 166.681ZM265.007 160.707C263.968 160.707 263.968 160.707 264.176 159.616L265.786 151.564C265.942 150.525 265.942 150.525 266.981 150.525H268.539C270.306 150.525 270.929 151.772 270.409 154.266L269.89 157.019C269.422 159.46 268.28 160.707 266.565 160.707H265.007ZM285.404 181.279C285.248 181.954 285.56 182.318 286.287 182.318H289.404C290.08 182.318 290.443 181.954 290.599 181.279L297.301 146.993C297.456 146.214 297.249 145.954 296.469 145.954H293.352C292.677 145.954 292.262 146.318 292.106 146.993L289.612 159.668C289.404 160.707 289.404 160.707 288.365 160.707H285.248C284.209 160.707 284.209 160.707 284.417 159.668L286.911 146.993C287.067 146.214 286.859 145.954 286.08 145.954H282.963C282.287 145.954 281.872 146.318 281.716 146.993L275.015 181.279C274.859 181.954 275.17 182.318 275.898 182.318H279.015C279.69 182.318 280.054 181.954 280.209 181.279L283.067 166.629C283.274 165.59 283.274 165.59 284.313 165.59H287.43C288.469 165.59 288.469 165.59 288.261 166.629L285.404 181.279ZM317.685 155.616C318.983 148.915 316.074 145.746 311.295 145.746C306.516 145.746 302.36 148.915 301.061 155.616L297.788 172.655C296.49 179.357 299.399 182.526 304.178 182.526C308.957 182.526 313.113 179.357 314.412 172.655L317.685 155.616ZM308.957 174.006C308.386 176.552 306.827 177.746 305.113 177.746C303.295 177.746 302.152 176.5 302.723 174.006L306.516 154.266C307.087 151.72 308.646 150.525 310.36 150.525C312.178 150.525 313.321 151.772 312.75 154.266L308.957 174.006ZM328.458 182.318C329.134 182.318 329.497 181.954 329.653 181.279L330.225 178.474C330.38 177.694 330.173 177.435 329.393 177.435H323.627C322.588 177.435 322.588 177.435 322.796 176.396L324.666 166.629C324.874 165.59 324.874 165.59 325.913 165.59H331.679C332.354 165.59 332.77 165.227 332.926 164.551L333.445 161.746C333.601 160.967 333.393 160.707 332.614 160.707H326.848C325.809 160.707 325.809 160.707 326.017 159.668L327.523 151.876C327.731 150.837 327.731 150.837 328.77 150.837H334.536C335.212 150.837 335.627 150.473 335.783 149.798L336.354 146.993C336.51 146.214 336.303 145.954 335.523 145.954H324.562C323.887 145.954 323.471 146.318 323.315 146.993L316.614 181.279C316.458 181.954 316.77 182.318 317.497 182.318H328.458Z" fill="white"/>
<path d="M50.2431 190.385C50.3989 189.606 50.1911 189.346 49.4119 189.346H32.7884C32.113 189.346 31.6974 189.71 31.5416 190.385L24.8402 224.671C24.6844 225.346 24.9961 225.71 25.7233 225.71H28.8403C29.5156 225.71 29.8792 225.346 30.0351 224.671L35.8014 195.008C35.9053 194.489 36.217 194.229 36.7364 194.229H43.4898C44.0092 194.229 44.217 194.489 44.1131 195.008L38.3469 224.671C38.191 225.346 38.5027 225.71 39.23 225.71H42.3469C43.0222 225.71 43.3859 225.346 43.5417 224.671L50.2431 190.385ZM51.9554 225.71C52.4748 225.71 52.8385 225.502 53.0982 225.087L63.6957 205.71C63.9035 205.346 64.1633 205.45 64.1113 205.71L60.423 224.671C60.2671 225.346 60.5788 225.71 61.3061 225.71H64.423C65.0983 225.71 65.462 225.346 65.6178 224.671L72.3192 190.385C72.475 189.606 72.2673 189.346 71.488 189.346H69.1503C68.5789 189.346 68.2153 189.554 67.9555 190.021L57.358 209.398C57.1502 209.658 56.8905 209.658 56.9424 209.398L60.6308 190.385C60.7866 189.606 60.5788 189.346 59.7996 189.346H56.6827C56.0073 189.346 55.5918 189.71 55.4359 190.385L48.7345 224.671C48.5787 225.346 48.8904 225.71 49.6177 225.71H51.9554ZM75.1143 193.19C74.9584 193.969 75.1662 194.229 75.9455 194.229H79.1143C80.1013 194.229 80.1013 194.229 79.8935 195.268L74.1792 224.671C74.0234 225.346 74.335 225.71 75.0623 225.71H78.1792C78.8546 225.71 79.2182 225.346 79.3741 224.671L85.0884 195.268C85.2962 194.229 85.2962 194.229 86.3352 194.229H89.4521C90.1274 194.229 90.543 193.865 90.6989 193.19L91.2703 190.385C91.4261 189.606 91.2183 189.346 90.4391 189.346H76.9325C76.2571 189.346 75.8416 189.71 75.6857 190.385L75.1143 193.19ZM102.227 225.71C102.903 225.71 103.266 225.398 103.266 224.827L103.422 190.281C103.422 189.502 103.318 189.346 102.487 189.346H99.6819C98.8507 189.346 98.6949 189.502 98.3312 190.281L85.0843 224.827C84.6688 225.71 85.396 225.71 85.8116 225.71H88.9285C89.6558 225.71 89.9675 225.71 90.1753 224.931L91.2143 222.126C91.6299 221.087 91.6299 221.087 92.6169 221.087H97.2403C98.2273 221.087 98.1754 221.087 98.1754 222.126L98.0715 224.931C98.0715 225.71 98.4871 225.71 99.1105 225.71H102.227ZM98.2793 202.541C98.3312 202.437 98.3832 202.385 98.4351 202.333C98.591 202.281 98.6949 202.385 98.6949 202.541L98.3832 215.164C98.3312 216.203 98.3312 216.203 97.2923 216.203H94.3831C93.3442 216.203 93.3442 216.203 93.7078 215.164L98.2793 202.541ZM117.922 224.671C117.766 225.346 118.077 225.71 118.805 225.71H121.922C122.597 225.71 122.961 225.346 123.116 224.671L129.818 190.385C129.974 189.606 129.766 189.346 128.987 189.346H125.87C125.194 189.346 124.779 189.71 124.623 190.385L122.129 203.06C121.922 204.099 121.922 204.099 120.883 204.099H117.766C116.727 204.099 116.727 204.099 116.935 203.06L119.428 190.385C119.584 189.606 119.376 189.346 118.597 189.346H115.48C114.805 189.346 114.389 189.71 114.233 190.385L107.532 224.671C107.376 225.346 107.688 225.71 108.415 225.71H111.532C112.207 225.71 112.571 225.346 112.727 224.671L115.584 210.021C115.792 208.983 115.792 208.983 116.831 208.983H119.948C120.987 208.983 120.987 208.983 120.779 210.021L117.922 224.671ZM131.552 225.71C132.072 225.71 132.435 225.502 132.695 225.087L143.293 205.71C143.501 205.346 143.76 205.45 143.708 205.71L140.02 224.671C139.864 225.346 140.176 225.71 140.903 225.71H144.02C144.695 225.71 145.059 225.346 145.215 224.671L151.916 190.385C152.072 189.606 151.864 189.346 151.085 189.346H148.747C148.176 189.346 147.812 189.554 147.553 190.021L136.955 209.398C136.747 209.658 136.487 209.658 136.539 209.398L140.228 190.385C140.384 189.606 140.176 189.346 139.397 189.346H136.28C135.604 189.346 135.189 189.71 135.033 190.385L128.332 224.671C128.176 225.346 128.487 225.71 129.215 225.71H131.552ZM162.244 225.71C162.919 225.71 163.283 225.346 163.439 224.671L164.01 221.866C164.166 221.087 163.958 220.827 163.179 220.827H157.413C156.374 220.827 156.374 220.827 156.581 219.788L158.452 210.021C158.659 208.983 158.659 208.983 159.698 208.983H165.465C166.14 208.983 166.556 208.619 166.711 207.944L167.231 205.138C167.387 204.359 167.179 204.099 166.4 204.099H160.633C159.594 204.099 159.594 204.099 159.802 203.06L161.309 195.268C161.517 194.229 161.517 194.229 162.556 194.229H168.322C168.997 194.229 169.413 193.865 169.569 193.19L170.14 190.385C170.296 189.606 170.088 189.346 169.309 189.346H158.348C157.672 189.346 157.257 189.71 157.101 190.385L150.4 224.671C150.244 225.346 150.555 225.71 151.283 225.71H162.244Z" fill="white"/>
</g>
<mask id="mask1" mask-type="alpha" maskUnits="userSpaceOnUse" x="3" y="87" width="330" height="183">
<path d="M3 177.876L159.437 87.4897L332.015 87.4897L14.919 269.255H3V177.876Z" fill="#C4C4C4"/>
</mask>
<g mask="url(#mask1)">
<path d="M58.7708 103.104C58.9266 102.324 58.7188 102.065 57.9396 102.065H41.3161C40.6407 102.065 40.2251 102.428 40.0693 103.104L33.3679 137.39C33.2121 138.065 33.5238 138.429 34.2511 138.429H37.368C38.0433 138.429 38.4069 138.065 38.5628 137.39L44.3291 107.727C44.433 107.208 44.7447 106.948 45.2642 106.948H52.0175C52.537 106.948 52.7448 107.208 52.6409 107.727L46.8746 137.39C46.7187 138.065 47.0304 138.429 47.7577 138.429H50.8746C51.5499 138.429 51.9136 138.065 52.0694 137.39L58.7708 103.104ZM69.1065 138.429C69.7819 138.429 70.1455 138.065 70.3013 137.39L70.8728 134.585C71.0286 133.805 70.8208 133.546 70.0416 133.546H64.2753C63.2363 133.546 63.2363 133.546 63.4441 132.507L65.3143 122.74C65.5221 121.701 65.5221 121.701 66.561 121.701H72.3273C73.0027 121.701 73.4183 121.338 73.5741 120.662L74.0936 117.857C74.2494 117.078 74.0416 116.818 73.2624 116.818H67.4961C66.4571 116.818 66.4571 116.818 66.6649 115.779L68.1715 107.987C68.3792 106.948 68.3792 106.948 69.4182 106.948H75.1845C75.8598 106.948 76.2754 106.584 76.4313 105.909L77.0027 103.104C77.1586 102.324 76.9508 102.065 76.1715 102.065H65.2104C64.5351 102.065 64.1195 102.428 63.9636 103.104L57.2622 137.39C57.1064 138.065 57.4181 138.429 58.1454 138.429H69.1065ZM95.5849 112.454C97.0394 104.922 95.1693 102.065 89.8186 102.065H83.0653C82.3899 102.065 81.9744 102.428 81.8185 103.104L75.1171 137.39C74.9613 138.169 75.1691 138.429 76.0003 138.429H79.1172C79.7925 138.429 80.1562 138.065 80.312 137.39L82.286 127.364C82.4938 126.325 82.4938 126.325 83.5328 126.325H85.0913C90.4939 126.325 93.455 123.519 94.8576 115.987L95.5849 112.454ZM86.1302 107.675C86.2861 106.636 86.2861 106.636 87.3251 106.636H88.8835C90.1303 106.636 90.8056 107.156 90.8576 108.35C90.9095 109.545 90.8576 110.221 90.4939 111.935L89.6108 116.403C89.3511 117.805 89.2472 118.273 88.8316 119.364C88.6757 119.935 88.4679 120.351 88.2082 120.61C87.7926 121.182 86.9614 121.701 85.9744 121.701H84.4159C83.377 121.701 83.377 121.753 83.5848 120.766L86.1302 107.675ZM102.904 102.065C102.228 102.065 101.813 102.428 101.657 103.104L94.9554 137.39C94.7996 138.065 95.1113 138.429 95.8385 138.429H102.592C107.319 138.429 110.956 135.52 112.254 128.714L112.618 126.792C113.241 123.623 113.034 121.234 111.943 119.519C111.891 119.467 111.891 119.364 111.995 119.312C113.761 117.545 114.904 115.104 115.475 111.987L115.527 111.727C116.826 104.922 114.384 102.065 109.657 102.065H102.904ZM103.007 122.792C103.215 121.701 103.215 121.701 104.306 121.701H105.813C107.527 121.701 108.15 122.948 107.683 125.442L106.8 130.117C106.28 132.61 105.189 133.857 103.475 133.857H101.917C100.878 133.857 100.878 133.857 101.085 132.766L103.007 122.792ZM105.189 116.818C104.15 116.818 104.15 116.818 104.358 115.727L105.969 107.675C106.124 106.636 106.124 106.636 107.163 106.636H108.722C110.488 106.636 111.111 107.883 110.592 110.376L110.072 113.13C109.605 115.571 108.462 116.818 106.748 116.818H105.189ZM137.067 111.727C138.366 105.026 135.457 101.857 130.678 101.857C125.899 101.857 121.743 105.026 120.444 111.727L117.171 128.766C115.872 135.468 118.782 138.637 123.561 138.637C128.34 138.637 132.496 135.468 133.795 128.766L137.067 111.727ZM128.34 130.117C127.769 132.662 126.21 133.857 124.496 133.857C122.678 133.857 121.535 132.61 122.106 130.117L125.899 110.376C126.47 107.831 128.028 106.636 129.743 106.636C131.561 106.636 132.704 107.883 132.132 110.376L128.34 130.117ZM147.841 138.429C148.516 138.429 148.88 138.065 149.036 137.39L149.607 134.585C149.763 133.805 149.555 133.546 148.776 133.546H143.01C141.971 133.546 141.971 133.546 142.179 132.507L144.049 122.74C144.257 121.701 144.257 121.701 145.296 121.701H151.062C151.737 121.701 152.153 121.338 152.309 120.662L152.828 117.857C152.984 117.078 152.776 116.818 151.997 116.818H146.231C145.192 116.818 145.192 116.818 145.4 115.779L146.906 107.987C147.114 106.948 147.114 106.948 148.153 106.948H153.919C154.594 106.948 155.01 106.584 155.166 105.909L155.737 103.104C155.893 102.324 155.685 102.065 154.906 102.065H143.945C143.27 102.065 142.854 102.428 142.698 103.104L135.997 137.39C135.841 138.065 136.153 138.429 136.88 138.429H147.841Z" fill="white"/>
<path d="M34.5832 170.444C34.6871 169.873 34.8429 169.457 35.0507 169.197L36.8689 166.288C37.0767 165.976 37.2325 165.976 37.2845 166.288L38.4274 180.782C38.4793 181.457 38.843 181.821 39.6222 181.821H42.6871C43.3625 181.821 43.6742 181.457 43.6222 180.782L42.0118 160.366C41.9599 160.002 42.0118 159.691 42.1677 159.431L50.3236 146.496C50.7911 145.82 50.6353 145.457 49.908 145.457H46.843C46.1158 145.457 45.5443 145.82 45.1287 146.496L37.1806 159.171C36.9728 159.431 36.7131 159.379 36.765 159.119L39.2585 146.496C39.4144 145.717 39.2066 145.457 38.4274 145.457H35.3104C34.6351 145.457 34.2195 145.82 34.0637 146.496L27.3623 180.782C27.2065 181.457 27.5182 181.821 28.2454 181.821H31.3624C32.0377 181.821 32.4013 181.457 32.5572 180.782L34.5832 170.444ZM50.3682 181.821C50.8877 181.821 51.2514 181.613 51.5111 181.197L62.1086 161.821C62.3164 161.457 62.5762 161.561 62.5242 161.821L58.8359 180.782C58.68 181.457 58.9917 181.821 59.719 181.821H62.8359C63.5112 181.821 63.8749 181.457 64.0307 180.782L70.7321 146.496C70.8879 145.717 70.6801 145.457 69.9009 145.457H67.5632C66.9918 145.457 66.6281 145.665 66.3684 146.132L55.7709 165.509C55.5631 165.769 55.3033 165.769 55.3553 165.509L59.0436 146.496C59.1995 145.717 58.9917 145.457 58.2125 145.457H55.0956C54.4202 145.457 54.0046 145.82 53.8488 146.496L47.1474 180.782C46.9916 181.457 47.3033 181.821 48.0305 181.821H50.3682ZM69.2154 180.782C69.0596 181.457 69.3713 181.821 70.0986 181.821H76.8519C82.2026 181.821 85.1636 178.964 86.6182 171.431L87.6572 166.236C89.1117 158.704 87.2416 155.847 81.8909 155.847H80.3324C79.2935 155.847 79.2935 155.847 79.5012 154.808L80.1246 151.379C80.3324 150.34 80.3324 150.34 81.3714 150.34H88.6442C89.3195 150.34 89.7351 149.976 89.891 149.301L90.4624 146.496C90.6182 145.717 90.4105 145.457 89.6312 145.457H77.1636C76.4882 145.457 76.0726 145.82 75.9168 146.496L69.2154 180.782ZM78.2025 161.509C78.3584 160.47 78.3584 160.47 79.3973 160.47H80.9558C82.0987 160.47 82.7221 161.041 82.8779 162.132C83.0338 163.223 82.9299 164.47 82.5662 165.769L81.3714 171.899C81.1117 173.301 81.0078 173.769 80.5922 174.86C80.4363 175.431 80.2285 175.847 79.9688 176.106C79.5532 176.678 78.722 177.197 77.735 177.197H76.1765C75.1376 177.197 75.1376 177.197 75.3454 176.158L78.2025 161.509ZM101.301 181.821C101.977 181.821 102.34 181.457 102.496 180.782L103.068 177.977C103.223 177.197 103.016 176.938 102.236 176.938H96.4702C95.4312 176.938 95.4312 176.938 95.639 175.899L97.5091 166.132C97.7169 165.093 97.7169 165.093 98.7559 165.093H104.522C105.198 165.093 105.613 164.73 105.769 164.054L106.288 161.249C106.444 160.47 106.237 160.21 105.457 160.21H99.691C98.652 160.21 98.652 160.21 98.8598 159.171L100.366 151.379C100.574 150.34 100.574 150.34 101.613 150.34H107.379C108.055 150.34 108.47 149.976 108.626 149.301L109.198 146.496C109.353 145.717 109.146 145.457 108.366 145.457H97.4052C96.7299 145.457 96.3143 145.82 96.1585 146.496L89.4571 180.782C89.3013 181.457 89.613 181.821 90.3402 181.821H101.301ZM127.78 155.847C129.234 148.314 127.364 145.457 122.013 145.457H115.26C114.585 145.457 114.169 145.82 114.013 146.496L107.312 180.782C107.156 181.561 107.364 181.821 108.195 181.821H111.312C111.987 181.821 112.351 181.457 112.507 180.782L114.481 170.756C114.689 169.717 114.689 169.717 115.728 169.717H117.286C122.689 169.717 125.65 166.912 127.052 159.379L127.78 155.847ZM118.325 151.067C118.481 150.028 118.481 150.028 119.52 150.028H121.078C122.325 150.028 123 150.548 123.052 151.743C123.104 152.937 123.052 153.613 122.689 155.327L121.806 159.795C121.546 161.197 121.442 161.665 121.026 162.756C120.871 163.327 120.663 163.743 120.403 164.002C119.987 164.574 119.156 165.093 118.169 165.093H116.611C115.572 165.093 115.572 165.145 115.78 164.158L118.325 151.067ZM137.852 153.769C138.423 151.223 139.982 150.028 141.696 150.028C143.514 150.028 144.657 151.275 144.086 153.769L144.034 154.132C143.878 154.911 144.086 155.171 144.865 155.171H147.93C148.709 155.171 149.176 154.704 149.228 153.821C149.904 148.002 147.047 145.249 142.631 145.249C137.852 145.249 133.696 148.418 132.397 155.119L129.124 172.158C127.826 178.86 130.735 182.029 135.514 182.029C139.93 182.029 143.826 179.275 145.436 173.457C145.696 172.574 145.436 172.106 144.657 172.106H141.592C140.917 172.106 140.501 172.47 140.345 173.145L140.293 173.509C139.722 176.055 138.163 177.249 136.449 177.249C134.631 177.249 133.488 176.003 134.059 173.509L137.852 153.769ZM173.048 146.496C173.204 145.717 172.997 145.457 172.217 145.457H155.594C154.918 145.457 154.503 145.82 154.347 146.496L147.646 180.782C147.49 181.457 147.801 181.821 148.529 181.821H151.646C152.321 181.821 152.685 181.457 152.84 180.782L158.607 151.119C158.711 150.6 159.022 150.34 159.542 150.34H166.295C166.815 150.34 167.022 150.6 166.919 151.119L161.152 180.782C160.996 181.457 161.308 181.821 162.035 181.821H165.152C165.828 181.821 166.191 181.457 166.347 180.782L173.048 146.496ZM193.41 155.119C194.709 148.418 191.8 145.249 187.021 145.249C182.241 145.249 178.085 148.418 176.787 155.119L173.514 172.158C172.215 178.86 175.124 182.029 179.904 182.029C184.683 182.029 188.839 178.86 190.138 172.158L193.41 155.119ZM184.683 173.509C184.111 176.055 182.553 177.249 180.839 177.249C179.021 177.249 177.878 176.003 178.449 173.509L182.241 153.769C182.813 151.223 184.371 150.028 186.086 150.028C187.904 150.028 189.047 151.275 188.475 153.769L184.683 173.509ZM212.704 155.847C214.158 148.314 212.288 145.457 206.937 145.457H200.184C199.509 145.457 199.093 145.82 198.937 146.496L192.236 180.782C192.08 181.561 192.288 181.821 193.119 181.821H196.236C196.911 181.821 197.275 181.457 197.431 180.782L199.405 170.756C199.612 169.717 199.612 169.717 200.651 169.717H202.21C207.613 169.717 210.574 166.912 211.976 159.379L212.704 155.847ZM203.249 151.067C203.405 150.028 203.405 150.028 204.444 150.028H206.002C207.249 150.028 207.924 150.548 207.976 151.743C208.028 152.937 207.976 153.613 207.613 155.327L206.729 159.795C206.47 161.197 206.366 161.665 205.95 162.756C205.794 163.327 205.587 163.743 205.327 164.002C204.911 164.574 204.08 165.093 203.093 165.093H201.535C200.496 165.093 200.496 165.145 200.703 164.158L203.249 151.067ZM216.386 149.301C216.23 150.08 216.438 150.34 217.217 150.34H220.386C221.373 150.34 221.373 150.34 221.165 151.379L215.451 180.782C215.295 181.457 215.607 181.821 216.334 181.821H219.451C220.126 181.821 220.49 181.457 220.646 180.782L226.36 151.379C226.568 150.34 226.568 150.34 227.607 150.34H230.724C231.399 150.34 231.814 149.976 231.97 149.301L232.542 146.496C232.698 145.717 232.49 145.457 231.711 145.457H218.204C217.529 145.457 217.113 145.82 216.957 146.496L216.386 149.301ZM232.442 181.821C232.961 181.821 233.325 181.613 233.585 181.197L244.182 161.821C244.39 161.457 244.65 161.561 244.598 161.821L240.91 180.782C240.754 181.457 241.065 181.821 241.793 181.821H244.91C245.585 181.821 245.949 181.457 246.104 180.782L252.806 146.496C252.962 145.717 252.754 145.457 251.975 145.457H249.637C249.065 145.457 248.702 145.665 248.442 146.132L237.845 165.509C237.637 165.769 237.377 165.769 237.429 165.509L241.117 146.496C241.273 145.717 241.065 145.457 240.286 145.457H237.169C236.494 145.457 236.078 145.82 235.922 146.496L229.221 180.782C229.065 181.457 229.377 181.821 230.104 181.821H232.442ZM259.237 145.457C258.562 145.457 258.146 145.82 257.991 146.496L251.289 180.782C251.133 181.457 251.445 181.821 252.172 181.821H258.926C263.653 181.821 267.289 178.912 268.588 172.106L268.952 170.184C269.575 167.015 269.367 164.626 268.276 162.912C268.224 162.86 268.224 162.756 268.328 162.704C270.095 160.937 271.237 158.496 271.809 155.379L271.861 155.119C273.159 148.314 270.718 145.457 265.991 145.457H259.237ZM259.341 166.184C259.549 165.093 259.549 165.093 260.64 165.093H262.146C263.861 165.093 264.484 166.34 264.017 168.834L263.133 173.509C262.614 176.003 261.523 177.249 259.809 177.249H258.25C257.211 177.249 257.211 177.249 257.419 176.158L259.341 166.184ZM261.523 160.21C260.484 160.21 260.484 160.21 260.692 159.119L262.302 151.067C262.458 150.028 262.458 150.028 263.497 150.028H265.056C266.822 150.028 267.445 151.275 266.926 153.769L266.406 156.522C265.939 158.963 264.796 160.21 263.081 160.21H261.523ZM281.921 180.782C281.765 181.457 282.076 181.821 282.804 181.821H285.921C286.596 181.821 286.96 181.457 287.115 180.782L293.817 146.496C293.973 145.717 293.765 145.457 292.986 145.457H289.869C289.193 145.457 288.778 145.82 288.622 146.496L286.128 159.171C285.921 160.21 285.921 160.21 284.882 160.21H281.765C280.726 160.21 280.726 160.21 280.934 159.171L283.427 146.496C283.583 145.717 283.375 145.457 282.596 145.457H279.479C278.804 145.457 278.388 145.82 278.232 146.496L271.531 180.782C271.375 181.457 271.687 181.821 272.414 181.821H275.531C276.206 181.821 276.57 181.457 276.726 180.782L279.583 166.132C279.791 165.093 279.791 165.093 280.83 165.093H283.947C284.986 165.093 284.986 165.093 284.778 166.132L281.921 180.782ZM314.201 155.119C315.5 148.418 312.59 145.249 307.811 145.249C303.032 145.249 298.876 148.418 297.577 155.119L294.305 172.158C293.006 178.86 295.915 182.029 300.694 182.029C305.474 182.029 309.629 178.86 310.928 172.158L314.201 155.119ZM305.474 173.509C304.902 176.055 303.344 177.249 301.629 177.249C299.811 177.249 298.668 176.003 299.24 173.509L303.032 153.769C303.603 151.223 305.162 150.028 306.876 150.028C308.694 150.028 309.837 151.275 309.266 153.769L305.474 173.509ZM324.975 181.821C325.65 181.821 326.014 181.457 326.169 180.782L326.741 177.977C326.897 177.197 326.689 176.938 325.91 176.938H320.143C319.104 176.938 319.104 176.938 319.312 175.899L321.182 166.132C321.39 165.093 321.39 165.093 322.429 165.093H328.195C328.871 165.093 329.286 164.73 329.442 164.054L329.962 161.249C330.117 160.47 329.91 160.21 329.13 160.21H323.364C322.325 160.21 322.325 160.21 322.533 159.171L324.039 151.379C324.247 150.34 324.247 150.34 325.286 150.34H331.053C331.728 150.34 332.143 149.976 332.299 149.301L332.871 146.496C333.027 145.717 332.819 145.457 332.04 145.457H321.078C320.403 145.457 319.987 145.82 319.832 146.496L313.13 180.782C312.974 181.457 313.286 181.821 314.013 181.821H324.975Z" fill="white"/>
<path d="M46.7593 189.888C46.9152 189.109 46.7074 188.849 45.9281 188.849H29.3046C28.6293 188.849 28.2137 189.213 28.0578 189.888L21.3565 224.174C21.2006 224.849 21.5123 225.213 22.2396 225.213H25.3565C26.0318 225.213 26.3955 224.849 26.5513 224.174L32.3176 194.511C32.4215 193.992 32.7332 193.732 33.2527 193.732H40.006C40.5255 193.732 40.7333 193.992 40.6294 194.511L34.8631 224.174C34.7072 224.849 35.0189 225.213 35.7462 225.213H38.8631C39.5385 225.213 39.9021 224.849 40.0579 224.174L46.7593 189.888ZM48.4716 225.213C48.9911 225.213 49.3547 225.005 49.6145 224.59L60.212 205.213C60.4198 204.849 60.6795 204.953 60.6276 205.213L56.9392 224.174C56.7834 224.849 57.0951 225.213 57.8223 225.213H60.9392C61.6146 225.213 61.9782 224.849 62.1341 224.174L68.8354 189.888C68.9913 189.109 68.7835 188.849 68.0043 188.849H65.6666C65.0951 188.849 64.7315 189.057 64.4718 189.524L53.8742 208.901C53.6664 209.161 53.4067 209.161 53.4587 208.901L57.147 189.888C57.3028 189.109 57.0951 188.849 56.3158 188.849H53.1989C52.5236 188.849 52.108 189.213 51.9521 189.888L45.2508 224.174C45.0949 224.849 45.4066 225.213 46.1339 225.213H48.4716ZM71.6305 192.693C71.4747 193.472 71.6825 193.732 72.4617 193.732H75.6306C76.6176 193.732 76.6176 193.732 76.4098 194.771L70.6954 224.174C70.5396 224.849 70.8513 225.213 71.5786 225.213H74.6955C75.3708 225.213 75.7344 224.849 75.8903 224.174L81.6046 194.771C81.8124 193.732 81.8124 193.732 82.8514 193.732H85.9683C86.6437 193.732 87.0592 193.368 87.2151 192.693L87.7865 189.888C87.9424 189.109 87.7346 188.849 86.9553 188.849H73.4487C72.7734 188.849 72.3578 189.213 72.2019 189.888L71.6305 192.693ZM98.7436 225.213C99.4189 225.213 99.7826 224.901 99.7826 224.33L99.9384 189.784C99.9384 189.005 99.8345 188.849 99.0034 188.849H96.1981C95.367 188.849 95.2111 189.005 94.8475 189.784L81.6006 224.33C81.185 225.213 81.9123 225.213 82.3279 225.213H85.4448C86.1721 225.213 86.4837 225.213 86.6915 224.434L87.7305 221.628C88.1461 220.589 88.1461 220.589 89.1331 220.589H93.7566C94.7436 220.589 94.6916 220.589 94.6916 221.628L94.5877 224.434C94.5877 225.213 95.0033 225.213 95.6267 225.213H98.7436ZM94.7955 202.044C94.8475 201.94 94.8994 201.888 94.9514 201.836C95.1072 201.784 95.2111 201.888 95.2111 202.044L94.8994 214.667C94.8475 215.706 94.8475 215.706 93.8085 215.706H90.8994C89.8604 215.706 89.8604 215.706 90.224 214.667L94.7955 202.044ZM114.438 224.174C114.282 224.849 114.594 225.213 115.321 225.213H118.438C119.113 225.213 119.477 224.849 119.633 224.174L126.334 189.888C126.49 189.109 126.282 188.849 125.503 188.849H122.386C121.711 188.849 121.295 189.213 121.139 189.888L118.646 202.563C118.438 203.602 118.438 203.602 117.399 203.602H114.282C113.243 203.602 113.243 203.602 113.451 202.563L115.944 189.888C116.1 189.109 115.892 188.849 115.113 188.849H111.996C111.321 188.849 110.905 189.213 110.749 189.888L104.048 224.174C103.892 224.849 104.204 225.213 104.931 225.213H108.048C108.723 225.213 109.087 224.849 109.243 224.174L112.1 209.524C112.308 208.485 112.308 208.485 113.347 208.485H116.464C117.503 208.485 117.503 208.485 117.295 209.524L114.438 224.174ZM128.069 225.213C128.588 225.213 128.952 225.005 129.211 224.59L139.809 205.213C140.017 204.849 140.277 204.953 140.225 205.213L136.536 224.174C136.38 224.849 136.692 225.213 137.419 225.213H140.536C141.212 225.213 141.575 224.849 141.731 224.174L148.432 189.888C148.588 189.109 148.38 188.849 147.601 188.849H145.264C144.692 188.849 144.328 189.057 144.069 189.524L133.471 208.901C133.263 209.161 133.004 209.161 133.056 208.901L136.744 189.888C136.9 189.109 136.692 188.849 135.913 188.849H132.796C132.121 188.849 131.705 189.213 131.549 189.888L124.848 224.174C124.692 224.849 125.004 225.213 125.731 225.213H128.069ZM158.76 225.213C159.435 225.213 159.799 224.849 159.955 224.174L160.526 221.369C160.682 220.589 160.474 220.33 159.695 220.33H153.929C152.89 220.33 152.89 220.33 153.098 219.291L154.968 209.524C155.176 208.485 155.176 208.485 156.215 208.485H161.981C162.656 208.485 163.072 208.122 163.228 207.446L163.747 204.641C163.903 203.862 163.695 203.602 162.916 203.602H157.15C156.111 203.602 156.111 203.602 156.318 202.563L157.825 194.771C158.033 193.732 158.033 193.732 159.072 193.732H164.838C165.513 193.732 165.929 193.368 166.085 192.693L166.656 189.888C166.812 189.109 166.604 188.849 165.825 188.849H154.864C154.189 188.849 153.773 189.213 153.617 189.888L146.916 224.174C146.76 224.849 147.072 225.213 147.799 225.213H158.76Z" fill="white"/>
</g>
<mask id="mask2" mask-type="alpha" maskUnits="userSpaceOnUse" x="5" y="86" width="157" height="91">
<path d="M5.48315 86L161.92 86L5.48315 176.138V86Z" fill="#C4C4C4"/>
</mask>
<g mask="url(#mask2)">
<path d="M55.7848 103.104C55.9407 102.325 55.7329 102.065 54.9537 102.065H38.3301C37.6548 102.065 37.2392 102.429 37.0833 103.104L30.382 137.39C30.2261 138.066 30.5378 138.429 31.2651 138.429H34.382C35.0573 138.429 35.421 138.066 35.5768 137.39L41.3431 107.728C41.447 107.208 41.7587 106.948 42.2782 106.948H49.0315C49.551 106.948 49.7588 107.208 49.6549 107.728L43.8886 137.39C43.7328 138.066 44.0444 138.429 44.7717 138.429H47.8886C48.564 138.429 48.9276 138.066 49.0835 137.39L55.7848 103.104ZM66.1206 138.429C66.7959 138.429 67.1595 138.066 67.3154 137.39L67.8868 134.585C68.0427 133.806 67.8349 133.546 67.0556 133.546H61.2893C60.2504 133.546 60.2504 133.546 60.4582 132.507L62.3283 122.741C62.5361 121.702 62.5361 121.702 63.5751 121.702H69.3414C70.0167 121.702 70.4323 121.338 70.5881 120.663L71.1076 117.858C71.2635 117.078 71.0557 116.819 70.2765 116.819H64.5102C63.4712 116.819 63.4712 116.819 63.679 115.78L65.1855 107.987C65.3933 106.948 65.3933 106.948 66.4323 106.948H72.1985C72.8739 106.948 73.2895 106.585 73.4453 105.909L74.0168 103.104C74.1726 102.325 73.9648 102.065 73.1856 102.065H62.2244C61.5491 102.065 61.1335 102.429 60.9777 103.104L54.2763 137.39C54.1204 138.066 54.4321 138.429 55.1594 138.429H66.1206ZM92.5989 112.455C94.0535 104.922 92.1833 102.065 86.8326 102.065H80.0793C79.404 102.065 78.9884 102.429 78.8325 103.104L72.1312 137.39C71.9753 138.169 72.1831 138.429 73.0143 138.429H76.1312C76.8066 138.429 77.1702 138.066 77.326 137.39L79.3001 127.364C79.5079 126.325 79.5079 126.325 80.5468 126.325H82.1053C87.508 126.325 90.469 123.52 91.8716 115.987L92.5989 112.455ZM83.1443 107.676C83.3001 106.637 83.3001 106.637 84.3391 106.637H85.8976C87.1443 106.637 87.8197 107.156 87.8716 108.351C87.9235 109.546 87.8716 110.221 87.508 111.935L86.6248 116.403C86.3651 117.806 86.2612 118.273 85.8456 119.364C85.6898 119.936 85.482 120.351 85.2222 120.611C84.8066 121.182 83.9755 121.702 82.9884 121.702H81.43C80.391 121.702 80.391 121.754 80.5988 120.767L83.1443 107.676ZM99.9176 102.065C99.2423 102.065 98.8267 102.429 98.6708 103.104L91.9695 137.39C91.8136 138.066 92.1253 138.429 92.8526 138.429H99.6059C104.333 138.429 107.97 135.52 109.268 128.715L109.632 126.793C110.255 123.624 110.048 121.234 108.957 119.52C108.905 119.468 108.905 119.364 109.009 119.312C110.775 117.546 111.918 115.104 112.489 111.987L112.541 111.728C113.84 104.922 111.398 102.065 106.671 102.065H99.9176ZM100.021 122.793C100.229 121.702 100.229 121.702 101.32 121.702H102.827C104.541 121.702 105.164 122.949 104.697 125.442L103.814 130.117C103.294 132.611 102.203 133.858 100.489 133.858H98.9306C97.8916 133.858 97.8916 133.858 98.0994 132.767L100.021 122.793ZM102.203 116.819C101.164 116.819 101.164 116.819 101.372 115.728L102.983 107.676C103.138 106.637 103.138 106.637 104.177 106.637H105.736C107.502 106.637 108.125 107.883 107.606 110.377L107.086 113.13C106.619 115.572 105.476 116.819 103.762 116.819H102.203ZM134.081 111.728C135.38 105.026 132.471 101.857 127.692 101.857C122.913 101.857 118.757 105.026 117.458 111.728L114.185 128.767C112.886 135.468 115.796 138.637 120.575 138.637C125.354 138.637 129.51 135.468 130.809 128.767L134.081 111.728ZM125.354 130.117C124.783 132.663 123.224 133.858 121.51 133.858C119.692 133.858 118.549 132.611 119.12 130.117L122.913 110.377C123.484 107.831 125.042 106.637 126.757 106.637C128.575 106.637 129.718 107.883 129.146 110.377L125.354 130.117ZM144.855 138.429C145.53 138.429 145.894 138.066 146.05 137.39L146.621 134.585C146.777 133.806 146.569 133.546 145.79 133.546H140.024C138.985 133.546 138.985 133.546 139.193 132.507L141.063 122.741C141.271 121.702 141.271 121.702 142.31 121.702H148.076C148.751 121.702 149.167 121.338 149.323 120.663L149.842 117.858C149.998 117.078 149.79 116.819 149.011 116.819H143.245C142.206 116.819 142.206 116.819 142.414 115.78L143.92 107.987C144.128 106.948 144.128 106.948 145.167 106.948H150.933C151.608 106.948 152.024 106.585 152.18 105.909L152.751 103.104C152.907 102.325 152.699 102.065 151.92 102.065H140.959C140.284 102.065 139.868 102.429 139.712 103.104L133.011 137.39C132.855 138.066 133.167 138.429 133.894 138.429H144.855Z" fill="white"/>
<path d="M31.5972 170.445C31.7011 169.873 31.8569 169.458 32.0647 169.198L33.8829 166.289C34.0907 165.977 34.2466 165.977 34.2985 166.289L35.4414 180.782C35.4934 181.458 35.857 181.821 36.6362 181.821H39.7012C40.3765 181.821 40.6882 181.458 40.6363 180.782L39.0259 160.367C38.9739 160.003 39.0259 159.691 39.1817 159.431L47.3376 146.496C47.8052 145.821 47.6493 145.457 46.922 145.457H43.8571C43.1298 145.457 42.5584 145.821 42.1428 146.496L34.1946 159.172C33.9868 159.431 33.7271 159.379 33.779 159.12L36.2726 146.496C36.4284 145.717 36.2206 145.457 35.4414 145.457H32.3245C31.6492 145.457 31.2336 145.821 31.0777 146.496L24.3764 180.782C24.2205 181.458 24.5322 181.821 25.2595 181.821H28.3764C29.0517 181.821 29.4154 181.458 29.5712 180.782L31.5972 170.445ZM47.3823 181.821C47.9018 181.821 48.2654 181.613 48.5251 181.198L59.1227 161.821C59.3304 161.457 59.5902 161.561 59.5382 161.821L55.8499 180.782C55.694 181.458 56.0057 181.821 56.733 181.821H59.8499C60.5253 181.821 60.8889 181.458 61.0448 180.782L67.7461 146.496C67.902 145.717 67.6942 145.457 66.9149 145.457H64.5773C64.0058 145.457 63.6422 145.665 63.3824 146.133L52.7849 165.509C52.5771 165.769 52.3174 165.769 52.3693 165.509L56.0577 146.496C56.2135 145.717 56.0057 145.457 55.2265 145.457H52.1096C51.4343 145.457 51.0187 145.821 50.8628 146.496L44.1615 180.782C44.0056 181.458 44.3173 181.821 45.0446 181.821H47.3823ZM66.2295 180.782C66.0736 181.458 66.3853 181.821 67.1126 181.821H73.8659C79.2166 181.821 82.1777 178.964 83.6322 171.432L84.6712 166.237C86.1258 158.704 84.2556 155.847 78.9049 155.847H77.3465C76.3075 155.847 76.3075 155.847 76.5153 154.808L77.1387 151.379C77.3465 150.34 77.3465 150.34 78.3854 150.34H85.6582C86.3336 150.34 86.7492 149.977 86.905 149.301L87.4764 146.496C87.6323 145.717 87.4245 145.457 86.6453 145.457H74.1776C73.5023 145.457 73.0867 145.821 72.9308 146.496L66.2295 180.782ZM75.2166 161.509C75.3724 160.47 75.3724 160.47 76.4114 160.47H77.9698C79.1127 160.47 79.7361 161.042 79.8919 162.133C80.0478 163.224 79.9439 164.47 79.5803 165.769L78.3854 171.899C78.1257 173.302 78.0218 173.769 77.6062 174.86C77.4504 175.432 77.2426 175.847 76.9828 176.107C76.5672 176.678 75.7361 177.198 74.749 177.198H73.1906C72.1516 177.198 72.1516 177.198 72.3594 176.159L75.2166 161.509ZM98.3154 181.821C98.9908 181.821 99.3544 181.458 99.5102 180.782L100.082 177.977C100.238 177.198 100.03 176.938 99.2505 176.938H93.4842C92.4452 176.938 92.4452 176.938 92.653 175.899L94.5232 166.133C94.731 165.094 94.731 165.094 95.7699 165.094H101.536C102.212 165.094 102.627 164.73 102.783 164.055L103.302 161.25C103.458 160.47 103.251 160.211 102.471 160.211H96.705C95.666 160.211 95.666 160.211 95.8738 159.172L97.3804 151.379C97.5881 150.34 97.5881 150.34 98.6271 150.34H104.393C105.069 150.34 105.484 149.977 105.64 149.301L106.212 146.496C106.367 145.717 106.16 145.457 105.38 145.457H94.4193C93.744 145.457 93.3284 145.821 93.1725 146.496L86.4711 180.782C86.3153 181.458 86.627 181.821 87.3543 181.821H98.3154ZM124.794 155.847C126.248 148.314 124.378 145.457 119.027 145.457H112.274C111.599 145.457 111.183 145.821 111.027 146.496L104.326 180.782C104.17 181.562 104.378 181.821 105.209 181.821H108.326C109.001 181.821 109.365 181.458 109.521 180.782L111.495 170.756C111.703 169.717 111.703 169.717 112.742 169.717H114.3C119.703 169.717 122.664 166.912 124.067 159.379L124.794 155.847ZM115.339 151.068C115.495 150.029 115.495 150.029 116.534 150.029H118.092C119.339 150.029 120.015 150.548 120.066 151.743C120.118 152.938 120.066 153.613 119.703 155.328L118.82 159.795C118.56 161.198 118.456 161.665 118.04 162.756C117.885 163.328 117.677 163.743 117.417 164.003C117.001 164.574 116.17 165.094 115.183 165.094H113.625C112.586 165.094 112.586 165.146 112.794 164.159L115.339 151.068ZM134.866 153.769C135.437 151.224 136.996 150.029 138.71 150.029C140.528 150.029 141.671 151.276 141.1 153.769L141.048 154.133C140.892 154.912 141.1 155.172 141.879 155.172H144.944C145.723 155.172 146.191 154.704 146.242 153.821C146.918 148.003 144.061 145.249 139.645 145.249C134.866 145.249 130.71 148.418 129.411 155.12L126.138 172.159C124.84 178.86 127.749 182.029 132.528 182.029C136.944 182.029 140.84 179.276 142.45 173.458C142.71 172.574 142.45 172.107 141.671 172.107H138.606C137.931 172.107 137.515 172.471 137.359 173.146L137.307 173.51C136.736 176.055 135.177 177.25 133.463 177.25C131.645 177.25 130.502 176.003 131.073 173.51L134.866 153.769ZM170.063 146.496C170.218 145.717 170.011 145.457 169.231 145.457H152.608C151.932 145.457 151.517 145.821 151.361 146.496L144.66 180.782C144.504 181.458 144.815 181.821 145.543 181.821H148.66C149.335 181.821 149.699 181.458 149.855 180.782L155.621 151.12C155.725 150.6 156.036 150.34 156.556 150.34H163.309C163.829 150.34 164.036 150.6 163.933 151.12L158.166 180.782C158.01 181.458 158.322 181.821 159.049 181.821H162.166C162.842 181.821 163.205 181.458 163.361 180.782L170.063 146.496ZM190.424 155.12C191.723 148.418 188.814 145.249 184.035 145.249C179.255 145.249 175.099 148.418 173.801 155.12L170.528 172.159C169.229 178.86 172.138 182.029 176.918 182.029C181.697 182.029 185.853 178.86 187.152 172.159L190.424 155.12ZM181.697 173.51C181.126 176.055 179.567 177.25 177.853 177.25C176.035 177.25 174.892 176.003 175.463 173.51L179.255 153.769C179.827 151.224 181.385 150.029 183.1 150.029C184.918 150.029 186.061 151.276 185.489 153.769L181.697 173.51ZM209.718 155.847C211.172 148.314 209.302 145.457 203.951 145.457H197.198C196.523 145.457 196.107 145.821 195.951 146.496L189.25 180.782C189.094 181.562 189.302 181.821 190.133 181.821H193.25C193.925 181.821 194.289 181.458 194.445 180.782L196.419 170.756C196.626 169.717 196.626 169.717 197.665 169.717H199.224C204.627 169.717 207.588 166.912 208.99 159.379L209.718 155.847ZM200.263 151.068C200.419 150.029 200.419 150.029 201.458 150.029H203.016C204.263 150.029 204.938 150.548 204.99 151.743C205.042 152.938 204.99 153.613 204.627 155.328L203.743 159.795C203.484 161.198 203.38 161.665 202.964 162.756C202.808 163.328 202.601 163.743 202.341 164.003C201.925 164.574 201.094 165.094 200.107 165.094H198.549C197.51 165.094 197.51 165.146 197.717 164.159L200.263 151.068ZM213.4 149.301C213.244 150.081 213.452 150.34 214.231 150.34H217.4C218.387 150.34 218.387 150.34 218.179 151.379L212.465 180.782C212.309 181.458 212.621 181.821 213.348 181.821H216.465C217.14 181.821 217.504 181.458 217.66 180.782L223.374 151.379C223.582 150.34 223.582 150.34 224.621 150.34H227.738C228.413 150.34 228.829 149.977 228.984 149.301L229.556 146.496C229.712 145.717 229.504 145.457 228.725 145.457H215.218C214.543 145.457 214.127 145.821 213.971 146.496L213.4 149.301ZM229.456 181.821C229.975 181.821 230.339 181.613 230.599 181.198L241.196 161.821C241.404 161.457 241.664 161.561 241.612 161.821L237.924 180.782C237.768 181.458 238.079 181.821 238.807 181.821H241.924C242.599 181.821 242.963 181.458 243.118 180.782L249.82 146.496C249.976 145.717 249.768 145.457 248.989 145.457H246.651C246.08 145.457 245.716 145.665 245.456 146.133L234.859 165.509C234.651 165.769 234.391 165.769 234.443 165.509L238.131 146.496C238.287 145.717 238.079 145.457 237.3 145.457H234.183C233.508 145.457 233.092 145.821 232.937 146.496L226.235 180.782C226.079 181.458 226.391 181.821 227.118 181.821H229.456ZM256.251 145.457C255.576 145.457 255.16 145.821 255.005 146.496L248.303 180.782C248.147 181.458 248.459 181.821 249.186 181.821H255.94C260.667 181.821 264.303 178.912 265.602 172.107L265.966 170.185C266.589 167.016 266.381 164.626 265.29 162.912C265.238 162.86 265.238 162.756 265.342 162.704C267.109 160.938 268.251 158.496 268.823 155.379L268.875 155.12C270.174 148.314 267.732 145.457 263.005 145.457H256.251ZM256.355 166.185C256.563 165.094 256.563 165.094 257.654 165.094H259.16C260.875 165.094 261.498 166.341 261.031 168.834L260.147 173.51C259.628 176.003 258.537 177.25 256.823 177.25H255.264C254.225 177.25 254.225 177.25 254.433 176.159L256.355 166.185ZM258.537 160.211C257.498 160.211 257.498 160.211 257.706 159.12L259.316 151.068C259.472 150.029 259.472 150.029 260.511 150.029H262.07C263.836 150.029 264.459 151.276 263.94 153.769L263.42 156.522C262.953 158.964 261.81 160.211 260.096 160.211H258.537ZM278.935 180.782C278.779 181.458 279.09 181.821 279.818 181.821H282.935C283.61 181.821 283.974 181.458 284.129 180.782L290.831 146.496C290.987 145.717 290.779 145.457 290 145.457H286.883C286.207 145.457 285.792 145.821 285.636 146.496L283.142 159.172C282.935 160.211 282.935 160.211 281.896 160.211H278.779C277.74 160.211 277.74 160.211 277.948 159.172L280.441 146.496C280.597 145.717 280.389 145.457 279.61 145.457H276.493C275.818 145.457 275.402 145.821 275.246 146.496L268.545 180.782C268.389 181.458 268.701 181.821 269.428 181.821H272.545C273.22 181.821 273.584 181.458 273.74 180.782L276.597 166.133C276.805 165.094 276.805 165.094 277.844 165.094H280.961C282 165.094 282 165.094 281.792 166.133L278.935 180.782ZM311.215 155.12C312.514 148.418 309.605 145.249 304.825 145.249C300.046 145.249 295.89 148.418 294.591 155.12L291.319 172.159C290.02 178.86 292.929 182.029 297.708 182.029C302.488 182.029 306.643 178.86 307.942 172.159L311.215 155.12ZM302.488 173.51C301.916 176.055 300.358 177.25 298.643 177.25C296.825 177.25 295.682 176.003 296.254 173.51L300.046 153.769C300.617 151.224 302.176 150.029 303.89 150.029C305.708 150.029 306.851 151.276 306.28 153.769L302.488 173.51ZM321.989 181.821C322.664 181.821 323.028 181.458 323.183 180.782L323.755 177.977C323.911 177.198 323.703 176.938 322.924 176.938H317.157C316.118 176.938 316.118 176.938 316.326 175.899L318.196 166.133C318.404 165.094 318.404 165.094 319.443 165.094H325.209C325.885 165.094 326.3 164.73 326.456 164.055L326.976 161.25C327.131 160.47 326.924 160.211 326.144 160.211H320.378C319.339 160.211 319.339 160.211 319.547 159.172L321.054 151.379C321.261 150.34 321.261 150.34 322.3 150.34H328.067C328.742 150.34 329.157 149.977 329.313 149.301L329.885 146.496C330.041 145.717 329.833 145.457 329.054 145.457H318.092C317.417 145.457 317.002 145.821 316.846 146.496L310.144 180.782C309.988 181.458 310.3 181.821 311.027 181.821H321.989Z" fill="white"/>
</g>
<path d="M-159.622 369.933L302.609 103.064" stroke="url(#paint0_linear)"/>
<path d="M-50.1397 208.355L354.029 -24.9919" stroke="url(#paint1_linear)"/>
<g filter="url(#filter0_f)">
<path d="M39.0001 508.779L511.107 235.736" stroke="url(#paint2_linear)" stroke-width="5"/>
</g>
<path d="M227.361 400.164L394.179 303.685" stroke="url(#paint3_linear)" stroke-width="2"/>
<path d="M268.27 376.504L353.27 327.345" stroke="url(#paint4_linear)" stroke-width="3"/>
<path d="M287.204 365.554L334.335 338.295" stroke="url(#paint5_linear)" stroke-width="4"/>
<path d="M297.367 359.676L324.172 344.173" stroke="url(#paint6_linear)" stroke-width="4"/>
<path d="M132 455.316L489.54 248.533" stroke="url(#paint7_linear)"/>
<path d="M218 137.601L522.228 -38.0455" stroke="url(#paint8_linear)"/>
<path d="M119 418.221L634.727 119.952" stroke="url(#paint9_linear)"/>
<path d="M-168 520.136L99.7097 365.574" stroke="url(#paint10_linear)"/>
<defs>
<filter id="filter0_f" x="26.8341" y="123.836" width="496.439" height="496.843" filterUnits="userSpaceOnUse" color-interpolation-filters="sRGB">
<feFlood flood-opacity="0" result="BackgroundImageFix"/>
<feBlend mode="normal" in="SourceGraphic" in2="BackgroundImageFix" result="shape"/>
<feGaussianBlur stdDeviation="5" result="effect1_foregroundBlur"/>
</filter>
<linearGradient id="paint0_linear" x1="302.901" y1="102.896" x2="-159.622" y2="369.933" gradientUnits="userSpaceOnUse">
<stop stop-color="#E30B17" stop-opacity="0"/>
<stop offset="0.196338" stop-color="#E30B17"/>
<stop offset="0.809343" stop-color="#E30B17"/>
<stop offset="1" stop-color="#E30B17" stop-opacity="0"/>
</linearGradient>
<linearGradient id="paint1_linear" x1="354.284" y1="-25.1394" x2="-50.1397" y2="208.355" gradientUnits="userSpaceOnUse">
<stop stop-color="#E30B17" stop-opacity="0"/>
<stop offset="0.196338" stop-color="#E30B17"/>
<stop offset="0.809343" stop-color="#E30B17"/>
<stop offset="1" stop-color="#E30B17" stop-opacity="0"/>
</linearGradient>
<linearGradient id="paint2_linear" x1="511.406" y1="235.564" x2="38.5924" y2="508.072" gradientUnits="userSpaceOnUse">
<stop stop-color="#E20C17" stop-opacity="0"/>
<stop offset="0.265938" stop-color="#E20C17"/>
<stop offset="0.69655" stop-color="#E20C17"/>
<stop offset="1" stop-color="#E20C17" stop-opacity="0"/>
</linearGradient>
<linearGradient id="paint3_linear" x1="394.284" y1="303.624" x2="227.217" y2="399.914" gradientUnits="userSpaceOnUse">
<stop stop-color="#FFB000" stop-opacity="0"/>
<stop offset="0.520833" stop-color="#FFB000"/>
<stop offset="1" stop-color="#FFB000" stop-opacity="0"/>
</linearGradient>
<linearGradient id="paint4_linear" x1="353.323" y1="327.314" x2="268.196" y2="376.377" gradientUnits="userSpaceOnUse">
<stop stop-color="#FFB000" stop-opacity="0"/>
<stop offset="0.520833" stop-color="#FFB000"/>
<stop offset="1" stop-color="#FFB000" stop-opacity="0"/>
</linearGradient>
<linearGradient id="paint5_linear" x1="334.365" y1="338.278" x2="287.163" y2="365.483" gradientUnits="userSpaceOnUse">
<stop stop-color="#FFB000" stop-opacity="0"/>
<stop offset="0.520833" stop-color="#FFB000"/>
<stop offset="1" stop-color="#FFB000" stop-opacity="0"/>
</linearGradient>
<linearGradient id="paint6_linear" x1="324.189" y1="344.164" x2="297.344" y2="359.636" gradientUnits="userSpaceOnUse">
<stop stop-color="#FFB000" stop-opacity="0"/>
<stop offset="0.520833" stop-color="#FFB000"/>
<stop offset="1" stop-color="#FFB000" stop-opacity="0"/>
</linearGradient>
<linearGradient id="paint7_linear" x1="489.766" y1="248.403" x2="131.691" y2="454.78" gradientUnits="userSpaceOnUse">
<stop stop-color="#FFB000" stop-opacity="0"/>
<stop offset="0.520833" stop-color="#FFB000"/>
<stop offset="1" stop-color="#FFB000" stop-opacity="0"/>
</linearGradient>
<linearGradient id="paint8_linear" x1="522.42" y1="-38.1565" x2="218" y2="137.601" gradientUnits="userSpaceOnUse">
<stop stop-color="white" stop-opacity="0"/>
<stop offset="0.196338" stop-color="white"/>
<stop offset="0.809343" stop-color="white"/>
<stop offset="1" stop-color="white" stop-opacity="0"/>
</linearGradient>
<linearGradient id="paint9_linear" x1="635.053" y1="119.763" x2="118.555" y2="417.449" gradientUnits="userSpaceOnUse">
<stop stop-color="#FFB000" stop-opacity="0"/>
<stop offset="0.322743" stop-color="#FFB000"/>
<stop offset="0.6084" stop-color="#FFB000"/>
<stop offset="1" stop-color="#FFB000" stop-opacity="0"/>
</linearGradient>
<linearGradient id="paint10_linear" x1="99.8788" y1="365.476" x2="-168" y2="520.136" gradientUnits="userSpaceOnUse">
<stop stop-color="white" stop-opacity="0"/>
<stop offset="0.27534" stop-color="white"/>
<stop offset="0.655244" stop-color="white"/>
<stop offset="1" stop-color="white" stop-opacity="0"/>
</linearGradient>
</defs>
</svg>
