 <svg width="143" height="89" viewBox="0 0 143 89" fill="none" xmlns="http://www.w3.org/2000/svg">
<g id="Group 104 Copy">
<path id="Fill 65" fill-rule="evenodd" clip-rule="evenodd" d="M4.94971 51.8881L10.4274 35.139L27.7433 32.7582L26.3656 36.9118L13.3865 38.735L10.6312 47.1099L23.6267 45.3198L22.2491 49.5073L4.94971 51.8881ZM24.0691 49.2374L25.4303 45.0499L38.4431 43.2606L39.1237 41.1495L26.1274 42.9562L29.5468 32.5048L33.9018 31.8803L31.8262 38.178L40.5014 36.962L42.5597 30.6981L46.8808 30.0909L41.4031 46.8227L24.0691 49.2374ZM56.7126 40.7107L50.98 35.5275L59.6379 34.3288L60.3185 32.2177L51.6771 33.4337L48.9044 41.7914L56.7126 40.7107ZM43.2063 46.5696L48.7005 29.8378L66.0337 27.4396L62.5804 37.9249L59.995 38.2796L61.9172 40.0013L60.5395 44.1888L43.2063 46.5696ZM62.3594 43.9355L67.8371 27.1864L84.3709 24.9573L82.9941 29.1118L70.7962 30.7832L70.1165 32.8596L82.2961 31.2221L80.935 35.4087L68.7388 37.0471L68.0417 39.1573L80.2544 37.486L78.894 41.6735L62.3594 43.9355ZM80.6967 41.4367L86.1744 24.6876L103.508 22.2738L100.073 32.7582L97.4863 33.1129L99.3746 34.8354L97.9969 39.0221L88.4538 30.3774L97.1291 29.1622L97.7923 27.0858L89.1344 28.2671L85.0179 40.8287L80.6967 41.4367Z" fill="white"/>
<path id="Fill 67" fill-rule="evenodd" clip-rule="evenodd" d="M53.0864 60.1814L47.3538 54.9982L55.9952 53.7996L56.6931 51.6893L48.0344 52.888L45.2955 61.2621L53.0864 60.1814ZM103.132 57.2601L108.626 40.5118L121.196 38.7728L123.714 46.5052L118.407 55.1499L103.132 57.2601ZM115.838 51.5877L118.95 47.0628L117.658 43.2639L111.602 44.0913L108.863 52.4482L115.838 51.5877ZM39.5977 66.0401L45.0919 49.291L62.3912 46.911L58.9726 57.3789L56.3699 57.7501L62.1025 62.9333L39.5977 66.0401ZM58.717 63.3897L64.2113 46.657L68.5497 46.0664L64.4323 58.6115L73.1084 57.4128L77.2241 44.8512L81.5453 44.2597L76.0502 61.0088L58.717 63.3897ZM77.871 60.7556L83.3487 44.0065L87.6863 43.4158L82.1921 60.1641L77.871 60.7556ZM84.028 59.9116L89.5057 43.1624L93.826 42.5379L89.7094 55.0996L102.706 53.3094L101.328 57.4969L84.028 59.9116Z" fill="white"/>
<path id="Fill 69" fill-rule="evenodd" clip-rule="evenodd" d="M136.927 31.9894L141.946 34.8768C142.133 34.9444 142.218 35.0797 142.116 35.3321L140.755 39.4181C140.687 39.7061 140.533 39.7729 140.278 39.9255L135.26 42.812C135.022 42.9135 134.733 42.9135 134.58 42.7782L129.561 39.9082C129.375 39.824 129.324 39.7061 129.375 39.5196L130.719 35.3833C130.769 35.1465 130.957 35.0285 131.195 34.8941L136.263 31.9721C136.502 31.8714 136.774 31.8879 136.927 31.9894ZM112.569 60.085L112.076 61.5534C111.633 62.9715 110.238 63.8839 108.367 64.8961L67.5765 88.2639C65.8243 88.9222 63.9186 89.0748 62.6771 88.466L32.6709 71.1608L112.569 60.085ZM30.8336 28.7648L31.327 27.2964C31.7691 25.8775 33.1642 24.9659 35.0352 23.9529L75.826 0.585112C77.5947 -0.0732045 79.483 -0.224997 80.7246 0.382997L109.949 17.2501L109.761 17.8242L30.8336 28.7648ZM109.456 16.9794L109.949 17.2326L110.391 15.8657C110.544 15.308 110.936 15.0044 111.48 14.6835L123.642 7.72748C124.187 7.47422 124.85 7.52454 125.207 7.7613L137.2 14.6324C137.608 14.8353 137.795 15.1059 137.608 15.7477L134.376 25.5061C134.189 26.148 133.798 26.3509 133.185 26.7386L121.21 33.5594C120.665 33.8126 119.985 33.8126 119.593 33.5429L109.949 28.0214L109.439 29.626C109.286 30.0987 109.439 30.3858 109.847 30.5879L119.373 36.059L102.379 38.4225L109.456 16.9794ZM33.9464 71.8695L26.6489 67.767L28.4011 62.3808C28.5883 61.8405 28.4349 61.621 28.0777 61.4519L24.9989 59.6964C25.0501 59.8317 25.0501 60.0173 24.9651 60.2368L22.3286 68.2223C22.1751 68.7635 21.8691 68.9483 21.3419 69.2519L11.5439 74.8575C11.0679 75.0604 10.5572 75.0604 10.2174 74.8237L0.384691 69.2016C0.0448089 69.016 -0.073985 68.7965 0.0448089 68.408L2.6987 60.3374C2.80099 59.882 3.10705 59.6288 3.56573 59.3755L13.5345 53.6684C13.9759 53.4663 14.5377 53.5167 14.8272 53.7023L21.3931 57.4674L22.8392 52.9763L41.0229 50.461L33.9464 71.8695Z" fill="#E30613"/>
</g>
</svg>
