<svg width="143" height="143" viewBox="0 0 143 143" fill="none" xmlns="http://www.w3.org/2000/svg">
<path fill-rule="evenodd" clip-rule="evenodd" d="M98.1298 35.5703C94.1489 41.5304 83.535 57.4197 78.7416 64.5479L78.7429 64.5466C69.0876 78.9004 65.0119 83.865 50.4922 83.865H33.5875V55.4181H39.5095V77.9259H50.4908C60.7874 77.9259 63.8188 75.79 71.6318 64.461C72.8697 60.4353 72.5378 56.4847 71.5791 53.7206C69.3971 47.4129 64.7643 41.8465 55.4001 40.7627C49.1047 40.033 39.9843 40.0776 31.9218 40.117L31.8387 40.1174C31.4471 40.1192 31.0588 40.1212 30.6743 40.1231L30.6741 40.1231C29.3745 40.1296 28.1192 40.1359 26.9282 40.1359H6.05715L6.0216 84.1758L0.0957031 84.1705L0.140477 34.1968H26.9282C28.4038 34.1968 29.9782 34.1895 31.6126 34.1819L31.8071 34.181C40.0573 34.1388 49.4097 34.0914 56.0796 34.8658C66.6001 36.0799 73.8639 41.9834 77.2048 51.7809C77.5485 52.7922 77.7842 53.9287 77.9159 55.1363C82.2807 48.6168 86.6418 42.0948 90.9989 35.5703H98.1298ZM14.0677 49.1994H50.4751C54.3875 49.1994 63.4896 50.2134 63.4896 59.6237C63.4896 66.8875 57.5242 70.6893 51.6273 70.6893H47.5174V55.6968H41.5915V76.6284H51.6273C60.2501 76.6284 69.4155 70.6683 69.4155 59.6237C69.4155 49.684 61.9805 43.259 50.4751 43.259H8.16021L8.10754 61.3396H30.647V55.4032H14.0492L14.0664 49.1981L14.0677 49.1994ZM8.10919 83.7638L14.0338 83.7743L14.0601 69.2124H30.5249V63.2773H8.14738L8.10919 83.7638ZM125.759 72.4926L105.008 35.07H98.2289L121.959 77.8615H87.3437V83.8006H118.257L122.198 77.8615L125.759 72.4926ZM87.5573 69.8638H107.086L97.0519 51.8899L75.7713 83.8173H68.6471L97.497 40.5293L117.189 75.8029H87.5573V69.8638ZM18.7919 93.3014V102.664H20.6789V98.7559H21.0595C21.4954 98.7559 21.8101 98.7901 22.0103 98.8599C22.2274 98.943 22.4215 99.0766 22.5765 99.2497C22.7556 99.4406 23.0875 99.8976 23.5721 100.627L24.9364 102.664H27.1908L26.0518 100.838C25.6001 100.108 25.2432 99.6026 24.9772 99.3182C24.7112 99.0324 24.3754 98.7717 23.9658 98.5307C24.7862 98.4135 25.4025 98.1238 25.8134 97.6668C26.2256 97.2086 26.4323 96.6291 26.4323 95.9259C26.4323 95.3715 26.2967 94.8817 26.0254 94.4497C25.7555 94.0217 25.392 93.7215 24.939 93.5543C24.4847 93.3844 23.7604 93.3014 22.7622 93.3014H18.7919ZM22.8584 96.5883H21.4625V94.2101H22.9334C23.6998 94.2101 24.1581 94.2206 24.3095 94.2403C24.6164 94.293 24.8547 94.4168 25.0207 94.6091C25.1879 94.8026 25.2735 95.0594 25.2735 95.3728C25.2829 95.6214 25.2158 95.8669 25.0812 96.076C24.9538 96.2634 24.7675 96.4029 24.5518 96.4724C24.328 96.5488 23.7617 96.5883 22.8584 96.5883ZM28.5854 93.3014V102.664H35.6912V101.087H30.4725V98.5386H35.1605V96.961H30.4725V94.883H35.5108V93.3014H28.5854ZM41.2681 97.8025V99.3801H41.2695H43.4291V100.569C43.146 100.792 42.8036 100.98 42.4046 101.134C42.0095 101.291 41.6132 101.366 41.2155 101.366C40.4188 101.366 39.7722 101.089 39.2797 100.532C38.7872 99.9792 38.5422 99.1457 38.5422 98.0329C38.5422 97.0031 38.7845 96.2235 39.2691 95.7021C39.7564 95.178 40.4135 94.9146 41.2379 94.9146C41.7791 94.9146 42.2334 95.0476 42.5982 95.3149C42.9603 95.5809 43.2079 95.9444 43.3409 96.4039L45.2122 96.051C45.0278 95.1911 44.6077 94.5182 43.9532 94.0323C43.3014 93.5437 42.3967 93.3001 41.2379 93.3001C40.3437 93.3001 39.5984 93.4542 39.0005 93.765C38.2364 94.1465 37.6103 94.7569 37.2096 95.5111C36.8013 96.2683 36.5972 97.1335 36.5972 98.1106C36.5896 98.9718 36.7769 99.8236 37.145 100.602C37.4919 101.348 38.0657 101.966 38.7845 102.367C39.5088 102.778 40.3621 102.983 41.3392 102.983C42.1083 102.983 42.8668 102.837 43.6174 102.547C44.368 102.255 44.9396 101.918 45.3346 101.533V97.8025H41.2681ZM47.28 102.665H49.1671V93.3019H47.28V102.665ZM49.9519 99.7783L51.7863 99.6005C51.8956 100.217 52.1195 100.671 52.4579 100.959C52.7977 101.249 53.2507 101.395 53.8248 101.395C54.4306 101.395 54.8915 101.264 55.1983 101.008C55.5051 100.75 55.6592 100.45 55.6592 100.105C55.6654 99.8991 55.5971 99.698 55.4669 99.5386C55.3353 99.3832 55.1088 99.2476 54.7861 99.133C54.2878 98.9801 53.7844 98.844 53.277 98.7248C52.2656 98.4746 51.5559 98.1638 51.1503 97.7977C50.5761 97.2828 50.289 96.656 50.289 95.9146C50.289 95.4379 50.422 94.9914 50.6933 94.5753C50.962 94.1605 51.3517 93.8445 51.8587 93.6272C52.367 93.4099 52.9794 93.3006 53.6971 93.3006C54.8691 93.3006 55.7527 93.56 56.344 94.0736C56.9392 94.5885 57.2487 95.2759 57.279 96.1358L55.3932 96.2188C55.3129 95.7381 55.1377 95.3931 54.8744 95.1824C54.6083 94.9704 54.2093 94.8663 53.6786 94.8663C53.1308 94.8663 52.7002 94.9783 52.3908 95.2061C52.2964 95.27 52.2194 95.3565 52.167 95.4577C52.1146 95.5588 52.0883 95.6716 52.0905 95.7855C52.0905 96.0081 52.184 96.1964 52.3723 96.3557C52.6094 96.5532 53.1888 96.7639 54.1053 96.9799C55.0232 97.1959 55.7014 97.4211 56.1412 97.6541C56.5823 97.8859 56.926 98.202 57.1736 98.6049C57.4212 99.0066 57.5463 99.5057 57.5463 100.097C57.5463 100.636 57.3975 101.137 57.1012 101.605C56.8011 102.077 56.3596 102.442 55.8396 102.649C55.2944 102.877 54.6162 102.991 53.8064 102.991C52.6251 102.991 51.7178 102.717 51.0844 102.171C50.4523 101.623 50.0731 100.825 49.9519 99.7783ZM61.6272 102.665V94.8835H58.8539V93.3019H66.2771V94.8848H63.5117V102.667L61.6272 102.665ZM66.8657 102.665V93.3019H73.7938V94.8835H68.7528V96.9615H73.4422V98.5391H68.7541V101.087H73.9715V102.665H66.8657ZM75.7691 102.665V93.3019H79.7381C80.7363 93.3019 81.4619 93.3849 81.9149 93.5547C82.3666 93.722 82.7313 94.0222 83.0026 94.4502C83.2726 94.8821 83.4082 95.372 83.4082 95.9264C83.4082 96.6296 83.2028 97.209 82.7906 97.6673C82.3797 98.1243 81.7634 98.414 80.943 98.5312C81.3513 98.7722 81.6884 99.0329 81.9544 99.3187C82.2178 99.6031 82.5773 100.109 83.025 100.838L84.1667 102.665H81.9122L80.5467 100.628C80.0647 99.8981 79.7328 99.4411 79.5537 99.2502C79.3982 99.0764 79.203 98.9427 78.9849 98.8604C78.7873 98.7906 78.4713 98.7564 78.0367 98.7564H77.6548V102.665H75.7691ZM77.5495 96.5888H78.944C79.8487 96.5888 80.4137 96.5493 80.6375 96.4729C80.8532 96.4034 81.0395 96.2639 81.1669 96.0765C81.3011 95.8673 81.3678 95.6218 81.3578 95.3733C81.3578 95.0599 81.2736 94.8031 81.1076 94.6096C80.9404 94.4173 80.7034 94.2935 80.3965 94.2408C80.2451 94.2211 79.7855 94.2105 79.0191 94.2105H77.5495V96.5888ZM85.5613 102.665V93.3019H92.4906V94.8835H87.4483V96.9615H92.1377V98.5391H87.4497V101.087H92.6671V102.665H85.5613ZM93.5744 93.3019H97.0206C97.7989 93.3019 98.3902 93.3612 98.801 93.4784C99.3475 93.6403 99.8177 93.9274 100.207 94.3409C100.599 94.7531 100.896 95.2601 101.099 95.8593C101.306 96.4571 101.407 97.1932 101.407 98.0716C101.407 98.842 101.311 99.507 101.12 100.065C100.886 100.747 100.552 101.299 100.119 101.719C99.79 102.038 99.3502 102.29 98.7931 102.466C98.3783 102.6 97.82 102.665 97.1247 102.665H93.5744V93.3019ZM95.3548 94.2105V100.413H96.7625C97.2893 100.413 97.6699 100.385 97.9016 100.325C98.2085 100.248 98.4613 100.118 98.6654 99.935C98.8656 99.7519 99.0302 99.449 99.1579 99.0316C99.2857 98.6102 99.3502 98.0387 99.3502 97.3144C99.3502 96.5901 99.2843 96.037 99.1579 95.6472C99.0302 95.2614 98.8524 94.9572 98.6233 94.7412C98.3782 94.5166 98.0762 94.3636 97.7502 94.2988C97.4868 94.2421 96.9706 94.2105 96.2016 94.2105H95.3548ZM33.0355 115.403V106.039H39.4394V107.622H34.9225V109.84H38.8218V111.423H34.9238V115.403H33.0355ZM48.6403 115.403H46.59L45.7735 113.276H42.0389L41.2672 115.403H39.2669L42.9067 106.039H44.9004L48.6403 115.403ZM44.4869 112.242L43.2003 108.768L41.9388 112.242H44.4869ZM55.3682 112.119L57.1986 112.701C56.9168 113.723 56.4506 114.481 55.7988 114.978C55.1469 115.474 54.3186 115.722 53.3165 115.722C52.076 115.722 51.0568 115.296 50.2574 114.447C49.4594 113.597 49.0604 112.435 49.0604 110.961C49.0604 109.403 49.462 108.194 50.2653 107.332C51.0686 106.469 52.1221 106.039 53.4324 106.039C54.5728 106.039 55.5012 106.376 56.2162 107.053C56.6403 107.454 56.959 108.03 57.1723 108.778L55.3023 109.225C55.1944 108.74 54.9639 108.356 54.6123 108.076C54.2633 107.794 53.8354 107.653 53.3349 107.653C52.6423 107.653 52.0813 107.903 51.6494 108.4C51.2187 108.9 51.0028 109.707 51.0028 110.823C51.0028 112.007 51.2161 112.851 51.6415 113.351C52.0655 113.853 52.6186 114.104 53.2968 114.104C53.7998 114.104 54.2291 113.945 54.5912 113.626C54.9521 113.308 55.2115 112.806 55.3682 112.119ZM58.8539 115.403H60.741V106.039H58.8539V115.403ZM62.4147 115.326V106.039H64.3018V113.749H68.9898V115.326H62.4147ZM69.5363 115.403H71.4234V106.039H69.5363V115.403ZM75.8718 115.403V107.622H73.0985V106.039H80.2213L80.2202 106.037H82.4325L84.6317 109.743L86.7835 106.038H88.9576L85.5219 111.473V115.402H83.6427V111.462L80.5243 106.519V107.622H77.7589V115.403H75.8718Z" fill="white"/>
</svg>
