<svg width="209" height="69" viewBox="0 0 209 69" fill="none" xmlns="http://www.w3.org/2000/svg">
<g id="Group 3">
<g id="Group 96">
<path id="Fill 27" fill-rule="evenodd" clip-rule="evenodd" d="M13.1576 26.6579C18.1176 27.0939 22.1336 28.6619 22.1336 32.8259C22.1336 36.5819 19.2136 39.4619 11.5856 39.4619C8.19765 39.4619 5.68165 39.0259 2.61365 37.9659C1.84965 37.6739 1.44565 37.9299 1.00965 38.6979L0.389648 38.4419L2.79765 32.5699C5.27765 34.4299 7.72565 35.1219 11.4776 35.1219C15.0176 35.1219 16.9136 34.1379 16.9136 32.8979C16.9136 31.5459 14.5776 31.2179 9.18165 30.8179C5.38965 30.5619 1.52165 29.1739 1.52165 25.2699C1.52165 21.2579 5.60565 18.9219 10.7856 18.9219C13.4496 18.9219 16.9896 19.6179 19.5416 20.5299C20.3816 20.7859 20.8936 20.5659 21.2536 19.9459L21.8416 20.2379L19.5056 25.0539C17.3896 24.0299 13.8136 23.2299 11.0416 23.2299C8.96165 23.2299 6.70165 23.6299 6.70165 24.7979C6.70165 25.9659 8.01365 26.2579 13.1576 26.6579Z" fill="#FEFEFE"/>
<path id="Fill 29" fill-rule="evenodd" clip-rule="evenodd" d="M24.6847 38.5509C25.4887 38.5509 25.9287 38.1149 25.9287 37.2749V24.3949C25.9287 23.5549 25.4887 23.0829 24.6487 23.0829V22.4629H32.3087V23.0829C31.5087 23.0829 31.0327 23.5549 31.0327 24.3949V37.2749C31.0327 38.1149 31.5087 38.5509 32.2727 38.5509V39.2069H24.6847V38.5509Z" fill="#FEFEFE"/>
<path id="Fill 31" fill-rule="evenodd" clip-rule="evenodd" d="M55.294 34.3199C55.294 37.6039 52.882 39.2079 48.034 39.2079H36.102V24.3959C36.102 23.5919 35.594 23.0839 34.79 23.0839V22.4639H47.122C52.118 22.4639 54.674 23.9199 54.674 26.5839C54.674 28.2999 53.654 29.6119 52.158 30.2359C54.234 30.8519 55.294 32.2399 55.294 34.3199ZM41.21 29.2119H47.266C49.018 29.2119 49.786 28.6999 49.786 27.4599C49.786 26.1479 48.874 25.6359 46.502 25.6359H41.21V29.2119ZM50.042 33.8799C50.042 32.6039 49.166 31.9839 46.866 31.9839H41.21V35.9959H46.83C48.874 35.9959 50.042 35.3399 50.042 33.8799Z" fill="#FEFEFE"/>
<path id="Fill 33" fill-rule="evenodd" clip-rule="evenodd" d="M76.0519 34.5739V39.2059H58.8319V24.3579C58.8319 23.5579 58.3559 23.0819 57.5159 23.0819V22.4619H75.4319V27.0939H74.7399C74.7399 26.2579 74.2999 25.7819 73.4959 25.7819H63.9719V28.8859H73.2439V32.0939H63.9719V35.8499H74.0799C74.8839 35.8499 75.3559 35.4139 75.3559 34.5739H76.0519Z" fill="#FEFEFE"/>
<path id="Fill 35" fill-rule="evenodd" clip-rule="evenodd" d="M98.4151 38.5159V39.2079H92.3551L88.0511 32.9679H84.8071V39.2079H79.6631V24.3959C79.6631 23.6679 79.1151 23.0839 78.3831 23.0839V22.4639H90.5311C94.5831 22.4639 97.3191 24.5439 97.3191 27.4239C97.3191 29.7239 95.6071 31.5839 93.1951 32.4239L96.8791 37.7479C97.2831 38.3319 97.7591 38.5159 98.4151 38.5159ZM84.8071 29.7239H88.9671C90.9351 29.7239 91.9951 28.9959 91.9951 27.6799C91.9951 26.2599 91.0791 25.6359 89.0751 25.6359H84.8071V29.7239Z" fill="#FEFEFE"/>
<path id="Fill 37" fill-rule="evenodd" clip-rule="evenodd" d="M100.493 38.5509C101.293 38.5509 101.733 38.1149 101.733 37.2749V24.3949C101.733 23.5549 101.293 23.0829 100.457 23.0829V22.4629H108.153V23.0829C107.313 23.0829 106.841 23.5549 106.841 24.3949V37.2749C106.841 38.1149 107.313 38.5509 108.117 38.5509V39.2069H100.493V38.5509Z" fill="#FEFEFE"/>
<path id="Fill 39" fill-rule="evenodd" clip-rule="evenodd" d="M132.415 38.5509V39.2069H126.355L124.791 35.7789H117.239L115.667 39.2069H110.051V38.5509C110.707 38.5509 111.219 38.2949 111.439 37.8229L117.019 25.7109C117.311 25.1989 117.459 24.5789 117.459 24.0669C117.459 23.4469 117.239 23.0829 116.803 23.0829V22.4629H123.951L130.879 37.7469C131.139 38.2589 131.683 38.5509 132.415 38.5509ZM123.587 33.0789L121.067 27.4629L118.479 33.0789H123.587Z" fill="#FEFEFE"/>
<path id="Fill 41" fill-rule="evenodd" clip-rule="evenodd" d="M153.427 22.4629V23.0829C152.627 23.0829 152.115 23.5549 152.115 24.3949V39.2069H148.467L139.015 29.0309V39.2069H134.459V24.3949C134.459 23.5549 133.983 23.0829 133.143 23.0829V22.4629H139.491L147.551 31.1109V22.4629H153.427Z" fill="#FEFEFE"/>
<path id="Fill 43" fill-rule="evenodd" clip-rule="evenodd" d="M36.7239 48.5098V49.1698C35.5559 49.3498 34.7559 49.8978 34.5359 50.6978L29.5759 68.5378H23.6639L18.6319 55.4058L13.8879 68.5378H7.97594L1.95994 50.1538C1.77594 49.5298 1.19194 49.1698 0.387939 49.1698V48.5098H6.95594L11.1879 61.3498L16.0759 48.5098H21.4399L26.3999 61.2418L30.0119 48.5098H36.7239Z" fill="#FEFEFE"/>
<path id="Fill 45" fill-rule="evenodd" clip-rule="evenodd" d="M56.6067 63.9059V68.5379H39.3867V53.6899C39.3867 52.8899 38.9147 52.4139 38.0747 52.4139V51.7939H55.9867V56.4259H55.2947C55.2947 55.5859 54.8587 55.1499 54.0507 55.1499H44.5307V58.2139H53.8347V61.4259H44.5307V65.1819H54.6747C55.4747 65.1819 55.9147 64.7419 55.9147 63.9059H56.6067Z" fill="#FEFEFE"/>
<path id="Fill 47" fill-rule="evenodd" clip-rule="evenodd" d="M61.0206 53.7259C61.0206 52.8899 60.5846 52.4139 59.7446 52.4139V51.7939H66.1646V64.7419H74.5566C75.3966 64.7419 75.8326 64.2699 75.8326 63.4299H76.4886V68.5379H61.0206V53.7259Z" fill="#FEFEFE"/>
<path id="Fill 49" fill-rule="evenodd" clip-rule="evenodd" d="M80.1378 53.7259C80.1378 52.8899 79.7018 52.4139 78.8618 52.4139V51.7939H85.2818V64.7419H93.6738C94.5098 64.7419 94.9858 64.2699 94.9858 63.4299H95.6058V68.5379H80.1378V53.7259Z" fill="#FEFEFE"/>
<path id="Fill 51" fill-rule="evenodd" clip-rule="evenodd" d="M118.513 51.793V52.413C117.713 52.413 117.201 52.889 117.201 53.725V68.541H113.553L104.105 58.361V68.541H99.5447V53.725C99.5447 52.889 99.0727 52.413 98.2327 52.413V51.793H104.613L112.641 60.441V51.793H118.513Z" fill="#FEFEFE"/>
<path id="Fill 53" fill-rule="evenodd" clip-rule="evenodd" d="M139.712 63.9059V68.5379H122.488V53.6899C122.488 52.8899 122.016 52.4139 121.176 52.4139V51.7939H139.092V56.4259H138.396C138.396 55.5859 137.96 55.1499 137.156 55.1499H127.632V58.2139H136.94V61.4259H127.632V65.1819H137.78C138.544 65.1819 139.016 64.7419 139.016 63.9059H139.712Z" fill="#FEFEFE"/>
<path id="Fill 55" fill-rule="evenodd" clip-rule="evenodd" d="M152.552 58.252C156.784 58.8 160.288 59.712 160.288 63.324C160.288 67.188 156.42 68.796 151.896 68.796C148.904 68.796 145.768 68.212 142.592 67.08L143.976 62.556L144.636 62.776C144.488 63.468 144.892 63.94 145.728 64.308C147.48 65.036 149.196 65.364 151.348 65.364C153.172 65.364 155.324 65.072 155.324 63.724C155.324 62.628 154.084 62.264 149.124 61.752C146.02 61.46 142.884 60.332 142.884 57.084C142.884 53.584 146.824 51.54 151.712 51.54C154.268 51.54 156.604 52.048 159.74 53.18L157.732 57.412L157.112 57.12C157.328 56.648 157.22 56.096 156.528 55.768C155.252 55.26 152.88 54.968 151.492 54.968C149.888 54.968 147.808 55.408 147.808 56.648C147.808 57.56 149.268 57.848 151.056 58.068L152.552 58.252Z" fill="#FEFEFE"/>
<path id="Fill 57" fill-rule="evenodd" clip-rule="evenodd" d="M173.017 58.252C177.249 58.8 180.753 59.712 180.753 63.324C180.753 67.188 176.849 68.796 172.361 68.796C169.333 68.796 166.233 68.212 163.061 67.08L164.409 62.556L165.065 62.776C164.953 63.468 165.321 63.94 166.157 64.308C167.945 65.036 169.661 65.364 171.777 65.364C173.601 65.364 175.789 65.072 175.789 63.724C175.789 62.628 174.513 62.264 169.589 61.752C166.485 61.46 163.313 60.332 163.313 57.084C163.313 53.584 167.289 51.54 172.177 51.54C174.733 51.54 177.029 52.048 180.169 53.18L178.197 57.412L177.581 57.12C177.761 56.648 177.649 56.096 176.957 55.768C175.717 55.26 173.345 54.968 171.925 54.968C170.317 54.968 168.273 55.408 168.273 56.648C168.273 57.56 169.737 57.848 171.521 58.068L173.017 58.252Z" fill="#FEFEFE"/>
</g>
<g id="Group 97">
<path id="Fill 59" fill-rule="evenodd" clip-rule="evenodd" d="M190.892 16.5896H208.328L205.924 12.3936H193.336L190.892 16.5896Z" fill="#FEFEFE"/>
<path id="Fill 61" fill-rule="evenodd" clip-rule="evenodd" d="M197.677 18.2676L200.089 22.4636H205.925L208.329 18.2676H197.677Z" fill="#FEFEFE"/>
<path id="Fill 63" fill-rule="evenodd" clip-rule="evenodd" d="M188.013 18.2676H170.573L173.017 22.4636H185.569L188.013 18.2676Z" fill="#FEFEFE"/>
<path id="Fill 65" fill-rule="evenodd" clip-rule="evenodd" d="M178.818 12.3945H173.018L170.57 16.5905H181.226L178.818 12.3945Z" fill="#FEFEFE"/>
<path id="Fill 67" fill-rule="evenodd" clip-rule="evenodd" d="M199.138 10.7164L202.054 5.68038L199.61 1.48438L194.286 10.7164H199.138Z" fill="#FEFEFE"/>
<path id="Fill 69" fill-rule="evenodd" clip-rule="evenodd" d="M189.47 19.1074L180.75 34.1754H185.566L191.878 23.3034L189.47 19.1074Z" fill="#FEFEFE"/>
<path id="Fill 71" fill-rule="evenodd" clip-rule="evenodd" d="M179.767 24.1406L176.883 29.1406L179.291 33.3326L184.619 24.1406H179.767Z" fill="#FEFEFE"/>
<path id="Fill 73" fill-rule="evenodd" clip-rule="evenodd" d="M188.013 16.5894L179.289 1.48535L176.885 5.68135L183.157 16.5894H188.013Z" fill="#FEFEFE"/>
<path id="Fill 75" fill-rule="evenodd" clip-rule="evenodd" d="M190.419 29.1384L193.335 34.1744H198.155L192.827 24.9424L190.419 29.1384Z" fill="#FEFEFE"/>
<path id="Fill 77" fill-rule="evenodd" clip-rule="evenodd" d="M190.892 18.2676L199.612 33.3356L202.056 29.1396L195.744 18.2676H190.892Z" fill="#FEFEFE"/>
<path id="Fill 79" fill-rule="evenodd" clip-rule="evenodd" d="M198.154 0.648438H193.338L189.47 7.36044L185.57 0.648438H180.75L189.47 15.7484L198.154 0.648438Z" fill="#FEFEFE"/>
</g>
</g>
</svg>
