<svg width="43" height="26" viewBox="0 0 43 26" fill="none" xmlns="http://www.w3.org/2000/svg">
<path fill-rule="evenodd" clip-rule="evenodd" d="M38.1617 16.8597C35.843 14.7338 35.843 14.7338 38.1151 11.8284C38.5254 11.3022 38.9985 10.6964 39.5306 9.99658C43.0606 5.3462 43.2075 3.81024 42.8868 2.91914C42.6825 2.36287 42.0876 1.69676 40.4033 1.69676C40.4033 1.69676 40.7419 1.71802 33.5118 1.75168C33.2269 1.75168 32.8076 1.79951 32.4187 2.02627C31.8776 2.3487 31.5748 2.95457 31.4959 3.13173C30.385 6.05837 27.3334 11.4705 26.1311 11.9896C25.6545 11.4457 25.7996 9.25429 25.8999 7.77857C26.0935 4.86787 26.3139 1.5692 23.8142 0.973955C22.051 0.550548 16.8994 0.435396 15.1721 1.27689C14.4679 1.61881 13.5343 2.46562 13.6687 3.27523L13.8748 4.01043L14.5359 4.09547C14.9696 4.14862 15.5179 4.324 15.758 4.64643C16.3654 5.5269 16.4962 11.2721 15.8942 12.0392C14.7743 11.9223 11.7335 6.59339 10.4183 3.30357C10.3717 3.19019 10.1136 2.60557 9.60474 2.23709C9.06719 1.84557 8.4042 1.71979 8.11929 1.68436L2.21152 1.72156C1.91049 1.73042 0.88196 1.80837 0.342609 2.44436C-0.254081 3.14236 0.0899566 4.16456 0.184925 4.40904C0.376655 4.83599 4.91902 14.9198 10.1871 20.3443C14.6883 24.977 19.15 24.8459 22.4596 24.876C24.7137 24.876 25.0004 24.7733 25.2997 24.4526C25.9196 23.7936 25.968 22.8458 26.0092 22.0079C26.072 20.7394 26.1813 20.3178 26.7457 20.1424C27.1829 20.1424 28.2724 21.3896 28.9228 22.1354C29.7274 23.0566 30.5606 24.008 31.4744 24.628C32.7807 25.5156 33.9024 25.6484 34.4543 25.6484C34.4543 25.6484 34.1676 25.6378 40.2796 25.5652C40.4696 25.5545 42.1539 25.4217 42.7829 24.2418C43.0373 23.7599 43.1968 22.9503 42.4872 21.7829C41.5949 20.1743 39.6937 18.2645 38.1617 16.8597Z" fill="white"/>
</svg>
